<?xml version="1.0" encoding="utf-8"?>
<!-- Generator: Adobe Illustrator 22.0.0, SVG Export Plug-In . SVG Version: 6.00 Build 0)  -->
<svg version="1.1" id="Слой_1" xmlns="http://www.w3.org/2000/svg" xmlns:xlink="http://www.w3.org/1999/xlink" x="0px" y="0px"
	 viewBox="0 0 198.4 113.4" style="enable-background:new 0 0 198.4 113.4;" xml:space="preserve">
<style type="text/css">
	.st0{fill:#4F5260;}
</style>
<g>
	<g>
		<g>
			<path class="st0" d="M76.6,38.7c0.3,0,0.6-0.2,0.6-0.9c0-2-2.7-1.3-2.7-4.4c0-1.8,1.3-2.9,3.1-2.9c3.5,0,9.5,7.6,11,7.6
				c0,0,0.3,0,0.3-0.2v-9c0-0.5-0.5-0.8-0.9-0.8c-1.8,0,0,3.8-2.9,3.8c-1.2,0-2.6-1.5-3.4-2.2c-1.2-1-2.6-1.8-4.2-1.8
				c-3.1,0-5,2.5-5,5.5C72.5,37,75,38.7,76.6,38.7z"/>
			<path class="st0" d="M87.6,44H74.4c-1,0-1.4,0.5-1.4,2.6c0,0.8-0.1,2.5,1.1,2.5c1.9,0,0.5-2.7,4.5-2.7h9.1c0.9,0,1.2-0.4,1.2-1.2
				C88.9,44.4,88.6,44,87.6,44z"/>
			<path class="st0" d="M85,64.1c-2.7,0-3.1,2.1-4.8,2.1c-1.2,0-2-1.2-3.8-1.2c-2.7,0-3.9,2.7-3.9,5c0,2.2,1,5,3.9,5
				c1.8,0,2.8-1.2,3.8-1.2c1.8,0,2.1,2.1,4.8,2.1c3.2,0,4.4-2.8,4.4-5.8C89.4,67.3,88.6,64.1,85,64.1z M77,72.4
				c-1.6,0-2.6-1.1-2.6-2.6c0-1.9,1.4-2.6,2.6-2.6c1.5,0,2.7,1,2.7,2.6C79.6,71.4,78.2,72.4,77,72.4z M84.4,72.9
				c-1.9,0-3.1-1.3-3.1-3c0-2.1,1.8-3,3.1-3c1.8,0,3.1,1.2,3.1,3C87.5,72,85.7,72.9,84.4,72.9z"/>
			<path class="st0" d="M87.6,80.3H74.4c-1,0-1.4,0.5-1.4,2.6c0,0.8-0.1,2.5,1.1,2.5c1.9,0,0.5-2.7,4.5-2.7h9.1
				c0.9,0,1.2-0.4,1.2-1.2C88.9,80.6,88.6,80.3,87.6,80.3z"/>
			<path class="st0" d="M122.6,70.3c0-10.3-2.4-12-6.9-14c5.5-1.8,8.5-7.1,8.5-13.2c0-4.7-2.6-15.6-17.3-15.6H96.8h-1.4
				c-2.5,0-4.6,2-4.7,4.5v0.5c0.1,2.5,2.2,4.5,4.7,4.5c-2.5,0,1,0,1,0h8.1c6.8,0,8.1,4.3,8.1,7.3c0,5.4-2.9,7.5-8.9,7.5H77.4H76
				h-0.5c-2.4,0.1-4.3,2.1-4.4,4.5v0.2c0,2.5,2.1,4.6,4.6,4.6c-2.5,0,1.8,0,1.8,0h24.5c8.5,0,9,2.9,9,10.4c0,5.7,0.9,8.5,1.7,11.2
				h12.8v-1.5C123.1,80.3,122.6,78.4,122.6,70.3z"/>
		</g>
		<path class="st0" d="M129.4,95.5H65.7c-4,0-7.2-3.2-7.2-7.2V24.6c0-4,3.2-7.2,7.2-7.2h63.7c4,0,7.2,3.2,7.2,7.2v63.7
			C136.5,92.3,133.3,95.5,129.4,95.5z M65.7,19.2c-3,0-5.4,2.4-5.4,5.4v63.7c0,3,2.4,5.4,5.4,5.4h63.7c3,0,5.4-2.4,5.4-5.4V24.6
			c0-3-2.4-5.4-5.4-5.4H65.7z"/>
	</g>
	<g>
		<g>
			<path class="st0" d="M62,3.5c1,0,1.8,0.1,2.4,0.7c0.7,0.6,0.9,1.4,0.9,2c0,1.3-0.8,2.7-3,2.7h-0.9V13h-1.1V3.5H62z M61.3,7.9h0.9
				c1.3,0,2-0.6,2-1.7c0-1.5-1.4-1.7-2.1-1.7h-0.8V7.9z"/>
			<path class="st0" d="M73.5,4.5h-3.9v2.8h3.8v1h-3.8V12h3.9v1h-4.9V3.5h4.9V4.5z"/>
			<path class="st0" d="M84.5,5.6c-0.3-0.3-0.8-0.7-1.2-0.9c-0.5-0.2-1.1-0.4-1.6-0.4c-2.2,0-3.8,1.8-3.8,4c0,2.6,2.1,3.9,3.8,3.9
				c0.6,0,1.3-0.2,1.8-0.4c0.5-0.3,0.9-0.6,1.1-0.8v1.3c-1.1,0.8-2.2,0.9-2.9,0.9c-2.8,0-4.9-2.1-4.9-4.9c0-2.8,2.1-4.9,5-4.9
				c0.6,0,1.7,0.1,2.8,0.9V5.6z"/>
			<path class="st0" d="M90.9,4.5V13h-1.1V4.5h-2.3v-1h5.7v1H90.9z"/>
			<path class="st0" d="M95.5,8.3c0-2.8,2.2-4.9,4.9-4.9c2.7,0,4.9,2.1,4.9,4.9c0,2.8-2.2,4.9-4.9,4.9C97.7,13.2,95.5,11.1,95.5,8.3
				z M96.6,8.3c0,2.2,1.7,3.9,3.9,3.9c2.1,0,3.9-1.7,3.9-3.9c0-2.2-1.7-3.9-3.9-3.9C98.4,4.4,96.6,6.1,96.6,8.3z"/>
			<path class="st0" d="M110.8,3.5c1,0,1.8,0.1,2.4,0.7c0.7,0.6,0.9,1.4,0.9,2c0,1.3-0.8,2.7-3,2.7h-0.9V13h-1.1V3.5H110.8z
				 M110.1,7.9h0.9c1.3,0,2-0.6,2-1.7c0-1.5-1.4-1.7-2.1-1.7h-0.8V7.9z"/>
			<path class="st0" d="M121.9,10.3h-4l-1.1,2.7h-1.2l4.4-10l4.3,10h-1.2L121.9,10.3z M121.5,9.3l-1.6-3.8l-1.6,3.8H121.5z"/>
			<path class="st0" d="M128.5,7.4h4.9V3.5h1.1V13h-1.1V8.4h-4.9V13h-1.1V3.5h1.1V7.4z"/>
			<path class="st0" d="M60.4,100.4c0.6,0,1.6,0,2.3,0.5c0.6,0.4,1,1.1,1,2.1c0,1.5-1,2.5-2.4,2.6l3,4.2h-1.3l-2.9-4.2h-0.3v4.2
				h-1.1v-9.5H60.4z M59.9,104.8h0.7c1.3,0,2.1-0.6,2.1-1.7c0-0.5-0.2-1.1-0.8-1.4c-0.4-0.2-0.9-0.3-1.4-0.3h-0.6V104.8z"/>
			<path class="st0" d="M71.1,101.4h-3.9v2.8h3.8v1h-3.8v3.7h3.9v1h-4.9v-9.5h4.9V101.4z"/>
			<path class="st0" d="M77.2,102.3c-0.1-0.3-0.3-0.5-0.6-0.7c-0.2-0.1-0.5-0.3-1.1-0.3c-0.9,0-1.6,0.6-1.6,1.5
				c0,0.4,0.1,0.6,0.4,0.8c0.3,0.3,0.6,0.4,1,0.6l0.9,0.4c0.6,0.2,1.1,0.5,1.5,0.9c0.5,0.5,0.7,1,0.7,1.7c0,1.8-1.3,2.9-3,2.9
				c-0.6,0-1.4-0.1-2.1-0.8c-0.5-0.5-0.8-1.1-0.9-1.7l1-0.3c0.1,0.5,0.3,0.9,0.6,1.2c0.4,0.4,0.9,0.5,1.4,0.5c1.3,0,1.9-0.9,1.9-1.9
				c0-0.4-0.1-0.8-0.5-1.1c-0.3-0.3-0.6-0.4-1.1-0.7l-0.9-0.4c-0.4-0.2-0.8-0.4-1.3-0.8c-0.4-0.4-0.7-0.8-0.7-1.6
				c0-1.5,1.1-2.4,2.7-2.4c0.6,0,1.1,0.1,1.5,0.4c0.4,0.3,0.7,0.6,0.9,1.1L77.2,102.3z"/>
			<path class="st0" d="M82.9,101.4v8.5h-1.1v-8.5h-2.3v-1h5.7v1H82.9z"/>
			<path class="st0" d="M91.4,107.2h-4l-1.1,2.7h-1.2l4.4-10l4.3,10h-1.2L91.4,107.2z M91,106.2l-1.6-3.8l-1.6,3.8H91z"/>
			<path class="st0" d="M96,106.2c0,0.8,0,1.7,0.8,2.3c0.4,0.3,1,0.5,1.6,0.5c0.5,0,1.2-0.2,1.6-0.5c0.8-0.6,0.8-1.5,0.8-2.3v-5.8
				h1.1v6.1c0,0.8-0.1,1.6-0.6,2.3c-0.6,0.8-1.6,1.3-2.8,1.3c-1.2,0-2.2-0.5-2.8-1.3c-0.5-0.7-0.6-1.5-0.6-2.3v-6.1H96V106.2z"/>
			<path class="st0" d="M105.9,100.4c0.6,0,1.6,0,2.3,0.5c0.6,0.4,1,1.1,1,2.1c0,1.5-1,2.5-2.4,2.6l3,4.2h-1.3l-2.9-4.2h-0.3v4.2
				h-1.1v-9.5H105.9z M105.4,104.8h0.7c1.3,0,2.1-0.6,2.1-1.7c0-0.5-0.2-1.1-0.8-1.4c-0.4-0.2-0.9-0.3-1.4-0.3h-0.6V104.8z"/>
			<path class="st0" d="M117.3,107.2h-4l-1.1,2.7H111l4.4-10l4.3,10h-1.2L117.3,107.2z M116.9,106.2l-1.6-3.8l-1.6,3.8H116.9z"/>
			<path class="st0" d="M121.2,109.9V100l7.4,7.8v-7.4h1.1v9.9l-7.4-7.8v7.3H121.2z"/>
			<path class="st0" d="M134.6,101.4v8.5h-1.1v-8.5h-2.3v-1h5.7v1H134.6z"/>
		</g>
	</g>
</g>
</svg>
