<?xml version="1.0" encoding="utf-8"?>
<!-- Generator: Adobe Illustrator 22.0.0, SVG Export Plug-In . SVG Version: 6.00 Build 0)  -->
<svg version="1.1" id="Слой_1" xmlns="http://www.w3.org/2000/svg" xmlns:xlink="http://www.w3.org/1999/xlink" x="0px" y="0px"
	 viewBox="0 0 198.4 113.4" style="enable-background:new 0 0 198.4 113.4;" xml:space="preserve">
<style type="text/css">
	.st0{fill:#4F5260;}
	.st1{fill:#FFFFFF;}
</style>
<g>
	<g>
		<path class="st0" d="M132.6,30.4c0,16.2-17,29.4-38,29.4c-21,0-38-13.2-38-29.4c0-16.2,17-29.4,38-29.4
			C115.6,1,132.6,14.1,132.6,30.4z"/>
		<path class="st1" d="M128.4,30.3c0-13.9-15.1-25.1-33.8-25.1c-5.1,0-9.8,0.8-14.1,2.3c-3.6-0.4-7.2,1-7.2,1s2.6,4.2,6.5,5.8
			c2.8,1.1,5.9,0.2,6.4-0.3c0,0-1.1-2.2-4.5-3.7c-1.3-0.6-3.2-1.1-5.2-1.4c1.4,0.1,2.6,0,5.4,0.9c3.9,1.2,4.9,3.6,4.9,3.6
			c0.2-2.2-1.2-3.7-2.7-4.6c3.3-0.9,6.9-1.3,10.6-1.3c17.5,0,31.6,10.3,31.7,23c0,3.9-1.3,7.6-3.7,10.9c0,0-1.6-1.6-3.5-3
			c0.9-5.1-2.9-9.9-7-12.2c1.9-6-3.9-12.1-14.4-12.3c-1.6,0-3.7,0.1-5.1,0.2l0.6-3.7l-0.8,0c-2.9,0-4,1.9-4.3,2.6l-1.1,2.2
			c-6.5,1.8-10.1,4.9-10.4,5.2c-0.8,0.7-0.6,0.9,0.7,0.4c2.4-1,5.2-1.9,8.1-2.6l-8.8,16.2c-4.7-0.5-9.6,0-12.1,3.2
			c-0.9-2.2-1.4-4.5-1.4-6.9c0-7.4,4.7-13.9,12.1-18.2C73.3,11,71.6,12,71,12.4c0,0,0,0,0,0c-6.3,4.6-10.1,10.9-10.1,18
			c0,3.3,0.9,6.4,2.4,9.3c-0.2,1-0.1,2.2,0.8,3.3c1.2,1.5,3.6,2.2,6.3,1.2c3.8-1.3,6.6-5.4,7.6-6.9c-2.7-0.4-3.8,0.5-4.2,1.1
			c-1.1,1.5-2.7,3.1-4.4,3.9c-3.5,1.5-5.7-1.7-3-4.2c1.9-1.7,5.6-2.1,8.9-1.7h0.1c4.2,0.6,7.5,1.8,8.2,2.1c-0.6,3.8-1.1,6.2-1.1,6.2
			l1.2,0c4.1,0,4.4-3,4.4-3c0,0,0.2-1.1,0.2-1.1c3.7,1.8,7.3,3.8,7.5,3.9c1,0.5,2.3,0.5,2.5-0.9l1.6-10.7c4.1-0.2,8.2-1.8,10.3-4.2
			c1.9,1.5,3.6,3.8,4,6.7c-2.3-1-4.9-1.6-7.6-1.2c-6.2,1-8.4,7.3-5,11c2.6,2.7,6.2,3,10.2,1.5c2.1-0.8,4.1-2.3,5.5-4.5
			c-0.3-0.3-0.9-0.8-1.5-1.2c-1.7-1.1-3,0.1-3.4,0.6c-1.1,1.4-2.6,2.4-4.2,2.8c-7.2,1.8-7.9-7.7-0.5-8c2.3-0.1,4.4,0.9,6.2,2.2
			c0,0,0,0,0,0c1.9,1.4,4.4,4,5.7,4.9c2.7,1.9,5.4,1.1,5.4,1.1s-0.5-0.8-1.2-1.7C126.8,39.1,128.4,34.9,128.4,30.3z M84.1,35.6
			c-1.4-0.5-4-1-4.6-1.1l6.9-12.8C85.7,26,84.8,31.3,84.1,35.6z M100.3,30.7l0.6-4.3c-4.8,0-5.5,3.3-5.6,3.8
			c-2.3-1.1-0.3-3.5,2.9-4.1c3.6-0.7,7,0.1,9,1C106.1,29.1,103.6,30.4,100.3,30.7z M108.1,24.4c-1.8-0.5-4.2-0.9-6.8-0.8l0.8-5.8
			c-5.1-0.9-5.4,2.6-5.4,2.6c-0.2,1.2-0.4,2.6-0.6,4.1c-4.7,1.8-5.2,6.1-1.1,7.7c-0.4,2.8-1,7.1-1.1,7.1c-1.3-0.6-4-1.7-5.1-2.1
			l3.2-20.4C105.9,15.4,108.6,21.7,108.1,24.4z M117.8,46L117.8,46c-5.7,4.5-14.1,7.4-23.1,7.4c-9,0-17.2-2.7-22.9-7.1
			c-0.6-0.4-2-1.4-3.8-0.5c6.2,6,15.9,9.8,26.8,9.8c10.9,0,20.6-3.9,26.8-9.9C119.7,44.7,118.2,45.7,117.8,46z"/>
	</g>
	<g>
		<g>
			<path class="st0" d="M108.5,65.2c-2,0-2.7,0.8-3.4,2.5c-1,3-1.9,5.7-2.1,6.3c-0.3-0.7-2.5-5-4.1-8.8h-6c2.8,6,7.1,14.8,7.4,15.5
				c-0.3,0.7-0.7,1.9-2.8,1.9l-2.2-0.1l-0.5,4c1.3,0.4,2.6,0.5,4.1,0.5c2.5,0,4.4-1.1,5.4-3.2l7.6-18.6H108.5z"/>
			<path class="st0" d="M85.7,72.9c0,0-2.7,0-3.2,0v-3.3h6.8c1.6-0.1,2.5-1,2.5-2.5l0,0v-1.9H80.2c-2.4,0-3.5,1.6-3.5,3.3v18.2h9.5
				c5.8,0,7.9-3.7,7.9-6.9C94,76.4,91.4,72.9,85.7,72.9z M84.1,82.3c0,0-1.2,0-1.6,0v-4.9c0.5,0,2.3,0,2.3,0c2,0,3.1,1.1,3.1,2.4
				C87.9,80.8,87.5,82.3,84.1,82.3z"/>
			<path class="st0" d="M139,78.3c0.2-0.7,2.2-5.9,2.6-7c0.5,1.1,2.6,6.3,2.9,7H139z M125.2,75.7c0.7-0.6,1.4-1.7,1.9-2.9
				c0,0,0.8-1.7,0.8-1.7c0.5-1.2,1.6-1.4,2.6-1.4h0.1l0.6-4.4l-0.4-0.1c-0.7-0.1-1.4-0.2-2-0.2c-2.5,0-4.4,1.1-5.4,3.2l-1.3,2.9
				c-0.7,1.5-1.6,2.2-3,2.2c0,0-0.8,0-1.2,0c0-0.6,0-8.2,0-8.2h-2.3c-2.4,0-3.5,1.5-3.5,3.2v18.2h5.8c0,0,0-8.3,0-8.9
				c0.3,0,0.9,0,0.9,0c1.9,0,3.5,1.4,4.7,4.1c0,0,2.2,4.8,2.2,4.8h10.1c0,0,1.4-3.8,1.6-4.1h8.9c0.1,0.3,1.7,4.1,1.7,4.1h6.3
				l-9.5-21.5h-4c-2,0-2.8,0.8-3.5,2.6l0,0l-6.5,16l-1.5-3.1C128,78.2,126.7,76.5,125.2,75.7z"/>
			<path class="st0" d="M71.5,75.2c1.5-0.7,3.2-2.3,3.2-4.8c0-3.7-4.4-5.4-8.7-5.4c-2,0-4.3,0.4-7,1.1l0.5,4.6c0,0,2.8-0.8,4.3-1
				c3.2-0.3,4.5,0.7,4.5,1.8c0,0.5,0,2.1-4.2,2.1h-2v4.4h1.7c3.4,0,4.7,0.5,4.7,2c0,1.4-1.4,2.2-4.3,2.2c-1.6,0-3.2-0.2-4.7-0.5
				c0.1,0.2,0.4,1.5,0.9,2.6c0.4,0.8,1.2,2.3,2.9,2.5c0,0,1.2,0.1,2.2,0.1c5.9-0.2,9.3-2.3,9.3-6.4C74.9,77.7,73.3,76.2,71.5,75.2z"
				/>
			<path class="st0" d="M50.4,65.2h-4c-1.9,0-2.7,0.8-3.4,2.4l-7.7,19.1h6.2c0,0,1.4-3.8,1.6-4.1H52c0.1,0.3,1.7,4.1,1.7,4.1H60
				L50.4,65.2z M44.7,78.3c0.2-0.7,2.2-5.9,2.6-7c0.5,1.1,2.6,6.3,2.9,7H44.7z"/>
		</g>
		<g>
			<path class="st0" d="M101.5,90.6c-2,0-2.7,0.8-3.4,2.5c-1,3-1.9,5.7-2.1,6.3c-0.3-0.7-2.5-5-4.1-8.8h-6c2.8,6,7.1,14.8,7.4,15.5
				c-0.3,0.7-0.7,1.9-2.8,1.9l-2.2,0l-0.5,4c1.3,0.4,2.6,0.5,4.1,0.5c2.5,0,4.4-1.1,5.4-3.2l7.6-18.6H101.5z"/>
			<g>
				<path class="st0" d="M60.1,100.2c1.5-1,2.4-2.5,2.4-4.1c0-2.7-2.3-5.5-7.2-5.5h-5.9c-2.3,0-3.4,1.4-3.5,3.1v18.4h10.5
					c7.1,0,7.7-4.9,7.7-6.4C64.1,103.1,62.6,101.1,60.1,100.2z M51.7,95c0.5,0,2.4,0,2.4,0c1.7,0,2.4,1,2.4,1.9c0,0.9-0.6,2-2.4,2
					c0,0-2,0-2.4,0V95z M54.4,107.7c0,0-2.2,0-2.6,0v-4.3c0.5,0,3.4,0,3.4,0c1.4,0,2.9,0.5,2.9,2.1C58,106.8,57.4,107.7,54.4,107.7z
					"/>
				<path class="st0" d="M135.5,90.6h-4c-1.9,0-2.7,0.8-3.4,2.4l-7.7,19.1h6.2c0,0,1.4-3.8,1.6-4.1h8.9c0.1,0.3,1.7,4.1,1.7,4.1h6.3
					L135.5,90.6z M129.8,103.8c0.3-0.7,2.2-5.9,2.6-7c0.5,1.1,2.6,6.3,2.9,7H129.8z"/>
				<path class="st0" d="M84.3,95.2l0.6-4.4l-0.4-0.1c-0.7-0.1-1.4-0.2-2-0.2c-2.5,0-4.4,1.1-5.4,3.2l-1.3,2.9
					c-0.7,1.5-1.6,2.2-3,2.2c0,0-0.8,0-1.2,0c0-0.5,0-8.2,0-8.2h-2.3c-2.4,0.1-3.5,1.5-3.5,3.3v18.2h5.8c0,0,0-8.3,0-8.9
					c0.3,0,0.9,0,0.9,0c1.9,0,3.5,1.4,4.7,4.1c0,0,2.2,4.8,2.2,4.8h6.5l-2.9-5.9c-1.2-2.6-2.6-4.2-4-5c0.7-0.6,1.4-1.7,1.9-2.9
					c0,0,0.8-1.7,0.8-1.7c0.5-1.2,1.6-1.4,2.6-1.4H84.3z"/>
				<path class="st0" d="M120.1,109.4c0.6-1.5,0.9-3.2,0.9-3.2c-1.6,0.6-3.5,1.4-6.1,1.4c-4.1,0-6.2-2.8-6.2-6.3
					c0-3.4,2.2-6.3,6.1-6.3c2.1,0,4,0.6,6.3,1.9l0.2,0.1v-5.3c-2.5-1-4.5-1.4-6.5-1.4c-3.3,0-6.2,1.1-8.4,3.2
					c-2.1,2.1-3.3,5-3.3,8.1c0,2.5,1,5.1,2.8,7.1c1.5,1.7,4.2,3.7,8.7,3.7c1,0,1.7,0,2.5-0.2C118.7,111.8,119.6,110.7,120.1,109.4z"
					/>
			</g>
		</g>
	</g>
</g>
</svg>
