<?xml version="1.0" encoding="utf-8"?>
<!-- Generator: Adobe Illustrator 22.0.0, SVG Export Plug-In . SVG Version: 6.00 Build 0)  -->
<svg version="1.1" id="Слой_1" xmlns="http://www.w3.org/2000/svg" xmlns:xlink="http://www.w3.org/1999/xlink" x="0px" y="0px"
	 viewBox="0 0 198.4 113.4" style="enable-background:new 0 0 198.4 113.4;" xml:space="preserve">
<style type="text/css">
	.st0{fill:#4F5260;}
</style>
<g>
	<g>
		<g>
			<path class="st0" d="M57.5,62.9l0,2.3l-0.4,2.2l-0.5,2l-0.7,1.9l-1,1.6l-1.5,1.4l-1.5,0.8l-1.7,0.2l-2.1-0.3L46,74l-1.1-1.6
				l-0.8-1.8l-0.3-1.9l0.4-2.2l1-1.9l1.7-1.3l1.9-1l1.9-0.7l2-0.6l1.9-0.9l1.6-0.7l1.3-0.9l0.1,2.5L57.5,62.9z M57.7,76.4l2.2-0.1
				l1.6,0.1l0-1.3l0,0l-0.1-2l0-2.1l0-2l0-2.2l0.1-2.2l0-2.1l-0.1-2l0-1.9l0.1-1.9v-1.2l-0.1-2.2l-0.4-2l-0.7-2.1l-1.1-1.6l-1.4-1.2
				L56,45.6l-1.9-0.5L52.4,45l-1.3-0.2l-2.4,0.2l-1.9,0.6l-2.1,1l-1.5,0.8l0,2l-0.1,2.3l0.2,1.8l-0.2,1.8l0.1,1.6l0.9,0l0.4-1.9
				l0.6-2.1l0.6-2.1l0.8-1.9l1.2-1.6l1.7-0.9l1.8-0.1l2,0.2l1.8,0.9l1.3,1.4l0.7,1.8l0.3,2l0.2,1.4l-0.1,1.9l0.1,1.1l-1.8,1
				l-1.9,0.9l-2.1,0.6L49.7,60l-2,0.6l-1.9,0.7L44,62.1l-1.4,1.2l-1.2,1.4l-0.7,1.7L40.3,68l0.1,1.4l0.1,1.9l0.8,1.9l1.1,1.7
				l1.6,1.2l1.5,0.7l1.7,0.4l1.3,0.2l1.8-0.3l2.1-0.4l1.7-1.1l1.2-1.2l1-1.4l0.9-1.5l0.4-1.5l0,0l0,2.1v2.6L57.7,76.4z"/>
			<path class="st0" d="M82.4,56.1l-0.7-2.4l-0.5-2.1l-0.7-1.8l-0.6-1.7l-1.1-1.3L77,46.4l-1.5-0.2l-1.8,0.2l-1.9,0.8l-1.5,1.2
				L69.5,50l-0.3,1.4l0.7,1.9l1.5,1.7l1.8,1.2l1.8,1l1.9,1l1.9,1.1l1.5,1l1.8,1.2l1.2,1.3l1.1,1.7l0.4,1.6l0.3,1.5l-0.3,2.1
				l-0.7,2.2l-1,1.8l-1.4,1.5l-1.8,1L78,76.9l-1.7,0.3l-1.7,0.1l-2.4-0.3l-2-0.7l-1.9-0.9L67,74.4l0.1-2.4l-0.1-2.3l0.1-1.8
				l-0.1-1.8l0.1-1.7l0.9,0l0.3,1.9l0.5,2.3l0.4,2.1l0.6,1.8l1,1.7l1.5,1.2l1.5,0.5l1.5,0.2l2.1-0.4l1.8-0.8l1.6-1.2l0.8-1.4
				l0.6-1.6l0.2-1.4l-0.6-2l-1.2-1.7l-1.8-1.4l-1.7-1.1l-1.9-1l-1.9-1.1l-1.9-1.2l-1.5-1.1l-1.5-1.4l-1.1-1.3l-0.6-1.6l-0.1-1.7
				l0.3-2.1l1-2l1.2-1.5l1.8-1.1l1.7-0.7l2-0.4l1.6,0.1l2.2,0l2,0.5l1.7,0.5l1.4,0.5l-0.1,2l0.1,2.3l0.1,1.9l0,1.8l0,1.5L82.4,56.1z
				"/>
			<path class="st0" d="M105.7,59.3l0.2-2.5l0.2-2l0.5-2l0.5-1.9l1-2l1.5-1.5l1.4-0.9l1.7-0.2l2.1,0.2l1.6,1.1l1,1.6l0.6,2l0.5,1.8
				l0.2,2l0.1,1.4l-0.1,0.8l-1.9,0.4l-2.2,0.2l-2.1,0.3l-1.9,0.4l-1.9,0.3l-1.8,0.4L105.7,59.3z M122.8,58.5l0-1.8l-0.1-2.4
				l-0.4-2.1l-0.7-1.9l-0.9-1.7l-1.2-1.4l-1.7-1.2l-1.6-0.7l-1.7-0.4l-1.6-0.2l-2.3,0.3l-2.1,0.8l-1.7,1.3l-1.6,1.5l-1.1,1.9
				l-0.9,1.7l-0.7,1.8l-0.6,1.9l-0.3,1.7l-0.2,1.7l0,1.7l0.2,2.1l0.1,2.2l0.4,2.1l0.4,1.7l0.8,2l1.1,1.7l1.2,1.5l1.1,1.2l1.5,0.7
				l1.5,0.6l1.6,0.5l1.5,0.1l2.4-0.4l2.1-0.7l1.9-1l1.4-1.5l0.9-1.3l0.9-1.9l0.5-2.1l0.3-2.1l0.1-1.5l-1.3,0l-0.1,2.1l-0.4,1.8
				l-0.6,1.7l-0.6,1.5l-1.6,1.8l-1.8,1.4l-1.9,0.6l-1.8,0.2l-2-0.3l-1.7-0.9l-1.3-1.5l-0.8-1.7l-0.7-1.9l-0.4-1.7l-0.3-1.9l-0.2-1.6
				l0-1.7l0-1.6l0-0.1l2.1-0.4l2-0.2l1.9-0.4l2.1-0.3l2.1-0.3l2-0.3l1.9-0.2l1.8-0.3L122.8,58.5z"/>
			<path class="st0" d="M128.5,33.3l-2.2,0l-1.3,0l0-1.3l1.8,0l2.3,0l1.8,0l1.6-0.2l0,2l-0.2,2l0.1,2.1l-0.1,2l0.1,2l0.1,2.1l0,2
				l-0.1,2.1l0-5l0.1,2l-0.1,2.1l0.1,2l-0.1,2.1l0.1,2l-0.2,2.1l0.2,2l-0.3,1.8l0.2,2l-0.1,1.8v2l-0.1,1.9l0,1.8l0.2,1.6l0,1.9
				l0,1.9l0,1l2.9,0v1.1l-1.9,0.1l-2.3,0l-1.9,0l-1.8,0l-1.5,0.1v-1.3l2.8,0l0-2l-0.1-2.1l0-2.2l0.2-2l-0.3-2.1l0.2-2l-0.2-2
				l0.2-2.1l0.1-2l-0.1-2.1l0.1-2l-0.2-2.1l-0.1-1.9l0.3-2.1l-0.1-1.9l0,4.9l0-1.9l-0.1-1.8l0-2l0.1-1.9l0-1.7l-0.1-2l0.2-2
				l-0.2-1.9L128.5,33.3z"/>
			<path class="st0" d="M153.4,62.9l-0.1,2.3l-0.3,2.2l-0.4,2.1l-0.8,1.8l-1,1.6l-1.5,1.5l-1.5,0.7l-1.7,0.3l-2.1-0.3l-1.9-1.2
				l-1.3-1.4l-0.6-1.9l-0.2-1.8l0.2-2.2l1.1-1.9l1.6-1.4l2-0.9l1.8-0.8l1.9-0.7l1.9-0.7l1.6-0.8l1.3-0.9l0,2.5L153.4,62.9z
				 M153.5,76.5l2.3,0l1.6,0l0-1.4h-0.2l0-2l0.1-2.1l0-2l0.1-2.2l-0.1-2.2l0.1-2.1l-0.1-2l-0.1-1.9l0.2-1.9l0-1.2l-0.2-2.2l-0.3-2
				l-0.9-2l-1-1.7l-1.5-1.2l-1.7-0.8l-1.9-0.6l-1.7-0.3l-1.3,0l-2.4,0.3l-1.9,0.5l-2.1,0.9l-1.4,0.8l0.1,2l-0.1,2.3l0.1,1.8
				l-0.1,1.8l-0.1,1.7l1,0l0.5-2l0.4-2.1l0.6-2.1l0.7-2l1.3-1.5l1.7-1l1.8-0.2l2,0.2l1.8,1l1.4,1.3l0.7,1.8l0.3,2l0,1.4l0.1,1.9v1.1
				l-1.8,1.1l-1.9,0.9l-2.1,0.6l-2.1,0.5l-2,0.6l-2,0.6l-1.7,0.9l-1.5,1.1l-1,1.5l-0.9,1.7l-0.2,1.6l0,1.4l0.1,1.8l0.8,2l1.1,1.7
				l1.5,1.3l1.6,0.7l1.7,0.4l1.3,0l1.9-0.1l2-0.6l1.8-1l1.2-1.2l1-1.3l0.7-1.6l0.5-1.4l0.1,0l0,2.1l0.1,2.6L153.5,76.5z"/>
			<path class="st0" d="M147,80.2l1.9,1.1l1.7,1l2,0.6l1.8,0.7l1.9,0.8l1.8,0.4l2,0l2,0l1.6,0.1l2.3,0.1l2.1-0.6l2.1-0.5l1.9-0.7
				l1.8-0.9l1.6-1.2l1.6-1.1l1.4-1.3l1.1-1.6l1.1-1.6l0.8-1.8l0.7-1.9l0.7-1.5l0-1.7l0.5-1.6l0.2-1.7l-0.3-1.3l0-2.2l-0.5-2l-0.3-2
				l-0.7-1.8l-1.1-1.6l-1.2-1.5l-1.1-1.5l-1.3-1.4l-1.5-1.3l-1.6-1.2l-1.7-1.1l-1.7-1.2l-1.5-0.9l-1.6-0.6l-1.5-0.8l-1.1-0.6
				l-2.1-1.1l-2.1-0.8l-1.9-1.1l-1.8-1l-1.6-1.1l-1.8-1.3l-1.5-1.5l-1.1-1.6l-1-1.7l-0.4-1.9l-0.5-1.6l0.2-1.4l-0.2-2l0.4-2l1-1.8
				l0.6-1.9l1.1-1.7l1.2-1.6l1.6-1.3l1.8-1.1l1.5-1l1.9-0.3l1.8-0.7l2-0.2l1.7-0.2l1.3,0.2l2.1,0l2,0.1l1.9,0.5l1.9,0.1l1.7,0.8
				l2,0.7l1.6,0.8l1.4,0.5l-0.1,2.2l0.1,2.1l-0.1,2l0,1.8l0.3,2.1l0.1,2l-0.2,2l0.1,1.4l-0.1,1.3l-1.9-0.2l-0.8-1.6l-0.3-2.1
				l-0.7-1.9l-0.6-1.9l-0.4-1.9l0-0.9l-1-2l-0.8-2.1l-1.1-1.6l-1.7-1.2l-2-0.9l-2,0l-1.6-0.2l-2.2,0.3l-2.2,0.1l-1.8,1.1l-1.9,0.8
				l-1.5,1.3l-1.1,1.6l-0.8,1.8l-0.5,1.9l-0.6,1.6l0.3,1.4l0.2,2.1l0.5,1.7l0.7,1.7l1.3,1.3l1.5,1.4l1.7,0.9l1.4,1.1l1.7,0.8l1.7,1
				l1.6,0.6l1.2,0.8l1.9,0.8l2,0.7l1.8,1l1.7,1.1l1.7,1.1l1.6,1.1l1.7,0.9l1.6,1.6l1.9,1.1l1.4,1.6l1.4,1.5l1,1.8l1.2,1.6l0.7,1.9
				l0.5,1.6l0.3,1.6l0.7,1.6l0.2,1.7l0,1.3l-0.3,2l-0.1,2l-0.4,2.3l-0.6,2.2l-0.9,2l-1,2l-1.1,1.9l-1.5,1.6l-1.3,1.4l-1.4,1.2
				l-1.4,1.2l-1.6,0.9l-1.6,1l-1.6,1.1l-1.8,0.7l-2,0.2l-1.8,0.8l-2,0l-1.7,0.5l-1.7,0.1l-1.5-0.2l-2.1,0.1l-2.1-0.1l-2-0.5l-2-0.4
				l-1.9-0.7l-1.9-0.7l-2-0.6l-1.7-1.2l-1.6-1.3l-1.4-1l-1.3-1.1l1.8,0.4L147,80.2z"/>
			<polygon class="st0" points="28.6,87 26.5,86.4 24.4,85.9 22.6,84.8 20.5,84.1 19,82.7 17.4,81.3 16,79.8 14.6,78.2 13.3,76.6 
				11.8,74.9 11.1,73.2 10.3,71.5 9.3,69.9 8.9,68 8.4,66.1 7.8,64.2 7.1,62.4 6.9,60.4 6.2,58.5 6.1,56.8 6,55.1 5.9,53.4 
				5.8,51.6 5.5,49.9 5.8,48.5 5.7,46.3 6,44.2 5.7,42.1 6.4,40 6.7,38 6.8,35.9 7.3,34 8.2,32.1 8.7,30.3 9.3,28.4 10.1,26.7 
				11.3,25.1 12.2,23.5 13.2,22 14.4,20.1 15.8,18.6 17.4,17.2 18.8,16.1 20.3,14.6 21.7,13.6 23.3,12.9 24.9,12.3 26.5,11.6 
				28.1,11.1 29.7,10.7 31.5,10.6 33.2,10.3 34.8,10.5 37.1,10.7 39.2,10.8 41.2,11.4 43.1,12.1 45,12.8 46.6,13.8 48.1,14.7 
				48.4,16.9 47.9,18.9 48.3,20.8 48.2,22.9 48.1,24.8 48.1,27 48.1,29.1 48.1,31.2 48.1,32.7 48.1,34.6 48.2,35.8 45.9,35.9 
				45.5,33.7 45.2,31.7 44.7,29.2 43.9,26.8 43.5,24.4 43,22.2 42.4,20.2 41.5,18.5 41.1,16.7 39.9,15.2 38.7,14.1 37,13.2 
				35.4,12.7 34.2,12.9 32.1,12.7 30.2,13.3 28.2,13.6 26.3,14.6 24.5,15.7 23,17.2 21.4,18.6 20.3,20.1 18.8,21.4 18,23.3 
				17.2,25.1 16.5,27 15.6,28.9 15,30.6 14.6,32.4 14.1,34.3 13.8,36.2 13.7,38.1 13.5,40.1 13.3,42.1 13.2,43.8 12.9,45.5 
				13.1,47.2 13,48.5 12.8,50.4 13,52.4 13.1,54.7 13.4,57 13.8,59.3 13.7,61.6 14.2,63.7 14.9,65.8 15.2,67.4 16,69.4 16.6,71.3 
				17.1,72.8 18.1,74.5 18.9,75.8 19.5,77.5 20.5,78.6 21.5,79.7 22.5,80.6 22.7,81 24.4,82.1 26.2,82.9 28,83.6 29.9,84.5 
				31.9,84.8 33.6,84.9 35.2,85 37.5,85 39.8,84.8 42,84.3 44.1,84 46.1,83.1 48,82.6 49.6,81.7 51.1,80.9 52,80.1 53.8,80.5 
				55.3,80.4 53.8,81.8 52,83 50.1,84 48.1,84.7 46.4,85.9 44.3,86.4 42.2,86.8 40.2,87.3 38.5,87.5 36.8,87.8 35.3,87.9 33.1,87.4 
				31,87.3 29.2,87.1 			"/>
			<polygon class="st0" points="100,72.5 99.3,74.4 98,75.4 96.6,75.4 94.9,74.9 94.1,73.3 93.9,71.5 93.9,69.6 93.8,67.5 
				93.9,65.4 93.8,63.4 93.9,61.3 94,59.3 93.8,57.2 93.8,55.3 93.8,53.2 93.7,51.2 93.8,49.1 93.9,47.2 93.9,45.4 93.8,43.3 
				93.9,48.4 93.8,46.6 93.8,44.6 93.8,43 93.8,41.1 93.9,40.3 96,40.3 98.3,40.3 99.6,40.1 99.6,38.8 97.4,38.9 95.1,38.7 
				93.8,38.9 93.7,36.7 93.7,34.6 93.9,32.6 91.6,32.5 89.9,32.6 90,34.8 90,36.9 89.9,38.8 87.3,38.8 87.4,40.1 89.9,40.3 
				90.1,42.2 89.9,44.3 90,46.2 89.8,48.3 90.1,43.5 90,45.6 90,47.8 89.9,49.8 89.9,52 89.9,54.1 90,56 89.9,58.1 90.1,60.1 
				89.9,61.9 89.9,64.1 89.8,65.7 89.9,67.6 89.9,69.5 89.8,70.4 90.2,72.7 90.9,74.9 92.3,76.3 94.1,77.3 95.6,77.3 97.8,77 
				99.9,75.9 100.9,74 			"/>
		</g>
		<g>
			<path class="st0" d="M62.4,21.6c-0.1,1.4-0.2,2.9-0.3,4.3c-0.2,0-0.3,0-0.5,0c-0.2,0-0.3,0-0.4,0c-0.2,0-0.3,0-0.4,0
				c-0.1,0-0.3,0-0.4,0c0.4-2.2,0.8-4.4,1.1-6.6c0.3-2.2,0.6-4.4,0.9-6.7c0.1,0,0.3,0,0.4,0.1c0.1,0,0.2,0,0.4,0c0.1,0,0.2,0,0.4,0
				c0.1,0,0.3,0,0.4-0.1c0.3,0.8,0.7,1.6,1.1,2.4c0.4,0.8,0.7,1.6,1.1,2.4c0.4,0.8,0.7,1.6,1.1,2.3c0.4,0.8,0.7,1.5,1.1,2.2
				c0.8-1.4,1.5-3,2.2-4.5c0.7-1.6,1.5-3.1,2.1-4.7c0.3,0.1,0.6,0.1,0.8,0.1c0.2,0,0.5,0,0.8-0.1c0.1,1.1,0.3,2.3,0.4,3.6
				c0.1,1.3,0.3,2.5,0.4,3.7c0.1,1.2,0.3,2.4,0.4,3.4c0.1,1.1,0.3,1.9,0.4,2.6c-0.3,0-0.5,0-0.8,0c-0.3,0-0.5,0-0.8,0
				c-0.3,0-0.5,0-0.8,0c-0.3,0-0.5,0-0.8,0c-0.1-1.3-0.2-2.8-0.3-4.3c-0.1-1.5-0.3-3.1-0.4-4.6h0c-0.7,1.5-1.4,3-2.1,4.5
				c-0.7,1.5-1.4,2.9-2.1,4.4c-0.1,0-0.1,0-0.2,0c-0.1,0-0.1,0-0.2,0c-0.1,0-0.1,0-0.2,0c-0.1,0-0.1,0-0.2,0c-0.7-1.4-1.4-2.9-2-4.3
				c-0.7-1.4-1.4-2.9-2.1-4.4h0C62.7,18.7,62.5,20.2,62.4,21.6z"/>
			<path class="st0" d="M81.2,19.3c0.3-0.6,0.6-1.2,1-1.6c0.4-0.4,0.9-0.8,1.5-1c0.6-0.2,1.1-0.3,1.7-0.3c1.5,0,2.6,0.4,3.4,1.3
				c0.8,0.9,1.2,2,1.2,3.5c0,0.8-0.1,1.5-0.3,2.1c-0.2,0.6-0.5,1.2-1,1.6c-0.4,0.4-0.9,0.8-1.5,1c-0.6,0.2-1.2,0.3-1.9,0.3
				c-0.6,0-1.1-0.1-1.7-0.2c-0.5-0.2-1-0.4-1.5-0.8c-0.4-0.4-0.8-0.8-1.1-1.4c-0.3-0.6-0.4-1.3-0.4-2.2
				C80.8,20.7,80.9,19.9,81.2,19.3z M86.8,18.2c-0.3-0.6-0.7-0.9-1.4-0.9c-0.6,0-1,0.3-1.4,1c-0.3,0.7-0.5,1.8-0.5,3.3
				c0,0.5,0,1,0.1,1.5c0.1,0.5,0.2,0.9,0.3,1.2c0.1,0.3,0.3,0.6,0.6,0.8c0.2,0.2,0.5,0.3,0.9,0.3c1.2,0,1.8-1.5,1.8-4.5
				C87.2,19.7,87.1,18.8,86.8,18.2z"/>
			<path class="st0" d="M101.2,24.6c-0.4,0.5-0.8,1-1.2,1.2c-0.5,0.3-1,0.4-1.6,0.4c-0.9,0-1.7-0.3-2.2-0.8
				c-0.5-0.5-0.8-1.4-0.8-2.7c0-0.7,0-1.2,0-1.7c0-0.5,0-1,0-1.5c0-0.4,0-0.9,0-1.3c0-0.5,0-1-0.1-1.5c0.2,0,0.4,0,0.6,0.1
				c0.3,0,0.5,0,0.8,0c0.3,0,0.5,0,0.8,0c0.3,0,0.5,0,0.6-0.1c-0.1,0.7-0.1,1.5-0.2,2.4c0,0.9,0,2,0,3.1c0,0.8,0.1,1.4,0.4,1.8
				c0.3,0.4,0.6,0.6,1.1,0.6c0.6,0,1-0.3,1.2-0.8c0.3-0.5,0.4-1.2,0.4-2.1v-0.8c0-0.8,0-1.5,0-2.2c0-0.7-0.1-1.4-0.1-2.1
				c0.4,0.1,0.8,0.1,1.4,0.1c0.3,0,0.6,0,0.8,0c0.2,0,0.4,0,0.6-0.1c-0.1,0.7-0.1,1.4-0.1,2.1c0,0.7,0,1.4,0,2.2v0.8
				c0,0.8,0,1.5,0,2.2c0,0.7,0.1,1.4,0.1,2c-0.2,0-0.4,0-0.7,0c-0.2,0-0.4,0-0.7,0c-0.2,0-0.4,0-0.7,0c-0.2,0-0.5,0-0.7,0
				L101.2,24.6L101.2,24.6z"/>
			<path class="st0" d="M109.9,14.6c0-1.1-0.1-2.1-0.1-3.2c0.2,0,0.4,0,0.6,0.1c0.3,0,0.5,0,0.8,0c0.3,0,0.5,0,0.8,0
				c0.3,0,0.5,0,0.6-0.1c-0.1,1.1-0.1,2.2-0.1,3.2c0,1.1,0,2.2,0,3.5v1.3c0,1.3,0,2.4,0,3.5c0,1.1,0.1,2.1,0.1,3.2
				c-0.2,0-0.4,0-0.6,0c-0.3,0-0.5,0-0.8,0c-0.3,0-0.5,0-0.8,0c-0.3,0-0.5,0-0.6,0c0-1,0.1-2.1,0.1-3.2c0-1.1,0-2.2,0-3.5v-1.3
				C110,16.8,110,15.6,109.9,14.6z"/>
			<path class="st0" d="M119.2,11.9c0.3-0.3,0.6-0.4,1.1-0.4c0.4,0,0.8,0.1,1.1,0.4c0.3,0.3,0.4,0.7,0.4,1.1s-0.1,0.8-0.4,1.1
				c-0.3,0.3-0.6,0.4-1.1,0.4c-0.4,0-0.8-0.1-1.1-0.4c-0.3-0.3-0.4-0.7-0.4-1.1S118.9,12.2,119.2,11.9z M118.9,18.7
				c0-0.7-0.1-1.4-0.1-2.1c0.2,0,0.4,0,0.6,0.1c0.2,0,0.5,0,0.8,0c0.6,0,1.1,0,1.4-0.1c-0.1,0.7-0.1,1.4-0.1,2.1c0,0.7,0,1.4,0,2.2
				v0.8c0,0.8,0,1.5,0,2.2c0,0.7,0.1,1.4,0.1,2c-0.2,0-0.4,0-0.6,0c-0.2,0-0.5,0-0.8,0c-0.3,0-0.6,0-0.8,0c-0.2,0-0.4,0-0.6,0
				c0.1-0.6,0.1-1.3,0.1-2c0-0.7,0-1.4,0-2.2v-0.8C119,20.2,119,19.4,118.9,18.7z"/>
			<path class="st0" d="M130.3,18.1c0.4-0.5,0.8-1,1.2-1.3c0.5-0.3,1-0.4,1.6-0.4c0.9,0,1.7,0.3,2.2,0.8c0.5,0.6,0.8,1.5,0.8,2.7
				c0,0.7,0,1.2,0,1.7c0,0.5,0,1,0,1.5c0,0.4,0,0.9,0,1.3c0,0.5,0,1,0.1,1.4c-0.2,0-0.4,0-0.6,0c-0.3,0-0.5,0-0.8,0
				c-0.3,0-0.5,0-0.8,0c-0.3,0-0.5,0-0.6,0c0.1-0.7,0.1-1.5,0.2-2.4c0-0.9,0-1.9,0-3.1c0-0.8-0.1-1.4-0.4-1.8
				c-0.3-0.4-0.6-0.6-1.1-0.6c-0.6,0-1,0.3-1.2,0.8c-0.3,0.5-0.4,1.2-0.4,2.1v0.8c0,0.8,0,1.5,0,2.2c0,0.7,0.1,1.4,0.1,2
				c-0.2,0-0.4,0-0.6,0c-0.2,0-0.5,0-0.8,0c-0.3,0-0.6,0-0.8,0c-0.2,0-0.4,0-0.6,0c0.1-0.6,0.1-1.3,0.1-2c0-0.7,0-1.4,0-2.2v-0.8
				c0-0.8,0-1.5,0-2.2c0-0.7-0.1-1.4-0.1-2.1c0.2,0,0.4,0,0.7,0.1c0.2,0,0.4,0,0.7,0s0.4,0,0.7,0c0.2,0,0.5,0,0.7-0.1L130.3,18.1
				L130.3,18.1z"/>
		</g>
	</g>
	<g>
		<path class="st0" d="M78.9,95.1c0.1-0.2,0.3-0.6,0.5-0.8c0.2-0.3,0.4-0.4,0.7-0.6h2.6c-1,0.8-1.6,1.3-2.5,2.3
			c-1.3,1.4-2.8,3.3-3.1,3.9c0.2-1.1,0.4-1.7,0.7-2.7c0.3-0.7,0.7-1.4,0.7-1.5l-2,0.3c-0.3,0.7-1.3,2.8-2.6,4.2
			c-2.4,2.6-4.7,3.8-8.2,4.1c-1.2,0.1-4.8-0.4-5-2.8c-0.1-1.2,0.8-2.1,1.9-2.1c1,0.1,1.5,0.7,1.3,1.8c-0.1,0.6-0.7,1-1.3,1
			c0,0.2,0.1,0.4,0.2,0.6c0.2,0.4,0.9,1.2,2.8,1.1c4.4-0.1,7.5-7.9,7.5-8h-1.3l0.2-0.4h1.3c0.1-0.1-0.2,0.1,1.2-1.9
			c2.6-3.4,7-4.4,7.4-4.5c-0.1,0-0.8-0.2-7.1-0.2c-5.1,0.1-10.7,0.2-12.4,4.6c-0.6,1.6,1,3.5,4.1,3.5c1.8,0,4.9-1.2,5.2-3.3
			c0.2-1,0.1-1.7-0.3-2.6l0.2-0.1c0.1,0.3,0.6,1.2,0.4,2.7c-0.2,2.7-4.1,5.1-6.9,4.6c-2.6-0.5-4-2.6-3.2-4.9
			c2.3-5.9,11.4-6.6,12.3-6.7c4.8-0.5,11.7,0.1,12.4,0.1c0.8-0.1,1.7,0.4,1.7,1.2c0,0.6-1.1,1.2-2,1.3c-1.3,0.2-3.8-0.1-4.1-0.1
			c-0.6,0.4-2.3,0.7-4.7,4.5c-1.2,1.9-1.1,1.6-1.2,1.9L78.9,95.1z"/>
		<path class="st0" d="M83.3,95.3h2.4l-2.6,4.3c0.2-0.2,1.3-1.5,2.3-2.3c1.1-1,1.8-1.5,3-2.3h1.8c-0.2,0.2-0.6,0.8-0.9,1.4
			c-0.3,0.9-0.5,2,0.3,2.5c1,0.6,2.6-1.3,2.6-1.5l0.2,0.2c-0.3,0.5-1.3,1.4-2.5,1.7c-1,0.2-1.9,0.3-2.6-0.4
			c-0.6-0.7-0.6-2.2-0.5-2.4C86.1,97,85.6,97.4,85,98c-1,1-1.7,1.5-2.4,2.8l-1.8,3.4h-2.3L83.3,95.3z"/>
		<path class="st0" d="M90.3,101.4c0.2-2.8,4.2-7.4,7.8-6.2c0.6,0.2,0.9,0.8,1.1,1.1l0.7-1h2.2l-3.9,6.1c-0.2,0.3-0.8,1.7-0.2,2.1
			c0.6,0.3,1.7-0.5,2.5-1.1c2-1.6,4.4-4.8,4.5-5.1l0.3,0.1c-0.2,0.3-2.4,2.9-3.5,4.1c-1.2,1.3-3.2,2.9-4.4,2.7
			c-1.9-0.3-1.5-1.5-1.6-2.2c-0.1,0.4-2.4,2.3-3.8,2.2C90.9,104.1,90.2,102.7,90.3,101.4z M97.7,99.1c0.6-1.3,1.4-3.3,0.2-3.8
			c-1.2-0.4-3,1.6-4.4,3.4c-1.2,1.6-1.6,4.4,0.2,4.6C94.6,103.4,96.7,101.2,97.7,99.1z"/>
		<path class="st0" d="M107.3,95h2.2l-2.7,4.5c0-0.1,1.4-1.6,2.2-2.4c1.1-1.1,3-2.3,4.4-2.1c1.2,0.2,1.3,1.6,0.7,2.9
			c-0.3,0.7-1.1,1.4-2.8,4.2c-0.2,0.4-0.3,1.1,0.2,1.3c0.5,0.2,1-0.1,1.4-0.4c1.5-0.9,5.1-5.4,5.2-5.6l0.2,0.2
			c-0.1,0.1-3.1,3.8-4.9,5.3c-1,0.8-1.9,1.3-2.8,1.2c-1-0.1-1.5-0.9-1.4-2c0.2-1.9,2.2-3.2,3.3-5.8c0.1-0.4-0.5-0.9-0.9-0.7
			c-2.1,0.8-4.4,3.8-4.7,4.3l-2.5,4.2h-2.3L107.3,95z"/>
		<path class="st0" d="M115.9,102.2c-0.8-5.2,5.5-7,6.2-7.1c1.6-0.2,3.6,0.4,3.4,1.8c-0.2,1.1-1.6,1.9-2.6,1.5
			c0.4-0.4,0.4-1,0.6-1.6c0.2-0.9-0.2-1.5-0.9-1.5c-2,0.1-4.2,3.3-4.2,5.2c-0.1,1,0.1,1.9,0.9,2.6c0.9,0.6,3.3,0.5,6.4-2.8
			c1-1,1.7-1.6,2.4-2.8h0.3c-0.2,0.3-1.9,2.5-3.5,3.9c-1.9,1.6-3.4,2.6-5.6,2.8C117.8,104.3,116.1,103.5,115.9,102.2z"/>
		<path class="st0" d="M125.7,101.5c-0.1-2.2,3.2-6.7,6.8-6.5c2.2,0.1,2.6,0.8,2.4,1.8c-0.2,1.3-2.6,2.1-4.2,2.6
			c-1.1,0.3-2.5,0.8-2.7,0.9c-0.2,0.6-0.1,1.1,0.1,1.7c0.7,1.9,2.1,1.6,3.4,1.1c2.6-0.8,6.2-5.3,6.2-5.6h0.3c-1.1,2-2.2,3-4.1,4.5
			c-1.7,1.4-3.6,2.2-5.2,2.2C127.8,104.2,125.8,103.9,125.7,101.5z M131.2,98.7c1.2-0.7,2.4-2.7,1.9-3.1c-0.9-0.8-2.3,0.2-3,1
			c-0.9,1.1-1.9,3.1-1.9,3.2C128.5,99.9,130.2,99.4,131.2,98.7z"/>
	</g>
</g>
</svg>
