<?xml version="1.0" encoding="utf-8"?>
<!-- Generator: Adobe Illustrator 22.0.0, SVG Export Plug-In . SVG Version: 6.00 Build 0)  -->
<svg version="1.1" id="Слой_1" xmlns="http://www.w3.org/2000/svg" xmlns:xlink="http://www.w3.org/1999/xlink" x="0px" y="0px"
	 viewBox="0 0 198.4 113.4" style="enable-background:new 0 0 198.4 113.4;" xml:space="preserve">
<style type="text/css">
	.st0{fill:#4F5260;}
	.st1{fill-rule:evenodd;clip-rule:evenodd;fill:#4F5260;}
</style>
<g>
	<path class="st0" d="M12.4,102.3h-1.9c-0.4-0.6-0.8-1.1-1.1-1.5c-0.3-0.4-0.7-0.8-1.1-1.3H7.6v1.9c0,0.1,0,0.2,0.1,0.3
		c0,0.1,0.1,0.1,0.2,0.2c0.1,0,0.2,0,0.3,0.1c0.1,0,0.3,0,0.4,0v0.3h-3V102c0.1,0,0.2,0,0.3,0c0.1,0,0.3,0,0.3-0.1
		c0.1,0,0.2-0.1,0.2-0.2c0-0.1,0.1-0.2,0.1-0.3v-4.4c0-0.1,0-0.2-0.1-0.3c0-0.1-0.1-0.1-0.2-0.2c-0.1,0-0.2,0-0.3-0.1
		c-0.1,0-0.2,0-0.3,0v-0.3h3.2c0.3,0,0.6,0,0.8,0.1c0.3,0.1,0.5,0.1,0.7,0.3c0.2,0.1,0.4,0.3,0.5,0.4c0.1,0.2,0.2,0.4,0.2,0.7
		c0,0.2,0,0.4-0.1,0.6c-0.1,0.2-0.2,0.3-0.4,0.5c-0.1,0.1-0.3,0.2-0.5,0.3c-0.2,0.1-0.4,0.2-0.7,0.2c0.3,0.4,0.6,0.7,0.9,1
		c0.2,0.3,0.5,0.6,0.8,1c0.1,0.2,0.3,0.3,0.4,0.4c0.1,0.1,0.2,0.1,0.3,0.2c0.1,0,0.2,0.1,0.3,0.1c0.1,0,0.2,0,0.3,0V102.3
		L12.4,102.3z M9.9,97.8c0-0.4-0.1-0.7-0.4-0.9c-0.2-0.2-0.6-0.3-1-0.3H7.6v2.6h0.6c0.5,0,0.8-0.1,1.1-0.4
		C9.7,98.6,9.9,98.3,9.9,97.8L9.9,97.8z M21.9,101.3c-0.2,0.3-0.5,0.6-0.8,0.8s-0.7,0.3-1.2,0.3c-0.4,0-0.7-0.1-1-0.2
		c-0.3-0.1-0.5-0.3-0.7-0.5c-0.2-0.2-0.3-0.4-0.4-0.7c-0.1-0.3-0.1-0.6-0.1-0.9c0-0.3,0-0.5,0.1-0.8c0.1-0.3,0.2-0.5,0.4-0.7
		c0.2-0.2,0.4-0.4,0.7-0.5c0.3-0.1,0.6-0.2,0.9-0.2c0.4,0,0.7,0,0.9,0.1c0.3,0.1,0.5,0.2,0.6,0.4c0.2,0.2,0.3,0.3,0.3,0.6
		c0.1,0.2,0.1,0.4,0.1,0.7v0.3h-3.2c0,0.3,0,0.5,0.1,0.7c0.1,0.2,0.2,0.4,0.3,0.6c0.1,0.2,0.3,0.3,0.5,0.4c0.2,0.1,0.5,0.1,0.7,0.1
		c0.3,0,0.5-0.1,0.8-0.2c0.2-0.1,0.4-0.3,0.6-0.6L21.9,101.3L21.9,101.3z M20.8,99.7c0-0.2,0-0.3,0-0.5c0-0.2-0.1-0.3-0.1-0.5
		c-0.1-0.1-0.2-0.2-0.3-0.3c-0.1-0.1-0.3-0.1-0.5-0.1c-0.3,0-0.6,0.1-0.9,0.4c-0.2,0.2-0.4,0.6-0.4,1H20.8L20.8,99.7z M30.6,100.3
		c0.1,0.1,0.2,0.2,0.3,0.4c0.1,0.1,0.1,0.3,0.1,0.5c0,0.4-0.2,0.7-0.5,1c-0.3,0.2-0.8,0.4-1.3,0.4c-0.3,0-0.5,0-0.8-0.1
		c-0.2-0.1-0.4-0.2-0.5-0.2l-0.1,0.3h-0.4l0-1.5h0.3c0,0.1,0.1,0.2,0.2,0.4c0.1,0.1,0.2,0.3,0.3,0.4c0.1,0.1,0.3,0.2,0.5,0.3
		c0.2,0.1,0.4,0.1,0.6,0.1c0.3,0,0.6-0.1,0.7-0.2c0.2-0.1,0.3-0.3,0.3-0.5c0-0.1,0-0.2-0.1-0.3c-0.1-0.1-0.1-0.2-0.2-0.2
		c-0.1-0.1-0.2-0.1-0.4-0.2c-0.2-0.1-0.3-0.1-0.5-0.2c-0.2,0-0.3-0.1-0.5-0.2c-0.2-0.1-0.4-0.2-0.5-0.2c-0.1-0.1-0.3-0.2-0.4-0.4
		c-0.1-0.1-0.1-0.3-0.1-0.5c0-0.3,0.1-0.6,0.4-0.9c0.3-0.2,0.7-0.4,1.2-0.4c0.2,0,0.4,0,0.6,0.1c0.2,0,0.4,0.1,0.5,0.2l0.1-0.2h0.4
		l0.1,1.3h-0.3c-0.1-0.3-0.2-0.5-0.4-0.7c-0.2-0.2-0.5-0.3-0.8-0.3c-0.3,0-0.5,0.1-0.6,0.2c-0.2,0.1-0.2,0.3-0.2,0.4
		c0,0.1,0,0.2,0.1,0.3c0.1,0.1,0.1,0.2,0.2,0.2c0.1,0.1,0.2,0.1,0.4,0.2c0.1,0,0.3,0.1,0.6,0.2c0.2,0.1,0.4,0.1,0.6,0.2
		C30.3,100.1,30.5,100.2,30.6,100.3L30.6,100.3z M39.7,102.1c-0.2,0.1-0.4,0.1-0.6,0.2c-0.2,0.1-0.4,0.1-0.7,0.1
		c-0.4,0-0.7-0.1-0.9-0.3c-0.2-0.2-0.2-0.4-0.2-0.7v-2.8h-0.9v-0.4h0.9v-1.3h0.9v1.3h1.4v0.4h-1.4v2.3c0,0.2,0,0.3,0,0.4
		c0,0.1,0,0.2,0.1,0.3c0.1,0.1,0.1,0.1,0.2,0.2c0.1,0,0.2,0.1,0.4,0.1c0.1,0,0.2,0,0.4,0c0.2,0,0.3,0,0.3,0V102.1L39.7,102.1z
		 M49.8,102.3c-0.2,0-0.3,0.1-0.4,0.1c-0.1,0-0.2,0-0.4,0c-0.3,0-0.5-0.1-0.6-0.2c-0.2-0.1-0.3-0.3-0.3-0.5h0
		c-0.2,0.2-0.4,0.4-0.7,0.5c-0.2,0.1-0.5,0.2-0.9,0.2c-0.4,0-0.7-0.1-0.9-0.3c-0.2-0.2-0.4-0.4-0.4-0.8c0-0.2,0-0.3,0.1-0.4
		c0.1-0.1,0.1-0.2,0.2-0.3c0.1-0.1,0.2-0.2,0.3-0.2c0.1-0.1,0.3-0.1,0.4-0.2c0.1,0,0.4-0.1,0.9-0.3c0.5-0.1,0.8-0.2,0.9-0.3v-0.4
		c0,0,0-0.1,0-0.2c0-0.1-0.1-0.2-0.1-0.3c-0.1-0.1-0.2-0.2-0.3-0.3c-0.1-0.1-0.3-0.1-0.5-0.1c-0.2,0-0.3,0-0.4,0.1
		c-0.1,0-0.2,0.1-0.3,0.1c0,0.1,0,0.1,0,0.3c0,0.1,0,0.2,0,0.3c0,0.1-0.1,0.2-0.2,0.3c-0.1,0.1-0.2,0.1-0.4,0.1
		c-0.2,0-0.3-0.1-0.4-0.2c-0.1-0.1-0.1-0.2-0.1-0.3c0-0.1,0.1-0.3,0.2-0.4c0.1-0.1,0.2-0.2,0.4-0.3c0.1-0.1,0.3-0.1,0.5-0.2
		C46.8,98,47,98,47.2,98c0.3,0,0.5,0,0.7,0c0.2,0,0.4,0.1,0.6,0.2c0.2,0.1,0.3,0.2,0.4,0.4c0.1,0.2,0.1,0.4,0.1,0.7
		c0,0.4,0,0.8,0,1.1c0,0.3,0,0.7,0,1c0,0.1,0,0.2,0.1,0.3c0,0.1,0.1,0.1,0.2,0.2c0,0,0.1,0,0.2,0c0.1,0,0.2,0,0.3,0V102.3
		L49.8,102.3z M48.1,100c-0.3,0.1-0.5,0.1-0.7,0.2c-0.2,0.1-0.4,0.2-0.6,0.3c-0.2,0.1-0.3,0.2-0.4,0.3c-0.1,0.1-0.1,0.3-0.1,0.5
		c0,0.2,0.1,0.4,0.2,0.5c0.1,0.1,0.3,0.2,0.5,0.2c0.2,0,0.4,0,0.6-0.1c0.2-0.1,0.3-0.2,0.4-0.3L48.1,100L48.1,100z M60.5,102.3
		l-1.6,0.1l-0.1-0.1v-0.5h0c-0.1,0.1-0.2,0.1-0.3,0.2c-0.1,0.1-0.2,0.2-0.3,0.2c-0.1,0.1-0.3,0.1-0.4,0.2c-0.1,0-0.3,0.1-0.6,0.1
		c-0.4,0-0.8-0.1-1-0.4c-0.2-0.2-0.3-0.6-0.3-1.1v-2c0-0.1,0-0.2-0.1-0.3c0-0.1-0.1-0.1-0.2-0.2c-0.1,0-0.1-0.1-0.2-0.1
		c-0.1,0-0.2,0-0.3,0v-0.3l1.6-0.1l0.1,0.1v2.9c0,0.3,0.1,0.5,0.2,0.7c0.2,0.2,0.3,0.2,0.6,0.2c0.2,0,0.3,0,0.5-0.1
		c0.1,0,0.3-0.1,0.4-0.2c0.1-0.1,0.2-0.1,0.2-0.2c0.1-0.1,0.1-0.1,0.2-0.2V99c0-0.1,0-0.2-0.1-0.2c0-0.1-0.1-0.1-0.2-0.2
		c-0.1,0-0.1-0.1-0.3-0.1c-0.1,0-0.2,0-0.4,0v-0.3l1.8-0.1l0.1,0.1v3.3c0,0.1,0,0.2,0.1,0.2c0,0.1,0.1,0.1,0.2,0.2
		c0.1,0,0.1,0.1,0.2,0.1c0.1,0,0.2,0,0.3,0V102.3L60.5,102.3z M69.7,98.7c0,0.1,0,0.3-0.1,0.4c-0.1,0.1-0.2,0.2-0.4,0.2
		c-0.2,0-0.3,0-0.4-0.1c-0.1-0.1-0.1-0.2-0.1-0.3c0-0.1,0-0.1,0-0.2c0-0.1,0-0.1,0-0.2c-0.2,0-0.3,0.1-0.5,0.2
		c-0.2,0.1-0.4,0.3-0.5,0.5v2.4c0,0.1,0,0.2,0.1,0.2c0,0.1,0.1,0.1,0.2,0.1c0.1,0,0.2,0,0.3,0.1c0.1,0,0.2,0,0.3,0v0.3H66V102
		c0.1,0,0.2,0,0.2,0c0.1,0,0.1,0,0.2,0c0.1,0,0.2-0.1,0.2-0.1c0-0.1,0.1-0.1,0.1-0.2V99c0-0.1,0-0.2-0.1-0.3c0-0.1-0.1-0.2-0.2-0.2
		c-0.1,0-0.1-0.1-0.2-0.1c-0.1,0-0.2,0-0.3,0v-0.3l1.6-0.1l0.1,0.1v0.6h0c0.2-0.2,0.4-0.4,0.7-0.5c0.2-0.1,0.5-0.2,0.7-0.2
		c0.2,0,0.4,0.1,0.5,0.2C69.7,98.3,69.7,98.5,69.7,98.7L69.7,98.7z M79.7,102.3c-0.2,0-0.3,0.1-0.4,0.1c-0.1,0-0.2,0-0.4,0
		c-0.3,0-0.5-0.1-0.6-0.2c-0.2-0.1-0.3-0.3-0.3-0.5h0c-0.2,0.2-0.4,0.4-0.7,0.5c-0.2,0.1-0.5,0.2-0.9,0.2c-0.4,0-0.7-0.1-0.9-0.3
		c-0.2-0.2-0.4-0.4-0.4-0.8c0-0.2,0-0.3,0.1-0.4c0.1-0.1,0.1-0.2,0.2-0.3c0.1-0.1,0.2-0.2,0.3-0.2c0.1-0.1,0.3-0.1,0.4-0.2
		c0.1,0,0.4-0.1,0.9-0.3c0.5-0.1,0.8-0.2,0.9-0.3v-0.4c0,0,0-0.1,0-0.2c0-0.1-0.1-0.2-0.1-0.3c-0.1-0.1-0.2-0.2-0.3-0.3
		c-0.1-0.1-0.3-0.1-0.5-0.1c-0.2,0-0.3,0-0.4,0.1c-0.1,0-0.2,0.1-0.3,0.1c0,0.1,0,0.1,0,0.3c0,0.1,0,0.2,0,0.3
		c0,0.1-0.1,0.2-0.2,0.3c-0.1,0.1-0.2,0.1-0.4,0.1c-0.2,0-0.3-0.1-0.4-0.2c-0.1-0.1-0.1-0.2-0.1-0.3c0-0.1,0.1-0.3,0.2-0.4
		c0.1-0.1,0.2-0.2,0.4-0.3c0.1-0.1,0.3-0.1,0.5-0.2c0.2-0.1,0.4-0.1,0.6-0.1c0.3,0,0.5,0,0.7,0c0.2,0,0.4,0.1,0.6,0.2
		c0.2,0.1,0.3,0.2,0.4,0.4c0.1,0.2,0.1,0.4,0.1,0.7c0,0.4,0,0.8,0,1.1c0,0.3,0,0.7,0,1c0,0.1,0,0.2,0.1,0.3c0,0.1,0.1,0.1,0.2,0.2
		c0,0,0.1,0,0.2,0c0.1,0,0.2,0,0.3,0V102.3L79.7,102.3z M78,100c-0.3,0.1-0.5,0.1-0.7,0.2c-0.2,0.1-0.4,0.2-0.6,0.3
		c-0.2,0.1-0.3,0.2-0.4,0.3c-0.1,0.1-0.1,0.3-0.1,0.5c0,0.2,0.1,0.4,0.2,0.5c0.1,0.1,0.3,0.2,0.5,0.2c0.2,0,0.4,0,0.6-0.1
		c0.2-0.1,0.3-0.2,0.4-0.3L78,100L78,100z M90.5,102.3h-2.4V102c0.1,0,0.2,0,0.2,0c0.1,0,0.2,0,0.2,0c0.1,0,0.2-0.1,0.2-0.1
		c0-0.1,0.1-0.1,0.1-0.2v-2.2c0-0.3-0.1-0.5-0.2-0.7c-0.2-0.2-0.4-0.2-0.6-0.2c-0.2,0-0.3,0-0.5,0.1c-0.1,0-0.3,0.1-0.4,0.2
		c-0.1,0.1-0.2,0.1-0.3,0.2c-0.1,0.1-0.1,0.1-0.1,0.2v2.4c0,0.1,0,0.2,0.1,0.2c0,0.1,0.1,0.1,0.2,0.1c0.1,0,0.1,0,0.2,0.1
		c0.1,0,0.2,0,0.2,0v0.3h-2.4V102c0.1,0,0.2,0,0.2,0c0.1,0,0.2,0,0.2,0c0.1,0,0.2-0.1,0.2-0.1c0-0.1,0.1-0.1,0.1-0.2V99
		c0-0.1,0-0.2-0.1-0.3c0-0.1-0.1-0.1-0.2-0.2c-0.1,0-0.1-0.1-0.2-0.1c-0.1,0-0.2,0-0.3,0v-0.3l1.6-0.1l0.1,0.1v0.6h0
		c0.1-0.1,0.2-0.1,0.3-0.2c0.1-0.1,0.2-0.2,0.3-0.2c0.1-0.1,0.3-0.1,0.4-0.2c0.2,0,0.4-0.1,0.6-0.1c0.5,0,0.8,0.1,1,0.4
		c0.2,0.3,0.3,0.6,0.3,1v2.2c0,0.1,0,0.2,0.1,0.2c0,0.1,0.1,0.1,0.2,0.1c0.1,0,0.1,0,0.2,0.1c0.1,0,0.1,0,0.2,0V102.3L90.5,102.3z
		 M99.1,102.1c-0.2,0.1-0.4,0.1-0.6,0.2c-0.2,0.1-0.4,0.1-0.7,0.1c-0.4,0-0.7-0.1-0.9-0.3c-0.2-0.2-0.2-0.4-0.2-0.7v-2.8h-0.9v-0.4
		h0.9v-1.3h0.9v1.3H99v0.4h-1.4v2.3c0,0.2,0,0.3,0,0.4c0,0.1,0,0.2,0.1,0.3c0.1,0.1,0.1,0.1,0.2,0.2c0.1,0,0.2,0.1,0.4,0.1
		c0.1,0,0.2,0,0.4,0c0.2,0,0.3,0,0.3,0V102.1L99.1,102.1z"/>
	<path class="st0" d="M171.7,99.5c0.2,0.1,0.4,0.3,0.5,0.5c0.1,0.2,0.2,0.4,0.2,0.7c0,0.3-0.1,0.5-0.2,0.7c-0.1,0.2-0.3,0.4-0.6,0.5
		c-0.2,0.1-0.5,0.2-0.7,0.3c-0.3,0.1-0.6,0.1-0.9,0.1h-3.3V102c0.1,0,0.2,0,0.3,0c0.2,0,0.3,0,0.3-0.1c0.1,0,0.2-0.1,0.2-0.2
		c0-0.1,0.1-0.2,0.1-0.3v-4.3c0-0.1,0-0.2-0.1-0.3c0-0.1-0.1-0.1-0.2-0.2c-0.1,0-0.2-0.1-0.3-0.1c-0.1,0-0.2,0-0.3,0v-0.3h3.2
		c0.2,0,0.5,0,0.7,0.1c0.2,0,0.4,0.1,0.7,0.2c0.2,0.1,0.4,0.2,0.5,0.4c0.1,0.2,0.2,0.4,0.2,0.6c0,0.2,0,0.4-0.1,0.6
		c-0.1,0.2-0.2,0.3-0.4,0.4c-0.2,0.1-0.3,0.2-0.5,0.3c-0.2,0.1-0.4,0.1-0.6,0.2v0c0.2,0,0.4,0.1,0.7,0.1
		C171.3,99.3,171.5,99.4,171.7,99.5L171.7,99.5z M170.5,98.6c0.1-0.1,0.2-0.3,0.3-0.4c0-0.1,0.1-0.3,0.1-0.5c0-0.3-0.1-0.6-0.3-0.8
		c-0.2-0.2-0.5-0.3-1-0.3c-0.1,0-0.2,0-0.4,0c-0.2,0-0.3,0-0.4,0V99h0.6c0.3,0,0.5,0,0.7-0.1C170.3,98.8,170.4,98.7,170.5,98.6
		L170.5,98.6z M171.2,100.5c0-0.4-0.1-0.7-0.4-0.9c-0.3-0.2-0.7-0.3-1.2-0.3c-0.2,0-0.4,0-0.5,0c-0.1,0-0.3,0-0.3,0v2.1
		c0,0.2,0.1,0.3,0.3,0.4c0.2,0.1,0.4,0.1,0.7,0.1c0.5,0,0.9-0.1,1.1-0.4C171.1,101.4,171.2,101,171.2,100.5L171.2,100.5z
		 M182.8,102.3c-0.2,0-0.3,0.1-0.4,0.1c-0.1,0-0.2,0-0.4,0c-0.3,0-0.5-0.1-0.6-0.2c-0.2-0.1-0.3-0.3-0.3-0.5h0
		c-0.2,0.2-0.4,0.4-0.7,0.5c-0.2,0.1-0.5,0.2-0.9,0.2c-0.4,0-0.7-0.1-0.9-0.3c-0.2-0.2-0.4-0.4-0.4-0.8c0-0.2,0-0.3,0.1-0.4
		c0.1-0.1,0.1-0.2,0.2-0.3c0.1-0.1,0.2-0.2,0.3-0.2c0.1-0.1,0.3-0.1,0.4-0.2c0.1,0,0.4-0.1,0.9-0.3c0.5-0.1,0.8-0.2,0.9-0.3v-0.4
		c0,0,0-0.1,0-0.2c0-0.1-0.1-0.2-0.1-0.3c-0.1-0.1-0.2-0.2-0.3-0.3c-0.1-0.1-0.3-0.1-0.5-0.1c-0.2,0-0.3,0-0.4,0.1
		c-0.1,0-0.2,0.1-0.3,0.1c0,0.1,0,0.1,0,0.3c0,0.1,0,0.2,0,0.3c0,0.1-0.1,0.2-0.2,0.3c-0.1,0.1-0.2,0.1-0.4,0.1
		c-0.2,0-0.3-0.1-0.4-0.2c-0.1-0.1-0.1-0.2-0.1-0.3c0-0.1,0.1-0.3,0.2-0.4c0.1-0.1,0.2-0.2,0.4-0.3c0.1-0.1,0.3-0.1,0.5-0.2
		c0.2-0.1,0.4-0.1,0.6-0.1c0.3,0,0.5,0,0.7,0c0.2,0,0.4,0.1,0.6,0.2c0.2,0.1,0.3,0.2,0.4,0.4c0.1,0.2,0.1,0.4,0.1,0.7
		c0,0.4,0,0.8,0,1.1c0,0.3,0,0.7,0,1c0,0.1,0,0.2,0.1,0.3c0,0.1,0.1,0.1,0.2,0.2c0,0,0.1,0,0.2,0c0.1,0,0.2,0,0.3,0V102.3
		L182.8,102.3z M181.1,100c-0.3,0.1-0.5,0.1-0.7,0.2c-0.2,0.1-0.4,0.2-0.6,0.3c-0.2,0.1-0.3,0.2-0.4,0.3c-0.1,0.1-0.1,0.3-0.1,0.5
		c0,0.2,0.1,0.4,0.2,0.5c0.1,0.1,0.3,0.2,0.5,0.2c0.2,0,0.4,0,0.6-0.1c0.2-0.1,0.3-0.2,0.4-0.3L181.1,100L181.1,100z M192,98.7
		c0,0.1,0,0.3-0.1,0.4c-0.1,0.1-0.2,0.2-0.4,0.2c-0.2,0-0.3,0-0.4-0.1c-0.1-0.1-0.1-0.2-0.1-0.3c0-0.1,0-0.1,0-0.2
		c0-0.1,0-0.1,0-0.2c-0.2,0-0.3,0.1-0.5,0.2c-0.2,0.1-0.4,0.3-0.5,0.5v2.4c0,0.1,0,0.2,0.1,0.2c0,0.1,0.1,0.1,0.2,0.1
		c0.1,0,0.2,0,0.3,0.1c0.1,0,0.2,0,0.3,0v0.3h-2.6V102c0.1,0,0.2,0,0.2,0c0.1,0,0.2,0,0.2,0c0.1,0,0.2-0.1,0.2-0.1
		c0-0.1,0.1-0.1,0.1-0.2V99c0-0.1,0-0.2-0.1-0.3c0-0.1-0.1-0.2-0.2-0.2c-0.1,0-0.1-0.1-0.2-0.1c-0.1,0-0.2,0-0.3,0v-0.3l1.6-0.1
		l0.1,0.1v0.6h0c0.2-0.2,0.4-0.4,0.7-0.5c0.2-0.1,0.5-0.2,0.7-0.2c0.2,0,0.4,0.1,0.5,0.2C191.9,98.3,192,98.5,192,98.7L192,98.7z"/>
	<path class="st0" d="M24.1,66v-7.2c0-0.4-0.1-0.8-0.2-1.1c-0.1-0.3-0.4-0.6-0.9-0.8c-0.3-0.1-0.7-0.3-1.2-0.4
		c-0.5-0.1-0.9-0.2-1.2-0.3v-1.4h13.1v1.4c-0.4,0-0.8,0.1-1.2,0.2c-0.5,0.1-0.9,0.2-1.2,0.3c-0.4,0.2-0.7,0.4-0.9,0.8
		c-0.2,0.3-0.2,0.7-0.2,1.1v18.5c0,0.4,0.1,0.8,0.2,1.1c0.1,0.3,0.4,0.6,0.9,0.8c0.3,0.1,0.7,0.2,1.2,0.3c0.5,0.1,0.9,0.2,1.3,0.2
		V81H20.4v-1.4c0.3,0,0.8-0.1,1.3-0.1c0.6-0.1,1-0.2,1.2-0.3c0.4-0.2,0.7-0.4,0.9-0.7c0.2-0.3,0.2-0.7,0.2-1.1v-9.5
		c-0.5,0.4-1.1,0.7-1.7,1.1c-3,1.8-8.9,2.3-11.6-0.4c-1.2-1.2-1.8-3-1.8-5.5v-4.2c0-0.4-0.1-0.8-0.2-1.1c-0.1-0.3-0.4-0.6-0.9-0.8
		c-0.3-0.2-0.7-0.3-1.2-0.4c-0.5-0.1-0.9-0.2-1.2-0.2v-1.4h13v1.4c-0.4,0-0.8,0.1-1.3,0.2c-0.5,0.1-0.8,0.2-1.1,0.3
		c-0.4,0.2-0.7,0.4-0.9,0.8c-0.1,0.3-0.2,0.7-0.2,1.1v2.6c0,2,0.3,3.5,0.9,4.4c0.6,0.9,1.6,1.7,3.1,1.7c1,0,1.9-0.1,2.7-0.4
		C22.7,66.7,23.4,66.4,24.1,66L24.1,66z M132.9,66.4l7.1-6.9c1.5-1.5,2.2-3.1-0.8-3.2v-1.4h10v1.4c-0.4,0-0.8,0.1-1.3,0.2
		c-0.5,0.1-0.8,0.3-1.1,0.4c-0.5,0.3-0.8,0.7-1.2,1.1l-7.6,7.8l0.5,0.3c3.4,2.2,6.2,8.2,8.5,12.4c0.8,0.9,3.5,1,4,1.1V81h-1.4h-8.8
		h-2.5v-1.4c0.6,0,1.9,0,1.9-1.1c-1.9-4.6-3-6.4-5.1-8.2c-0.4-0.4-1-0.7-1.6-0.9c-0.6-0.2-1.3-0.3-2.2-0.3v8.1
		c0,0.4,0.1,0.8,0.2,1.1c0.2,0.3,0.5,0.6,0.8,0.8c0.2,0.1,0.6,0.2,1.1,0.3c0.5,0.1,1,0.2,1.3,0.2V81h-13.1v-1.4
		c0.3,0,0.7-0.1,1.3-0.1c0.6-0.1,1-0.1,1.2-0.2c0.4-0.2,0.7-0.4,0.9-0.7c0.2-0.3,0.2-0.7,0.2-1.1V58.8c0-0.4-0.1-0.8-0.2-1.1
		c-0.1-0.3-0.4-0.6-0.9-0.8c-0.3-0.2-0.8-0.3-1.3-0.4c-0.5-0.1-0.9-0.2-1.2-0.2v-1.4h13.1v1.4c-0.4,0-0.8,0.1-1.3,0.2
		c-0.5,0.1-0.9,0.2-1.1,0.3c-0.4,0.2-0.7,0.4-0.9,0.8c-0.1,0.4-0.2,0.7-0.2,1.1v7.8h1.1C132.6,66.4,132.7,66.4,132.9,66.4
		L132.9,66.4z M77,81H63.7v-1.4c0.6,0,1.3-0.2,2.2-0.4c0.8-0.2,1.3-0.4,1.3-0.7c0-0.1,0-0.2,0-0.3c0-0.1-0.1-0.3-0.1-0.5l-2.1-5.4
		h-8.4c-0.2,0.5-0.4,1.1-0.6,1.8c-0.2,0.7-0.4,1.3-0.6,1.8c-0.2,0.7-0.3,1.2-0.4,1.5c0,0.3-0.1,0.5-0.1,0.6c0,0.4,0.3,0.7,0.8,1
		c0.6,0.3,1.5,0.5,2.8,0.6V81h-10v-1.4c0.4,0,0.8-0.1,1.3-0.2c0.5-0.1,0.8-0.3,1.1-0.4c0.5-0.3,0.9-0.7,1.2-1.1
		c0.3-0.4,0.6-0.9,0.8-1.5c1.3-3.4,2.7-6.9,4-10.4c1.3-3.5,2.8-7.3,4.4-11.4h3.4c2.2,5.9,4,10.6,5.3,14c1.3,3.4,2.3,6.3,3.2,8.5
		c0.2,0.4,0.3,0.7,0.6,1c0.2,0.3,0.6,0.6,1,0.9c0.3,0.2,0.7,0.3,1.1,0.4c0.4,0.1,0.8,0.2,1.1,0.2V81L77,81z M64.2,70.4L60.7,61
		l-3.5,9.5H64.2L64.2,70.4z M101.2,76.6c0,0.8,0.1,1.4,0.2,1.7c0.2,0.3,0.4,0.5,0.9,0.7c0.2,0.1,0.6,0.2,1.1,0.3
		c0.5,0.1,0.9,0.2,1.3,0.2V81h-13v-1.4c0.3,0,0.7-0.1,1.3-0.1c0.6-0.1,1-0.1,1.2-0.2c0.4-0.2,0.7-0.4,0.9-0.7
		c0.2-0.3,0.2-0.7,0.2-1.1V58.8c0-0.4-0.1-0.8-0.2-1.1c-0.1-0.3-0.4-0.6-0.9-0.8c-0.3-0.2-0.8-0.3-1.3-0.4c-0.5-0.1-0.9-0.2-1.2-0.2
		v-1.4h13v1.4c-0.4,0-0.8,0.1-1.3,0.2c-0.5,0.1-0.9,0.2-1.1,0.3c-0.4,0.2-0.7,0.4-0.9,0.8c-0.1,0.4-0.2,0.7-0.2,1.1v14.9L101.2,76.6
		L101.2,76.6z M192,81h-13.3v-1.4c0.6,0,1.3-0.2,2.2-0.4c0.8-0.2,1.3-0.4,1.3-0.7c0-0.1,0-0.2,0-0.3c0-0.1-0.1-0.3-0.1-0.5l-2.1-5.4
		h-8.4c-0.2,0.5-0.4,1.1-0.6,1.8c-0.2,0.7-0.4,1.3-0.6,1.8c-0.2,0.7-0.3,1.2-0.4,1.5c0,0.3-0.1,0.5-0.1,0.6c0,0.4,0.3,0.7,0.8,1
		c0.6,0.3,1.5,0.5,2.8,0.6V81h-10v-1.4c0.4,0,0.8-0.1,1.3-0.2c0.5-0.1,0.8-0.3,1.1-0.4c0.5-0.3,0.9-0.7,1.2-1.1
		c0.3-0.4,0.6-0.9,0.8-1.5c1.3-3.5,2.6-6.9,4-10.4c1.3-3.5,2.8-7.3,4.4-11.4h3.4c2.2,5.9,4,10.6,5.3,14c1.3,3.4,2.3,6.3,3.2,8.5
		c0.1,0.4,0.3,0.7,0.6,1c0.2,0.3,0.6,0.6,1,0.9c0.3,0.2,0.7,0.3,1.1,0.4c0.4,0.1,0.8,0.2,1.1,0.2V81L192,81z M179.2,70.4l-3.5-9.5
		l-3.5,9.5H179.2L179.2,70.4z"/>
	<path class="st1" d="M10.4,34.1c16.1-0.7,80.4-3.8,88.2,8.9C109.4,29.2,140,31.3,185,32c-68.8-9.8-83.5,0-85.8,3.5
		C95,27.8,36.7,28.3,10.4,34.1L10.4,34.1z"/>
	<path class="st1" d="M47.4,25.5c12.7-0.1,49-3.5,50.9,4c5.9-7.5,14.8-8.2,45.3-6.8c-41.3-4.7-43-0.5-44.7,2.9
		C97.6,24.1,94.4,16.4,47.4,25.5L47.4,25.5z"/>
	<path class="st1" d="M71.3,16.8c6.1-0.1,25.1-3.4,26.7,1.7c1-1.3,0.8-4.8,13-3.1c-12.4-3.2-12.3-0.9-13.1,0.7
		C97.2,15.4,97.3,11.4,71.3,16.8L71.3,16.8z"/>
</g>
</svg>
