<?xml version="1.0" encoding="utf-8"?>
<!-- Generator: Adobe Illustrator 22.0.0, SVG Export Plug-In . SVG Version: 6.00 Build 0)  -->
<svg version="1.1" id="Слой_1" xmlns="http://www.w3.org/2000/svg" xmlns:xlink="http://www.w3.org/1999/xlink" x="0px" y="0px"
	 viewBox="0 0 198.4 113.4" style="enable-background:new 0 0 198.4 113.4;" xml:space="preserve">
<style type="text/css">
	.st0{fill:#4F5260;}
</style>
<g>
	<g>
		<path class="st0" d="M98.5,101.9c-51.9,0-94.2-20.1-94.2-44.8c0-24.7,42.2-44.8,94.2-44.8c51.9,0,94.2,20.1,94.2,44.8
			C192.7,81.9,150.4,101.9,98.5,101.9z M98.5,13.8c-51.1,0-92.7,19.4-92.7,43.3s41.6,43.3,92.7,43.3c51.1,0,92.7-19.4,92.7-43.3
			S149.6,13.8,98.5,13.8z"/>
	</g>
	<g>
		<path class="st0" d="M98.5,97.2c-48.9,0-88.6-18-88.6-40s39.7-40,88.6-40s88.6,18,88.6,40S147.3,97.2,98.5,97.2z M98.5,18.1
			c-48.3,0-87.6,17.5-87.6,39.1c0,21.5,39.3,39.1,87.6,39.1c48.3,0,87.6-17.5,87.6-39.1C186.1,35.6,146.8,18.1,98.5,18.1z"/>
	</g>
	<g>
		<path class="st0" d="M33.6,43.9l0.3,4.4h-0.3c-0.4-1.3-1-2.3-1.7-2.8c-0.7-0.6-1.6-0.9-2.6-0.9c-0.9,0-1.6,0.2-2.3,0.7
			c-0.7,0.4-1.2,1.1-1.6,2.1c-0.4,0.9-0.6,2.1-0.6,3.5c0,1.2,0.2,2.2,0.6,3c0.4,0.9,0.9,1.5,1.7,2c0.7,0.5,1.6,0.7,2.6,0.7
			c0.8,0,1.6-0.2,2.2-0.5c0.6-0.4,1.3-1.1,2.1-2.1l0.3,0.2c-0.6,1.1-1.4,2-2.3,2.5c-0.9,0.5-1.9,0.8-3.1,0.8c-2.1,0-3.8-0.8-5-2.4
			c-0.9-1.2-1.3-2.6-1.3-4.2c0-1.3,0.3-2.5,0.9-3.5c0.6-1.1,1.4-1.9,2.4-2.5c1-0.6,2.1-0.9,3.3-0.9c0.9,0,1.8,0.2,2.8,0.7
			c0.3,0.1,0.5,0.2,0.6,0.2c0.2,0,0.3-0.1,0.4-0.2c0.2-0.2,0.3-0.4,0.4-0.7H33.6z"/>
		<path class="st0" d="M38.8,50.1h6v-3.7c0-0.7,0-1.1-0.1-1.3c-0.1-0.2-0.2-0.3-0.4-0.4c-0.3-0.2-0.6-0.2-0.9-0.2H43v-0.4h5.5v0.4
			H48c-0.3,0-0.6,0.1-0.9,0.2c-0.2,0.1-0.3,0.3-0.4,0.5c-0.1,0.2-0.1,0.6-0.1,1.3v8.3c0,0.7,0,1.1,0.1,1.3c0.1,0.2,0.2,0.3,0.4,0.4
			c0.3,0.2,0.6,0.2,0.9,0.2h0.5V57H43v-0.4h0.5c0.5,0,0.9-0.2,1.1-0.5c0.2-0.2,0.2-0.7,0.2-1.5v-3.9h-6v3.9c0,0.7,0,1.1,0.1,1.3
			c0.1,0.2,0.2,0.3,0.4,0.4c0.3,0.2,0.6,0.2,0.9,0.2h0.5V57h-5.5v-0.4h0.5c0.5,0,0.9-0.2,1.2-0.5C37,56,37,55.5,37,54.8v-8.3
			c0-0.7,0-1.1-0.1-1.3c-0.1-0.2-0.2-0.3-0.4-0.4c-0.3-0.2-0.6-0.2-0.9-0.2h-0.5v-0.4h5.5v0.4h-0.5c-0.3,0-0.6,0.1-0.9,0.2
			C39.2,44.8,39,45,39,45.2c-0.1,0.2-0.1,0.6-0.1,1.3V50.1z"/>
		<path class="st0" d="M52.9,44.9V50h2.8c0.7,0,1.2-0.1,1.5-0.3c0.3-0.3,0.5-0.8,0.6-1.5h0.4v4.5h-0.4c-0.1-0.6-0.2-1-0.3-1.2
			c-0.1-0.2-0.3-0.4-0.6-0.5c-0.3-0.1-0.7-0.2-1.2-0.2h-2.8v4.2c0,0.6,0,0.9,0.1,1c0.1,0.1,0.1,0.2,0.3,0.3c0.1,0.1,0.4,0.1,0.7,0.1
			h2.2c0.7,0,1.3-0.1,1.6-0.2c0.3-0.1,0.6-0.3,0.9-0.6c0.4-0.4,0.8-1,1.2-1.8h0.4L59.2,57h-9.9v-0.4h0.5c0.3,0,0.6-0.1,0.9-0.2
			c0.2-0.1,0.3-0.3,0.4-0.5c0.1-0.2,0.1-0.6,0.1-1.2v-8.4c0-0.8-0.1-1.3-0.2-1.5c-0.2-0.3-0.6-0.4-1.1-0.4h-0.5v-0.4h9.9l0.1,2.8H59
			c-0.1-0.7-0.3-1.1-0.4-1.4c-0.2-0.3-0.4-0.4-0.7-0.6c-0.3-0.1-0.7-0.1-1.3-0.1H52.9z"/>
		<path class="st0" d="M69.7,43.9v4.4h-0.4c-0.1-0.9-0.3-1.5-0.6-2c-0.3-0.5-0.7-0.9-1.3-1.2c-0.5-0.3-1.1-0.4-1.7-0.4
			c-0.7,0-1.2,0.2-1.6,0.6c-0.4,0.4-0.6,0.9-0.6,1.4c0,0.4,0.1,0.7,0.4,1.1c0.4,0.5,1.3,1.1,2.8,1.9c1.2,0.6,2,1.1,2.5,1.5
			c0.4,0.3,0.8,0.8,1,1.2c0.2,0.5,0.4,1,0.4,1.5c0,1-0.4,1.8-1.1,2.5c-0.8,0.7-1.7,1.1-2.9,1.1c-0.4,0-0.7,0-1.1-0.1
			c-0.2,0-0.6-0.1-1.2-0.3c-0.6-0.2-1-0.3-1.2-0.3c-0.2,0-0.3,0-0.4,0.1c-0.1,0.1-0.2,0.3-0.2,0.6h-0.4v-4.4h0.4
			c0.2,0.9,0.4,1.6,0.7,2.1c0.3,0.5,0.7,0.8,1.3,1.1c0.6,0.3,1.2,0.5,1.9,0.5c0.8,0,1.4-0.2,1.9-0.6c0.5-0.4,0.7-0.9,0.7-1.5
			c0-0.3-0.1-0.6-0.3-1c-0.2-0.3-0.4-0.6-0.8-0.9c-0.2-0.2-0.9-0.6-2-1.2c-1.1-0.6-1.9-1.1-2.3-1.5c-0.5-0.4-0.8-0.8-1.1-1.2
			c-0.2-0.4-0.4-0.9-0.4-1.5c0-0.9,0.4-1.7,1.1-2.4c0.7-0.7,1.6-1,2.7-1c0.7,0,1.4,0.2,2.2,0.5c0.4,0.2,0.6,0.2,0.7,0.2
			c0.2,0,0.3,0,0.4-0.1c0.1-0.1,0.2-0.3,0.3-0.6H69.7z"/>
		<path class="st0" d="M82.8,44.2l0.1,3h-0.4c-0.1-0.5-0.2-0.9-0.3-1.1c-0.2-0.4-0.5-0.6-0.8-0.8c-0.3-0.2-0.8-0.3-1.3-0.3h-1.8v9.8
			c0,0.8,0.1,1.3,0.3,1.5c0.2,0.3,0.6,0.4,1.1,0.4h0.4V57h-5.5v-0.4h0.5c0.5,0,0.9-0.2,1.2-0.5c0.1-0.2,0.2-0.7,0.2-1.4V45h-1.5
			c-0.6,0-1,0-1.3,0.1c-0.3,0.1-0.6,0.4-0.8,0.7c-0.2,0.3-0.4,0.8-0.4,1.4h-0.4l0.2-3H82.8z"/>
		<path class="st0" d="M87.5,44.9V50h2.8c0.7,0,1.2-0.1,1.5-0.3c0.3-0.3,0.5-0.8,0.6-1.5h0.4v4.5h-0.4c-0.1-0.6-0.2-1-0.3-1.2
			c-0.1-0.2-0.3-0.4-0.6-0.5c-0.3-0.1-0.7-0.2-1.2-0.2h-2.8v4.2c0,0.6,0,0.9,0.1,1c0.1,0.1,0.1,0.2,0.3,0.3c0.1,0.1,0.4,0.1,0.7,0.1
			h2.2c0.7,0,1.3-0.1,1.6-0.2c0.3-0.1,0.6-0.3,0.9-0.6c0.4-0.4,0.8-1,1.2-1.8h0.4L93.7,57h-9.9v-0.4h0.5c0.3,0,0.6-0.1,0.9-0.2
			c0.2-0.1,0.3-0.3,0.4-0.5s0.1-0.6,0.1-1.2v-8.4c0-0.8-0.1-1.3-0.2-1.5c-0.2-0.3-0.6-0.4-1.1-0.4h-0.5v-0.4h9.9l0.1,2.8h-0.4
			c-0.1-0.7-0.3-1.1-0.4-1.4c-0.2-0.3-0.4-0.4-0.7-0.6c-0.3-0.1-0.7-0.1-1.3-0.1H87.5z"/>
		<path class="st0" d="M108.4,57H105l-4.4-6c-0.3,0-0.6,0-0.8,0c-0.1,0-0.2,0-0.3,0c-0.1,0-0.2,0-0.3,0v3.7c0,0.8,0.1,1.3,0.3,1.5
			c0.2,0.3,0.6,0.4,1.1,0.4h0.5V57h-5.5v-0.4h0.5c0.5,0,0.9-0.2,1.2-0.5c0.1-0.2,0.2-0.7,0.2-1.4v-8.3c0-0.8-0.1-1.3-0.3-1.5
			c-0.2-0.3-0.6-0.4-1.1-0.4h-0.5v-0.4h4.7c1.4,0,2.4,0.1,3,0.3c0.6,0.2,1.2,0.6,1.7,1.1c0.5,0.5,0.7,1.2,0.7,1.9
			c0,0.8-0.3,1.5-0.8,2.1c-0.5,0.6-1.3,1-2.4,1.2l2.7,3.7c0.6,0.8,1.1,1.4,1.6,1.7c0.4,0.3,1,0.5,1.7,0.5V57z M99.3,50.4
			c0.1,0,0.2,0,0.3,0c0.1,0,0.2,0,0.2,0c1.2,0,2.2-0.3,2.8-0.8c0.6-0.5,0.9-1.2,0.9-2c0-0.8-0.3-1.5-0.8-2c-0.5-0.5-1.2-0.8-2-0.8
			c-0.4,0-0.9,0.1-1.5,0.2V50.4z"/>
		<path class="st0" d="M117.1,44.9v5.1h2.3c0.5,0,0.9-0.1,1.2-0.4c0.2-0.2,0.4-0.7,0.5-1.4h0.4v4.4h-0.4c0-0.5-0.1-0.9-0.2-1.1
			c-0.1-0.2-0.3-0.4-0.5-0.5c-0.2-0.1-0.5-0.2-1-0.2h-2.3v4c0,0.7,0,1.1,0.1,1.3c0.1,0.2,0.2,0.3,0.4,0.4c0.3,0.2,0.6,0.2,0.9,0.2
			h0.5V57h-5.5v-0.4h0.5c0.5,0,0.9-0.2,1.2-0.5c0.2-0.2,0.2-0.7,0.2-1.5v-8.3c0-0.7,0-1.1-0.1-1.3c-0.1-0.2-0.2-0.3-0.4-0.4
			c-0.3-0.2-0.6-0.2-0.9-0.2h-0.5v-0.4h9.6l0.1,2.8h-0.3c-0.2-0.6-0.4-1-0.6-1.3c-0.2-0.3-0.5-0.5-0.8-0.6c-0.3-0.1-0.8-0.2-1.5-0.2
			H117.1z"/>
		<path class="st0" d="M128,44.9V50h2.8c0.7,0,1.2-0.1,1.5-0.3c0.3-0.3,0.5-0.8,0.6-1.5h0.4v4.5h-0.4c-0.1-0.6-0.2-1-0.3-1.2
			c-0.1-0.2-0.3-0.4-0.6-0.5c-0.3-0.1-0.7-0.2-1.2-0.2H128v4.2c0,0.6,0,0.9,0.1,1c0.1,0.1,0.1,0.2,0.3,0.3c0.1,0.1,0.4,0.1,0.7,0.1
			h2.2c0.7,0,1.3-0.1,1.6-0.2c0.3-0.1,0.6-0.3,0.9-0.6c0.4-0.4,0.8-1,1.2-1.8h0.4l-1.1,3.2h-9.9v-0.4h0.5c0.3,0,0.6-0.1,0.9-0.2
			c0.2-0.1,0.3-0.3,0.4-0.5s0.1-0.6,0.1-1.2v-8.4c0-0.8-0.1-1.3-0.2-1.5c-0.2-0.3-0.6-0.4-1.1-0.4h-0.5v-0.4h9.9l0.1,2.8H134
			c-0.1-0.7-0.3-1.1-0.4-1.4c-0.2-0.3-0.4-0.4-0.7-0.6c-0.3-0.1-0.7-0.1-1.3-0.1H128z"/>
		<path class="st0" d="M148.9,57h-3.4l-4.4-6c-0.3,0-0.6,0-0.8,0c-0.1,0-0.2,0-0.3,0c-0.1,0-0.2,0-0.3,0v3.7c0,0.8,0.1,1.3,0.3,1.5
			c0.2,0.3,0.6,0.4,1.1,0.4h0.5V57h-5.5v-0.4h0.5c0.5,0,0.9-0.2,1.2-0.5c0.1-0.2,0.2-0.7,0.2-1.4v-8.3c0-0.8-0.1-1.3-0.3-1.5
			c-0.2-0.3-0.6-0.4-1.1-0.4h-0.5v-0.4h4.7c1.4,0,2.4,0.1,3,0.3c0.6,0.2,1.2,0.6,1.7,1.1c0.5,0.5,0.7,1.2,0.7,1.9
			c0,0.8-0.3,1.5-0.8,2.1c-0.5,0.6-1.3,1-2.4,1.2l2.7,3.7c0.6,0.8,1.1,1.4,1.6,1.7c0.4,0.3,1,0.5,1.7,0.5V57z M139.8,50.4
			c0.1,0,0.2,0,0.3,0c0.1,0,0.2,0,0.2,0c1.2,0,2.2-0.3,2.8-0.8c0.6-0.5,0.9-1.2,0.9-2c0-0.8-0.3-1.5-0.8-2c-0.5-0.5-1.2-0.8-2-0.8
			c-0.4,0-0.9,0.1-1.5,0.2V50.4z"/>
		<path class="st0" d="M161.9,57h-3.4l-4.4-6c-0.3,0-0.6,0-0.8,0c-0.1,0-0.2,0-0.3,0c-0.1,0-0.2,0-0.3,0v3.7c0,0.8,0.1,1.3,0.3,1.5
			c0.2,0.3,0.6,0.4,1.1,0.4h0.5V57h-5.5v-0.4h0.5c0.5,0,0.9-0.2,1.2-0.5c0.1-0.2,0.2-0.7,0.2-1.4v-8.3c0-0.8-0.1-1.3-0.3-1.5
			c-0.2-0.3-0.6-0.4-1.1-0.4h-0.5v-0.4h4.7c1.4,0,2.4,0.1,3,0.3c0.6,0.2,1.2,0.6,1.7,1.1c0.5,0.5,0.7,1.2,0.7,1.9
			c0,0.8-0.3,1.5-0.8,2.1c-0.5,0.6-1.3,1-2.4,1.2l2.7,3.7c0.6,0.8,1.1,1.4,1.6,1.7c0.4,0.3,1,0.5,1.7,0.5V57z M152.8,50.4
			c0.1,0,0.2,0,0.3,0c0.1,0,0.2,0,0.2,0c1.2,0,2.2-0.3,2.8-0.8c0.6-0.5,0.9-1.2,0.9-2c0-0.8-0.3-1.5-0.8-2c-0.5-0.5-1.2-0.8-2-0.8
			c-0.4,0-0.9,0.1-1.5,0.2V50.4z"/>
		<path class="st0" d="M169.9,44.2h4.5v0.4h-0.2c-0.2,0-0.4,0.1-0.7,0.2c-0.3,0.1-0.6,0.4-0.9,0.6c-0.3,0.3-0.6,0.7-1,1.3l-3.1,4.9
			v3.2c0,0.8,0.1,1.3,0.3,1.5c0.2,0.3,0.6,0.4,1.1,0.4h0.4V57h-5.5v-0.4h0.5c0.5,0,0.9-0.2,1.2-0.5c0.1-0.2,0.2-0.7,0.2-1.4v-3
			l-3.5-5.4c-0.4-0.6-0.7-1-0.8-1.2c-0.1-0.2-0.5-0.3-0.9-0.6c-0.1-0.1-0.3-0.1-0.6-0.1v-0.4h5.5v0.4H166c-0.3,0-0.6,0.1-0.8,0.2
			c-0.3,0.1-0.4,0.3-0.4,0.6c0,0.2,0.2,0.6,0.6,1.2l2.7,4.1l2.5-4c0.4-0.6,0.6-1,0.6-1.3c0-0.2,0-0.3-0.1-0.5
			c-0.1-0.1-0.2-0.2-0.4-0.3c-0.2-0.1-0.4-0.1-0.8-0.1V44.2z"/>
	</g>
	<g>
		<path class="st0" d="M64.1,73.1l2.5-1h0.3V74c0.4-0.7,0.8-1.2,1.3-1.5c0.4-0.3,0.9-0.4,1.3-0.4c0.8,0,1.5,0.3,2,1
			c0.7,0.8,1,1.8,1,3c0,1.4-0.4,2.6-1.2,3.5c-0.7,0.8-1.5,1.1-2.5,1.1c-0.4,0-0.8-0.1-1.1-0.2c-0.2-0.1-0.5-0.3-0.8-0.5v2.5
			c0,0.6,0,0.9,0.1,1.1c0.1,0.2,0.2,0.3,0.4,0.4c0.2,0.1,0.5,0.1,0.9,0.1v0.3h-4.3v-0.3h0.2c0.3,0,0.6-0.1,0.8-0.2
			c0.1-0.1,0.2-0.2,0.3-0.3c0.1-0.1,0.1-0.5,0.1-1.1v-7.7c0-0.5,0-0.9-0.1-1c0-0.1-0.1-0.2-0.2-0.3c-0.1-0.1-0.2-0.1-0.4-0.1
			c-0.1,0-0.3,0-0.5,0.1L64.1,73.1z M66.9,74.5v3c0,0.7,0,1.1,0.1,1.3c0.1,0.3,0.3,0.6,0.6,0.9c0.3,0.3,0.7,0.4,1.2,0.4
			c0.6,0,1.1-0.2,1.4-0.7c0.5-0.6,0.7-1.5,0.7-2.5c0-1.2-0.3-2.2-0.8-2.9c-0.4-0.5-0.8-0.7-1.3-0.7c-0.3,0-0.6,0.1-0.8,0.2
			C67.8,73.6,67.4,73.9,66.9,74.5z"/>
		<path class="st0" d="M75.1,75.3c0,1.2,0.3,2.2,0.9,2.8c0.6,0.7,1.3,1,2.1,1c0.5,0,1-0.1,1.4-0.4c0.4-0.3,0.7-0.8,1-1.5l0.3,0.2
			c-0.1,0.8-0.5,1.5-1.1,2.2c-0.6,0.7-1.3,1-2.2,1c-1,0-1.8-0.4-2.5-1.1c-0.7-0.8-1-1.8-1-3.1c0-1.4,0.4-2.5,1.1-3.2
			c0.7-0.8,1.6-1.2,2.7-1.2c0.9,0,1.7,0.3,2.2,0.9c0.6,0.6,0.9,1.4,0.9,2.4H75.1z M75.1,74.8h3.8c0-0.5-0.1-0.9-0.2-1.1
			c-0.1-0.3-0.4-0.6-0.7-0.8c-0.3-0.2-0.6-0.3-0.9-0.3c-0.5,0-0.9,0.2-1.3,0.6C75.4,73.6,75.2,74.1,75.1,74.8z"/>
		<path class="st0" d="M89.2,77.3c-0.2,1.1-0.6,1.9-1.3,2.5c-0.6,0.6-1.3,0.9-2.1,0.9c-0.9,0-1.7-0.4-2.4-1.2c-0.7-0.8-1-1.8-1-3.1
			c0-1.3,0.4-2.3,1.1-3.1c0.8-0.8,1.7-1.2,2.7-1.2c0.8,0,1.5,0.2,2,0.6c0.5,0.4,0.8,0.9,0.8,1.3c0,0.2-0.1,0.4-0.2,0.5
			c-0.1,0.1-0.3,0.2-0.6,0.2c-0.3,0-0.6-0.1-0.8-0.3c-0.1-0.1-0.2-0.4-0.2-0.7c0-0.3-0.2-0.6-0.4-0.8c-0.2-0.2-0.5-0.3-0.9-0.3
			c-0.6,0-1.1,0.2-1.4,0.7c-0.5,0.6-0.7,1.3-0.7,2.3c0,1,0.2,1.8,0.7,2.6c0.5,0.7,1.1,1.1,1.9,1.1c0.6,0,1.1-0.2,1.6-0.6
			c0.3-0.3,0.6-0.8,0.9-1.5L89.2,77.3z"/>
		<path class="st0" d="M90.2,72.3h7l0.4,2.2h-0.4c-0.1-0.4-0.2-0.8-0.4-1c-0.2-0.2-0.4-0.4-0.6-0.5c-0.2-0.1-0.6-0.1-1.1-0.1h-0.7
			v5.6c0,0.6,0,1,0.1,1.1c0.1,0.2,0.2,0.3,0.4,0.3C95.1,80,95.5,80,96,80v0.3h-4.4V80c0.6,0,0.9-0.1,1.1-0.3
			c0.2-0.2,0.2-0.6,0.2-1.3v-5.6h-0.7c-0.5,0-0.9,0-1,0.1c-0.2,0.1-0.4,0.2-0.5,0.4c-0.2,0.2-0.3,0.6-0.4,1.1h-0.4L90.2,72.3z"/>
		<path class="st0" d="M102,72c1.2,0,2.2,0.5,3,1.4c0.6,0.8,0.9,1.7,0.9,2.7c0,0.7-0.2,1.5-0.5,2.2c-0.3,0.7-0.8,1.3-1.4,1.7
			c-0.6,0.4-1.3,0.6-2,0.6c-1.2,0-2.2-0.5-2.9-1.5c-0.6-0.8-0.9-1.7-0.9-2.8c0-0.7,0.2-1.5,0.6-2.2c0.4-0.7,0.9-1.3,1.5-1.6
			C100.7,72.2,101.3,72,102,72z M101.7,72.6c-0.3,0-0.6,0.1-0.9,0.3c-0.3,0.2-0.6,0.5-0.8,1c-0.2,0.5-0.3,1.1-0.3,1.8
			c0,1.2,0.2,2.2,0.7,3.1c0.5,0.9,1.1,1.3,1.9,1.3c0.6,0,1-0.2,1.4-0.7c0.4-0.5,0.6-1.3,0.6-2.4c0-1.4-0.3-2.6-0.9-3.4
			C102.9,72.9,102.3,72.6,101.7,72.6z"/>
		<path class="st0" d="M106.5,73.1l2.5-1h0.3V74c0.4-0.7,0.8-1.2,1.3-1.5c0.4-0.3,0.9-0.4,1.3-0.4c0.8,0,1.5,0.3,2,1
			c0.7,0.8,1,1.8,1,3c0,1.4-0.4,2.6-1.2,3.5c-0.7,0.8-1.5,1.1-2.5,1.1c-0.4,0-0.8-0.1-1.1-0.2c-0.2-0.1-0.5-0.3-0.8-0.5v2.5
			c0,0.6,0,0.9,0.1,1.1c0.1,0.2,0.2,0.3,0.4,0.4c0.2,0.1,0.5,0.1,0.9,0.1v0.3h-4.3v-0.3h0.2c0.3,0,0.6-0.1,0.8-0.2
			c0.1-0.1,0.2-0.2,0.3-0.3c0.1-0.1,0.1-0.5,0.1-1.1v-7.7c0-0.5,0-0.9-0.1-1c0-0.1-0.1-0.2-0.2-0.3c-0.1-0.1-0.2-0.1-0.4-0.1
			c-0.1,0-0.3,0-0.5,0.1L106.5,73.1z M109.3,74.5v3c0,0.7,0,1.1,0.1,1.3c0.1,0.3,0.3,0.6,0.6,0.9c0.3,0.3,0.7,0.4,1.2,0.4
			c0.6,0,1.1-0.2,1.4-0.7c0.5-0.6,0.7-1.5,0.7-2.5c0-1.2-0.3-2.2-0.8-2.9c-0.4-0.5-0.8-0.7-1.3-0.7c-0.3,0-0.6,0.1-0.8,0.2
			C110.2,73.6,109.8,73.9,109.3,74.5z"/>
		<path class="st0" d="M120.7,79.2c-0.8,0.6-1.4,1-1.6,1.1c-0.3,0.1-0.7,0.2-1,0.2c-0.6,0-1-0.2-1.4-0.6c-0.4-0.4-0.5-0.9-0.5-1.5
			c0-0.4,0.1-0.7,0.3-1c0.2-0.4,0.7-0.8,1.3-1.1c0.6-0.4,1.6-0.8,3-1.3v-0.3c0-0.8-0.1-1.4-0.4-1.7c-0.3-0.3-0.6-0.5-1.1-0.5
			c-0.4,0-0.7,0.1-0.9,0.3c-0.2,0.2-0.3,0.4-0.3,0.7l0,0.5c0,0.3-0.1,0.5-0.2,0.6c-0.1,0.1-0.3,0.2-0.5,0.2c-0.2,0-0.4-0.1-0.5-0.2
			c-0.1-0.2-0.2-0.4-0.2-0.6c0-0.5,0.3-1,0.8-1.4c0.5-0.4,1.3-0.6,2.2-0.6c0.7,0,1.3,0.1,1.8,0.4c0.3,0.2,0.6,0.5,0.8,0.9
			c0.1,0.3,0.2,0.8,0.2,1.6v2.8c0,0.8,0,1.2,0,1.4c0,0.2,0.1,0.3,0.1,0.3c0.1,0.1,0.1,0.1,0.2,0.1c0.1,0,0.2,0,0.2-0.1
			c0.1-0.1,0.4-0.3,0.7-0.6v0.5c-0.7,0.9-1.3,1.3-1.9,1.3c-0.3,0-0.5-0.1-0.7-0.3C120.8,80,120.8,79.7,120.7,79.2z M120.7,78.6v-3.1
			c-0.9,0.4-1.5,0.6-1.7,0.8c-0.5,0.3-0.8,0.5-1,0.8c-0.2,0.3-0.3,0.6-0.3,0.9c0,0.4,0.1,0.8,0.4,1.1c0.3,0.3,0.5,0.4,0.9,0.4
			C119.4,79.5,120,79.2,120.7,78.6z"/>
		<path class="st0" d="M126.7,75.9h3.5v-1.7c0-0.5,0-0.8-0.1-1c0-0.2-0.1-0.3-0.3-0.4c-0.2-0.1-0.5-0.2-0.9-0.2v-0.3h3.9v0.3
			c-0.4,0-0.6,0-0.8,0.1c-0.2,0.1-0.3,0.2-0.3,0.4c-0.1,0.2-0.1,0.5-0.1,1.1v4.3c0,0.5,0,0.9,0.1,1c0,0.2,0.2,0.3,0.3,0.4
			c0.2,0.1,0.5,0.2,0.8,0.2v0.3H129V80c0.5,0,0.8-0.1,1-0.3c0.2-0.2,0.2-0.6,0.2-1.3v-2h-3.5v2c0,0.5,0,0.9,0.1,1
			c0,0.2,0.2,0.3,0.3,0.4c0.2,0.1,0.5,0.2,0.8,0.2v0.3H124V80c0.5,0,0.9-0.1,1-0.3c0.1-0.2,0.2-0.6,0.2-1.3v-4.3c0-0.5,0-0.9-0.1-1
			c0-0.2-0.2-0.3-0.3-0.4c-0.2-0.1-0.5-0.2-0.8-0.2v-0.3h3.9v0.3c-0.4,0-0.6,0-0.8,0.1c-0.2,0.1-0.3,0.2-0.3,0.4
			c-0.1,0.2-0.1,0.5-0.1,1.1V75.9z"/>
	</g>
	<g>
		<rect x="25.1" y="63.4" class="st0" width="146.9" height="1.5"/>
	</g>
</g>
</svg>
