<?xml version="1.0" encoding="utf-8"?>
<!-- Generator: Adobe Illustrator 22.0.0, SVG Export Plug-In . SVG Version: 6.00 Build 0)  -->
<svg version="1.1" id="Слой_1" xmlns="http://www.w3.org/2000/svg" xmlns:xlink="http://www.w3.org/1999/xlink" x="0px" y="0px"
	 viewBox="0 0 198.4 113.4" style="enable-background:new 0 0 198.4 113.4;" xml:space="preserve">
<style type="text/css">
	.st0{fill:#4F5260;}
	.st1{fill-rule:evenodd;clip-rule:evenodd;fill:#4F5260;}
</style>
<g>
	<path class="st0" d="M52.4,71.2c-1.6,0-3-0.8-3.5-2c-0.2-0.4-0.3-1.1,0.1-2c-2.5-0.3-7.5-2.6-9.4-7.6c-0.3,0.9-0.6,1.4-0.7,1.5
		l-0.1,0.2l-0.2,0.1c-0.2,0.1-0.4,0.1-0.5,0.1c-0.3,0-0.5-0.1-0.8-0.2c-0.5,0.9-1.4,1.6-2.4,1.6c-0.7,0-1.4-0.3-2-1l-0.6-0.7
		l0.8-0.2c1.2-0.3,3.8-3.5,4.6-8.3c0.9-5.9,0.9-10.4-0.1-12.7c-0.3,0.6-0.9,0.9-1.5,0.9c-0.1,0-0.3,0-0.4-0.1
		c-0.7-0.2-1.3-0.9-1.6-1.8c-0.3-1-0.1-2,0.7-2.9c0.6-0.7,1.3-1,2.1-1c1.4,0,2.5,1.1,3.1,2.9c0.5,1.8,1.1,6.2,1.1,9.1
		c1.5-2.1,3.8-3.9,7.8-4.1c0.1,0,0.2,0,0.3,0c2.4,0,4.5,1.7,6.4,3.2c1.3,1.1,2.6,2.1,3.5,2.1c0.2,0,0.6-0.1,0.9-0.5l0.2-0.3l0.3,0.1
		c0.6,0.1,0.9,0.7,0.9,1.4c0,0.2-0.1,0.4-0.2,0.6c0.1,0.2,0.1,0.5,0,0.8c-0.2,0.6-0.7,1.2-1.6,1.2c-0.3,0-0.6-0.1-0.9-0.2
		c0,0.2,0,0.4,0.1,0.4l-0.1,1.1c-0.1,0-0.1,0-0.2,0c-0.4,0-0.8-0.1-1.2-0.3c0.1,0.4,0.1,0.8,0.1,1.1c0,0.1,0,0.2,0,0.3l0.3,0.3
		l-0.4,0.4l0,0c-0.1,0.1-0.3,0.3-0.7,0.3c-0.1,0-0.2,0-0.2,0c-0.2,1.1-0.7,2.4-2,2.9l-0.1,0l-0.1,0c-0.4,0-0.7-0.2-0.8-0.5
		c-0.7,0.8-1.8,1.5-3,1.5c-1,0-1.9-0.4-2.8-1.2c-0.2-0.1-0.3-0.4-0.3-0.6c0-0.1,0.1-0.2,0.2-0.3c-1-0.5-1.9-1.5-2-2.6
		c0-0.5,0-0.9,0.2-1.1c0.1-0.1,0.1-0.1,0.2-0.1c0-0.6,0.1-1.2,0.4-1.6c0.2-0.3,0.6-0.5,1-0.5c0.1,0,0.3,0,0.4,0.1
		c0.2-0.2,0.5-0.2,0.8-0.2c0.7,0,1.4,0.5,1.5,1.5l0,1.1l-0.9-0.7c0,0,0,0,0,0c0,0-0.2,0.1-0.3,0.5c-0.1,0.4-0.1,0.8,0.1,1
		c0.4,0.4,1.1,0.9,1.9,0.9c0.8,0,1.5-0.5,2.1-1.4c0.6-0.9,0.7-1.9,0.5-2.9c-0.3-1.3-1.4-2.5-2.8-3.2c-0.6-0.3-1.3-0.4-2-0.4
		c-2.1,0-4.8,1.2-6.1,3.8c-1.8,3.5-1,9.3,2.6,11.8c1.8,1.3,3.9,1.9,5.9,1.9c2.9,0,5.8-1.3,8.6-3.8c1.8-1.6,2.7-3.8,2.7-6.7
		c0.1-4.7-2.4-9.6-3.7-10.9c-2.1-2.1-5.9-4.1-9-4.1c-0.6,0-1.1,0.1-1.6,0.2c-2.1,0.6-3,1.2-3.1,1.7c0,0.2,0.1,0.3,0.2,0.4l0.5,0.4
		l-0.4,0.4c-0.3,0.3-0.7,0.5-1.1,0.5c-0.6,0-1.3-0.3-1.8-0.8c-0.6-0.6-0.9-1.3-0.9-2c0-1.5,0.6-2.3,1.4-2.6c-0.1-0.4-0.1-0.8,0-1.2
		c0.1-0.3,0.2-0.5,0.3-0.8c-1.4-0.8-4.4-3.9-5.2-9.3c-0.9-5.8,3.7-12,6.6-13.1c2-0.8,3.8-1.6,5-2.2c0.4-0.2,0.8-0.4,1-0.4
		c0.5-0.2,1.2-0.7,1.3-1.1c0.1-0.2,0-0.4-0.1-0.6l-0.4-0.7l0.8-0.1c0.1,0,0.2,0,0.3,0c0.6,0,1,0.3,1.3,0.7c0.1,0.2,0.1,0.4,0.1,0.6
		c0.3,0.2,0.5,0.5,0.6,1c0.1,0.6-0.1,1.2-0.6,1.8c2.4,0.6,5.6,2.4,7.1,5.3c0.9-1.6,2.5-3.5,2.6-3.6l0.1-0.1l0.2,0
		c0,0,0.4-0.1,0.8-0.1c0.7,0,0.9,0.3,1.1,0.5c0.2,0.5-0.1,1-0.5,1.4c-1.2,1.3-2.3,7.5-2.3,10.2c0,5,0.6,8.7,1.5,10.4
		c0,0,0-0.1,0-0.1c0.1-0.7,0.6-1.3,1.3-1.4c0.1,0,0.2,0,0.4,0c1.1,0,2.3,0.9,2.4,2.5c0,0.6-0.1,1.1-0.5,1.5c-0.7,0.8-2,1.1-2.7,1.1
		c-1,0-3-1.4-4.1-5.3c-0.5-1.9-0.8-4.2-0.9-6.9c-1.3,1.5-3.3,2.8-6.3,2.8c-0.7,0-1.5-0.1-2.2-0.2c-2.2-0.4-3.8-1.4-4.8-3
		c-1.3-2.1-1.2-4.5-0.9-5.6c0.2-0.9,0.7-1.1,1.1-1.1c0.1,0,0.3,0,0.4,0.1c0.1-0.7,0.4-1.4,0.8-2.1c0.7-1.1,1.6-1.9,2.6-2.1
		c0.3-0.1,0.5-0.1,0.8-0.1c0.6,0,0.8,0.3,0.9,0.5c0.1,0.3,0.1,0.6-0.1,0.9c0.2,0,0.3-0.1,0.5-0.2c0.4-0.3,1-0.6,2.5-0.6h0.2l0.2,0.1
		c0.2,0.2,0.3,0.4,0.4,0.7c0,0.4-0.2,0.8-0.4,1.1c0.5,0.3,0.9,0.9,1,1.5c0.2,0.8-0.1,1.4-0.7,1.9l-1.1,0.9l0.1-0.5
		c-0.2,0.1-0.4,0.1-0.6,0.1c-0.4,0-0.7-0.1-1.1-0.4l-0.4-0.3l0.2-0.4c0.1-0.1,0.2-0.6,0.1-0.9c-0.1-0.2-0.6-0.4-1.2-0.4
		c0,0-0.1,0-0.1,0c-0.9,0-1.4,0.6-1.7,1.1c-0.6,1-0.7,2.5-0.1,3.5c0.6,1.1,2.3,2.3,4.2,2.3c1,0,2-0.4,2.9-1.1c1.1-0.9,1.7-2,1.9-3.4
		c0.2-1.8-0.5-4-2-5.8c-1.3-1.6-3.6-2.6-5.9-2.6c-1.9,0-4.7,0.6-7.3,3.7c-2.5,3-1.8,6.6-1.1,8.4c1.4,3.7,4.5,6.8,7.5,7.3
		c1,0.2,2,0.3,2.9,0.3c2.1,0,3.8-0.5,4.3-1.4c0.3-0.4,0.3-0.8,0-1.4l-0.3-0.7l0.7-0.1c0.1,0,0.1,0,0.2,0c0.7,0,1.3,0.4,1.8,1
		c0.6,0.8,0.7,1.9,0.5,2.7c-0.3,0.9-1.1,1.5-1.7,1.8c0,0.3,0,0.5,0,0.8c2.6,1.1,7.4,6.6,7.7,12.8c0.3,6.6-2.4,11.4-4.8,13.6
		c-2.3,2-6,3.9-8.6,5c-1.1,0.5-1.1,1.2-1.1,1.5c0,0.4,0.3,0.8,0.6,0.9l-0.1,1.1C52.6,71.2,52.5,71.2,52.4,71.2"/>
	<path class="st0" d="M135.4,71c1.6,0,3-0.8,3.5-2c0.2-0.4,0.3-1.1-0.1-2c2.5-0.3,7.5-2.6,9.4-7.6c0.3,0.9,0.6,1.4,0.7,1.5l0.1,0.2
		l0.2,0.1c0.2,0.1,0.4,0.1,0.5,0.1c0.3,0,0.5-0.1,0.8-0.2c0.5,0.9,1.4,1.6,2.4,1.6c0.7,0,1.4-0.3,2-1l0.6-0.7l-0.8-0.2
		c-1.2-0.3-3.8-3.5-4.6-8.3c-0.9-5.9-0.9-10.4,0.1-12.7c0.3,0.6,0.9,0.9,1.5,0.9c0.1,0,0.3,0,0.4-0.1c0.7-0.2,1.3-0.9,1.6-1.8
		c0.3-1,0.1-2-0.7-2.9c-0.6-0.7-1.3-1-2.1-1c-1.4,0-2.5,1.1-3.1,2.9c-0.5,1.8-1.1,6.2-1.1,9.1c-1.5-2.1-3.8-3.9-7.8-4.1
		c-0.1,0-0.2,0-0.3,0c-2.4,0-4.5,1.7-6.4,3.2c-1.3,1.1-2.6,2.1-3.5,2.1c-0.2,0-0.6-0.1-0.9-0.5l-0.2-0.3l-0.3,0.1
		c-0.6,0.1-0.9,0.7-0.9,1.4c0,0.2,0.1,0.4,0.2,0.6c-0.1,0.2-0.1,0.5,0,0.8c0.2,0.6,0.7,1.2,1.6,1.2c0.3,0,0.6-0.1,0.9-0.2
		c0,0.2,0,0.4-0.1,0.4l0.1,1.1c0.1,0,0.1,0,0.2,0c0.4,0,0.8-0.1,1.2-0.3c-0.1,0.4-0.1,0.8-0.1,1.1c0,0.1,0,0.2,0,0.3L130,54l0.4,0.4
		l0,0c0.1,0.1,0.3,0.3,0.7,0.3c0.1,0,0.2,0,0.2,0c0.2,1.1,0.7,2.4,2,2.9l0.1,0l0.1,0c0.4,0,0.7-0.2,0.8-0.5c0.7,0.8,1.8,1.5,3,1.5
		c1,0,1.9-0.4,2.8-1.2c0.2-0.1,0.3-0.4,0.3-0.6c0-0.1-0.1-0.2-0.2-0.3c1-0.5,1.9-1.5,2-2.6c0-0.5,0-0.9-0.2-1.1
		c-0.1-0.1-0.1-0.1-0.2-0.1c0-0.6-0.1-1.2-0.4-1.6c-0.2-0.3-0.6-0.5-1-0.5c-0.1,0-0.3,0-0.4,0.1c-0.2-0.2-0.5-0.2-0.8-0.2
		c-0.7,0-1.4,0.5-1.5,1.5l0,1.1l0.9-0.7c0,0,0,0,0,0c0,0,0.2,0.1,0.3,0.5c0.1,0.4,0.1,0.8-0.1,1c-0.4,0.4-1.1,0.9-1.9,0.9
		c-0.8,0-1.5-0.5-2.1-1.4c-0.6-0.9-0.7-1.9-0.5-2.9c0.3-1.3,1.4-2.5,2.8-3.2c0.6-0.3,1.3-0.4,2-0.4c2.1,0,4.8,1.2,6.1,3.8
		c1.8,3.5,1,9.3-2.6,11.8c-1.8,1.3-3.9,1.9-5.9,1.9c-2.9,0-5.8-1.3-8.6-3.8c-1.8-1.6-2.7-3.8-2.7-6.7c-0.1-4.7,2.4-9.6,3.7-10.9
		c2.1-2.1,5.9-4.1,9-4.1c0.6,0,1.1,0.1,1.6,0.2c2.1,0.6,3,1.2,3.1,1.7c0,0.2-0.1,0.3-0.2,0.4l-0.5,0.4l0.4,0.4
		c0.3,0.3,0.7,0.5,1.1,0.5c0.6,0,1.3-0.3,1.8-0.8c0.6-0.6,0.9-1.3,0.9-2c0-1.5-0.6-2.3-1.4-2.6c0.1-0.4,0.1-0.8,0-1.2
		c-0.1-0.3-0.2-0.5-0.3-0.8c1.4-0.8,4.4-3.9,5.2-9.3c0.9-5.8-3.7-12-6.6-13.1c-2-0.8-3.8-1.6-5-2.2c-0.4-0.2-0.8-0.4-1-0.4
		c-0.5-0.2-1.2-0.7-1.3-1.1c-0.1-0.2,0-0.4,0.1-0.6l0.4-0.7l-0.8-0.1c-0.1,0-0.2,0-0.3,0c-0.6,0-1,0.3-1.3,0.7
		C134,8.2,134,8.4,134,8.6c-0.3,0.2-0.5,0.5-0.6,1c-0.1,0.6,0.1,1.2,0.6,1.8c-2.4,0.6-5.6,2.4-7.1,5.3c-0.9-1.6-2.5-3.5-2.6-3.6
		l-0.1-0.1l-0.2,0c0,0-0.4-0.1-0.8-0.1c-0.7,0-0.9,0.3-1.1,0.5c-0.2,0.5,0.1,1,0.5,1.4c1.2,1.3,2.3,7.5,2.3,10.2
		c0,5-0.6,8.7-1.5,10.4c0,0,0-0.1,0-0.1c-0.1-0.7-0.6-1.3-1.3-1.4c-0.1,0-0.2,0-0.4,0c-1.1,0-2.3,0.9-2.4,2.5c0,0.6,0.1,1.1,0.5,1.5
		c0.7,0.8,2,1.1,2.7,1.1c1,0,3-1.4,4.1-5.3c0.5-1.9,0.8-4.2,0.9-6.9c1.3,1.5,3.3,2.8,6.3,2.8c0.7,0,1.5-0.1,2.2-0.2
		c2.2-0.4,3.8-1.4,4.8-3c1.3-2.1,1.2-4.5,0.9-5.6c-0.2-0.9-0.7-1.1-1.1-1.1c-0.1,0-0.3,0-0.4,0.1c-0.1-0.7-0.4-1.4-0.8-2.1
		c-0.7-1.1-1.6-1.9-2.6-2.1c-0.3-0.1-0.5-0.1-0.8-0.1c-0.6,0-0.8,0.3-0.9,0.5c-0.1,0.3-0.1,0.6,0.1,0.9c-0.2,0-0.3-0.1-0.5-0.2
		c-0.4-0.3-1-0.6-2.5-0.6H132l-0.2,0.1c-0.2,0.2-0.3,0.4-0.4,0.7c0,0.4,0.2,0.8,0.4,1.1c-0.5,0.3-0.9,0.9-1,1.5
		c-0.2,0.8,0.1,1.4,0.7,1.9l1.1,0.9l-0.1-0.5c0.2,0.1,0.4,0.1,0.6,0.1c0.4,0,0.7-0.1,1.1-0.4l0.4-0.3l-0.2-0.4
		c-0.1-0.1-0.2-0.6-0.1-0.9c0.1-0.2,0.6-0.4,1.2-0.4c0,0,0.1,0,0.1,0c0.9,0,1.4,0.6,1.7,1.1c0.6,1,0.7,2.5,0.1,3.5
		c-0.6,1.1-2.3,2.3-4.2,2.3c-1,0-2-0.4-2.9-1.1c-1.1-0.9-1.7-2-1.9-3.4c-0.2-1.8,0.5-4,2-5.8c1.3-1.6,3.6-2.6,5.9-2.6
		c1.9,0,4.7,0.6,7.3,3.7c2.5,3,1.8,6.6,1.1,8.4c-1.4,3.7-4.5,6.8-7.5,7.3c-1,0.2-2,0.3-2.9,0.3c-2.1,0-3.8-0.5-4.3-1.4
		c-0.3-0.4-0.3-0.8,0-1.4l0.3-0.7l-0.7-0.1c-0.1,0-0.1,0-0.2,0c-0.7,0-1.3,0.4-1.8,1c-0.6,0.8-0.7,1.9-0.5,2.7
		c0.3,0.9,1.1,1.5,1.7,1.8c0,0.3,0,0.5,0,0.8c-2.6,1.1-7.4,6.6-7.7,12.8c-0.3,6.6,2.4,11.4,4.8,13.6c2.3,2,6,3.9,8.6,5
		c1.1,0.5,1.1,1.2,1.1,1.5c0,0.4-0.3,0.8-0.6,0.9l0.1,1.1C135.2,71,135.3,71,135.4,71"/>
	<path class="st1" d="M128.8,40.7c0,19.3-15.7,35-35,35c-19.3,0-35-15.7-35-35c0-19.3,15.7-35,35-35
		C113.1,5.6,128.8,21.3,128.8,40.7 M93.8,2.4c21.1,0,38.3,17.1,38.3,38.3s-17.1,38.3-38.3,38.3S55.5,61.8,55.5,40.7
		S72.6,2.4,93.8,2.4z"/>
	<path class="st0" d="M83.8,54.6c0.1,0,0.2,0.1,0.2,0.3c0,0.2,0,0.4-0.1,0.7c-0.1,0.3-0.1,0.6-0.1,0.8c0,1.2,0.3,2.4,0.8,3.4
		c1.5,3.2,4.1,2.1,6.5,0.1c1.8-1.7,3.3-3.7,3.9-4.7c2-3,4-6.7,5.8-10.9c-6.2,4.7-12.6,7-19.3,7c-3.5,0-6.3-0.6-8.5-1.7
		c-2.8-1.5-4.2-3.9-4.2-7.1c0-3,1.2-6.3,3.6-9.6c1.4-2,3.1-3.8,4.9-5.4c1-1,2.1-1.9,3.3-2.7c2.3-1.7,4.8-3.1,7.5-4.1
		c3.8-1.6,7.4-2.4,10.7-2.4c1.1,0,2.2,0.2,3.3,0.5c1.2,0.4,2.1,0.9,2.6,1.6c0.4-0.6,0.6-1.1,0.6-1.5c-0.2-1.5,1.3-1.6,1.5-1.6
		c0.2,0,0.3,0.2,0.3,0.6c0,0.4-0.5,1.7-1.5,3.7c0.5,1,0.8,1.7,0.8,2.1c0.2,1.5-1,3.2-1.4,2.1c-0.1-0.3-0.2-0.6-0.4-0.9
		c-0.5,1-1.1,2.1-1.9,3.4c-0.5,1.1-1.2,1.1-1.8,1.1c-0.2,0-0.6-0.1-1.2-0.2c-0.6-0.1-0.9-0.3-0.9-0.4c0-0.4,0.6-1.4,1.8-2.9
		c1.5-1.9,2.3-3,2.4-3.1c-1-1.9-2.8-2.8-5.3-2.8c-3,0-6.1,0.7-9.3,2.2c-2.3,1-4.4,2.3-6.5,4c-0.3,0.3-0.6,0.5-1,0.8
		c-1.8,1.7-3.4,3.6-4.7,5.7c-2.1,3.2-3.2,6.3-3.2,9.1c0,2.7,1,4.7,3,6.1c1.7,1.1,3.9,1.7,6.7,1.7c3.1,0,6.6-0.8,10.3-2.3
		c3-1.2,5.8-2.8,8.5-4.7c0.4-1.2,1.1-2.9,2-5.2l0.1-0.5c-4.6,0.1-7.7,0.2-9.3,0.4c-3.9,0.4-6.6,1.1-8.1,2.1c-0.2,0.3-0.4,0.6-0.6,1
		c-0.2,0.5-1,1.4-1.4,1.3c-0.1,0-0.1-0.1-0.1-0.2c0-0.1,0-0.2,0-0.3c0.6-1.7,1.5-3,2.6-3.9c0.6-0.6,1.3-1.1,2.1-1.5
		c2.3-1,6.5-1.3,9.2-1.3c3.1,0,6,0,8.9,0l0.1-0.1c2.5,0.1,7.6,0.4,9.2,0.2c0.4,0,0.8-0.2,1.1-0.4c0.2-0.2,0.4-0.4,0.5-0.4l0,0
		c0.4-0.5,0.7-0.7,0.8-0.7c0.2,0,0.5,0.1,0.7,0.3c0.2,0.2,0.4,0.4,0.4,0.6c0,0.3-1.3,1.3-1.6,1.5c-0.4,0.5-0.9,1.1-1.3,1.8
		c-0.6,1.1-1.2,2.2-1.8,3.3c-0.1,0.2-1,1.6-1.6,1.6c-0.1,0-0.2-0.1-0.2-0.2c0-0.4,0.2-1.2,0.7-2.4c0.5-1.2,0.7-2,0.7-2.4
		c0-0.2-0.1-0.3-0.3-0.4c-3.8-0.4-6,0.1-7.6,1.2l-0.2,0.4c-0.6,1.1-1.2,2.3-1.9,3.6c-1.3,2.5-2.6,5-3.9,7.5c-0.1,0.3-0.3,0.6-0.4,1
		c0.8-0.1,2-0.1,3.5,0c3.7,0.2-0.6,1.3-1.6,1.5c-0.6,0.1-1.9,0.3-3.2,0.5c-1.1,1.8-2.2,3.4-3.3,4.6c-0.7,0.8-1.4,1.5-2.1,2.1
		c-1.7,1.6-3.6,2.9-5.6,3.7c-0.7,0.3-1.4,0.4-2.3,0.4c-2.8,0-4.3-1.3-4.3-3.9c0-0.5,0.1-1.2,0.3-2.2C82.3,55.7,83.2,54.6,83.8,54.6"
		/>
	<path class="st0" d="M115.6,91.1h-5.3L113,87L115.6,91.1z M116.9,93.1c0.2,0.3,0.4,0.6,0.5,0.8c0.1,0.2,0.1,0.4,0.1,0.5
		c0,0.2-0.1,0.4-0.3,0.4c-0.2,0.1-0.4,0.1-0.7,0.1c-0.1,0-0.2,0-0.2,0.1c0,0-0.1,0.1-0.1,0.1c0,0,0,0.1,0.1,0.1c0,0,0.1,0,0.2,0
		c0.4,0,0.9,0,1.3,0c0.4,0,0.9,0,1.3,0c0.4,0,0.8,0,1.3,0c0.4,0,0.8,0,1.3,0c0.1,0,0.2,0,0.2,0c0,0,0.1-0.1,0.1-0.1
		c0,0,0-0.1-0.1-0.1c0,0-0.1,0-0.2,0c-0.3,0-0.5-0.1-0.7-0.2c-0.2-0.1-0.5-0.3-0.7-0.5c-0.2-0.2-0.4-0.4-0.6-0.7
		c-0.2-0.2-0.3-0.5-0.5-0.7l-4.3-6.7c-0.2-0.3-0.3-0.5-0.5-0.6c-0.2-0.2-0.4-0.3-0.6-0.4c-0.2-0.1-0.5-0.1-0.9-0.1h-2
		c-0.1,0-0.2,0-0.2,0c-0.1,0-0.1,0.1-0.1,0.1c0,0,0,0.1,0.1,0.1c0.1,0,0.1,0,0.2,0c0.2,0,0.4,0,0.6,0.1c0.2,0.1,0.4,0.1,0.5,0.2
		c0.2,0.1,0.3,0.2,0.4,0.3l-4.3,6.4c-0.3,0.5-0.6,0.9-1,1.3c-0.3,0.4-0.6,0.7-1,0.9c-0.3,0.2-0.7,0.3-1.1,0.3c-0.1,0-0.2,0-0.2,0
		c-0.1,0-0.1,0.1-0.1,0.1c0,0,0,0.1,0.1,0.1c0,0,0.1,0,0.2,0c0.4,0,0.7,0,1.1,0c0.4,0,0.8,0,1.1,0c0.4,0,0.7,0,1.1,0
		c0.4,0,0.7,0,1.1,0c0.1,0,0.2,0,0.2,0c0,0,0.1-0.1,0.1-0.1c0,0,0-0.1-0.1-0.1c0,0-0.1,0-0.2,0c-0.3,0-0.5,0-0.7-0.1
		c-0.2-0.1-0.3-0.1-0.3-0.2c-0.1-0.1-0.1-0.2-0.1-0.3c0-0.1,0-0.2,0.1-0.4c0.1-0.1,0.1-0.3,0.2-0.4c0.1-0.1,0.2-0.3,0.2-0.4
		c0.1-0.1,0.2-0.2,0.2-0.3l0.6-0.9h6.2L116.9,93.1z M97.8,90.5h-3.2c-0.1,0-0.1,0-0.1,0c0,0,0-0.1,0-0.1v-4.1c0-0.1,0-0.2,0.1-0.3
		c0.1-0.1,0.2-0.1,0.3-0.1h2.9c0.4,0,0.7,0,1,0.1c0.3,0.1,0.6,0.2,0.8,0.4c0.2,0.2,0.4,0.4,0.6,0.7c0.1,0.3,0.2,0.7,0.2,1.1
		c0,0.4-0.1,0.7-0.2,1c-0.1,0.3-0.3,0.5-0.6,0.7c-0.2,0.2-0.5,0.3-0.8,0.4C98.4,90.4,98.1,90.5,97.8,90.5z M92.1,87.5v5.4
		c0,0.5-0.1,0.8-0.1,1.1c-0.1,0.3-0.2,0.5-0.4,0.6c-0.2,0.1-0.4,0.2-0.6,0.3c-0.2,0-0.4,0.1-0.7,0.1c-0.1,0-0.2,0-0.3,0
		c-0.1,0-0.1,0.1-0.1,0.1c0,0.1,0,0.1,0.1,0.1c0.1,0,0.2,0,0.3,0c0.5,0,1.1,0,1.6,0c0.5,0,1,0,1.5,0c0.3,0,0.6,0,0.9,0
		c0.3,0,0.6,0,1,0c0.3,0,0.7,0,1,0c0.1,0,0.2,0,0.3,0c0.1,0,0.1-0.1,0.1-0.1c0-0.1-0.1-0.1-0.1-0.1c-0.1,0-0.2,0-0.3,0
		c-0.2,0-0.5,0-0.7-0.1c-0.2,0-0.4-0.1-0.6-0.3c-0.2-0.1-0.3-0.3-0.4-0.6c-0.1-0.3-0.1-0.6-0.1-1.1v-1.6c0-0.1,0-0.1,0-0.1
		c0,0,0.1,0,0.1,0h2.3c0.1,0,0.3,0,0.4,0.1c0.1,0,0.2,0.1,0.3,0.2c0.1,0.1,0.2,0.2,0.3,0.3c0.4,0.6,0.8,1.1,1.2,1.5
		c0.3,0.4,0.6,0.8,0.9,1c0.3,0.3,0.6,0.5,0.8,0.6c0.3,0.2,0.6,0.3,0.9,0.3c0.3,0.1,0.7,0.1,1.1,0.1c0.4,0,0.9,0,1.5,0
		c0.3,0,0.5,0,0.7,0c0.2,0,0.4,0,0.5-0.1c0.1,0,0.2-0.1,0.2-0.2c0,0,0-0.1-0.1-0.1c0,0-0.1,0-0.3,0c-0.6,0-1.1-0.1-1.5-0.3
		c-0.5-0.2-0.9-0.5-1.3-0.9c-0.4-0.4-0.8-0.8-1.2-1.3c-0.4-0.5-0.8-1-1.2-1.6c0.4-0.1,0.7-0.2,1-0.4c0.3-0.2,0.6-0.3,0.9-0.6
		c0.3-0.2,0.5-0.5,0.6-0.8c0.1-0.3,0.2-0.7,0.2-1.1c0-0.4-0.1-0.8-0.2-1.1c-0.2-0.3-0.4-0.6-0.7-0.8c-0.3-0.2-0.6-0.4-1-0.5
		c-0.4-0.1-0.7-0.2-1.2-0.3c-0.4-0.1-0.8-0.1-1.2-0.2c-0.4,0-0.8,0-1.2,0c-0.4,0-0.8,0-1.3,0c-0.5,0-0.9,0-1.4,0c-0.5,0-1,0-1.4,0
		c-0.5,0-0.9,0-1.4,0c-0.5,0-1,0-1.5,0c-0.1,0-0.2,0-0.3,0c-0.1,0-0.1,0.1-0.1,0.1c0,0.1,0.1,0.1,0.2,0.1c0.1,0,0.2,0,0.3,0
		c0.2,0,0.5,0,0.7,0.1c0.2,0.1,0.4,0.1,0.5,0.3c0.2,0.1,0.3,0.4,0.4,0.6C92.1,86.7,92.1,87.1,92.1,87.5z M84.3,90.3
		c0.2,0,0.4,0.1,0.6,0.2c0.2,0.1,0.3,0.2,0.4,0.4c0.1,0.2,0.2,0.3,0.2,0.5c0,0.1,0.1,0.2,0.1,0.3c0,0.1,0.1,0.1,0.1,0.1
		c0.1,0,0.1,0,0.1-0.1c0-0.1,0-0.1,0-0.3c0-0.2,0-0.4,0-0.7c0-0.2,0-0.5,0-0.7c0-0.2,0-0.5,0-0.7c0-0.2,0-0.5,0-0.7
		c0-0.1,0-0.2,0-0.3c0-0.1-0.1-0.1-0.1-0.1c0,0-0.1,0-0.1,0.1c0,0.1-0.1,0.2-0.1,0.3c0,0.2-0.1,0.3-0.2,0.5
		c-0.1,0.2-0.3,0.3-0.4,0.4c-0.2,0.1-0.4,0.1-0.6,0.2H81c-0.1,0-0.1,0-0.1-0.1c0,0,0-0.1,0-0.2v-2.8c0-0.2,0.1-0.3,0.2-0.4
		c0.1-0.1,0.2-0.2,0.4-0.2h3.8c0.4,0,0.8,0,1.1,0c0.3,0,0.6,0.1,0.8,0.2c0.2,0.1,0.4,0.3,0.5,0.5c0.1,0.2,0.2,0.5,0.3,0.9
		c0,0.1,0,0.1,0,0.2c0,0,0.1,0,0.1,0c0,0,0.1,0,0.1,0c0,0,0.1-0.1,0.1-0.2l0.3-2.3c0-0.1,0-0.2,0-0.3c0,0-0.1-0.1-0.1-0.1
		c0,0-0.1,0-0.1,0c0,0-0.1,0-0.2,0.1c-0.1,0-0.2,0-0.3,0.1c-0.2,0-0.4,0-0.6,0h-5.3c-0.4,0-0.8,0-1.1,0c-0.4,0-0.7,0-1.1,0
		c-0.4,0-0.7,0-1,0c-0.3,0-0.6,0-0.8,0c-0.3,0-0.5,0-0.8,0c-0.1,0-0.2,0-0.3,0c-0.1,0-0.1,0.1-0.1,0.1c0,0.1,0,0.1,0.1,0.1
		c0.1,0,0.2,0,0.3,0c0.1,0,0.3,0,0.5,0.1c0.2,0,0.3,0.1,0.5,0.2c0.2,0.1,0.3,0.2,0.4,0.3c0.1,0.1,0.1,0.2,0.1,0.4c0,0.2,0,0.4,0,0.6
		v6.4c0,0.3,0,0.4,0,0.6c0,0.1-0.1,0.3-0.1,0.4c-0.1,0.1-0.2,0.3-0.4,0.3c-0.2,0.1-0.3,0.2-0.5,0.2c-0.2,0-0.3,0.1-0.5,0.1
		c-0.1,0-0.2,0-0.3,0c-0.1,0-0.1,0.1-0.1,0.1c0,0,0,0.1,0.1,0.1c0.1,0,0.2,0,0.3,0c0.2,0,0.5,0,0.8,0c0.3,0,0.6,0,0.9,0
		c0.3,0,0.6,0,1,0c0.4,0,0.7,0,1,0c0.3,0,0.6,0,0.9,0c0.3,0,0.5,0,0.8,0c0.1,0,0.2,0,0.3,0c0.1,0,0.1-0.1,0.1-0.1
		c0-0.1,0-0.1-0.1-0.1c-0.1,0-0.2,0-0.3,0c-0.1,0-0.3,0-0.5-0.1c-0.2,0-0.3-0.1-0.5-0.2c-0.2-0.1-0.3-0.2-0.4-0.3
		c-0.1-0.1-0.1-0.2-0.1-0.4c0-0.1,0-0.3,0-0.6v-2.9c0-0.1,0-0.1,0-0.1c0,0,0.1-0.1,0.1-0.1H84.3z M73.7,86.9c0-0.3,0.1-0.6,0.2-0.8
		c0.1-0.2,0.3-0.3,0.5-0.4c0.2-0.1,0.4-0.1,0.6-0.2c0.2,0,0.3-0.1,0.5-0.1c0.1,0,0.2-0.1,0.2-0.1c0,0,0-0.1-0.1-0.1
		c-0.1,0-0.2,0-0.3,0c-0.2,0-0.4,0-0.7,0c-0.2,0-0.5,0-0.7,0c-0.2,0-0.5,0-0.7,0c-0.3,0-0.5,0-0.7,0c-0.2,0-0.4,0-0.7,0
		c-0.2,0-0.5,0-0.7,0c-0.1,0-0.2,0-0.3,0c-0.1,0-0.1,0.1-0.1,0.1c0,0.1,0.1,0.1,0.2,0.1c0.1,0,0.3,0,0.5,0.1c0.2,0,0.4,0.1,0.6,0.1
		c0.2,0.1,0.3,0.2,0.5,0.4c0.1,0.2,0.2,0.5,0.2,0.9v5.3l-7.3-5.5c-0.4-0.3-0.7-0.5-0.9-0.7c-0.3-0.2-0.5-0.3-0.7-0.5
		c-0.2-0.1-0.4-0.2-0.6-0.3c-0.2-0.1-0.4-0.1-0.6-0.1c-0.2,0-0.4,0-0.7,0h-2.1c-0.1,0-0.2,0-0.3,0c-0.1,0-0.1,0.1-0.1,0.1
		c0,0.1,0.1,0.1,0.2,0.1c0.1,0,0.3,0.1,0.5,0.1c0.2,0,0.4,0.1,0.5,0.1c0.2,0.1,0.3,0.2,0.5,0.3c0.1,0.1,0.2,0.3,0.2,0.6
		c0,0.1,0,0.2,0,0.4c0,0.1,0,0.3,0,0.4v6.1c0,0.3,0,0.5,0,0.6c0,0.2-0.1,0.3-0.1,0.4c-0.1,0.1-0.2,0.2-0.3,0.3
		c-0.1,0.1-0.3,0.1-0.5,0.2c-0.2,0-0.3,0.1-0.5,0.1c-0.1,0-0.3,0-0.4,0.1c-0.1,0-0.1,0.1-0.1,0.1c0,0,0,0.1,0.1,0.1
		c0.1,0,0.2,0,0.3,0c0.3,0,0.6,0,1,0c0.3,0,0.7,0,1.1,0c0.3,0,0.5,0,0.7,0c0.2,0,0.4,0,0.6,0c0.2,0,0.4,0,0.7,0c0.1,0,0.2,0,0.3,0
		c0.1,0,0.1-0.1,0.1-0.1c0-0.1-0.1-0.1-0.1-0.1c-0.1,0-0.2,0-0.4-0.1c-0.1,0-0.3,0-0.5-0.1c-0.2,0-0.3-0.1-0.5-0.2
		c-0.1-0.1-0.3-0.2-0.3-0.3c0-0.1-0.1-0.2-0.1-0.4c0-0.2,0-0.4,0-0.6v-6.2l10.8,7.9c0.1,0.1,0.3,0.2,0.3,0.2
		c0.1,0.1,0.2,0.1,0.2,0.1c0,0,0.1,0,0.1-0.1c0-0.1,0-0.1,0-0.3V86.9z M52.6,91.1h-5.3L50,87L52.6,91.1z M53.9,93.1
		c0.2,0.3,0.4,0.6,0.5,0.8c0.1,0.2,0.1,0.4,0.1,0.5c0,0.2-0.1,0.4-0.3,0.4C54,94.9,53.8,95,53.6,95c-0.1,0-0.2,0-0.2,0.1
		c0,0-0.1,0.1-0.1,0.1c0,0,0,0.1,0.1,0.1c0,0,0.1,0,0.2,0c0.4,0,0.9,0,1.3,0c0.4,0,0.9,0,1.3,0c0.4,0,0.8,0,1.3,0c0.4,0,0.8,0,1.3,0
		c0.1,0,0.2,0,0.2,0c0,0,0.1-0.1,0.1-0.1c0,0,0-0.1-0.1-0.1c0,0-0.1,0-0.2,0c-0.3,0-0.5-0.1-0.7-0.2c-0.2-0.1-0.5-0.3-0.7-0.5
		c-0.2-0.2-0.4-0.4-0.6-0.7c-0.2-0.2-0.3-0.5-0.5-0.7L52,86.2c-0.2-0.3-0.3-0.5-0.5-0.6c-0.2-0.2-0.4-0.3-0.6-0.4
		c-0.2-0.1-0.5-0.1-0.9-0.1h-2c-0.1,0-0.2,0-0.2,0c-0.1,0-0.1,0.1-0.1,0.1c0,0,0,0.1,0.1,0.1c0.1,0,0.1,0,0.2,0c0.2,0,0.4,0,0.6,0.1
		c0.2,0.1,0.4,0.1,0.5,0.2c0.2,0.1,0.3,0.2,0.4,0.3l-4.3,6.4c-0.3,0.5-0.6,0.9-1,1.3c-0.3,0.4-0.6,0.7-1,0.9
		c-0.3,0.2-0.7,0.3-1.1,0.3c-0.1,0-0.2,0-0.2,0c-0.1,0-0.1,0.1-0.1,0.1c0,0,0,0.1,0.1,0.1c0,0,0.1,0,0.2,0c0.4,0,0.7,0,1.1,0
		c0.4,0,0.8,0,1.1,0c0.4,0,0.7,0,1.1,0c0.4,0,0.7,0,1.1,0c0.1,0,0.2,0,0.2,0c0,0,0.1-0.1,0.1-0.1c0,0,0-0.1-0.1-0.1c0,0-0.1,0-0.2,0
		c-0.3,0-0.5,0-0.7-0.1c-0.2-0.1-0.3-0.1-0.3-0.2c-0.1-0.1-0.1-0.2-0.1-0.3c0-0.1,0-0.2,0.1-0.4c0.1-0.1,0.1-0.3,0.2-0.4
		c0.1-0.1,0.2-0.3,0.2-0.4c0.1-0.1,0.2-0.2,0.2-0.3l0.6-0.9h6.2L53.9,93.1z M36.8,93.4c0,0.3,0,0.4,0,0.6c0,0.1-0.1,0.3-0.1,0.4
		c-0.1,0.1-0.2,0.3-0.4,0.3c-0.2,0.1-0.3,0.2-0.5,0.2c-0.2,0-0.3,0.1-0.5,0.1c-0.1,0-0.2,0-0.3,0C35,95,35,95.1,35,95.1
		c0,0,0,0.1,0.1,0.1c0.1,0,0.2,0,0.3,0c0.2,0,0.5,0,0.8,0c0.3,0,0.6,0,0.9,0c0.3,0,0.7,0,1,0c0.4,0,0.7,0,1,0c0.3,0,0.6,0,0.9,0
		c0.3,0,0.5,0,0.8,0c0.1,0,0.2,0,0.3,0c0.1,0,0.1-0.1,0.1-0.1c0-0.1,0-0.1-0.1-0.1c-0.1,0-0.2,0-0.3,0c-0.1,0-0.3,0-0.5-0.1
		c-0.2,0-0.3-0.1-0.5-0.2c-0.2-0.1-0.3-0.2-0.4-0.3c-0.1-0.1-0.1-0.2-0.1-0.4c0-0.1,0-0.3,0-0.6v-6.6c0-0.2,0-0.4,0-0.5
		c0-0.1,0.1-0.2,0.1-0.3c0.1-0.1,0.2-0.3,0.4-0.3c0.2-0.1,0.3-0.2,0.5-0.2c0.2,0,0.3-0.1,0.5-0.1c0.1,0,0.2,0,0.3,0
		c0.1,0,0.1-0.1,0.1-0.1c0,0,0-0.1-0.1-0.1c-0.1,0-0.2,0-0.3,0c-0.3,0-0.5,0-0.8,0c-0.3,0-0.6,0-0.9,0c-0.3,0-0.7,0-1,0
		c-0.4,0-0.7,0-1,0c-0.3,0-0.6,0-0.9,0c-0.3,0-0.5,0-0.8,0c-0.1,0-0.2,0-0.3,0c-0.1,0-0.1,0.1-0.1,0.1c0,0.1,0,0.1,0.1,0.1
		c0.1,0,0.2,0,0.3,0c0.1,0,0.3,0,0.5,0.1c0.2,0,0.3,0.1,0.5,0.2c0.2,0.1,0.3,0.2,0.4,0.3c0,0.1,0.1,0.2,0.1,0.3c0,0.1,0,0.3,0,0.5
		V93.4z M32,92.4c0-0.2,0-0.4,0-0.6c0-0.2,0.1-0.3,0.1-0.4c0.1-0.1,0.2-0.3,0.4-0.3c0.2-0.1,0.3-0.1,0.5-0.2c0.2,0,0.3-0.1,0.5-0.1
		c0.1,0,0.2,0,0.3,0c0.1,0,0.1-0.1,0.1-0.1c0,0,0-0.1-0.1-0.1c-0.1,0-0.2,0-0.3,0c-0.3,0-0.5,0-0.8,0c-0.3,0-0.6,0-0.9,0
		c-0.3,0-0.6,0-1,0c-0.4,0-0.7,0-1,0c-0.3,0-0.6,0-0.9,0c-0.3,0-0.5,0-0.8,0c-0.1,0-0.2,0-0.3,0c-0.1,0-0.1,0.1-0.1,0.1
		c0,0.1,0,0.1,0.1,0.1c0.1,0,0.2,0,0.3,0c0.1,0,0.3,0,0.5,0.1c0.2,0,0.3,0.1,0.5,0.2c0.2,0.1,0.3,0.2,0.4,0.3c0,0.1,0.1,0.2,0.1,0.4
		c0,0.2,0,0.4,0,0.6v1.3c0,0.2-0.1,0.3-0.2,0.4c-0.1,0.1-0.3,0.2-0.5,0.3c-0.2,0.1-0.4,0.1-0.6,0.2c-0.2,0-0.5,0.1-0.7,0.1
		c-0.2,0-0.5,0-0.7,0c-0.2,0-0.4,0-0.5,0c-0.5,0-1-0.1-1.6-0.2c-0.5-0.1-1-0.3-1.5-0.6c-0.5-0.3-0.9-0.6-1.2-0.9
		c-0.4-0.4-0.6-0.8-0.8-1.2c-0.2-0.5-0.3-1-0.3-1.5c0-0.6,0.1-1.1,0.3-1.5c0.2-0.5,0.5-0.9,0.8-1.2c0.4-0.4,0.8-0.7,1.2-0.9
		c0.5-0.3,1-0.4,1.5-0.6c0.5-0.1,1-0.2,1.6-0.2c0.5,0,1.1,0,1.6,0.1c0.5,0.1,1,0.2,1.5,0.4c0.5,0.2,0.9,0.5,1.2,0.8
		c0.3,0.4,0.6,0.8,0.7,1.4c0,0,0,0.1,0.1,0.1c0,0,0.1,0,0.1,0c0,0,0.1,0,0.1-0.1c0,0,0-0.1,0-0.2V87c0-0.3,0-0.6,0-0.8
		c0-0.2,0-0.4,0-0.5c0-0.1,0-0.2-0.1-0.2c0,0-0.1-0.1-0.1-0.1c-0.1,0-0.1,0-0.2,0c-0.1,0-0.1,0-0.2,0c0,0-0.1,0-0.1,0
		c0,0-0.1,0-0.1,0c-0.7-0.2-1.4-0.3-2.2-0.4c-0.8-0.1-1.6-0.1-2.4-0.1c-0.6,0-1.2,0-1.8,0.1c-0.6,0.1-1.2,0.2-1.8,0.4
		c-0.6,0.2-1.2,0.4-1.7,0.7c-0.5,0.3-1,0.6-1.4,1c-0.4,0.4-0.7,0.8-1,1.3c-0.2,0.5-0.3,1.1-0.4,1.7c0,0.6,0.1,1.2,0.4,1.7
		c0.2,0.5,0.6,1,1,1.3c0.4,0.4,0.9,0.7,1.4,1c0.5,0.3,1.1,0.5,1.7,0.7c0.6,0.2,1.2,0.3,1.8,0.4c0.6,0.1,1.2,0.1,1.7,0.1
		c0.2,0,0.4,0,0.7,0c0.3,0,0.6,0,0.9-0.1c0.3,0,0.7-0.1,1-0.1c0.4-0.1,0.7-0.1,1-0.2c0.3-0.1,0.6-0.2,0.9-0.3
		c0.3-0.1,0.5-0.3,0.6-0.5c0.2-0.2,0.2-0.4,0.2-0.7V92.4z"/>
	<path class="st0" d="M161.9,85.6c0.9,0,1.7,0.1,2.4,0.4c0.7,0.3,1.2,0.6,1.6,1.1c0.4,0.4,0.7,1,0.9,1.5c0.2,0.6,0.3,1.2,0.3,1.9
		c0,0.7-0.1,1.4-0.4,1.9c-0.3,0.6-0.6,1-1,1.4c-0.4,0.4-1,0.6-1.5,0.8c-0.6,0.2-1.2,0.3-1.8,0.3c-0.9,0-1.7-0.1-2.4-0.4
		c-0.7-0.3-1.2-0.6-1.6-1.1c-0.4-0.5-0.7-1-0.9-1.5c-0.2-0.6-0.3-1.2-0.3-1.9c0-0.6,0.1-1.1,0.3-1.6c0.2-0.5,0.4-0.9,0.7-1.2
		c0.3-0.4,0.7-0.6,1.1-0.9c0.4-0.2,0.8-0.4,1.3-0.5C160.9,85.7,161.4,85.6,161.9,85.6 M154.5,90.5c0,0.6,0.1,1.2,0.4,1.7
		c0.2,0.5,0.6,1,1,1.4c0.5,0.4,1,0.8,1.6,1.1c0.6,0.3,1.3,0.5,2,0.7c0.7,0.2,1.5,0.2,2.3,0.2c1.1,0,2.1-0.1,3-0.3
		c0.9-0.2,1.6-0.5,2.2-0.9c0.6-0.4,1.1-0.8,1.5-1.3c0.4-0.5,0.7-1,0.9-1.5c0.2-0.5,0.3-1,0.3-1.5c0-0.6-0.1-1.2-0.4-1.7
		c-0.2-0.5-0.6-1-1-1.4c-0.4-0.4-1-0.8-1.6-1.1c-0.6-0.3-1.3-0.5-2-0.7c-0.7-0.2-1.5-0.2-2.3-0.2c-1.1,0-2.1,0.1-3,0.3
		c-0.9,0.2-1.6,0.5-2.2,0.9c-0.6,0.4-1.1,0.8-1.5,1.3c-0.4,0.5-0.7,1-0.9,1.5C154.6,89.4,154.5,89.9,154.5,90.5z M152.7,91.8
		c0-0.1,0-0.1-0.1-0.2c0,0-0.1,0-0.1,0c0,0-0.1,0.1-0.1,0.2c-0.1,0.5-0.3,0.9-0.5,1.3c-0.2,0.3-0.5,0.6-0.9,0.8
		c-0.3,0.2-0.7,0.4-1.1,0.5c-0.4,0.1-0.8,0.2-1.3,0.2c-0.4,0-0.9,0.1-1.3,0.1c-0.6,0-1.1-0.1-1.6-0.2c-0.5-0.1-1-0.3-1.5-0.6
		c-0.5-0.3-0.9-0.6-1.2-0.9c-0.3-0.4-0.6-0.8-0.8-1.2c-0.2-0.5-0.3-1-0.3-1.5c0-0.6,0.1-1.1,0.3-1.5c0.2-0.5,0.5-0.9,0.8-1.2
		c0.3-0.4,0.7-0.7,1.2-0.9c0.5-0.3,0.9-0.5,1.5-0.6c0.5-0.1,1.1-0.2,1.6-0.2c0.5,0,1.1,0,1.6,0.1c0.5,0.1,1,0.2,1.5,0.4
		c0.5,0.2,0.9,0.5,1.2,0.8c0.3,0.4,0.6,0.8,0.7,1.4c0,0.1,0.1,0.1,0.1,0.1c0,0,0.1,0,0.1,0c0,0,0.1-0.1,0.1-0.2V87c0-0.4,0-0.7,0-1
		c0-0.2,0-0.4-0.1-0.5c0-0.1-0.1-0.1-0.1-0.2c-0.1,0-0.1,0-0.2,0c-0.1,0-0.1,0-0.2,0.1c-0.1,0-0.2,0-0.3,0c-0.7-0.2-1.4-0.3-2.2-0.4
		c-0.8-0.1-1.6-0.2-2.4-0.2c-0.6,0-1.2,0-1.8,0.1c-0.6,0.1-1.2,0.2-1.8,0.4c-0.6,0.2-1.2,0.4-1.7,0.7c-0.5,0.3-1,0.6-1.4,1
		c-0.4,0.4-0.7,0.8-1,1.3c-0.2,0.5-0.3,1.1-0.4,1.7c0,0.6,0.1,1.2,0.4,1.7c0.2,0.5,0.5,0.9,1,1.3c0.4,0.4,0.9,0.7,1.4,1
		c0.5,0.3,1.1,0.5,1.7,0.7c0.6,0.2,1.2,0.3,1.8,0.4c0.6,0.1,1.2,0.1,1.8,0.1c0.5,0,1,0,1.6-0.1c0.5,0,1-0.1,1.5-0.2
		c0.5-0.1,1-0.3,1.4-0.4c0.3-0.1,0.5-0.3,0.6-0.5c0.1-0.2,0.2-0.4,0.2-0.7L152.7,91.8z M136.8,86.9c0-0.3,0.1-0.6,0.2-0.8
		c0.1-0.2,0.3-0.3,0.5-0.4c0.2-0.1,0.4-0.1,0.6-0.2c0.2,0,0.3-0.1,0.5-0.1c0.1,0,0.2-0.1,0.2-0.1c0,0,0-0.1-0.1-0.1
		c-0.1,0-0.2,0-0.3,0c-0.2,0-0.4,0-0.7,0c-0.2,0-0.5,0-0.7,0c-0.2,0-0.5,0-0.7,0c-0.3,0-0.5,0-0.7,0c-0.2,0-0.4,0-0.7,0
		c-0.2,0-0.5,0-0.7,0c-0.1,0-0.2,0-0.3,0c-0.1,0-0.1,0.1-0.1,0.1c0,0.1,0.1,0.1,0.2,0.1c0.1,0,0.3,0,0.5,0.1c0.2,0,0.4,0.1,0.6,0.1
		c0.2,0.1,0.3,0.2,0.5,0.4c0.1,0.2,0.2,0.5,0.2,0.9v5.3l-7.3-5.5c-0.4-0.3-0.7-0.5-0.9-0.7c-0.3-0.2-0.5-0.3-0.7-0.5
		c-0.2-0.1-0.4-0.2-0.6-0.3c-0.2-0.1-0.4-0.1-0.6-0.1c-0.2,0-0.4,0-0.7,0h-2.1c-0.1,0-0.2,0-0.3,0c-0.1,0-0.1,0.1-0.1,0.1
		c0,0.1,0.1,0.1,0.2,0.1c0.1,0,0.3,0.1,0.5,0.1c0.2,0,0.4,0.1,0.5,0.1c0.2,0.1,0.3,0.2,0.5,0.3c0.1,0.1,0.2,0.3,0.2,0.6
		c0,0.1,0,0.2,0,0.4c0,0.1,0,0.3,0,0.4v6.1c0,0.3,0,0.5,0,0.6c0,0.2-0.1,0.3-0.1,0.4c-0.1,0.1-0.2,0.2-0.3,0.3
		c-0.1,0.1-0.3,0.1-0.5,0.2c-0.2,0-0.3,0.1-0.5,0.1c-0.1,0-0.3,0-0.4,0.1c-0.1,0-0.1,0.1-0.1,0.1c0,0,0,0.1,0.1,0.1
		c0.1,0,0.2,0,0.3,0c0.3,0,0.6,0,1,0c0.3,0,0.7,0,1.1,0c0.3,0,0.5,0,0.7,0c0.2,0,0.4,0,0.6,0c0.2,0,0.4,0,0.7,0c0.1,0,0.2,0,0.3,0
		c0.1,0,0.1-0.1,0.1-0.1c0-0.1-0.1-0.1-0.1-0.1c-0.1,0-0.2,0-0.4-0.1c-0.1,0-0.3,0-0.5-0.1c-0.2,0-0.3-0.1-0.5-0.2
		c-0.1-0.1-0.3-0.2-0.3-0.3c0-0.1-0.1-0.2-0.1-0.4c0-0.2,0-0.4,0-0.6v-6.2l10.8,7.9c0.1,0.1,0.3,0.2,0.3,0.2
		c0.1,0.1,0.2,0.1,0.2,0.1c0,0,0.1,0,0.1-0.1c0-0.1,0-0.1,0-0.3V86.9z"/>
	<path class="st0" d="M128.6,106.6L128.6,106.6v0.2c-0.4,0.6-0.7,1-0.9,1.2c-0.4,0.4-0.7,0.6-1.1,0.6c-0.2,0-0.4,0-0.5-0.1
		c-0.1-0.1-0.2-0.3-0.2-0.5c0-0.3,0.1-0.8,0.3-1.3c0.1-0.3,0.3-0.6,0.4-1c0.2-0.4,0.4-0.8,0.7-1.3l-1.9,2.5l-0.1,0.1l-0.1-0.1
		l0.1-0.1l1.1-1.5l1.2-1.6l1.4-2.9l1.1-0.1l-3.1,6.2l-0.3,0.8c0,0.1-0.1,0.2-0.1,0.3c0,0.1,0,0.2-0.1,0.3c0,0.1,0,0.2,0.1,0.2
		c0.2,0,0.6-0.2,1-0.7l0.7-0.9L128.6,106.6z M125.5,106.6L125.5,106.6v0.2c-0.4,0.6-0.7,1-0.9,1.2c-0.4,0.4-0.7,0.6-1.1,0.6
		c-0.2,0-0.4,0-0.5-0.1c-0.1-0.1-0.2-0.3-0.2-0.5c0-0.3,0.1-0.8,0.3-1.3c0.1-0.3,0.3-0.6,0.4-1c0.2-0.4,0.4-0.8,0.7-1.3l-1.9,2.5
		l-0.1,0.1l-0.1-0.1l0.1-0.1l1.1-1.5l1.2-1.6l1.4-2.9l1.1-0.1l-3.1,6.2l-0.3,0.8c0,0.1-0.1,0.2-0.1,0.3c0,0.1,0,0.2-0.1,0.3
		c0,0.1,0,0.2,0.1,0.2c0.2,0,0.6-0.2,1-0.7l0.7-0.9L125.5,106.6z M122,104.5l-1.6,3.1c0,0.1-0.1,0.2-0.1,0.4c0,0.2,0.1,0.3,0.3,0.3
		c0.3,0,0.6-0.2,1-0.7c0.2-0.2,0.4-0.5,0.7-1l0.1-0.1l0,0l0,0l0,0.1c-0.5,0.7-0.9,1.2-1.2,1.4c-0.3,0.2-0.6,0.3-0.9,0.3
		c-0.3,0-0.5-0.1-0.7-0.3c-0.1-0.2-0.2-0.4-0.2-0.7c0-0.2,0-0.4,0.1-0.6l0.9-1.8l-1.1,1.6l-0.1,0.1l-0.1-0.1l0.1-0.2l1.4-2
		L122,104.5z M122.7,102.9c0,0.1,0,0.3-0.1,0.4c-0.1,0.1-0.2,0.2-0.4,0.2c-0.1,0-0.3,0-0.4-0.1c-0.1-0.1-0.1-0.2-0.1-0.4
		c0-0.2,0.1-0.3,0.2-0.4c0.1-0.1,0.2-0.2,0.4-0.2c0.1,0,0.3,0,0.3,0.1C122.7,102.7,122.7,102.8,122.7,102.9z M116.2,106.8
		C116.2,106.8,116.2,106.8,116.2,106.8C116.2,106.8,116.2,106.7,116.2,106.8l0-0.2l1.3-1.8c-0.1-0.1-0.2-0.1-0.2-0.3
		c0-0.2,0.1-0.3,0.3-0.3c0.2,0,0.3,0.1,0.3,0.3c0,0.1,0,0.2-0.1,0.3c0.3,0.2,0.6,0.3,0.7,0.5c0.2,0.1,0.2,0.3,0.3,0.4
		c0,0.1-0.1,0.3-0.2,0.5l-0.4,0.7l-0.5,0.8c-0.1,0.2-0.2,0.4-0.2,0.6c0,0.1,0.1,0.2,0.2,0.2c0.2,0,0.5-0.2,0.8-0.5
		c0.1-0.1,0.2-0.3,0.4-0.5c0.2-0.2,0.3-0.5,0.5-0.8l0.1-0.1l0.1,0.1l-0.1,0.2c-0.5,0.7-0.9,1.2-1.2,1.5c-0.3,0.2-0.6,0.4-0.8,0.4
		c-0.3,0-0.5-0.1-0.6-0.2c-0.2-0.2-0.2-0.4-0.2-0.6c0-0.1,0-0.3,0.1-0.5c0.1-0.2,0.2-0.5,0.4-0.8c0.1-0.2,0.2-0.4,0.3-0.5
		c0-0.1,0.1-0.1,0.3-0.3c0.1-0.1,0.2-0.2,0.3-0.3c-0.1-0.1-0.3-0.2-0.5-0.3l-0.8,1.1L116.2,106.8L116.2,106.8z M109.9,111.7
		c0,0.4,0.2,0.6,0.5,0.6c0.2,0,0.4-0.1,0.7-0.3c0.2-0.2,0.5-0.6,0.9-1.4l0.8-1.6c-0.9,0.3-1.6,0.6-2.1,1.1
		C110.2,110.7,109.9,111.2,109.9,111.7z M112.6,106.5l-0.4,0.9c-0.1,0.3-0.2,0.5-0.2,0.7c0,0.2,0.1,0.3,0.2,0.3
		c0.2,0,0.5-0.1,0.8-0.4c0.3-0.3,0.6-0.6,0.8-1l0.6-1l0.4-0.7c0-0.1,0-0.3-0.1-0.4c-0.1-0.1-0.2-0.2-0.4-0.2
		C113.8,104.6,113.3,105.2,112.6,106.5z M113.5,107.7c-0.2,0.2-0.3,0.4-0.5,0.5c-0.3,0.2-0.6,0.3-0.8,0.3c-0.3,0-0.5-0.1-0.7-0.3
		c-0.1-0.2-0.2-0.5-0.2-0.8c0-0.7,0.3-1.3,0.8-1.9c0.3-0.3,0.6-0.6,1-0.7c0.4-0.2,0.8-0.3,1.2-0.3c0.2,0,0.4,0,0.5,0.1
		c0.1,0.1,0.2,0.2,0.2,0.4l0.2-0.4l1.1-0.1l-2.1,4.1c0.4-0.1,0.8-0.3,1.1-0.6c0.2-0.2,0.6-0.7,1.1-1.4l0.1-0.1l0.1,0l0,0l-0.1,0.1
		l-0.8,1.1c-0.4,0.5-0.9,0.8-1.5,0.9l-0.5,1l-0.6,1.2c-0.2,0.4-0.6,0.8-1,1.1c-0.5,0.3-0.9,0.4-1.4,0.4c-0.3,0-0.5-0.1-0.7-0.3
		c-0.2-0.2-0.2-0.4-0.2-0.7c0-0.6,0.3-1.2,1-1.7c0.6-0.4,1.3-0.8,2.3-1L113.5,107.7z M107.1,106.2c0.3-0.1,0.6-0.3,0.8-0.6
		c0.2-0.3,0.3-0.5,0.3-0.6c0-0.2-0.1-0.3-0.4-0.3c-0.2,0-0.5,0.2-0.8,0.5c-0.3,0.3-0.6,0.8-0.9,1.2h0.2c0.1,0,0.2,0,0.3,0
		C106.7,106.3,106.9,106.3,107.1,106.2z M107.2,106.3c-0.2,0.1-0.4,0.2-0.6,0.2l-0.6,0l-0.2,0.6l-0.1,0.5c0,0.2,0,0.4,0.1,0.5
		c0.1,0.1,0.2,0.2,0.4,0.2c0.4,0,0.8-0.2,1.2-0.6c0.3-0.2,0.6-0.6,0.9-1.1l0.1-0.1l0.1,0.1l0,0.1c-0.2,0.3-0.3,0.5-0.4,0.6
		c-0.1,0.2-0.2,0.3-0.3,0.3c-0.5,0.6-1,0.9-1.5,0.9c-0.5,0-1-0.2-1.3-0.5c-0.3-0.3-0.4-0.6-0.4-1c0-0.7,0.3-1.3,0.9-1.8
		c0.6-0.5,1.3-0.8,2.1-0.8c0.5,0,0.7,0.2,0.7,0.5c0,0.2-0.1,0.5-0.4,0.7C107.8,105.9,107.5,106.2,107.2,106.3z M102.7,100.6l1.1-0.1
		l-3.1,6.1c0.4-0.6,0.8-1.1,1.2-1.4c0.5-0.5,0.9-0.7,1.2-0.7c0.3,0,0.5,0.1,0.6,0.2c0.2,0.1,0.2,0.4,0.2,0.6c0,0.2,0,0.4-0.1,0.6
		c-0.1,0.2-0.2,0.5-0.5,0.8l-0.3,0.6c-0.2,0.3-0.3,0.6-0.3,0.7c0,0.1,0.1,0.2,0.2,0.2c0.2,0,0.5-0.2,1-0.7c0.3-0.3,0.5-0.7,0.8-1.1
		l0.1-0.1l0.1,0l0,0l0,0.1l-0.8,1.1c-0.5,0.5-0.9,0.8-1.2,0.8c-0.3,0-0.5-0.1-0.7-0.2c-0.2-0.2-0.2-0.4-0.2-0.6
		c0-0.4,0.2-0.9,0.7-1.5l0.5-0.8c0.1-0.2,0.2-0.3,0.2-0.5c0-0.1-0.1-0.2-0.2-0.2c-0.4,0-1,0.5-1.8,1.5c-0.6,0.8-1,1.3-1.2,1.7
		l-0.2,0.4h-1.1l2.1-4.1l-0.9,1.2l-1,1.3l-0.1,0.1l-0.1,0l0,0l0.1-0.1l1.6-2.1l0.8-1.1L102.7,100.6z M99,101.9l1-0.1l-0.8,1.6l1,0
		l0.1,0l0,0l-0.2,0.1l-1,0l-2,3.9l-0.1,0.3l0,0.3c0,0.2,0.1,0.3,0.2,0.3c0.3,0,0.6-0.3,1.1-0.9l0.6-0.8l0.1-0.1l0.1,0.1l0,0.1
		c-0.4,0.5-0.7,0.9-0.9,1.2c-0.4,0.4-0.7,0.6-1,0.6c-0.3,0-0.5-0.1-0.7-0.2c-0.1-0.1-0.2-0.4-0.2-0.6c0-0.2,0.1-0.4,0.2-0.7l1.4-2.7
		l-1.8,2.4l-0.1,0.1l-0.1-0.1l0.1-0.1l0.9-1.3l1.4-1.9L99,101.9z M94.4,102.4c0.5-0.6,0.7-1.1,0.7-1.5c0-0.2-0.1-0.3-0.3-0.3
		c-0.3,0-0.6,0.2-1,0.6c-0.3,0.3-0.6,0.7-0.8,1.1l-0.4,0.9l-0.4,1c0.3-0.2,0.7-0.4,1.1-0.8C93.7,103.1,94,102.8,94.4,102.4z
		 M89.5,106.7L89.5,106.7l-0.1,0c0,0,0-0.1,0-0.1c0,0,0,0,0,0l0.8-1.2c0.4-0.5,0.7-0.8,0.9-0.9l0.5-1c0.2-0.4,0.4-0.8,0.6-1.2
		c0.3-0.5,0.6-0.9,1-1.3c0.5-0.4,0.9-0.6,1.3-0.6c0.4,0,0.6,0.2,0.6,0.5c0,0.2-0.1,0.5-0.2,0.7c-0.1,0.3-0.3,0.5-0.6,0.8
		c-0.3,0.3-0.7,0.7-1.2,1.1c-0.5,0.4-0.9,0.7-1.3,0.9l-1.7,3.7l0.3,0.1c0.2,0.1,0.3,0.1,0.5,0.1c0.3,0,0.6-0.3,1.1-0.9l0.7-0.9
		l0.1-0.1c0.1,0,0.1,0,0.1,0.1l0,0.1c-0.4,0.6-0.7,1-0.9,1.2c-0.3,0.4-0.7,0.6-1,0.6c-0.2,0-0.3,0-0.5,0c-0.1,0-0.3-0.1-0.4-0.2
		l-2.1,4h-1l2.3-4.4c-0.1-0.1-0.1-0.1-0.1-0.2c0-0.2,0.1-0.2,0.2-0.2c0.1,0,0.1,0,0.1,0.1l1.4-2.7c-0.2,0.1-0.5,0.5-0.9,1
		L89.5,106.7z M86.9,106.3l-0.3,0.8c0,0.1-0.1,0.2-0.1,0.4c0,0.1,0,0.2,0,0.3c0,0.4,0.1,0.6,0.4,0.6c0.3,0,0.7-0.2,1-0.5
		c0.2-0.3,0.5-0.7,0.7-1.2l0.2-0.6c0-0.2,0.1-0.3,0.1-0.4c0-0.1,0-0.2,0-0.3c0-0.5-0.2-0.7-0.5-0.7c-0.3,0-0.5,0.2-0.9,0.6
		c-0.1,0.1-0.2,0.3-0.3,0.4C87.1,105.8,87,106,86.9,106.3z M89.1,105.5c0,0.4-0.1,0.7-0.2,1.1c-0.1,0.4-0.3,0.7-0.5,0.9
		c0.2-0.1,0.4-0.2,0.6-0.3c0.2-0.1,0.3-0.3,0.5-0.6l0.1-0.1l0.1,0.1l-0.1,0.2c-0.2,0.3-0.4,0.5-0.7,0.7c-0.2,0.1-0.4,0.2-0.6,0.2
		l-0.5,0.5c-0.3,0.3-0.7,0.4-1,0.4c-0.3,0-0.6-0.1-0.9-0.4c-0.3-0.3-0.4-0.6-0.4-1.1c0-0.6,0.2-1.1,0.7-1.6c0.5-0.6,1.2-0.9,1.9-0.9
		c0.4,0,0.6,0.1,0.8,0.3C89.1,104.9,89.1,105.2,89.1,105.5z M76.3,111.7c0,0.4,0.2,0.6,0.5,0.6c0.2,0,0.4-0.1,0.7-0.3
		c0.2-0.2,0.5-0.6,0.9-1.4l0.8-1.6c-0.9,0.3-1.6,0.6-2.1,1.1C76.6,110.7,76.3,111.2,76.3,111.7z M79,106.5l-0.4,0.9
		c-0.1,0.3-0.2,0.5-0.2,0.7c0,0.2,0.1,0.3,0.2,0.3c0.2,0,0.5-0.1,0.8-0.4c0.3-0.3,0.6-0.6,0.8-1l0.6-1l0.4-0.7c0-0.1,0-0.3-0.1-0.4
		c-0.1-0.1-0.2-0.2-0.4-0.2C80.2,104.6,79.7,105.2,79,106.5z M79.9,107.7c-0.2,0.2-0.3,0.4-0.5,0.5c-0.3,0.2-0.6,0.3-0.8,0.3
		c-0.3,0-0.5-0.1-0.7-0.3c-0.1-0.2-0.2-0.5-0.2-0.8c0-0.7,0.3-1.3,0.8-1.9c0.3-0.3,0.6-0.6,1-0.7c0.4-0.2,0.8-0.3,1.2-0.3
		c0.2,0,0.4,0,0.5,0.1c0.1,0.1,0.2,0.2,0.2,0.4l0.2-0.4l1.1-0.1l-2.1,4.1c0.4-0.1,0.8-0.3,1.1-0.6c0.2-0.2,0.6-0.7,1.1-1.4l0.1-0.1
		l0.1,0l0,0l-0.1,0.1l-0.8,1.1c-0.4,0.5-0.9,0.8-1.5,0.9l-0.5,1l-0.6,1.2c-0.2,0.4-0.6,0.8-1,1.1c-0.5,0.3-0.9,0.4-1.4,0.4
		c-0.3,0-0.5-0.1-0.7-0.3c-0.2-0.2-0.2-0.4-0.2-0.7c0-0.6,0.3-1.2,1-1.7c0.6-0.4,1.3-0.8,2.3-1L79.9,107.7z M73.3,108.4l-1.1,0
		l1.7-3.2l0.1-0.3l0-0.2c0-0.1,0-0.1-0.1-0.1c-0.2,0-0.6,0.3-1.2,1l-0.8,1.1l-0.1,0.1l-0.1-0.1c0,0,0-0.1,0-0.1
		c0.1-0.2,0.3-0.4,0.4-0.6c0.2-0.3,0.3-0.5,0.4-0.6c0.5-0.7,1-1,1.3-1c0.2,0,0.4,0.1,0.6,0.2c0.1,0.2,0.2,0.3,0.2,0.6l0,0.2
		c0.3-0.3,0.5-0.6,0.7-0.7c0.2-0.2,0.5-0.3,0.7-0.3c0.5,0,0.7,0.3,0.7,0.8c0,0.4-0.2,0.9-0.5,1.3c-0.2,0.3-0.4,0.6-0.5,0.8
		c-0.1,0.2-0.2,0.4-0.2,0.6c0,0.2,0.1,0.3,0.4,0.3c0.3,0,0.6-0.2,0.9-0.5c0.2-0.2,0.5-0.6,0.8-1.1c0-0.1,0.1-0.1,0.1-0.1l0,0
		c0,0.1-0.1,0.2-0.1,0.2c-0.4,0.5-0.7,0.9-0.9,1.1c-0.3,0.4-0.7,0.6-1.1,0.6c-0.3,0-0.5-0.1-0.6-0.2c-0.2-0.1-0.3-0.4-0.3-0.7
		c0-0.2,0-0.4,0.1-0.7c0.1-0.3,0.2-0.5,0.4-0.8l0.5-0.8c0.2-0.3,0.3-0.4,0.3-0.5c0-0.1-0.1-0.2-0.2-0.2c-0.2,0-0.5,0.2-0.8,0.5
		c-0.3,0.3-0.6,0.7-0.8,1L73.3,108.4z M71.5,104.5l-1.6,3.1c0,0.1-0.1,0.2-0.1,0.4c0,0.2,0.1,0.3,0.3,0.3c0.3,0,0.6-0.2,1-0.7
		c0.2-0.2,0.4-0.5,0.7-1l0.1-0.1l0,0l0,0l0,0.1c-0.5,0.7-0.9,1.2-1.2,1.4c-0.3,0.2-0.6,0.3-0.9,0.3c-0.3,0-0.5-0.1-0.7-0.3
		c-0.1-0.2-0.2-0.4-0.2-0.7c0-0.2,0-0.4,0.1-0.6l0.9-1.8l-1.1,1.6l-0.1,0.1l-0.1-0.1l0.1-0.2l1.4-2L71.5,104.5z M72.2,102.9
		c0,0.1,0,0.3-0.1,0.4c-0.1,0.1-0.2,0.2-0.4,0.2c-0.1,0-0.3,0-0.4-0.1c-0.1-0.1-0.1-0.2-0.1-0.4c0-0.2,0.1-0.3,0.2-0.4
		c0.1-0.1,0.2-0.2,0.4-0.2c0.1,0,0.3,0,0.3,0.1C72.1,102.7,72.2,102.8,72.2,102.9z M65.5,103.2c-0.1,0-0.2,0-0.2,0.1
		c0,0.1,0.1,0.1,0.2,0.2c0.1,0.1,0.2,0.1,0.4,0.1H66c0-0.1,0-0.2-0.1-0.2C65.8,103.3,65.7,103.2,65.5,103.2z M70.6,99.5
		c0.1,0,0.1,0,0.2,0.1h0.1l-0.1,0l-0.4,0.1c-0.1,0-0.2,0-0.3,0c-0.1,0-0.2,0.1-0.3,0.1c-0.2,0.1-0.3,0.2-0.4,0.3
		c-0.1,0.1-0.3,0.4-0.5,0.9l-0.3,0.8c-0.3,0.6-0.7,1-1.1,1.4c-0.2,0.2-0.6,0.4-0.9,0.5c0.1,0.1,0.1,0.3,0.2,0.4
		c0,0.2,0.1,0.4,0.1,0.6l0.1,1.3c0,0.2,0,0.5,0,0.9c0,0.4,0,0.6,0,0.7c0,0.4,0.1,0.6,0.3,0.6c0.3,0,0.7-0.3,1.3-1
		c0,0,0.1-0.1,0.2-0.3c0.1-0.2,0.2-0.3,0.3-0.4c0.1-0.1,0.1-0.1,0.2-0.2l0,0.1c0,0.1,0,0.1-0.1,0.2l-0.7,1c-0.5,0.5-0.9,0.8-1.4,0.8
		c-0.5,0-0.9-0.1-1.2-0.3c-0.3-0.2-0.4-0.5-0.4-1c0-0.3,0-0.6,0.1-1l0.2-0.8l0.3-1.1c0.1-0.2,0.1-0.4,0.1-0.6
		c-0.6,0-0.8-0.1-0.8-0.4c0-0.2,0.1-0.2,0.3-0.2c0.1,0,0.3,0,0.5,0.1c0.2,0.1,0.3,0.1,0.4,0.3c0.2-0.1,0.5-0.4,0.7-0.8l0.5-0.9
		c0.5-0.8,0.8-1.3,1-1.6C69.2,99.7,69.8,99.5,70.6,99.5z M60.5,108.6c-0.6,0-1-0.1-1.4-0.4c-0.4-0.2-0.5-0.6-0.5-1
		c0-0.3,0.1-0.5,0.3-0.7c0.2-0.2,0.4-0.2,0.6-0.2c0.2,0,0.4,0.1,0.5,0.2c0.1,0.1,0.2,0.3,0.2,0.6c0,0.2-0.1,0.4-0.3,0.6
		c-0.2,0.2-0.4,0.3-0.7,0.3c0.1,0.1,0.3,0.2,0.5,0.3c0.2,0.1,0.5,0.1,0.7,0.1c0.5,0,1.1-0.3,1.5-0.9c0.2-0.3,0.5-0.9,0.8-1.7
		c0.1-0.3,0.3-0.7,0.4-1c0-0.1,0.1-0.2,0.2-0.4c0.2-0.5,0.5-1.1,0.8-1.7c0.1-0.3,0.3-0.6,0.5-0.8l0.8-0.9c-0.2,0.1-0.5,0.3-0.8,0.4
		c-0.4,0.1-0.7,0.2-1,0.2c-0.5,0-0.7-0.2-0.7-0.6l0.1-0.3v-0.2c0-0.1-0.1-0.2-0.2-0.2c-0.2,0-0.4,0.1-0.7,0.4
		c-0.2,0.2-0.4,0.5-0.7,0.8l-0.1,0.2l0,0l0-0.1l0.1-0.2c0.3-0.5,0.6-0.9,1-1.1c0.4-0.3,0.8-0.4,1.1-0.4c0.2,0,0.3,0,0.4,0.1
		c0.1,0.1,0.1,0.3,0.1,0.6c0,0.2,0,0.4,0.1,0.5c0,0.1,0.1,0.1,0.3,0.2c0.3,0,0.6-0.1,1-0.3c0.5-0.2,0.9-0.6,1.2-1
		c0.1-0.1,0.1-0.1,0.2-0.1c0,0,0.1,0,0.1,0.1c0,0,0,0,0,0l0,0.1c-0.1,0.1-0.2,0.3-0.3,0.5c-0.1,0.2-0.2,0.3-0.3,0.5l-0.4,1l-0.8,2.2
		c-0.4,1-0.6,1.7-0.9,2.1c-0.4,0.7-0.9,1.3-1.4,1.7C61.8,108.3,61.2,108.6,60.5,108.6z"/>
</g>
</svg>
