<?xml version="1.0" encoding="utf-8"?>
<!-- Generator: Adobe Illustrator 22.0.0, SVG Export Plug-In . SVG Version: 6.00 Build 0)  -->
<svg version="1.1" id="Слой_1" xmlns="http://www.w3.org/2000/svg" xmlns:xlink="http://www.w3.org/1999/xlink" x="0px" y="0px"
	 viewBox="0 0 198.4 113.4" style="enable-background:new 0 0 198.4 113.4;" xml:space="preserve">
<style type="text/css">
	.st0{fill:#4F5260;}
</style>
<g>
	<g>
		<path class="st0" d="M39.1,66.3v-0.4c0.7-0.1,1.2-0.1,1.5-0.4c0.2-0.3,0.3-1.1,0.3-1.9c0-0.3,0-2.9,0-3.2h-6.7c0,0.4,0,3.1,0,3.5
			c0,1.8,0.3,1.8,1.7,1.9v0.4h-5v-0.4c0.6-0.1,1.1-0.1,1.4-0.4c0.2-0.3,0.2-0.9,0.2-1.7c0-0.8,0-6.1,0-6.9c0-1.7-0.3-1.7-1.7-1.9
			v-0.4h5V55c-0.6,0.1-1,0.1-1.3,0.3c-0.3,0.3-0.4,0.7-0.4,1.5c0,0.4,0,2.7,0,3.1h6.7c0-0.3,0-2.6,0-2.9c0-1.9-0.2-1.9-1.7-2v-0.4h5
			V55c-0.6,0.1-1.1,0.1-1.4,0.4c-0.3,0.3-0.3,1-0.3,1.9c0,0.7,0,6,0,6.7c0,0.7,0,1.4,0.2,1.7c0.3,0.3,0.8,0.3,1.4,0.4v0.4H39.1z"/>
		<path class="st0" d="M53.1,65.2c-0.7,0.8-2,1.4-3,1.4c-2.3,0-4.1-1.9-4.1-4.2c0-2.1,2.1-4,4.2-4c0.9,0,2,0.4,2.7,1
			c0.9,0.7,1.5,1.9,1.5,3C54.2,63.4,53.8,64.5,53.1,65.2 M51.9,59.9c-0.4-0.6-1.1-1.1-1.8-1.1c-0.4,0-0.8,0.1-1.1,0.3
			c-1.1,0.7-1.4,2-1.4,3.2c0,1.5,0.8,3.7,2.7,3.7c1.7,0,2.4-2.2,2.4-3.6C52.6,61.6,52.4,60.7,51.9,59.9"/>
		<path class="st0" d="M60.8,59.4h-2.5V64c0,0.9,0.3,1.7,1.3,1.7c0.5,0,0.9-0.2,1.3-0.5l0.2,0.2c-0.6,0.7-1.6,1.1-2.5,1.1
			c-1.3,0-1.8-0.8-1.8-2c0-1.7,0-3.4,0.1-5.1h-1.1l0-0.1c0.9-0.7,1.7-1.5,2.6-2.2v1.6h2.3h0.5L60.8,59.4z"/>
		<path class="st0" d="M66,66.6c-2,0-3.5-1.8-3.5-3.7c0-1.2,0.4-2.5,1.3-3.4c0.6-0.6,1.5-1,2.4-1c1.6,0,2.9,1.1,3,2.7
			c-1.7,0.1-3.5,0.1-5.2,0.1c0,0.2,0,0.4,0,0.6v0.3c0,1.7,1.2,3.3,3,3.3c0.8,0,1.6-0.6,2.1-1.2l0.2,0.2C68.6,65.5,67.3,66.6,66,66.6
			 M67.2,59.6c-0.3-0.6-0.8-0.8-1.4-0.8c-1.1,0-1.7,1.2-1.9,2.1c1.2,0,2.4-0.1,3.6-0.3C67.5,60.3,67.4,59.9,67.2,59.6"/>
		<path class="st0" d="M70.7,66.3V66c0.5-0.1,0.9-0.1,1.1-0.4c0.2-0.3,0.2-0.9,0.2-1.6c0-2.7,0-5.3,0-8.1c0-0.4,0-1.2,0-1.4
			c-0.1-0.1-1-0.5-1.1-0.5v-0.1c0.9-0.4,1.7-0.7,2.5-1.1v0.2c0,2.5-0.1,5.3-0.1,10.8c0,0.6,0,1.3,0.1,1.6c0.2,0.3,0.7,0.4,1.2,0.4
			v0.3H70.7z"/>
		<path class="st0" d="M89.1,65.7c-1.2,0.6-2.2,0.6-3.6,0.6h-4.7v-0.4c0.7-0.1,1.3-0.1,1.6-0.4c0.3-0.3,0.3-1.2,0.3-2V57
			c0-0.8,0-1.4-0.3-1.7c-0.2-0.3-0.7-0.3-1.3-0.4v-0.4c0.2,0,1.4,0,2.2,0c0.9,0,1.7-0.1,2.6-0.1c0.2,0,0.4,0,0.7,0
			c1.5,0.1,3.1,1,3.1,2.7c0,1.4-1.5,2.3-2.7,2.7v0c1.9,0.2,3.8,1.3,3.8,3.3C90.8,64.2,90,65.3,89.1,65.7 M85.5,54.9
			c-0.4,0-0.7,0-1.1,0c0,0.7,0,1.4,0,2.1v0.5c0,0.7,0,1.4,0,2.2c0.1,0,0.2,0,0.2,0c1,0,2.2-0.1,2.9-1c0.3-0.4,0.5-0.8,0.5-1.4
			C88,56,86.9,54.9,85.5,54.9 M84.7,60.2c-0.1,0-0.2,0-0.4,0c0,0.1,0,0.5,0,0.7c0,1.5,0,3,0,4.5c0,0.1,0,0.2,0,0.4
			c0.4,0.1,0.7,0.1,1.1,0.1c0.8,0,1.6,0,2.3-0.6c0.7-0.5,1-1.2,1-2.1C88.8,60.9,86.7,60.2,84.7,60.2"/>
		<path class="st0" d="M98,66.5c-0.5,0-0.7-0.8-0.9-1.2c-0.7,0.4-2.4,1.2-3.2,1.2c-0.7,0-0.9-1-0.9-1.6c0-0.8,0.1-1.3,0.9-1.7
			c1-0.4,2.2-0.7,3.2-1c0,0,0-0.8,0-1.2c0-0.9-0.3-1.8-1.6-1.8c-0.6,0-1.1,0.4-1.2,0.8c-0.1,0.2-0.1,0.6-0.1,0.9c-0.2,0-1.1,0-1.4,0
			c0-0.3,0.1-0.4,0.2-0.6c0.4-0.4,1.5-1.2,2-1.5c0.4-0.2,0.9-0.5,1.3-0.5c1.5,0,2.1,1.3,2.1,2.2v3.5c0,0.5-0.1,1.3,0.6,1.3
			c0.2,0,0.5-0.1,0.7-0.3l0.2,0.2C99.6,65.8,98.5,66.5,98,66.5 M97.2,62.6c-0.7,0.2-2.2,0.5-2.6,1.2c-0.1,0.2-0.2,0.4-0.2,0.7
			c0,0.6,0.5,1.1,1.1,1.1c0.5,0,1.4-0.5,1.8-0.7V62.6z"/>
		<path class="st0" d="M101.1,66.3V66c0.5-0.1,0.9-0.1,1.1-0.4c0.2-0.3,0.2-0.9,0.2-1.6c0-2.7,0-5.3,0-8.1c0-0.4,0-1.2,0-1.4
			c-0.1-0.1-1-0.5-1.1-0.5v-0.1c0.9-0.4,1.7-0.7,2.5-1.1v0.2c0,2.5-0.1,5.3-0.1,10.8c0,0.6,0,1.3,0.1,1.6c0.2,0.3,0.7,0.4,1.2,0.4
			v0.3H101.1z"/>
		<path class="st0" d="M111.6,59.4h-2.5V64c0,0.9,0.3,1.7,1.3,1.7c0.5,0,0.9-0.2,1.3-0.5l0.2,0.2c-0.6,0.7-1.6,1.1-2.5,1.1
			c-1.3,0-1.8-0.8-1.8-2c0-1.7,0-3.4,0.1-5.1h-1.1l0-0.1c0.9-0.7,1.7-1.5,2.6-2.2v1.6h2.3h0.5L111.6,59.4z"/>
		<path class="st0" d="M117.7,66c-0.4,0.3-1.1,0.6-1.9,0.6c-0.7,0-1.4-0.1-2-0.2c-0.1-0.6-0.2-1.4-0.3-2l0.4-0.1
			c0.2,0.4,0.5,1.1,0.9,1.5c0.2,0.3,0.6,0.4,1,0.4c0.8,0,1.5-0.5,1.5-1.3c0-0.8-0.6-1.3-1.2-1.7c-0.3-0.2-0.6-0.3-0.9-0.5
			c-0.9-0.5-1.6-1-1.6-2.2c0-1.3,1.3-2.1,2.5-2.1c0.6,0,0.9,0.1,1.5,0.2c0.2,0,0.4,0,0.6-0.1c0.1,0.6,0.2,1.4,0.3,2l-0.4,0.1
			c-0.4-0.8-1-1.8-2-1.8c-0.8,0-1.3,0.5-1.3,1.3c0,0.8,0.4,1,0.9,1.4c0.3,0.2,0.8,0.4,1.1,0.6c0.8,0.5,1.7,1,1.7,2.2
			C118.5,64.9,118.3,65.5,117.7,66"/>
		<path class="st0" d="M123.9,66.6c-0.7,0-1.7-0.3-2.2-0.8c-0.9-0.8-1.2-1.7-1.2-2.9c0-2.4,2.2-4.5,4.5-4.5c0.7,0,1.2,0.2,1.7,0.7
			c0,0,0.1,0.1,0.1,0.1c0,0.1-0.5,1-0.6,1c-0.1,0-0.6-0.3-0.7-0.4c-0.5-0.3-0.9-0.7-1.5-0.7c-1.4,0-2,1.7-2,2.9c0,1,0.1,1.6,0.7,2.4
			c0.6,0.7,1.3,1.1,2.2,1.1c0.9,0,1.2-0.3,1.9-0.8l0.2,0.2C126.1,65.8,124.9,66.6,123.9,66.6"/>
		<path class="st0" d="M132.9,66.3V66c0.5,0,0.9-0.1,1.1-0.4c0.2-0.4,0.2-2.2,0.2-2.6c0-1,0-2.5-0.6-3.1c-0.3-0.3-0.7-0.5-1.3-0.5
			c-0.6,0-1.4,0.4-1.9,0.7v4.1c0,1.4,0,1.7,1.2,1.8v0.3h-3.8V66c0.4-0.1,0.9-0.1,1.1-0.4c0.2-0.3,0.2-0.7,0.2-1.5v-8.5v-1
			c-0.1-0.1-1-0.5-1.1-0.5v-0.1c0.6-0.2,2-0.8,2.5-1.1v0.2c0,1.6-0.1,3.3-0.1,6v0.6c0.9-0.7,1.6-1.4,2.8-1.4c0.5,0,1.1,0.3,1.5,0.7
			c0.9,0.9,0.8,2,0.8,3.2V65c0,0.9,0.3,0.9,1.2,1v0.3H132.9z"/>
		<path class="st0" d="M144.2,66.7L144.2,66.7c-0.1-0.6-0.1-0.7-0.1-1.1c0-0.1,0-0.3-0.1-0.3c-0.1,0-0.2,0.1-0.4,0.2
			c-0.7,0.5-1.6,1.1-2.5,1.1c-1.8,0-2.1-1.8-2.1-3.4c0-1.2,0.1-2,0.1-3.1c0-0.4-0.1-0.6-0.3-0.8c-0.2-0.2-0.6-0.2-0.9-0.2v-0.3
			c0.3,0,1.8-0.2,2.5-0.3v5.2c0,0.6,0.1,1.1,0.4,1.4c0.2,0.4,0.6,0.6,1.2,0.6c0.7,0,1.7-0.6,2-1c0-1.7,0-3.1,0-4.7
			c0-0.2,0-0.4-0.1-0.5c-0.2-0.2-1-0.3-1.3-0.4v-0.3c0.5-0.1,2.2-0.2,2.8-0.3c0,0.6,0,5.2,0,5.7c0,0.2,0,1,0.1,1.1
			c0.1,0.2,0.9,0.2,1.2,0.2v0.3C146.2,66,144.2,66.7,144.2,66.7"/>
		<path class="st0" d="M156.2,59.7c-0.6-0.1-1.2-0.2-1.8-0.3c0.4,0.5,0.5,1.1,0.5,1.6c0,0.6-0.2,1.2-0.7,1.7
			c-0.7,0.8-1.6,1.1-2.7,1.1c-0.3,0-0.6-0.1-0.9-0.1c-0.3,0-0.8,0.5-0.8,0.8c0,0.4,0.3,0.7,0.7,0.7c1.3,0.2,3.4-0.1,4.5,0.3
			c0.7,0.3,1,0.7,1,1.5c0,0.8-0.5,1.4-1.1,2c-1,0.9-2.8,1.5-4.1,1.5c-0.5,0-1-0.1-1.5-0.3c-0.7-0.3-1.5-1.1-1.5-1.9
			c0.2-0.4,0.5-0.6,0.8-0.9c0.3-0.3,0.6-0.7,0.9-1.1c-0.4-0.2-0.7-0.3-1.1-0.6c0-1,0.7-1.7,1.5-2.2c0,0,0-0.1,0-0.1
			c-0.9-0.5-1.5-1.3-1.5-2.3c0-1.8,1.7-2.9,3.3-2.9c1.2,0,1.2,0.5,2.6,0.5c0.6,0,1.2-0.1,1.7-0.2C156.2,59,156.2,59.4,156.2,59.7
			 M154.2,66.8c-0.6-0.3-2.3-0.3-2.9-0.3c-0.4,0-0.8,0-1.2,0.1c-0.4,0.4-0.8,0.9-0.8,1.5c0,0.1,0,0.2,0,0.4c0.1,0.3,0.5,0.9,0.8,1.1
			c0.5,0.3,1.1,0.5,1.7,0.5c1.1,0,3.1-0.8,3.1-2.1C154.9,67.5,154.7,67,154.2,66.8 M153.4,60.6c-0.1-0.9-0.8-1.8-1.8-1.8
			c-1.2,0-1.7,1.3-1.7,2.3c0,1,0.5,2.4,1.7,2.4c1.2,0,1.8-1.1,1.8-2.2C153.4,61.1,153.4,60.8,153.4,60.6"/>
	</g>
	<g>
		<path class="st0" d="M59.4,85.7v-0.4c0.4,0,0.8-0.1,0.8-0.4c0-0.3-0.4-0.7-0.7-1.1c-0.9-0.9-1.7-1.9-2.6-2.8
			c-0.2-0.2-0.7-0.8-1-0.9c-0.1,0-0.1,0-0.2,0c-0.2,0-0.3,0-0.5,0v3.3c0,0.8,0,1.2,0.3,1.5c0.3,0.3,0.8,0.3,1.4,0.4v0.4H52v-0.4
			c0.6-0.1,1.1-0.1,1.4-0.4c0.2-0.3,0.2-0.9,0.2-1.7v-6c0-0.9,0-2.2-0.3-2.5c-0.3-0.2-0.8-0.3-1.4-0.4v-0.4h5v0.4
			c-0.6,0.1-1,0.1-1.3,0.3c-0.3,0.2-0.3,0.9-0.3,1.7c0,0.1,0,0.7,0,0.8c0,0.3,0,2.3,0,2.6h0.2c0.9,0,1.5-0.8,2-1.4
			c0.3-0.3,0.9-0.9,1.4-1.6c0.6-0.7,1.1-1.4,1.1-1.7c0-0.6-0.9-0.6-1.2-0.6v-0.4H63v0.4c-1.3,0.1-1.6,0.4-2.5,1.3
			c-0.6,0.6-1.1,1.2-1.6,1.7c-0.5,0.6-1,1.2-1.6,1.8c0.2,0.2,1.8,2,2,2.2c0.3,0.3,1.9,2,2.1,2.3c0.3,0.3,1,1.1,1.4,1.3
			c0.3,0.2,0.5,0.3,0.9,0.3v0.4H59.4z"/>
		<path class="st0" d="M68.2,86c-2,0-3.5-1.8-3.5-3.7c0-1.2,0.4-2.5,1.3-3.4c0.6-0.6,1.5-1,2.4-1c1.6,0,2.9,1.1,3,2.7
			c-1.7,0.1-3.5,0.1-5.2,0.1c0,0.2,0,0.4,0,0.6v0.3c0,1.7,1.2,3.3,3,3.3c0.8,0,1.6-0.6,2.1-1.2l0.2,0.2C70.8,85,69.5,86,68.2,86
			 M69.4,79.1c-0.3-0.6-0.8-0.8-1.4-0.8c-1.1,0-1.7,1.2-1.9,2.1c1.2,0,2.4-0.1,3.6-0.3C69.7,79.7,69.6,79.3,69.4,79.1"/>
		<path class="st0" d="M82.9,85.7v-0.3c0.5,0,1-0.1,1.2-0.4c0.2-0.2,0.2-0.6,0.2-1.1c0-0.8,0-2.1,0-2.8c0-0.6-0.1-1.2-0.4-1.5
			c-0.3-0.5-1-0.7-1.5-0.7c-0.6,0-1.3,0.4-1.9,0.8c0,0.2,0.1,0.4,0.1,0.6c0,1.2,0,2.2,0,3.4c0,0.7,0,1.1,0.2,1.4
			c0.2,0.2,0.6,0.3,1,0.3v0.3h-3.9v-0.3c0.5,0,1-0.1,1.2-0.4c0.2-0.3,0.2-1.2,0.2-1.9c0-0.6,0-1.5,0-2.1c0-0.4,0-0.8-0.2-1.3
			c-0.2-0.6-1.1-0.9-1.6-0.9c-0.5,0-1.2,0.3-1.9,0.8c0,0-0.1,0-0.1,0.1v3.9c0,0.6,0,1.1,0.2,1.4c0.2,0.3,0.6,0.3,1.1,0.4v0.3h-3.9
			v-0.3c1.2-0.1,1.2-0.4,1.2-1.8c0-0.6,0-3.8,0-4.3C74,79.2,73.4,79,73,78.8v-0.2c0.6-0.2,2.5-1,2.5-1v1.8c0.4-0.3,0.7-0.6,1.1-0.8
			c0.6-0.4,1.2-0.8,1.9-0.8c0.6,0,1.3,0.5,1.6,1c0.1,0.2,0.2,0.4,0.4,0.7c0.9-0.7,1.7-1.6,3-1.6c0.6,0,1.3,0.5,1.7,1
			c0.5,0.7,0.6,1.6,0.6,2.4c0,1.1-0.1,2.2-0.1,3.3c0,0.9,0.3,0.9,1.2,0.9v0.3H82.9z"/>
		<path class="st0" d="M91.8,85.7c-0.2,0-0.5,0-0.8,0v2c0,0.8,0,1.3,0.2,1.6c0.2,0.4,0.7,0.4,1.3,0.5v0.3h-4.1v-0.3
			c1.1-0.1,1.3-0.4,1.3-1.7v-8.7c-0.1-0.1-0.8-0.4-1.2-0.5v-0.2c0.3-0.1,2.2-0.9,2.5-1v0.3c0,0.4,0,0.7,0,1.1
			c0.4-0.2,0.9-0.6,1.3-0.8c0.4-0.2,0.8-0.3,1.2-0.3c1,0,2,0.6,2.7,1.3c0.5,0.5,0.8,1.6,0.8,2.3C96.9,83.5,95.1,85.7,91.8,85.7
			 M93.6,79c-0.3-0.1-0.7-0.2-1-0.2c-0.6,0-1.1,0.2-1.6,0.6v2.5v0.8V84c0.4,0.8,1.2,1.2,2.1,1.2c0.3,0,0.7-0.1,0.9-0.3
			c1.1-0.6,1.5-1.8,1.5-3C95.4,80.6,94.8,79.6,93.6,79"/>
		<path class="st0" d="M98.4,85.7v-0.3c1.4-0.1,1.3-0.4,1.3-1.9v-4c0-0.1,0-0.1-0.1-0.1c-0.1,0-1-0.5-1.1-0.5v-0.2
			c0.6-0.2,2.5-1,2.5-1v5.9c0,1.5,0,1.7,1.3,1.9v0.3H98.4z M100.3,76.3c-0.5,0-0.9-0.4-0.9-0.9c0-0.5,0.4-0.8,0.9-0.8
			c0.5,0,0.9,0.4,0.9,0.8C101.1,75.9,100.7,76.3,100.3,76.3"/>
		<path class="st0" d="M108.8,85.7v-0.3c0.5,0,1-0.1,1.2-0.3c0.2-0.2,0.2-0.6,0.2-1.1c0-0.8,0.1-1.6,0.1-2.4c0-0.6,0-1.2-0.2-1.8
			c-0.3-0.6-1-0.9-1.6-0.9c-0.7,0-1.4,0.4-1.9,0.8c0,0-0.1,0-0.1,0.1c0,0.5,0,3.3,0,3.8c0,0.7,0,1.2,0.2,1.4
			c0.2,0.2,0.5,0.3,1.1,0.4v0.3h-3.9v-0.3c0.5-0.1,0.9-0.1,1.1-0.4c0.2-0.3,0.1-1.2,0.1-1.9v-3.8c-0.1-0.1-0.7-0.3-1.1-0.5v-0.2
			c0.6-0.2,2.5-1,2.5-1v1.8c0.3-0.2,0.6-0.5,0.9-0.8c0.6-0.4,1.2-0.8,2.1-0.8c0.6,0,1.3,0.5,1.6,1c0.5,0.7,0.6,1.5,0.6,2.3
			c0,1-0.1,2.3-0.1,3.3c0,0.9,0.3,0.9,1.2,1v0.3H108.8z"/>
		<path class="st0" d="M118.8,85.4c-0.4,0.3-1.1,0.6-1.9,0.6c-0.7,0-1.4-0.1-2-0.2c-0.1-0.6-0.2-1.4-0.3-2l0.4-0.1
			c0.2,0.4,0.5,1.1,0.9,1.5c0.2,0.3,0.6,0.4,1,0.4c0.8,0,1.5-0.5,1.5-1.3c0-0.8-0.6-1.3-1.2-1.7c-0.3-0.2-0.6-0.3-0.9-0.5
			c-0.9-0.5-1.6-1-1.6-2.2c0-1.3,1.3-2.1,2.5-2.1c0.6,0,0.9,0.1,1.5,0.2c0.2,0,0.4,0,0.6-0.1c0.1,0.6,0.2,1.4,0.3,2l-0.4,0.1
			c-0.4-0.8-1-1.8-2-1.8c-0.8,0-1.3,0.5-1.3,1.3c0,0.8,0.4,1,0.9,1.4c0.3,0.2,0.8,0.4,1.1,0.6c0.8,0.5,1.7,1,1.7,2.2
			C119.7,84.3,119.4,85,118.8,85.4"/>
		<path class="st0" d="M121.4,85.7v-0.3c0.4,0,0.9-0.1,1-0.3c0.2-0.3,0.2-0.8,0.2-1.6c0-0.8,0-6.9,0-7.7c0-0.3,0-1.5,0-1.8
			c-0.1-0.1-1-0.5-1.1-0.5v-0.1c0.8-0.4,1.7-0.7,2.5-1.1v0.2c0,0.9,0,1.8,0,3c0,2,0,4.4,0,7.7v0.4c0,0.8,0,1.2,0.2,1.5
			c0.2,0.2,0.5,0.3,1,0.3v0.3H121.4z M126.2,85.7v-0.3c0.3,0,0.9,0,0.9-0.4c0-0.3-2-2.4-2.4-2.7c-0.2-0.2-0.4-0.4-0.7-0.6
			c0.7-0.5,1.4-1,2-1.6c0.2-0.2,0.9-0.9,0.9-1.2c0-0.4-0.7-0.5-1-0.5v-0.3h3.6v0.3c-0.8,0.1-1.4,0.4-2.1,0.9
			c-0.7,0.6-1.5,1.2-2.2,1.8c0.9,1,1.8,2,2.8,2.9c0.4,0.4,0.7,0.7,1.1,1c0.2,0.2,0.5,0.2,0.7,0.3v0.3H126.2z"/>
		<path class="st0" d="M131.2,85.7v-0.3c1.4-0.1,1.3-0.4,1.3-1.9v-4c0-0.1,0-0.1-0.1-0.1c-0.1,0-1-0.5-1.1-0.5v-0.2
			c0.6-0.2,2.5-1,2.5-1v5.9c0,1.5,0,1.7,1.3,1.9v0.3H131.2z M133.1,76.3c-0.5,0-0.9-0.4-0.9-0.9c0-0.5,0.4-0.8,0.9-0.8
			c0.5,0,0.9,0.4,0.9,0.8C133.9,75.9,133.5,76.3,133.1,76.3"/>
	</g>
	<g>
		<path class="st0" d="M74.9,111.4v-0.2c0.4,0,0.6-0.1,0.8-0.3c0.1-0.1,0.1-0.5,0-0.7c0-0.7-0.1-1.3-0.2-2c0-0.6-0.1-1.3-0.2-1.8
			c-0.3,0.8-1.4,3.1-1.6,3.7c-0.1,0.4-0.3,0.8-0.4,1.3h-0.2c-1-2.4-1.9-4.3-2.1-4.8c-0.1,1.3-0.1,1.6-0.3,3.1
			c-0.1,0.6-0.1,1,0.1,1.2c0.1,0.2,0.5,0.2,0.8,0.3v0.2h-2.2v-0.2c0.3,0,0.5,0,0.7-0.2c0.2-0.2,0.2-0.7,0.3-1.3
			c0.1-0.5,0.1-1.1,0.2-1.8c0.1-0.5,0.1-1.1,0.1-1.5c0-0.6-0.4-0.6-0.8-0.6v-0.2l1.6,0c0,0.2,0.1,0.3,0.1,0.5l1.8,4.1
			c0.4-0.9,1.3-2.8,1.7-3.8c0.2-0.4,0.2-0.6,0.2-0.7l1.8,0v0.2c-0.4,0-0.7,0.1-0.8,0.3c-0.1,0.2-0.1,0.5-0.1,1
			c0,0.5,0.1,1.1,0.1,1.6c0.1,0.6,0.1,1.1,0.2,1.8c0,0.2,0,0.4,0.1,0.5c0.1,0.1,0.2,0.2,0.7,0.3v0.2H74.9z"/>
		<path class="st0" d="M84.6,110.5c-0.6,0.7-1.4,1-2.3,1c-0.7,0-1.3-0.2-1.9-0.6c-0.9-0.6-1.2-1.4-1.2-2.4c0-1.8,1.5-3,3.2-3
			c1,0,1.8,0.4,2.4,1.1c0.4,0.5,0.6,1.3,0.6,2C85.4,109.2,85.1,110,84.6,110.5 M83.9,106.7c-0.4-0.6-0.9-1-1.6-1c-1.4,0-2,1.5-2,2.7
			c0,1.3,0.7,2.9,2.2,2.9c0.5,0,1.1-0.3,1.4-0.7c0.5-0.5,0.5-1.4,0.5-2.1C84.4,108,84.2,107.1,83.9,106.7"/>
		<path class="st0" d="M89.5,111.5c-0.2,0-0.3,0-0.5,0c-0.4,0-0.9-0.1-1.3-0.2c-0.1-0.5-0.2-1-0.2-1.5l0.2,0
			c0.2,0.5,0.4,1.1,0.9,1.3c0.2,0.1,0.4,0.1,0.6,0.1c0.6,0,1.2-0.5,1.2-1.2c0-0.8-0.9-1.2-1.5-1.5c-0.7-0.3-1.3-0.8-1.3-1.6
			c0-1,0.9-1.7,1.8-1.7c0.3,0,0.7,0.1,1,0.2c0.1,0,0.1,0,0.2,0c0.1,0,0.2,0,0.2,0c0,0.1,0,0.3,0.1,0.4L91,107l-0.2,0.1
			c-0.3-0.6-0.7-1.3-1.5-1.3c-0.6,0-1.1,0.5-1.1,1.1c0,0.7,0.7,1,1.2,1.2c0.8,0.4,1.6,0.8,1.6,1.9C91.2,110.8,90.3,111.4,89.5,111.5
			"/>
		<path class="st0" d="M98.3,111.4c-0.1,0-0.3-0.1-0.4-0.1c-0.3,0-0.5,0.1-0.7,0.1c-0.2,0-0.4,0.1-0.7,0.1c-1.8,0-3.3-1.2-3.3-3.1
			c0-0.5,0.2-1.1,0.5-1.6c0.6-0.9,1.7-1.4,2.8-1.4c0.5,0,0.9,0.1,1.3,0.2c0.2,0.1,0.4,0.2,0.6,0.2c0.1,0,0.2,0,0.3-0.1l0.1,0l0,1.6
			l-0.2,0c-0.3-1-0.9-1.7-2-1.7c-1.5,0-2.3,1.5-2.3,2.8c0,1.4,0.8,2.8,2.4,2.8c1,0,1.6-0.7,2.1-1.5l0.2,0.1
			C98.8,110.4,98.6,110.9,98.3,111.4"/>
		<path class="st0" d="M106.4,110.5c-0.7,0.7-1.4,1-2.3,1c-0.7,0-1.3-0.2-1.9-0.6c-0.9-0.6-1.2-1.4-1.2-2.4c0-1.8,1.5-3,3.2-3
			c1,0,1.8,0.4,2.4,1.1c0.4,0.5,0.6,1.3,0.6,2C107.2,109.2,106.9,110,106.4,110.5 M105.7,106.7c-0.4-0.6-0.9-1-1.6-1
			c-1.4,0-2,1.5-2,2.7c0,1.3,0.7,2.9,2.2,2.9c0.5,0,1.1-0.3,1.4-0.7c0.5-0.5,0.5-1.4,0.5-2.1C106.2,108,106,107.1,105.7,106.7"/>
		<path class="st0" d="M117.1,105.9c-0.2,0.2-0.4,0.5-0.5,0.8c-0.3,0.6-0.5,1.2-0.8,1.8c-0.3,0.7-0.6,1.4-0.9,2.2
			c-0.1,0.3-0.2,0.5-0.2,0.8h-0.3c-0.4-1.4-0.8-2.8-1.3-4.2c-0.3,0.8-0.7,1.6-1,2.3c-0.2,0.4-0.3,0.7-0.4,1.1l-0.3,0.8h-0.3
			c-0.5-1.5-1-3-1.6-4.5c-0.1-0.3-0.2-0.7-0.4-0.9c-0.2-0.2-0.5-0.3-0.7-0.3v-0.2h2.6v0.2H111c-0.4,0-0.7,0.2-0.7,0.4
			c0,0.3,0.3,1.1,0.6,1.9c0.3,1,0.7,2.1,0.8,2.2c0.2-0.5,1.3-3.1,1.3-3.4c0-0.2-0.1-0.5-0.2-0.7c-0.1-0.2-0.5-0.3-0.7-0.3v-0.2h2.5
			v0.2c-0.2,0-0.8,0-0.8,0.4c0,0.2,0.1,0.4,0.2,0.8c0.1,0.4,0.3,0.8,0.4,1.2c0.3,0.9,0.6,1.8,0.6,2c0.1-0.4,0.5-1.1,0.8-1.9
			c0.3-0.8,0.6-1.7,0.6-1.9v-0.1c-0.1-0.4-0.5-0.4-0.8-0.4v-0.2h2.2v0.2C117.5,105.8,117.3,105.8,117.1,105.9"/>
	</g>
	<rect x="57.5" y="97.4" class="st0" width="72" height="0.4"/>
	<path class="st0" d="M78.1,29.4l-1.9,0.3l0.1,0.5l1.9-0.3L78.1,29.4z M76.1,32.1v-5.1h-0.3l-0.1-0.3l-3.7,0.8l0.1,0.5l3.5-0.8v2.4
		l-1.1,0.1v0l-2.4,0.3l0.1,0.5v0l2.3-0.3v0l1.1-0.1v1.9H76.1z M84.8,28.4l-1.9,0.3l0.1,0.5l1.9-0.3L84.8,28.4z M82.5,29.2l-0.1-0.5
		l-1,0.1l-0.4,0.1l0.1,0.5l0.4-0.1L82.5,29.2z M76.1,35.6h-0.5v4.1h0.5V35.6z M92.7,28.2c-0.8-0.1-1.6-0.2-3.3-0.2
		c-1.8,0-2.7,0.1-3.4,0.2v-3.2h-0.5v6.7h0.3l0,0.4h-0.3v3.2h0.5v-3.1c0.1,0,0.3,0,0.5,0c0.6,0,1.6,0,3,0c1.4,0,2.3,0,2.9,0
		c0.2,0,0.3,0,0.4,0v3.2h0.5v-3.2h-0.2l0-0.4h0.3V25h-0.5V28.2z M92.7,31.7c-0.1,0-0.2,0-0.4,0c-0.6,0-1.5,0-2.9,0c-1.4,0-2.4,0-3,0
		c-0.2,0-0.3,0-0.5,0v-3c0.8-0.2,1.5-0.2,3.4-0.2c1.8,0,2.5,0.1,3.3,0.2V31.7z M115.1,32.7l0-0.5l-3.1-0.1l0,0.5L115.1,32.7z
		 M104.5,25.9l5,0.7l0.1-0.5l-5-0.7L104.5,25.9z M112,30.2l3.1,0.2l0-0.5l-3.1-0.2L112,30.2z M101.7,22.1l-0.1,0.5l2.2,0.4l0.1-0.4
		V25h0.5v-3.9h-0.5v1.4l-0.5-0.1V21l-0.7-0.1l-0.1,0.5l0.4,0.1v0.9L101.7,22.1z M93.7,35.8l7.5-0.2l0-0.5l-7.5,0.2L93.7,35.8z
		 M112.1,35.2l3.1-0.1l0-0.5l-3.1,0.1L112.1,35.2z M104.3,26.2h-0.4v2.5h0.5v-2.3l5.2,0.7v2.4h0.5V27h-0.3l0-0.3l-5.4-0.7
		L104.3,26.2z M109.7,35.2l0-0.5l-4.7,0.2l0,0.5L109.7,35.2z M94,32.2l6.9,0.2l0-0.5L94,31.7L94,32.2z M93.9,28.7l7.1,0.6l0-0.5
		l-7.1-0.6L93.9,28.7z M109.5,32.1l-4.7-0.1l0,0.5l4.7,0.1L109.5,32.1z M79.7,29.8v1.9h0.5v-1.5l0.2,0l-0.1-0.5l-0.4,0L79.7,29.8z
		 M79.9,26.6l-0.2,0v1.9h0.5V27l0.2,0l-0.1-0.5v0L79.9,26.6z M79.1,26.8l-0.2,0v1.8h0.5v-1.4l0.2,0l-0.1-0.5l0,0L79.1,26.8z
		 M79.1,29.9l-0.2,0v1.8h0.5v-1.4l0.2,0l-0.1-0.5v0L79.1,29.9z M82.6,26L82.6,26l-0.4,0.1l-0.2,0v2h0.5v-1.6l0.3-0.1L82.6,26z
		 M81,29.7l-0.2,0v1.9h0.5v-1.5l0.2,0l0-0.5l0,0L81,29.7z M82.4,30l0.2,0l0-0.5l0,0l-0.4,0l-0.2,0v2h0.5V30z M81.2,26.8l0.2,0
		l-0.1-0.5h0l-0.4,0.1l-0.2,0v1.9h0.5V26.8z M100.5,24.6l0-1.4V23l-0.8-0.2l-0.1,0.5l0.4,0.1v1.2H100.5z M84.6,25.6L84.6,25.6
		l-0.5,0.1l-0.2,0v2.1h0.5l0-1.7l0.3-0.1L84.6,25.6z M75.2,28.1l-0.1-0.5l-0.3,0.1l-0.2,0v1.7h0.5v-1.3L75.2,28.1z M99.2,24.4v-1.6
		l-0.8-0.2l-0.1,0.5l0.4,0.1v1.2H99.2z M97.9,24.2v-1.7l-0.8-0.1L97,22.9l0.4,0.1v1.3H97.9z M76.9,30.2l-0.2,0v1.8h0.5v-1.4l0.2,0
		l-0.1-0.5v0L76.9,30.2z M80.3,20.6l-0.4,0.2l-0.2,0.1v1.5h0.5v-1.2l0.3-0.1L80.3,20.6L80.3,20.6z M73.6,27.9l-0.2,0v1.6h0.5v-1.2
		l0.1,0l-0.1-0.5v0L73.6,27.9z M77.3,27.6l-0.1-0.5h0l-0.4,0.1l-0.2,0V29h0.5v-1.4L77.3,27.6z M74.8,30.4l-0.2,0v1.7h0.5v-1.3l0.1,0
		l-0.1-0.5v0L74.8,30.4z M73.6,30.5l-0.2,0v1.6h0.5v-1.2l0.1,0l-0.1-0.5v0L73.6,30.5z M72.8,28.1l-0.3,0.1l-0.2,0v1.5h0.5l0-1.2
		l0.1,0L72.8,28.1z M72.8,30.6L72.8,30.6l-0.3,0l-0.2,0v1.6h0.5l0-1.2l0.1,0L72.8,30.6z M96.1,22.7l0,1.3h0.5v-1.7l-0.8-0.1
		l-0.1,0.5L96.1,22.7z M98.3,18.1l0.4,0.1v1.2h0.5v-1.5l-0.8-0.2L98.3,18.1z M84.4,17.3l0.3-0.1l-0.2-0.4l-0.5,0.2L84,17v1.5h0.5
		L84.4,17.3z M86.5,37.1l0.3,0l0.1-0.5l-0.6-0.1l-0.3,0l0,3l0.1,0.1l0.7,0.2l0.1-0.5l-0.4-0.1L86.5,37.1z M88.3,39.9l1,0.1l0-0.2
		l0,0.2l0.7,0l0.2,0v-3.2h-2V39.9z M88.8,37.3h1v2.3l-0.5,0l-0.6,0V37.3z M94.3,17l0.4,0.1v1.3h0.5v-1.7l-0.8-0.2L94.3,17z M97,17.7
		L97,17.7L97,17.7z M92,37.2v2.1l-0.8,0.1l0.1,0.5v0l1-0.1l0.2,0v-3l-1.4,0.1l0,0.5L92,37.2z M83.4,19.9l0.3-0.1l-0.2-0.4l-0.5,0.2
		L83,19.6v1.6h0.5L83.4,19.9z M91.4,16.3L91.4,16.3L91.4,16.3L91.4,16.3z M84.4,19.5l0.3-0.1L84.6,19v0l-0.5,0.2L84,19.2v1.6h0.5
		L84.4,19.5z M81.3,20.2l-0.4,0.2l-0.2,0.1v1.5h0.5v-1.2l0.3-0.1L81.3,20.2L81.3,20.2z M79.5,20.9l-0.4,0.2l-0.1,0.1v1.4h0.5v-1.1
		l0.3-0.1L79.5,20.9L79.5,20.9z M88.4,23h0.5v-1.5h0.8V23h0.5v-2h-1.7V23z M100.5,18.1l-0.8-0.2l-0.1,0.5l0.4,0.1v1.2h0.5l0-1.4
		V18.1z M86,24.9L86,24.9L86,24.9L86,24.9z M85.6,25v-0.4v-0.1h-0.4v0.3l-0.1-0.3L78.5,26l0.1,0.4h-0.4V32h0.5v-2.3l0,0l2.1-0.3
		L80.8,29l-2.1,0.3v-2.8l6.5-1.5H85.6z M115.9,27.3c-0.1-0.3-0.1-0.2-0.2-0.2c0,0-0.1,0-0.1,0V24l0-0.1l0.1-0.1
		c0.1-0.1,0.1-0.2,0.1-0.2c0-0.2-0.1-0.2-0.2-0.3v-1.5l-0.1-0.1l-1-2.1l-17.6-5.5l0,0l-0.1,0c-0.2-0.1-0.2-0.3-0.2-0.4v0l0-0.2
		L95.5,13c0-0.1,0-0.7-0.2-0.8l0,0.1l0-0.1c-0.2,0.1-0.2,0.5-0.2,0.7l-1.5-0.5c0-0.1,0-0.7-0.2-0.9l0,0.1l0-0.1h0
		c-0.3,0.2-0.2,0.9-0.2,0.9c0,0,0,0,0,0l-0.1,0c-0.1-0.3-0.3-0.5-0.6-0.7c0,0,0-0.7-0.2-0.9l0,0.1l0-0.1c-0.2,0.1-0.2,0.5-0.2,0.7
		c-0.1,0-0.1,0-0.1-0.1v-0.7l0.1,0V9.7l-0.1,0V9.1C92,9.1,92.1,9,92.1,8.9c0-0.2-0.1-0.3-0.3-0.3c-0.2,0-0.3,0.1-0.3,0.3
		c0,0,0,0.1,0,0.1c0,0.1,0,0.3-0.2,0.4l-0.6-0.3v-2l-0.1-0.2L90,5.2l0,0L90,4l-0.4-1.4l-0.2-0.7l-0.6,2.1V4h0v1.1l0,0l-0.7,1.8
		l0,0.1l0,2.1l-0.7,0.3C87,9.3,87,9.1,87,9c0,0,0-0.1,0-0.1l0-0.1l-0.1,0c0-0.1-0.1-0.2-0.3-0.2c-0.2,0-0.3,0.1-0.3,0.3
		c0,0.1,0.1,0.2,0.1,0.2v0.6l-0.1,0l0,0.2l0,0.7l0,0.4l0,0v0.7c-0.1,0-0.1,0.1-0.2,0.1c0-0.2,0-0.6-0.2-0.7l0,0.1l0-0.1
		c-0.3,0.2-0.2,0.9-0.2,0.9c-0.2,0.1-0.3,0.3-0.4,0.5l-0.1,0c0-0.1,0-0.7-0.2-0.8l0,0.1l0-0.1v0c-0.2,0.1-0.2,0.7-0.2,0.9l-1.6,0.8
		c0-0.2,0-0.6-0.2-0.7l0,0.1l0-0.1c-0.3,0.1-0.2,0.8-0.2,0.9l-0.7,0.4l0,0.2c0,0,0,0,0,0.1c0,0.1,0,0.4-0.2,0.5l-0.1,0.1v0.5
		l-9.4,4.5L72,21.4c-0.2,0-0.4,0.1-0.6,0.3c-0.1,0.1-0.1,0.2-0.1,0.3c0,0.1,0,0.2,0.1,0.2v1.2c-0.1,0.1-0.1,0.1-0.2,0.3
		c0,0.1,0,0.1,0,0.1l0.2,0.2l0,1.1c0,0,0,0,0,0c0,0-0.2,0-0.2,0.3c0,0.1,0.1,0.2,0.1,0.2l0.1,0.1l0,0.1v1.5c-0.1,0-0.2,0.1-0.3,0.3
		c0,0.1,0.1,0.2,0.1,0.2l0.2,0.1l0,0.1l0,2.3v2.3c-0.1,0-0.1,0.1-0.1,0.2c0,0.1,0,0.1,0,0.2l0.1,0.2l0,0.2V35
		c-0.1,0-0.2,0.1-0.2,0.3c0,0.1,0,0.1,0.1,0.2l0.2,0.3v3.6l0,0.1l0,0.1l13.8,2.3l0.1-0.3h0.1V25.2h-0.5v16.1l-13.1-2.2l0-3.1v-0.4
		l-0.1-0.1l12.9,0.4l0-0.5L71.9,35v-1.7l0-0.2l0,0l3.8-0.2V35h0.5v-2.3l8.6-0.5l0-0.5l-12.9,0.7v-4.6l0-0.2l0-0.1l0,0l3.9-0.9
		l-0.1-0.5l-3.7,0.9v-1.4l0-0.3v0l3.8-1.2v1.7h0l-0.1,0l0.1,0.5l3-0.7l-0.1-0.5l-2.4,0.6v-1.7h0l2.1-0.7v1.7h0.5v-1.8h-0.2l6.5-2.1
		v2.5h0.5v0h0.3c0,0-0.1,0.1-0.1,0.1v0H85v0.4l-0.1-0.4l-6.3,1.5l0.1,0.5l6.2-1.5v0h0.6V24l0.3,0.2v0c0.1-0.3,1.6-0.7,3.4-0.7
		c1.8,0,3.2,0.4,3.3,0.6L93,24c0,0,0-0.1-0.1-0.1H93v0.4h0.4l0,0l7.6,1.1l0.1-0.5l-7.6-1.1l0,0.1v-0.1h-0.4v-5.2l0,0v5.1h0.5v-5.1
		l6.1,1.4l-0.1,0.5l0.4,0.1v1.2h0.5l0-1.4v-0.2l4.5,1.1l-0.1,0.4l0.3,0.1v1.1h0.5l0-1.3v-0.2l1.7,0.4l-0.1,0.4l0.3,0.1l0,1h0.5
		l0-1.2V22l-0.3-0.1l0.9,0.2l-0.1,0.4l0.3,0.1v1h0.5v-1.3l0.6,0.1h-0.3v1.4l-3.2-0.6h0.5v-1.4l-0.6-0.2l-0.1,0.5l0.3,0.1v1l-1.8-0.4
		l-0.1,0.5l5.1,1l0-0.2v1.9h0.5v-1.6l1.2,0.2l0.1-0.4v2h0.5v-1.5l3.4,0.7l0.1-0.4v2l-3.6-0.5l-0.1,0.5l3.8,0.5l0,0l0,0v0l-3.8-0.5
		l-0.1,0.4h-0.2v0.2l-0.6-0.1l0,0.5l0.2,0v1.3h0.4v0.1h0.5v-2l3.5,0.5l0-0.2l-0.1,10.8l-0.1,0v-2.2c0-0.3-0.3-0.7-0.7-0.7
		c-0.4,0-0.7,0.4-0.7,0.8v2.3l-0.2,0v-2.3c0-0.4-0.3-0.7-0.7-0.7c-0.5,0-0.7,0.4-0.7,0.9V39l-0.2,0v-2.3c0-0.4-0.3-0.8-0.8-0.8
		c-0.5,0-0.8,0.5-0.8,0.9v2.4l-0.4,0v-4h-0.5v1.7c0-0.4-0.3-0.8-0.8-0.8c-0.5,0-0.8,0.4-0.8,0.8c-0.1-0.3-0.4-0.7-0.9-0.7
		c-0.6,0-0.9,0.5-0.9,1.1v2.4l-0.2,0v-2.4c0-0.5-0.4-1-1-1c-0.6,0-1,0.6-1,1.2V40l-0.1,0v-2.5c0-0.5-0.4-1.1-1.1-1.1
		c-0.7,0-1.1,0.6-1.1,1.3v2.6l-0.1,0v-4.7H101v2c0-0.5-0.4-1-1-1c-0.6,0-1,0.5-1.1,1.1c-0.1-0.5-0.5-0.9-1.1-0.9c-0.8,0-1,0.8-1,1.5
		v2.7l-0.3,0v-2.8c0-0.6-0.5-1.2-1.2-1.2c-0.8,0-1.2,0.7-1.2,1.5v2.9l-0.5,0.1V24.9h-0.5v16.4l0,0v-5.4h-0.3
		c0.1-0.1,0.2-0.1,0.2-0.2l-0.4-0.2c0,0.2-1.4,0.4-3.4,0.4c-1.9,0-3.3-0.2-3.3-0.3l-0.4,0.2c0,0.1,0.1,0.1,0.2,0.1h-0.3v5.7l0.1,0.1
		c0.3,0.7,1.7,0.7,3.7,0.7c1.9,0,3.3,0,3.7-0.7l0.3,0l0,0l22.3-2.8l0-11.3l0,0l0.2-0.3l0,0L115.9,27.3z M83.3,13
		C83.3,13,83.3,13,83.3,13c0,0,0,0.2,0,0.2l-0.1,0C83.3,13.2,83.3,13.1,83.3,13 M82.4,15.3L82.4,15.3L82.4,15.3L82.4,15.3z
		 M73.1,19.9l9.1-4.4l0,0.8l-1,0.5v0.7l-2.4,1.1l-0.1-0.3l-0.1-0.1l-0.1-0.1l-2.5,1.1l-0.1,0.7l-3.2,1.4L73.1,19.9z M77.2,19.8
		L77.2,19.8L76.8,20L76.7,20v1.2h0.4l-1,0.4v-1.3h-0.3l2.4-1v1.4h0.2l-1.3,0.5v-0.9l0.2-0.1L77.2,19.8z M76.3,19.7l0-0.1l1.9-0.9
		l0,0.2L76.3,19.7z M71.9,25v-1.1l0-0.1c0,0,0.1,0,0.1,0l0.4-0.2v1.1h0.4L71.9,25z M72.4,21.8l-0.1,0.1v1.1h0.3l-0.7,0.3V22l0,0
		c0,0,0.1,0,0.1,0c0.1,0,0.2,0,0.3-0.1l0-0.1l0,0.1l3.4-1.5v1.3h0.2L75.1,22v-0.8l0.2-0.1l-0.2-0.4v0l-0.3,0.1l-0.1,0.1v1.1h0.3
		l-1,0.4v-0.7l0.2-0.1l-0.2-0.4v0l-0.3,0.1l-0.1,0.1v1.1h0.2l-0.9,0.3l0-0.7l0.1-0.1l-0.2-0.4v0L72.4,21.8z M76.2,23.6v-1.3h-0.5
		v1.3h0.2l-0.9,0.3v-0.9l0.2-0.1l-0.2-0.4l-0.3,0.1l-0.2,0.1V24h0.3l-1,0.3v-0.8l0.1-0.1L73.9,23v0l-0.3,0.1l-0.2,0.1v1.2h0.4
		l-1,0.3l0-0.8l0.1,0l-0.1-0.4l3.9-1.5v1.4h0.5v-1.1l0.2-0.1l-0.2-0.4l1-0.4v1.5h0.3L76.2,23.6z M85,21.1l-0.1-0.3l-6.2,2v-1.5h-0.3
		l3.5-1.3v1.6h0.5v-1.2l0.3-0.1l-0.2-0.4l2.5-0.9V21.1z M85,18.3l-1.6,0.6l0-1.1l0.3-0.1l-0.2-0.4l0,0l-0.5,0.2L83,17.5v1.5h0.3
		l-0.9,0.3v-1.1l0.3-0.1l-0.2-0.4v0l-0.4,0.2l-0.1,0.1v1.4h0.4l-1.1,0.4v-1l0.3-0.1l-0.2-0.4l-0.4,0.2l-0.1,0.1v1.4h0.4l-0.9,0.4v-1
		l0.3-0.1l-0.2-0.4h0l-0.4,0.2l-0.1,0.1v1.4h0.3l-0.7,0.3v-0.9l0.3-0.1l-0.2-0.4v0l-0.4,0.2l-0.1,0.1v1.3h0.2l-0.4,0.2v-1.5h-0.2
		l6.5-2.8V18.3z M85,16.3l-0.2-0.4l-3.3,1.4v-0.2l3.4-1.6V16.3z M85,15.4l-0.1-0.3l-2.3,1.1l0-0.8l2.4-1.2V15.4z M85,13.7L85,13.6
		l-2.4,1.2l0,0c0.2-0.3,0.3-0.6,0.3-0.8l2.2-1.1V13.7z M85.2,12.3L85.2,12.3c0-0.1,0-0.2,0-0.3c0,0,0,0,0-0.1
		C85.3,12.1,85.3,12.2,85.2,12.3L85.2,12.3z M92.3,11.4C92.3,11.4,92.3,11.4,92.3,11.4c0,0.1,0,0.2,0,0.3c0,0,0,0-0.1,0
		C92.2,11.6,92.3,11.5,92.3,11.4 M91.8,8.8c0.1,0,0.1,0.1,0.1,0.1c0,0,0,0,0,0h-0.1l-0.1-0.1C91.7,8.8,91.7,8.8,91.8,8.8 M91.6,9.3
		v0.3l-0.1-0.1C91.5,9.4,91.6,9.3,91.6,9.3 M90.7,9.6l0.8,0.4v0.2l-0.8-0.4V9.6z M90,8.2c0,0.1,0.1,0.2,0.2,0.3l0,0.5l-0.4,0V7.1
		l0.4,0.1l0,0.7C90.1,8,90,8.1,90,8.2 M90.3,8.2L90.3,8.2C90.2,8.2,90.2,8.2,90.3,8.2C90.2,8.2,90.2,8.2,90.3,8.2 M89.1,4l0.2-0.5
		L89.5,4v1c-0.1,0-0.1,0-0.2,0c-0.1,0-0.1,0-0.2,0L89.1,4z M89,5.5h0.6L90,6.7l-0.3-0.1l-0.8,0l-0.4,0.2L89,5.5z M89.4,7v2l-0.2,0V7
		L89.4,7z M88.4,8.4c0.1-0.1,0.2-0.1,0.2-0.2c0-0.1-0.1-0.2-0.2-0.2V7.3l0.3-0.1V9l-0.3,0V8.4z M88.4,9.4l1.9,0l0,0.2l-1.9,0V9.4z
		 M87.9,9.6l0,0.2L87,10.2l0-0.2L87.9,9.6z M86.9,9.3c0,0.1,0.1,0.1,0.1,0.2l-0.1,0.1V9.3z M86.9,10.8l1.4-0.6l2.2,0l1.1,0.6v0.7
		c-0.3-0.1-0.6-0.1-0.9-0.2c0-0.1,0-0.7-0.2-0.9l0,0.1l0-0.1v0c-0.2,0.1-0.2,0.6-0.2,0.8c-0.3,0-0.6-0.1-1-0.1c-0.3,0-0.6,0-0.9,0
		c0-0.2,0-0.7-0.2-0.8l0,0.1l0-0.1v0C88,10.6,88,11.1,88,11.3c-0.4,0-0.8,0.1-1.1,0.2V10.8z M90.5,11.3
		C90.5,11.3,90.5,11.3,90.5,11.3c-0.1-0.1-0.1-0.2,0-0.3c0,0,0,0,0,0C90.5,11.1,90.5,11.2,90.5,11.3 M88.3,11.3
		C88.2,11.3,88.2,11.3,88.3,11.3c-0.1-0.1,0-0.2,0-0.3c0,0,0,0,0,0C88.2,11.1,88.2,11.2,88.3,11.3 M86.7,8.8
		C86.8,8.8,86.8,8.9,86.7,8.8l0,0.1l0,0.1h0c0,0-0.1,0-0.1-0.1C86.6,8.9,86.7,8.8,86.7,8.8 M86.2,11.5
		C86.2,11.5,86.2,11.5,86.2,11.5c0,0,0,0.2,0,0.3c0,0,0,0-0.1,0C86.1,11.7,86.2,11.6,86.2,11.5 M85.9,13.5L85.9,13.5
		c0.1,0.1,0.1,0,0.2,0l0,1.6h0.2c-0.1,0.1-0.2,0.1-0.3,0.2V13.5z M92,13.7v1.2c-0.5-0.2-1.2-0.3-2-0.4v-1.7h-1.5v1.7
		c-0.8,0.1-1.5,0.2-2,0.4l0-1.1l0.6-0.2l-0.2-0.4l-0.7,0.3l-0.1,0.1c0.4-0.3,1.7-0.7,3.2-0.7c0.9,0,1.7,0.1,2.3,0.3l-0.2,0.4
		L92,13.7z M89.6,13.4v1.2c-0.1,0-0.2,0-0.3,0c-0.1,0-0.2,0-0.3,0v-1.2H89.6z M92.7,23.6c-0.1-0.1-0.2-0.1-0.3-0.2h0.1v-1.8
		l-0.8-0.2l-0.1,0.5L92,22v1.3c-0.7-0.2-1.6-0.2-2.7-0.3c-1.1,0-2.1,0.1-2.8,0.3l0-1.5l0.5-0.1l-0.1-0.5l0,0l-0.7,0.2l-0.2,0l0,1.9
		h0.2c-0.1,0.1-0.3,0.1-0.4,0.2v-2.9l0.1,0.1c0.4-0.3,1.6-0.6,3.3-0.6c1.7,0,2.8,0.4,3.2,0.6l0.1-0.2V23.6z M89,19.8v-1.4h0.7v1.4
		c-0.1,0-0.2,0-0.3,0C89.2,19.7,89.1,19.7,89,19.8 M92.7,20.4c-0.1,0-0.2-0.1-0.3-0.1h0.1v-1.8l-0.8-0.2l-0.1,0.5h0l0.4,0.1v1.3
		c-0.5-0.2-1.1-0.3-1.9-0.3v-1.9h-1.6v1.9c-0.8,0.1-1.4,0.2-1.9,0.3l0-1.4l0.5-0.1l-0.1-0.4l-0.6,0.2l-0.2,0.1l0,1.8h0
		c-0.1,0-0.1,0.1-0.2,0.1v-2.1l0.1,0.1c0.4-0.3,1.7-0.6,3.3-0.6c1.6,0,2.9,0.3,3.3,0.6l0.1-0.1V20.4z M89,17.4v-1.3h0.7v1.3
		c-0.1,0-0.2,0-0.3,0C89.2,17.4,89.1,17.4,89,17.4 M92.7,18c-0.1-0.1-0.2-0.1-0.4-0.2h0.2v-1.6l-0.9-0.3l-0.2,0.4l0.5,0.2v1.2
		c-0.5-0.2-1.2-0.3-2-0.3h0.1v-1.7h-1.6v1.7h0.1c-0.8,0-1.5,0.2-2,0.3l0-1.1l0.5-0.2L86.9,16l-0.7,0.3l-0.1,0.1l0,1.5h0.1
		c-0.1,0-0.2,0.1-0.3,0.1v-2.4l0.1,0.1c0.3-0.3,1.7-0.7,3.3-0.7c1.5,0,2.8,0.3,3.2,0.7l0.2-0.2V18z M92.7,15.2
		c-0.1-0.1-0.3-0.1-0.4-0.2h0.2v-1.6c0,0,0,0,0,0l0.2-0.2V15.2z M92.7,12.8V13c-0.6-0.4-1.9-0.7-3.4-0.7c-1.5,0-2.7,0.3-3.4,0.7
		v-0.4c0-0.1,0.3-0.4,0.9-0.6c0.6-0.2,1.5-0.3,2.5-0.3c1,0,1.9,0.1,2.5,0.3c0.6,0.2,0.9,0.5,0.9,0.6L92.7,12.8z M93.2,18.1
		L93.2,18.1l0-5.3l0,0V18.1z M93.4,18.3L93.4,18.3l-0.1-0.1h0.1L93.4,18.3z M93.4,12.5C93.4,12.5,93.4,12.5,93.4,12.5L93.4,12.5
		c0-0.1,0-0.2,0-0.4c0,0,0,0,0-0.1C93.4,12.2,93.4,12.5,93.4,12.5C93.4,12.5,93.4,12.5,93.4,12.5 M95.3,12.7
		C95.3,12.7,95.3,12.7,95.3,12.7c0,0.1,0,0.2,0,0.3l-0.1,0C95.3,12.9,95.3,12.8,95.3,12.7 M93.6,12.9l2.5,0.8c0,0.2,0.1,0.5,0.4,0.7
		v0l-2.9-0.9l0,0.1V12.9z M93.6,14l2.9,0.9v0.8l-2.9-0.8V14z M93.6,15.4l4.8,1.4V17l-4.8-1.3V15.4z M108.7,21.7l-0.8-0.2h0l0-1.2
		v-0.2l-0.6-0.2l-0.1,0.5h0l0.3,0.1v0.9l-0.9-0.2h0.1v-1.4l-0.6-0.2l-0.1,0.5l0.3,0.1v1l-0.7-0.2h0.1l0-1.3v-0.2l-0.6-0.1l-0.1,0.5
		h0l0.3,0.1v1l-1.1-0.2h0.2v-1.5l4.2,1.2l0,0l-0.1,0.5h0l0.3,0.1V21.7z M109.8,21.9h0.1v-1.3l0.7,0.2l-0.2,0l-0.1,0.5l0.3,0.1v0.8
		L109.8,21.9z M110,20.2l0.1-0.1l1,0.3l0,0.1L110,20.2z M111.2,22.8v1.3l-0.1,0v-1.2l-0.6-0.1l-0.1,0.5l0.3,0.1V24l-0.7-0.1v0v-1.4
		L111.2,22.8L111.2,22.8z M111.2,21.1v1.2l-0.1,0L111.2,21.1L111.2,21.1l0.1-0.3l0.4-0.1l-0.1-0.5l0-0.1l-1.5-0.4l-0.2-0.1l-0.1,0.3
		l-0.2,0.4l0.4,0.2l-0.1,0.2h-0.4v1.3l-0.5-0.1h0.2v-1.3l0.1,0l0.1-0.5l-5-1.4l-0.1,0.4v-0.2h-0.5v1.6l-2.5-0.6h0.1v-1.7H101v1.6
		L97.4,19h0.4v-1.6l-0.8-0.2L97,17.7l0.4,0.1V19l-1-0.2h0.2v-1.6L95.8,17l-0.1,0.5l0.4,0.1l0,1.2l-2.5-0.6v-2l5.2,1.4l0.3,0.1
		l1.9,0.5l0.1-0.5l-1.9-0.5l-0.3-0.1l-0.1,0v-0.5l0-0.1l0-0.2L97,15.9v-1.3l17.2,5.4l0.8,1.6l-3.3-0.9l-0.1,0.4H111.2z M115.2,22.1
		v1.1l-1.1-0.3h0.3v-1.1L115.2,22.1z M111.6,22.4L111.6,22.4l0-1.2l2.8,0.8l-0.5-0.1l-0.1,0.5l0.2,0v0.7l-1.1-0.3h0.3v-1.1l-0.5-0.1
		l-0.1,0.5l0.2,0v0.7L111.6,22.4z M115.2,23.9v1l-3.4-0.7l-0.1,0.4v-1.8l3.6,0.8L115.2,23.9z M92.7,41.5c0,0.2-1.4,0.6-3.4,0.5
		c-1.9,0.1-3.3-0.3-3.3-0.5l0-0.1V36c0.6,0.3,1.8,0.3,3.4,0.3c1.6,0,2.7,0,3.4-0.3V41.5z M92.9,41.8L92.9,41.8L92.9,41.8L92.9,41.8z
		 M96.1,41l-1.5,0.2v-2.8c0-0.6,0.3-1,0.7-1c0.5,0,0.7,0.3,0.7,0.7V41z M98.5,40.7l-1.2,0.2v-2.6c0-0.7,0.1-1,0.6-1
		c0.5,0,0.6,0.2,0.7,0.7V40.7z M100.6,40.5l-1.2,0.2v-2.7c0-0.5,0.2-0.8,0.6-0.8c0.4,0,0.6,0.2,0.6,0.6V40.5z M103.2,40.1l-1.2,0.1
		v-2.5c0-0.5,0.2-0.8,0.6-0.8c0.4,0,0.6,0.3,0.6,0.6V40.1z M105.3,39.9l-1,0.1v-2.4c0-0.5,0.2-0.7,0.5-0.7c0.4,0,0.5,0.2,0.5,0.5
		V39.9z M107.4,39.6l-0.9,0.1v-2.4c0-0.4,0.2-0.6,0.4-0.6c0.3,0,0.4,0.2,0.4,0.3V39.6z M109,39.4l-0.7,0.1v-2.4
		c0-0.4,0.1-0.5,0.4-0.5c0.3,0,0.4,0.1,0.4,0.4V39.4z M111.4,39.1l-0.6,0.1v-2.3c0-0.3,0.1-0.4,0.3-0.5c0.2,0,0.3,0.1,0.3,0.3V39.1z
		 M113.1,38.9l-0.5,0.1v-2.3c0-0.3,0.1-0.4,0.3-0.4c0.2,0,0.2,0.1,0.3,0.3V38.9z M114.6,38.7l-0.4,0.1v-2.2c0-0.2,0.1-0.3,0.2-0.3
		c0.2,0,0.2,0.1,0.2,0.2V38.7z M99.6,18.4L99.6,18.4L99.6,18.4L99.6,18.4z M83.7,29.4L83.7,29.4l-0.5,0.1l-0.2,0v2.1h0.5l0-1.6
		l0.3,0L83.7,29.4z M84.6,29.2L84.6,29.2l-0.5,0.1l-0.2,0v2.1h0.5l0-1.7l0.2,0L84.6,29.2z M89.3,24.2c1.9,0,3,0.2,3.4,0.6l0.3-0.3
		c-0.6-0.6-1.7-0.8-3.7-0.8c-2,0-3.3,0.3-3.7,0.9l0.4,0.2C86.1,24.6,87.4,24.2,89.3,24.2 M104.9,21.7L104.9,21.7L104.9,21.7
		L104.9,21.7z M102.5,19.1L102.5,19.1L102.5,19.1L102.5,19.1z M83.6,25.8l-0.5,0.1l-0.2,0v2h0.5l0-1.7l0.3-0.1L83.6,25.8z
		 M108.4,22.6L108.4,22.6L108.4,22.6z M105.9,22L105.9,22L105.9,22z M95.7,22.7L95.7,22.7L95.7,22.7L95.7,22.7z M83.7,37l0-0.5
		l-0.5,0l-0.2,0v2.5l0.7,0.1l0-0.5h0l-0.3,0V37L83.7,37z M92.5,34.6v-2.1l-1.3,0v0.5l0.9,0v1.7H92.5z M112,28.1l0.1,0l0,1.2h0.5
		v-1.6l-0.5-0.1L112,28.1z M86.1,32.3l0,2.3h0.5v-1.8l0.4,0l0-0.5v0l-0.6,0L86.1,32.3z M92,31.2h0.5v-2.2l-1.3-0.1l0,0.5h0l0.9,0
		V31.2z M86.3,29l-0.2,0v2.2h0.5v-1.8l0.4-0.1l-0.1-0.5L86.3,29z M87,25.1L87,25.1l-0.7,0.1l-0.2,0v2.4h0.5l0-1.9l0.5-0.1L87,25.1z
		 M93.3,24.4l-0.2,0v0.5h0.3l0.1,0l7.6,1l0.1-0.5L93.3,24.4L93.3,24.4z M88.3,31.2h0.5v-1.8h1v1.8h0.5v-2.3h-2V31.2z M113.2,31.9
		v-1.6l-0.6,0l0,0.5l0.1,0v1.1H113.2z M112,28.1L112,28.1L112,28.1L112,28.1z M114.6,32l0-1.3v-0.2l-0.5,0l0,0.5l0.1,0V32H114.6z
		 M92.5,27.5v-2.3l-1.1-0.2l-0.1,0.5l0.7,0.1v1.9H92.5z M90.3,27.3v-2.4h-2v2.4h0.5v-2h1v2H90.3z M113.7,29.4v-1.6l-0.5-0.1
		l-0.1,0.5l0.1,0v1.2H113.7z M114.8,29.6V28l-0.5-0.1l-0.1,0.5l0.1,0v1.1H114.8z M90.3,34.8v-2.4h-2v2.4h0.5v-1.9h1v1.9H90.3z
		 M97.9,34.6v-2l-0.9,0l0,0.5l0.4,0v1.5H97.9z M97,33L97,33L97,33L97,33z M96.6,34.6v-2l-0.8,0l0,0.5l0.4,0v1.6H96.6z M99.7,29.6
		l0,0.5l0.4,0v1.4h0.5l0-1.6v-0.2L99.7,29.6z M95.2,34.6v-2.1l-0.9,0l0,0.5h0l0.4,0v1.6H95.2z M99.2,34.5v-2l-0.8,0l0,0.5l0.4,0v1.5
		H99.2z M100.5,34.5l0-1.7v-0.2l-0.8-0.1l0,0.5h0l0.4,0v1.5H100.5z M98.4,26.7L98.4,26.7L98.4,26.7L98.4,26.7z M99.7,26.3l-0.1,0.5
		l0.4,0.1v1.5h0.5l0-1.7v-0.2L99.7,26.3z M99.2,31.5v-1.9l-0.8-0.1l0,0.5l0.4,0v1.5H99.2z M95.2,27.7v-2l-0.8-0.1l0,0.5l0.4,0v1.6
		H95.2z M99.6,26.8L99.6,26.8L99.6,26.8z M96.6,28v-2l-0.8-0.1l-0.1,0.5h0l0.4,0.1V28H96.6z M97,26.5L97,26.5L97,26.5L97,26.5z
		 M97.9,28.1v-2L97.1,26L97,26.5l0.4,0.1v1.5H97.9z M99.2,28.2v-1.9l-0.8-0.1l0,0.5l0.4,0v1.5H99.2z M72.8,32.9l-0.3,0l-0.2,0v1.6
		h0.5l0-1.2l0.1,0L72.8,32.9z M73.4,32.9v1.7h0.5v-1.3H74l0-0.5l-0.3,0L73.4,32.9z M84.6,37l0-0.5l-0.5,0l-0.2,0V39l0.3,0.1l0.4,0
		l0-0.5h0l-0.2,0V37L84.6,37z M82.6,36.9l0-0.5l-0.4,0l-0.2,0v2.4l0.7,0.1l0.1-0.5l-0.2,0v-1.5L82.6,36.9z M78.9,32.6v2h0.5v-1.5
		l0.2,0l0-0.5l-0.4,0L78.9,32.6z M113.2,34.3v-1.6l-0.6,0l0,0.5l0.1,0v1.1H113.2z M76.9,32.7l-0.2,0v1.8h0.5v-1.4l0.1,0l0-0.5v0
		L76.9,32.7z M81.4,38.7l0.1-0.5l0,0l-0.2,0v-1.4l0.2,0l0-0.5l-0.4,0l-0.2,0v2.1H81l0,0.2L81.4,38.7z M75.1,36.5l0-0.5l-0.3,0
		l-0.2,0v2l0.3,0l0.2,0l0-0.5l0,0l-0.1,0L75.1,36.5L75.1,36.5z M80,32.6l-0.2,0v2h0.5V33l0.2,0l0-0.5l0,0L80,32.6z M72.8,36.3l0-0.5
		l-0.3,0l-0.2,0v1.9l0.5,0l0-0.5v0l-0.1,0L72.8,36.3L72.8,36.3z M73.9,36.4l0-0.5l-0.3,0l-0.2,0v2l0.5,0.1l0.1-0.5l-0.1,0L73.9,36.4
		L73.9,36.4z M80.4,36.7l0-0.5l-0.4,0l-0.3,0v2.3l0.6,0.1l0.1-0.5v0l-0.2,0v-1.4L80.4,36.7z M79.6,36.7l0-0.5l-0.4,0l-0.2,0v2.2
		l0.6,0.1l0.1-0.5l-0.2,0v-1.3L79.6,36.7z M77.3,36.6l0-0.5l-0.4,0l-0.2,0v2.1l0.3,0.1l0.3,0l0.1-0.5l-0.2,0v-1.2L77.3,36.6z
		 M74.8,32.9l-0.2,0v1.8h0.5v-1.3l0.1,0l0-0.5h0L74.8,32.9z M82.1,22.6l-0.2,0v1.7h0.5V23l0.3-0.1l-0.1-0.4v0L82.1,22.6z M84.6,22
		l-0.5,0.1l-0.2,0v1.7h0.5l0-1.4l0.3-0.1L84.6,22z M83.6,22.2l-0.5,0.1L83,22.4v1.7h0.5l0-1.3l0.3-0.1L83.6,22.2z M80.9,22.9l-0.2,0
		v1.6h0.5v-1.2l0.3-0.1l-0.1-0.4v0L80.9,22.9z M114,32.8l0,0.5l0.1,0v1.1h0.5l0-1.3v-0.2L114,32.8z M79.1,23.5l-0.2,0.1v1.5h0.5
		v-1.2l0.2-0.1l-0.1-0.4v0L79.1,23.5z M79.9,23.2l-0.2,0v1.6h0.5v-1.2l0.3-0.1l-0.1-0.4v0L79.9,23.2z M73.6,25.1l-0.2,0.1v1.3h0.5
		v-1l0.1,0L73.9,25h0L73.6,25.1z M83.7,32.4L83.7,32.4l-0.5,0l-0.2,0v2.1h0.5l0-1.6l0.2,0L83.7,32.4z M82.2,32.4l-0.2,0v2h0.5v-1.6
		l0.2,0l0-0.5v0L82.2,32.4z M76.9,24l-0.2,0v1.5h0.5v-1.1l0.2-0.1l-0.1-0.4h0L76.9,24z M84.6,32.3l-0.5,0l-0.2,0v2.1h0.5l0-1.7
		l0.2,0L84.6,32.3z M72.8,25.3L72.8,25.3l-0.3,0.1l-0.2,0v1.3h0.5l0-1l0.1,0L72.8,25.3z M74.8,24.7l-0.2,0.1v1.4h0.5v-1.1l0.2-0.1
		l-0.1-0.4l0,0L74.8,24.7z M81.2,34.5V33h0.2v-0.5h-0.7v2H81.2z M102.5,21.3L102.5,21.3L102.5,21.3z M105,30.3L105,30.3L105,30.3z
		 M106.9,31.7V30l-0.7-0.1l-0.1,0.5l0.2,0v1.4H106.9z M106.2,30.3L106.2,30.3L106.2,30.3L106.2,30.3z M105,23.6l-0.1,0.5l0.3,0.1
		l0,1.1h0.5l0-1.3v-0.2L105,23.6z M108.1,31.8v-1.8l-0.7-0.1l-0.1,0.5l0.2,0v1.4H108.1z M103.4,24.9v-1.5l-0.8-0.1l-0.1,0.5l0.4,0.1
		v1.1H103.4z M109.3,31.9v-1.7l-0.7-0.1l0,0.5l0.2,0v1.3H109.3z M95.2,23.7V22l-0.8-0.1l-0.1,0.5h0l0.4,0.1v1.3H95.2z M104.9,24
		L104.9,24L104.9,24L104.9,24z M109.3,34.7v-1.7l-0.7-0.1l0,0.5l0.2,0v1.3H109.3z M105.7,31.7v-1.8l-0.7-0.1l-0.1,0.5l0.3,0v1.4
		H105.7z M107.3,24l-0.1,0.5h0l0.3,0.1v1h0.5l0-1.2v-0.2L107.3,24z M105.7,28.6v-1.8l-0.7-0.1l-0.1,0.5l0.3,0v1.4H105.7z M112,30.2
		h-0.5v2c-0.1,0-0.4,0-0.7,0c-0.1,0-0.2,0-0.4,0c-0.1,0-0.2,0-0.3-0.1l-0.2,0.4c0.1,0,0.2,0.1,0.4,0.1c0.2,0,0.3,0,0.4,0
		c0.3,0,0.5,0,0.7,0v2.2c-0.1,0-0.3,0-0.6,0c-0.1,0-0.3,0-0.4,0c-0.2,0-0.4-0.1-0.4-0.1l-0.3,0.4c0,0,0.2,0.2,0.6,0.2
		c0.2,0,0.4,0,0.5,0c0.5,0,0.9-0.1,0.9-0.1l-0.1-0.3h0.3V30.2z M106.7,25.3v-1.4l-0.6-0.2l-0.1,0.5l0.3,0.1v1H106.7z M109.3,29v-1.7
		l-0.7-0.1l0,0.5l0.2,0V29H109.3z M108.1,34.6v-1.8l-0.6-0.1l-0.1,0.5l0.2,0v1.4H108.1z M109.2,25.7v-1.3l-0.6-0.2l-0.1,0.5l0.3,0.1
		v1H109.2z M108.6,27.7L108.6,27.7L108.6,27.7L108.6,27.7z M108.1,28.9v-1.8l-0.6-0.1l-0.1,0.5l0.2,0v1.3H108.1z M106.9,28.8V27
		l-0.7-0.1l-0.1,0.5l0.2,0v1.4H106.9z M106.2,27.4L106.2,27.4L106.2,27.4L106.2,27.4z M103.1,32.6c-0.2,0-0.2,0-0.3-0.1l-0.2,0.4h0
		c0.2,0.1,0.2,0.1,0.4,0.1c0,0,0,0,0.1,0l0,1.6h0.5l0-1.8l0-0.1l0-0.2l-0.2,0C103.3,32.7,103.1,32.6,103.1,32.6 M104.2,29.1
		L104.2,29.1c0,0-0.4-0.1-1.2-0.2c-0.7-0.1-1.1-0.1-1.2-0.1c0,0-0.1,0-0.1,0l0.1,0.2v0.2c0.1,0,0.4,0,1.1,0.1
		c0.8,0.1,1.2,0.2,1.2,0.2L104.2,29.1z M103.5,31.7l0-1.8l0-0.1l0-0.2l-0.2,0c0,0-0.2,0-0.3,0c-0.2,0-0.2,0-0.3-0.1l-0.2,0.4
		c0.1,0,0.2,0.1,0.4,0.1c0,0,0,0,0.1,0l0,1.6H103.5z M104.4,29.7h-0.5v2.5l0-0.2c-0.1,0-0.4,0-0.6,0c-0.2,0-0.5,0-0.8,0
		c-0.2,0-0.3-0.1-0.4-0.1l-0.1,0.3v-2.9h-0.5v5.6h0.3l-0.2,0.3c0,0,0.3,0.3,0.8,0.3c0.3,0,0.6,0,0.8,0c0.7,0,1-0.1,1-0.1l-0.1-0.3
		h0.3V29.7z M103.9,35.1c-0.1,0-0.3,0-0.7,0c-0.2,0-0.5,0-0.8,0c-0.2,0-0.4-0.1-0.5-0.2v-2.5c0.1,0,0.3,0.1,0.5,0.1
		c0.3,0,0.6,0.1,0.8,0.1c0.3,0,0.5,0,0.7,0V35.1z M102.6,27L102.6,27L102.6,27L102.6,27z M102.6,30L102.6,30L102.6,30L102.6,30z
		 M96.6,31.4v-2l-0.8-0.1l0,0.5l0.4,0v1.6H96.6z M95.2,31.3v-2l-0.9,0l0,0.5l0.4,0v1.6H95.2z M102.6,27l0.4,0v1.4h0.5v-1.8l-0.8-0.1
		L102.6,27z M97,19.9L97,19.9L97,19.9L97,19.9z M96.6,21.1v-1.7l-0.8-0.1l-0.1,0.5l0.4,0.1l0,1.3H96.6z M95.2,20.8V19l-0.8-0.2
		l-0.1,0.5l0.4,0.1v1.3H95.2z M106.9,34.6v-1.8l-0.7-0.1l-0.1,0.5l0.2,0v1.4H106.9z M105,33.2L105,33.2L105,33.2z M98.3,20.2
		L98.3,20.2L98.3,20.2L98.3,20.2z M97.9,21.3v-1.6l-0.8-0.2L97,19.9l0.4,0.1v1.3H97.9z M97.9,31.5v-2l-0.8-0.1l0,0.5l0.4,0v1.5H97.9
		z M110,30c0.6,0.1,1.7,0.1,1.7,0.1l0-0.5v0c0,0-1,0-1.6-0.1L110,30z M105.7,34.6v-1.8l-0.7-0.1l-0.1,0.5l0.3,0v1.4H105.7z
		 M99.2,21.6V20l-0.8-0.2l-0.1,0.5l0.4,0.1v1.2H99.2z M104.3,25.2l-3.1-0.5l-0.1,0.5l3.1,0.5L104.3,25.2z M110.4,25.1L110.4,25.1
		L110.4,25.1L110.4,25.1z M78.5,25.9l-2.7,0.6l0.1,0.5l2.7-0.6L78.5,25.9z M78.7,35.7h-0.5v4.4h0.5V35.7z M78.7,32.7h-0.5v2.4h0.5
		V32.7z M101.5,24.5v-4H101v1.6l-7.2-1.4l-0.1,0.5l7.2,1.4l0.1-0.5v2.4H101.5z M110.4,23.2L110.4,23.2L110.4,23.2z M111.2,34.7V33
		l-0.7-0.1l0,0.5l0.2,0v1.3H111.2z M113.8,22.2L113.8,22.2L113.8,22.2L113.8,22.2z M104,18.1l0-0.2l-2.4-0.7l-0.2,0l-0.1,0l-0.2,0.6
		l0.4,0.2v0l0.1-0.3l2,0.6l0,0.2l-2-0.6l-0.1,0.4l1.2,0.3l-0.1,0l-0.1,0.5l0.4,0.1v1.2h0.5v-1.5l0.4,0.1l0-0.2l0.4-0.1L104,18.1
		L104,18.1z M112.4,21.9L112.4,21.9L112.4,21.9z M109.9,29.9h-0.5v4.9h0.5V29.9z M111.2,32v-1.7l-0.7-0.1l0,0.5l0.2,0V32H111.2z
		 M104.2,25.7l-2.8-0.4l-0.1,0.5l2.8,0.4L104.2,25.7z M101,28.8v6.1h0.5v-9H101V28.8z M111.4,26.7l-1.5-0.2l-0.1,0.5l1.5,0.2
		L111.4,26.7z M104.7,29.6l4.6,0.4l0-0.5l-4.6-0.4L104.7,29.6z M113.9,24.6h0.5v-1.1l-0.5-0.1l-0.1,0.5l0.2,0V24.6z M113.1,26.3
		v-1.1l-0.5-0.1l-0.1,0.5l0.2,0v0.7H113.1z M111.1,26.1v-1.3l-0.6-0.1l-0.1,0.5l0.3,0.1v0.9H111.1z M109.5,26.4l1.9,0.3l0.1-0.5
		l-1.9-0.3L109.5,26.4z M114.4,26.6v-1.1l-0.5-0.1l-0.1,0.5l0.2,0v0.7H114.4z M112.4,25.5L112.4,25.5L112.4,25.5z M112.4,23.6
		L112.4,23.6L112.4,23.6z M112.6,24.3h0.5v-1.1l-0.5-0.1l-0.1,0.5l0.2,0V24.3z"/>
</g>
</svg>
