<?xml version="1.0" encoding="utf-8"?>
<!-- Generator: Adobe Illustrator 22.0.0, SVG Export Plug-In . SVG Version: 6.00 Build 0)  -->
<svg version="1.1" id="Слой_1" xmlns="http://www.w3.org/2000/svg" xmlns:xlink="http://www.w3.org/1999/xlink" x="0px" y="0px"
	 viewBox="0 0 198.4 113.4" style="enable-background:new 0 0 198.4 113.4;" xml:space="preserve">
<style type="text/css">
	.st0{fill:#4F5260;}
</style>
<g>
	<path class="st0" d="M55.4,98.4v-1.1h0.7c0.7,0,1.3,0,1.7,0.1c0.4,0.1,0.7,0.3,1,0.6c0.2-0.3,0.5-0.5,0.8-0.6
		c0.3-0.1,0.7-0.2,1.3-0.2h0.6c0.4,0,0.7,0,1,0c0.3,0,0.5,0.1,0.7,0.1c0.2,0.1,0.3,0.1,0.5,0.2c0.1,0.1,0.2,0.2,0.3,0.4
		c0.2-0.3,0.5-0.5,0.8-0.6c0.3-0.1,0.8-0.1,1.6-0.1h1v1.1H67c-0.7,0-1.1,0.1-1.3,0.2c-0.2,0.2-0.3,0.5-0.3,1v9.1
		c0,0.5,0.1,0.9,0.3,1c0.2,0.2,0.6,0.2,1.3,0.2h0.3v1.1h-1c-0.8,0-1.3,0-1.6-0.1c-0.3-0.1-0.6-0.3-0.8-0.6c-0.1,0.2-0.2,0.3-0.3,0.4
		c-0.1,0.1-0.3,0.2-0.4,0.2c-0.2,0.1-0.4,0.1-0.6,0.1c-0.2,0-0.6,0-0.9,0h-0.5v-1.1h0.4c0.4,0,0.6-0.1,0.8-0.3
		c0.2-0.2,0.3-0.5,0.3-1v-9.1c0-0.4-0.1-0.7-0.2-0.9c-0.1-0.2-0.4-0.3-0.9-0.3h-0.6c-0.3,0-0.6,0.1-0.8,0.3
		c-0.2,0.2-0.3,0.5-0.3,0.9v8.1c0,1.1-0.2,2-0.7,2.6c-0.4,0.6-1.2,0.9-2.3,0.9c-0.4,0-0.7-0.1-0.9-0.2c-0.2-0.1-0.5-0.4-0.8-0.7
		c-0.3,0.3-0.7,0.6-1.2,0.9l-0.6-0.4c0.2-0.2,0.4-0.4,0.5-0.6c0.1-0.2,0.2-0.5,0.2-0.7c0-0.1,0-0.4-0.1-0.7
		c-0.1-0.3-0.1-0.6-0.1-0.9c0-0.6,0.2-1,0.5-1.3c0.3-0.3,0.7-0.4,1.1-0.4c0.5,0,0.8,0.2,1,0.6c0.2,0.4,0.3,0.8,0.3,1.2
		c0,0.4-0.2,0.9-0.7,1.4c0.1,0.3,0.3,0.4,0.4,0.5c0.1,0.1,0.3,0.1,0.5,0.1c0.3,0,0.6-0.2,0.7-0.5c0.1-0.3,0.2-0.8,0.2-1.6v-8.3
		c0-0.5-0.1-0.9-0.4-1.1c-0.3-0.2-0.8-0.3-1.5-0.3H55.4L55.4,98.4z"/>
	<path class="st0" d="M71.3,98.4v-1.1h0.9c1.3,0,2.1,0.3,2.5,0.8c0.2-0.3,0.5-0.5,0.9-0.6c0.4-0.1,0.9-0.2,1.5-0.2h0.6v1.1h-0.1
		c-0.4,0-0.6,0-0.8,0.1c-0.2,0.1-0.3,0.2-0.3,0.5c0,0.1,0,0.2,0,0.4c0,0.2,0.1,0.3,0.1,0.4l2.1,9.4c0.1,0.3,0.2,0.6,0.4,0.7
		c0.2,0.1,0.5,0.2,0.8,0.2H80v1.1h-0.3c-0.8,0-1.4,0-1.7-0.2c-0.3-0.1-0.6-0.3-0.8-0.6c-0.2,0.3-0.4,0.5-0.7,0.6
		c-0.3,0.1-0.8,0.2-1.3,0.2h-0.6v-1.1c0.5,0,0.8,0,1-0.1c0.2-0.1,0.3-0.3,0.3-0.5c0-0.1,0-0.2,0-0.4c0-0.1,0-0.3-0.1-0.6l-0.3-1.7
		h-3l-0.4,1.9c-0.1,0.3-0.1,0.6-0.1,0.8c0,0.3,0.1,0.4,0.3,0.5c0.2,0.1,0.5,0.1,0.8,0.1v1.1h-0.6c-0.5,0-0.8,0-1-0.2
		c-0.2-0.1-0.4-0.3-0.6-0.6c-0.2,0.3-0.4,0.5-0.6,0.6c-0.2,0.1-0.6,0.2-1.2,0.2h-0.7v-1.1c0.6,0,1-0.1,1.3-0.3
		c0.3-0.2,0.5-0.6,0.7-1.2l2.3-8.7c0.1-0.3,0.1-0.5,0.2-0.6c0-0.1,0-0.2,0-0.3c0-0.3-0.3-0.5-0.9-0.5H71.3L71.3,98.4z M72.7,105.3
		L72.7,105.3H75l-1-5.1L72.7,105.3L72.7,105.3z"/>
	<path class="st0" d="M87.4,111.3c-0.2-0.2-0.4-0.3-0.6-0.5c-0.2-0.1-0.4-0.3-0.6-0.4c-0.6,0.6-1.3,0.9-2,0.9
		c-0.8,0-1.5-0.2-2.1-0.6c-0.6-0.4-1.1-0.9-1.5-1.5c-0.4-0.6-0.7-1.4-0.9-2.2c-0.2-0.9-0.3-1.8-0.3-2.8c0-1,0.1-1.9,0.3-2.8
		c0.2-0.9,0.5-1.6,0.9-2.2c0.4-0.6,0.9-1.1,1.5-1.5c0.6-0.4,1.3-0.5,2.1-0.5c0.8,0,1.5,0.3,2,0.9c0.2-0.1,0.4-0.3,0.6-0.4
		c0.2-0.1,0.4-0.3,0.6-0.5l0.7,0.4c-0.2,0.2-0.4,0.4-0.5,0.7c-0.1,0.2-0.1,0.5-0.1,0.7c0,0.4,0,0.6,0.1,0.9c0.1,0.2,0.1,0.4,0.1,0.5
		c0,0.5-0.1,0.9-0.4,1.2c-0.3,0.3-0.6,0.5-1.2,0.5c-0.5,0-0.9-0.2-1.1-0.5c-0.3-0.4-0.4-0.7-0.4-1.1c0-0.4,0.2-0.8,0.6-1.3
		c-0.3-0.4-0.6-0.7-1.1-0.7c-0.5,0-0.8,0.2-1.1,0.5c-0.2,0.3-0.4,0.8-0.4,1.4v8c0,0.6,0.1,1,0.4,1.4c0.2,0.3,0.6,0.5,1.1,0.5
		c0.5,0,0.9-0.2,1.1-0.7c-0.4-0.5-0.6-0.9-0.6-1.3c0-0.4,0.1-0.7,0.4-1c0.3-0.3,0.6-0.5,1-0.5c0.6,0,1,0.1,1.2,0.4
		c0.3,0.3,0.4,0.7,0.4,1.1c0,0.2,0,0.3-0.1,0.5c-0.1,0.2-0.1,0.5-0.1,0.8c0,0.2,0,0.5,0.1,0.7c0.1,0.2,0.2,0.5,0.5,0.7L87.4,111.3
		L87.4,111.3z"/>
	<path class="st0" d="M91.1,98.9c0.5,0.6,0.8,1.1,0.8,1.5c0,0.5-0.1,0.8-0.4,1.1c-0.3,0.3-0.6,0.4-1,0.4c-0.4,0-0.8-0.1-1.1-0.4
		c-0.3-0.3-0.5-0.7-0.5-1.1c0,0,0-0.1,0-0.3c0-0.1,0.1-0.3,0.1-0.4c0-0.1,0.1-0.3,0.1-0.4c0-0.1,0-0.2,0-0.3c0-0.5-0.2-0.9-0.7-1.4
		l0.7-0.4c0.2,0.1,0.4,0.3,0.5,0.4c0.2,0.1,0.3,0.3,0.5,0.4c0.7-0.5,1.5-0.8,2.3-0.8c0.7,0,1.5,0.3,2.2,0.8c0.7-0.5,1.4-0.8,2.2-0.8
		c0.8,0,1.5,0.3,2.3,0.8c0.2-0.1,0.3-0.3,0.5-0.4c0.2-0.1,0.4-0.2,0.6-0.4l0.6,0.4c-0.5,0.5-0.7,0.9-0.7,1.4c0,0.2,0,0.4,0.1,0.7
		c0.1,0.3,0.1,0.5,0.1,0.7c0,0.5-0.2,0.8-0.5,1.1c-0.3,0.3-0.7,0.4-1.2,0.4c-0.4,0-0.8-0.1-1-0.4c-0.3-0.3-0.4-0.6-0.4-1.1
		c0-0.2,0.1-0.5,0.2-0.7c0.1-0.3,0.3-0.5,0.6-0.8c-0.3-0.3-0.6-0.5-1-0.5c-0.4,0-0.7,0.2-0.8,0.5c-0.1,0.3-0.2,0.7-0.2,1.1v8.8
		c0,0.5,0.1,0.9,0.3,1c0.2,0.2,0.7,0.2,1.3,0.2v1.1h-0.7c-0.4,0-0.7,0-0.9,0c-0.3,0-0.5-0.1-0.6-0.1c-0.2-0.1-0.3-0.1-0.4-0.2
		c-0.1-0.1-0.2-0.2-0.3-0.4c-0.2,0.3-0.5,0.5-0.8,0.6c-0.3,0.1-0.8,0.1-1.6,0.1h-0.7v-1.1c0.7,0,1.1-0.1,1.3-0.2
		c0.2-0.2,0.3-0.5,0.3-1V100c0-0.5-0.1-0.9-0.2-1.2c-0.1-0.3-0.4-0.4-0.8-0.4C91.7,98.4,91.4,98.6,91.1,98.9L91.1,98.9z"/>
	<path class="st0" d="M100.5,104.3c0-1,0.1-2,0.3-2.9c0.2-0.9,0.5-1.6,0.9-2.3c0.4-0.6,0.9-1.2,1.4-1.5c0.6-0.4,1.2-0.5,2-0.5
		c0.7,0,1.4,0.2,2,0.5c0.6,0.4,1,0.9,1.4,1.5c0.4,0.6,0.7,1.4,0.9,2.3c0.2,0.9,0.3,1.8,0.3,2.9c0,1-0.1,2-0.3,2.9
		c-0.2,0.9-0.5,1.6-0.9,2.3c-0.4,0.6-0.9,1.1-1.4,1.5c-0.6,0.4-1.2,0.6-2,0.6c-0.8,0-1.4-0.2-2-0.6c-0.6-0.4-1-0.9-1.4-1.5
		c-0.4-0.6-0.7-1.4-0.9-2.3C100.6,106.2,100.5,105.3,100.5,104.3L100.5,104.3z M103.5,107.7L103.5,107.7c0,0.9,0.1,1.5,0.3,1.8
		c0.2,0.3,0.6,0.5,1.2,0.5c0.5,0,0.9-0.2,1.1-0.5c0.2-0.3,0.3-0.9,0.3-1.8v-7c0-0.9-0.1-1.5-0.3-1.8c-0.2-0.3-0.6-0.5-1.1-0.5
		c-0.5,0-0.9,0.2-1.2,0.5c-0.2,0.3-0.3,0.9-0.3,1.8V107.7L103.5,107.7z"/>
	<path class="st0" d="M114.2,97.3v1.1H114c-0.2,0-0.4,0.1-0.6,0.2c-0.2,0.2-0.3,0.5-0.3,1v1.9c0,0.7,0.1,1.1,0.3,1.4
		c0.2,0.3,0.7,0.5,1.4,0.5c0.1,0,0.3,0,0.5,0c0.2,0,0.4-0.1,0.5-0.1v-3.8c0-0.4-0.1-0.7-0.2-0.9c-0.2-0.2-0.4-0.3-0.6-0.3h-0.2v-1.1
		h0.2c0.7,0,1.2,0.1,1.5,0.2c0.3,0.1,0.5,0.3,0.8,0.6c0.1-0.2,0.2-0.3,0.4-0.4c0.1-0.1,0.3-0.2,0.4-0.2c0.2-0.1,0.4-0.1,0.6-0.1
		c0.2,0,0.5,0,0.9,0h0.7v1.1c-0.7,0-1.1,0.1-1.3,0.2c-0.2,0.2-0.3,0.5-0.3,1v9.1c0,0.5,0.1,0.9,0.3,1c0.2,0.2,0.7,0.2,1.3,0.2v1.1
		h-0.7c-0.7,0-1.3,0-1.6-0.1c-0.3-0.1-0.6-0.3-0.8-0.6c-0.1,0.2-0.2,0.3-0.3,0.4c-0.1,0.1-0.3,0.2-0.4,0.2c-0.2,0.1-0.4,0.1-0.6,0.1
		c-0.3,0-0.6,0-0.9,0h-1v-1.1h0.3c0.6,0,1-0.1,1.3-0.3c0.2-0.2,0.4-0.5,0.4-1v-4c-0.2,0.1-0.5,0.1-0.8,0.2c-0.3,0-0.5,0.1-0.7,0.1
		c-0.6,0-1.1-0.1-1.6-0.2c-0.5-0.1-0.9-0.3-1.2-0.6c-0.3-0.3-0.6-0.6-0.8-1c-0.2-0.4-0.3-0.9-0.3-1.6v-2c0-0.5-0.1-0.9-0.2-1
		c-0.2-0.2-0.4-0.2-0.6-0.2h-0.4v-1.1h0.6c0.6,0,1,0.1,1.3,0.2c0.3,0.1,0.5,0.3,0.7,0.6c0.2-0.3,0.5-0.5,0.8-0.6
		c0.3-0.1,0.8-0.1,1.4-0.1H114.2L114.2,97.3z"/>
	<path class="st0" d="M125.9,104.9l-0.6,0.9v3c0,0.5,0.1,0.8,0.3,1c0.2,0.2,0.6,0.3,1.2,0.3v1.1h-0.5c-0.4,0-0.7,0-1,0
		c-0.3,0-0.5-0.1-0.6-0.1c-0.2-0.1-0.3-0.1-0.4-0.2c-0.1-0.1-0.2-0.2-0.3-0.4c-0.1,0.2-0.2,0.3-0.3,0.4c-0.1,0.1-0.3,0.2-0.4,0.2
		c-0.2,0.1-0.4,0.1-0.6,0.1c-0.2,0-0.6,0-0.9,0h-0.7v-1.1c0.7,0,1.1-0.1,1.3-0.2c0.2-0.2,0.3-0.5,0.3-1v-9.1c0-0.5-0.1-0.9-0.3-1
		c-0.2-0.2-0.7-0.2-1.3-0.2v-1.1h0.7c0.4,0,0.7,0,0.9,0c0.2,0,0.5,0.1,0.6,0.1c0.2,0.1,0.3,0.1,0.4,0.2c0.1,0.1,0.2,0.2,0.3,0.4
		c0.1-0.2,0.2-0.3,0.3-0.4c0.1-0.1,0.3-0.2,0.4-0.2c0.2,0,0.4-0.1,0.6-0.1c0.3,0,0.6,0,1,0h0.5v1.1c-0.6,0-1,0.1-1.2,0.3
		c-0.2,0.2-0.3,0.5-0.3,1v3.9l2.8-4c0.2-0.3,0.3-0.5,0.3-0.7c0-0.3-0.2-0.5-0.7-0.5v-1.1h0.3c0.6,0,1,0,1.2,0.1
		c0.2,0.1,0.4,0.2,0.6,0.5c0.3-0.4,0.7-0.6,1.3-0.6h0.6v1.1c-0.4,0-0.7,0.1-0.9,0.2c-0.2,0.1-0.4,0.3-0.7,0.7l-2.2,3.2l2.7,6.6
		c0.2,0.4,0.3,0.6,0.5,0.8c0.2,0.1,0.5,0.2,0.9,0.2v1.1h-0.5c-0.6,0-1,0-1.3-0.1c-0.3-0.1-0.5-0.2-0.7-0.5c-0.3,0.4-0.7,0.5-1.2,0.6
		L125.9,104.9L125.9,104.9z"/>
	<path class="st0" d="M135.8,98.4v-1.1h0.9c1.3,0,2.1,0.3,2.5,0.8c0.2-0.3,0.5-0.5,0.9-0.6c0.4-0.1,0.9-0.2,1.5-0.2h0.6v1.1H142
		c-0.4,0-0.6,0-0.8,0.1c-0.2,0.1-0.3,0.2-0.3,0.5c0,0.1,0,0.2,0,0.4c0,0.2,0.1,0.3,0.1,0.4l2.1,9.4c0.1,0.3,0.2,0.6,0.4,0.7
		c0.2,0.1,0.5,0.2,0.8,0.2h0.2v1.1h-0.3c-0.8,0-1.4,0-1.7-0.2c-0.3-0.1-0.6-0.3-0.8-0.6c-0.2,0.3-0.4,0.5-0.8,0.6
		c-0.3,0.1-0.8,0.2-1.3,0.2H139v-1.1c0.5,0,0.8,0,1-0.1c0.2-0.1,0.3-0.3,0.3-0.5c0-0.1,0-0.2,0-0.4c0-0.1,0-0.3-0.1-0.6l-0.3-1.7h-3
		l-0.4,1.9c-0.1,0.3-0.1,0.6-0.1,0.8c0,0.3,0.1,0.4,0.3,0.5c0.2,0.1,0.5,0.1,0.8,0.1v1.1h-0.6c-0.5,0-0.8,0-1-0.2
		c-0.2-0.1-0.4-0.3-0.6-0.6c-0.2,0.3-0.4,0.5-0.6,0.6c-0.2,0.1-0.6,0.2-1.2,0.2h-0.7v-1.1c0.6,0,1.1-0.1,1.3-0.3
		c0.3-0.2,0.5-0.6,0.7-1.2l2.3-8.7c0.1-0.3,0.1-0.5,0.2-0.6c0-0.1,0-0.2,0-0.3c0-0.3-0.3-0.5-0.9-0.5H135.8L135.8,98.4z
		 M137.2,105.3L137.2,105.3h2.3l-1-5.1L137.2,105.3L137.2,105.3z"/>
	<path class="st0" d="M140.3,53.2c-1.5-0.4-4.9-0.6-7.6-0.7l0.1-0.5l-0.3-0.1l0.2-0.9l-0.8-0.2c0.1-0.7,0.2-1.4,0.2-2.1
		c0.3-3.7,0-7.3-0.9-10.9l0.8-0.2l-0.2-0.8l0.3-0.1l-0.1-0.5c2.7-0.3,6.1-0.6,7.6-1.1c2.6-0.8,3.6-1.9,3.3-2.9
		c-0.3-1-1.8-1.4-4.4-0.7c-1.5,0.4-4.5,1.9-7,3.1l-0.1-0.5l-0.2,0.1l-0.3-0.9l-1,0.3L130,34c-1.4-3.5-3.3-6.7-5.7-9.6l0.7-0.6
		l-0.6-0.6l0.2-0.2l-0.3-0.4c2.3-1.5,5.2-3.4,6.3-4.4c2-1.9,2.4-3.4,1.7-4.1c-0.7-0.8-2.2-0.5-4.2,1.4c-1.1,1-3.2,3.8-4.8,6
		l-0.3-0.4l-0.2,0.2l-0.6-0.6l-0.7,0.7l0.2,0.2c-2.3-2.1-4.8-3.8-7.6-5.2c-1.5-0.7-3-1.4-4.5-1.9l0.2-0.9l-0.9-0.2l0.1-0.3l-0.5-0.1
		c1.2-2.5,2.6-5.6,3-7.1c0.7-2.6,0.2-4.1-0.8-4.4c-1-0.3-2.1,0.8-2.8,3.4c-0.4,1.5-0.7,4.9-0.8,7.6l-0.5-0.1l-0.1,0.3l-0.9-0.2
		l-0.2,0.9c-1.2-0.2-2.4-0.4-3.6-0.5c-3.1-0.2-6.1-0.1-9.1,0.5l-0.2-0.9l-0.9,0.2l-0.1-0.3l-0.5,0.1c-0.2-2.7-0.5-6.1-0.9-7.6
		c-0.7-2.6-1.8-3.7-2.8-3.4c-1,0.3-1.5,1.7-0.8,4.4c0.4,1.5,1.8,4.6,3,7l-0.5,0.1l0.1,0.3L88,13.6l0.2,0.9
		c-4.1,1.4-7.9,3.5-11.2,6.3l-0.6-0.7l-0.6,0.6l-0.2-0.2l-0.4,0.3c-1.5-2.3-3.4-5.1-4.5-6.2c-1.9-2-3.4-2.3-4.2-1.6
		c-0.7,0.7-0.5,2.2,1.5,4.2c1.1,1.1,3.8,3.1,6.1,4.7l-0.4,0.3l0.2,0.2l-0.6,0.6l0.7,0.7c-1.9,2.2-3.6,4.6-4.9,7.2
		c-0.8,1.5-1.4,3.1-1.9,4.6l-0.9-0.2l-0.2,0.9l-0.3-0.1l-0.1,0.5c-2.5-1.1-5.6-2.5-7.1-2.8c-2.7-0.6-4.1-0.1-4.4,0.9
		c-0.2,1,0.8,2.1,3.5,2.8c1.5,0.4,4.9,0.6,7.6,0.7l-0.1,0.5l0.3,0.1l-0.2,0.9l0.8,0.2c-0.2,1.1-0.4,2.3-0.5,3.5
		c-0.3,3.2-0.1,6.4,0.6,9.6l-0.9,0.2l0.2,0.9l-0.3,0.1l0.1,0.5c-2.7,0.2-6.1,0.5-7.6,0.9c-2.7,0.7-3.7,1.8-3.4,2.8
		c0.3,1,1.7,1.5,4.4,0.8c1.5-0.4,4.6-1.8,7-3l0.1,0.5l0.3-0.1l0.2,0.9l1-0.3l0,0c1.4,4.1,3.6,7.8,6.4,11c0.1,0.2,0.3,0.3,0.4,0.5
		l-0.6,0.7l0.6,0.6L74,70l0.3,0.3c-2.2,1.6-5,3.6-6.1,4.6c-1.9,2-2.2,3.5-1.5,4.2c0.7,0.7,2.2,0.4,4.1-1.6c1.1-1.1,3-3.9,4.5-6.2
		l0.3,0.3l0.2-0.2l0.6,0.6l0.7-0.7c2,1.7,4.2,3.1,6.6,4.3c1.7,0.8,3.4,1.5,5.2,2.1l-0.2,0.8l0.8,0.2l-0.1,0.3l0.5,0.1
		c-1.1,2.5-2.5,5.6-2.8,7.1c-0.6,2.7-0.1,4.1,0.9,4.3c1,0.2,2.1-0.8,2.8-3.5c0.4-1.5,0.6-4.9,0.7-7.6l0.5,0.1l0.1-0.3l0.9,0.2
		l0.2-0.8c1,0.2,1.9,0.3,2.9,0.4c3.4,0.3,6.8,0,10.1-0.7l0.2,0.7l0.9-0.2l0.1,0.3l0.5-0.1c0.2,2.7,0.5,6.1,0.9,7.6
		c0.7,2.6,1.8,3.7,2.8,3.4c1-0.3,1.5-1.7,0.8-4.4c-0.4-1.5-1.8-4.6-3-7l0.5-0.1l-0.1-0.3l0.8-0.2l-0.2-0.9c3.8-1.4,7.3-3.5,10.4-6.1
		c0.4-0.4,0.8-0.7,1.2-1.1l0.7,0.6l0.6-0.7l0.2,0.2l0.3-0.4c1.7,2.1,4,4.7,5.1,5.7c2.1,1.8,3.6,1.9,4.3,1.1c0.7-0.8,0.2-2.3-1.9-4
		c-1.2-1-4.1-2.7-6.5-4l0.3-0.4l-0.2-0.2l0.6-0.7l-0.5-0.5c1.4-1.8,2.7-3.7,3.7-5.8c1-1.9,1.7-3.9,2.3-6l0.7,0.2l0.2-0.9l0.3,0.1
		l0.1-0.5c2.5,1.1,5.6,2.5,7.1,2.8c2.7,0.6,4.1,0.1,4.3-0.9C144,55,142.9,53.9,140.3,53.2L140.3,53.2z M108.5,75.4L108.5,75.4
		c-16.2,5.3-33.6-3.5-39-19.7c-5.3-16.2,3.5-33.7,19.7-39c16.2-5.3,33.7,3.5,39,19.7C133.5,52.6,124.7,70.1,108.5,75.4L108.5,75.4z"
		/>
	<path class="st0" d="M124.5,37.6C124.5,37.6,124.5,37.6,124.5,37.6L124.5,37.6c-0.4-0.2-0.6-0.4-0.9-0.6c-0.2-0.2-0.4-0.5-0.5-0.8
		c-0.2-0.4-0.2-0.8-0.1-1.2c0-0.1,0-0.1,0-0.2c0.1-0.2,0.1-0.4,0.2-0.6c0.1-0.2,0.2-0.3,0.3-0.5c0-0.1,0.1-0.1,0.1-0.1c0,0,0,0,0,0
		c0-0.1,0.1-0.1,0.1-0.2c0,0,0,0,0-0.1v0c0,0,0,0,0-0.1c0,0,0,0,0,0c0,0,0,0,0,0c0,0,0,0,0-0.1c0.1-0.1,0.1-0.2,0.1-0.3
		c0,0,0-0.1,0-0.1v0c0.1-0.3,0-0.6,0-0.8c0.2,0.1,0.4,0.2,0.6,0.3c0,0,0,0,0,0c0.1,0.1,0.2,0.2,0.3,0.3c0,0,0,0.1,0.1,0.1
		c0,0,0,0,0,0c0,0,0.1,0.1,0.1,0.1c0,0,0.1,0.1,0.1,0.1c0.2,0.4,0.4,0.8,0.4,1.3c0,0.3-0.1,0.6-0.2,0.8c-0.1,0.2-0.2,0.4-0.3,0.6
		c-0.2,0.3-0.4,0.5-0.5,0.8c0,0.1-0.1,0.2-0.1,0.3c0,0.1,0,0.1,0,0.2c0,0.1,0,0.3,0,0.4C124.5,37.4,124.5,37.5,124.5,37.6
		L124.5,37.6z"/>
	<path class="st0" d="M123.3,34.5C123.3,34.5,123.3,34.5,123.3,34.5C123.3,34.5,123.3,34.5,123.3,34.5c-0.4-0.1-0.7-0.3-1-0.5
		c-0.3-0.2-0.5-0.4-0.6-0.7c-0.2-0.4-0.3-0.8-0.3-1.2c0-0.1,0-0.1,0-0.2c0-0.2,0.1-0.4,0.1-0.6c0.1-0.2,0.1-0.4,0.2-0.5
		c0-0.1,0-0.1,0.1-0.2c0,0,0,0,0,0c0-0.1,0.1-0.2,0.1-0.2c0,0,0,0,0-0.1v0c0,0,0,0,0-0.1c0,0,0,0,0,0c0,0,0,0,0,0c0,0,0,0,0-0.1
		c0-0.1,0.1-0.2,0.1-0.3c0,0,0-0.1,0-0.1v0c0-0.3-0.1-0.5-0.2-0.8c0.2,0.1,0.4,0.1,0.6,0.2c0,0,0,0,0,0c0.1,0.1,0.2,0.1,0.3,0.2
		c0,0,0.1,0.1,0.1,0.1c0,0,0,0,0,0c0,0,0.1,0.1,0.1,0.1c0,0,0.1,0.1,0.1,0.1c0.3,0.3,0.5,0.7,0.6,1.2c0,0.3,0,0.6,0,0.9
		c-0.1,0.2-0.1,0.4-0.2,0.7c-0.1,0.3-0.3,0.6-0.4,0.9c0,0.1,0,0.2,0,0.3c0,0.1,0,0.1,0,0.2c0,0.1,0,0.2,0,0.4
		C123.3,34.2,123.3,34.4,123.3,34.5L123.3,34.5z"/>
	<path class="st0" d="M121.6,31.6C121.6,31.6,121.6,31.6,121.6,31.6L121.6,31.6c-0.4-0.1-0.7-0.2-1-0.4c-0.3-0.2-0.5-0.4-0.7-0.7
		c-0.2-0.3-0.4-0.7-0.4-1.1c0-0.1,0-0.1,0-0.2c0-0.2,0-0.4,0.1-0.6c0.1-0.2,0.1-0.4,0.2-0.5c0-0.1,0-0.1,0.1-0.2c0,0,0,0,0,0
		c0-0.1,0.1-0.2,0.1-0.2c0,0,0,0,0-0.1c0,0,0,0,0,0c0,0,0,0,0-0.1c0,0,0,0,0,0c0,0,0,0,0,0c0,0,0,0,0-0.1c0-0.1,0-0.2,0-0.3
		c0,0,0-0.1,0-0.1c0,0,0,0,0,0c0-0.3-0.1-0.5-0.2-0.8c0.2,0,0.4,0.1,0.6,0.2c0,0,0,0,0,0c0.1,0.1,0.2,0.1,0.3,0.2c0,0,0.1,0,0.1,0.1
		c0,0,0,0,0,0c0,0,0.1,0.1,0.1,0.1c0,0,0.1,0.1,0.1,0.1c0.3,0.3,0.6,0.7,0.7,1.1c0.1,0.3,0.1,0.6,0,0.9c0,0.2-0.1,0.5-0.2,0.7
		c-0.1,0.3-0.2,0.6-0.3,0.9c0,0.1,0,0.2,0,0.3c0,0.1,0,0.1,0,0.2c0,0.1,0,0.2,0.1,0.4C121.5,31.4,121.6,31.5,121.6,31.6L121.6,31.6z
		"/>
	<path class="st0" d="M119.6,28.9C119.6,28.9,119.6,28.9,119.6,28.9L119.6,28.9c-0.4,0-0.7-0.1-1-0.3c-0.3-0.2-0.5-0.3-0.7-0.6
		c-0.3-0.3-0.4-0.7-0.5-1.1c0-0.1,0-0.1,0-0.2c0-0.2,0-0.4,0-0.6c0-0.2,0.1-0.4,0.1-0.6c0-0.1,0-0.1,0-0.2c0,0,0,0,0,0
		c0-0.1,0-0.2,0-0.2c0,0,0,0,0-0.1v0c0,0,0,0,0-0.1c0,0,0,0,0,0c0,0,0,0,0,0c0,0,0,0,0-0.1c0-0.1,0-0.2,0-0.3c0,0,0,0,0-0.1
		c0,0,0,0,0,0c0-0.3-0.1-0.5-0.3-0.8c0.2,0,0.4,0.1,0.6,0.1c0,0,0,0,0.1,0c0.1,0,0.2,0.1,0.3,0.2c0,0,0.1,0,0.1,0.1c0,0,0,0,0,0
		c0,0,0.1,0,0.1,0.1c0.1,0,0.1,0.1,0.1,0.1c0.3,0.3,0.6,0.6,0.8,1.1c0.1,0.3,0.1,0.6,0.1,0.9c0,0.2-0.1,0.5-0.1,0.7
		c-0.1,0.3-0.2,0.6-0.2,0.9c0,0.1,0,0.2,0,0.3c0,0.1,0,0.1,0,0.2c0,0.1,0.1,0.2,0.1,0.4C119.5,28.7,119.5,28.8,119.6,28.9
		L119.6,28.9z"/>
	<path class="st0" d="M117.3,26.5C117.3,26.5,117.3,26.5,117.3,26.5C117.3,26.5,117.3,26.5,117.3,26.5c-0.4,0-0.7,0-1.1-0.2
		c-0.3-0.1-0.6-0.3-0.8-0.5c-0.3-0.3-0.5-0.6-0.6-1c0,0,0-0.1,0-0.2c0-0.2-0.1-0.4-0.1-0.6c0-0.2,0-0.4,0.1-0.6c0-0.1,0-0.1,0-0.2
		c0,0,0,0,0,0c0-0.1,0-0.2,0-0.3c0,0,0,0,0-0.1c0,0,0,0,0,0c0,0,0,0,0-0.1c0,0,0,0,0,0c0,0,0,0,0,0v-0.1c0-0.1,0-0.2,0-0.3
		c0,0,0,0,0-0.1c0,0,0,0,0,0c-0.1-0.3-0.2-0.5-0.4-0.7c0.2,0,0.4,0,0.7,0c0,0,0,0,0,0c0.1,0,0.2,0.1,0.4,0.1c0,0,0.1,0,0.1,0.1
		c0,0,0,0,0,0c0,0,0.1,0,0.1,0.1c0.1,0,0.1,0,0.1,0.1c0.4,0.2,0.7,0.5,0.9,0.9c0.1,0.3,0.2,0.5,0.2,0.8c0,0.2,0,0.5,0,0.7
		c0,0.3-0.1,0.6-0.1,1c0,0.1,0,0.2,0.1,0.3c0,0.1,0,0.1,0,0.2c0,0.1,0.1,0.2,0.2,0.3C117.2,26.3,117.3,26.4,117.3,26.5L117.3,26.5z"
		/>
	<path class="st0" d="M114.8,24.3C114.8,24.3,114.8,24.3,114.8,24.3C114.8,24.3,114.8,24.3,114.8,24.3c-0.4,0.1-0.7,0.1-1.1,0
		c-0.3-0.1-0.6-0.2-0.9-0.4c-0.4-0.2-0.6-0.5-0.8-0.9c0,0-0.1-0.1-0.1-0.2c-0.1-0.2-0.1-0.4-0.1-0.6c0-0.2,0-0.4,0-0.6
		c0-0.1,0-0.1,0-0.2c0,0,0,0,0,0c0-0.1,0-0.2,0-0.2c0,0,0,0,0-0.1c0,0,0,0,0,0c0,0,0,0,0-0.1c0,0,0,0,0,0v0c0,0,0,0,0-0.1
		c0-0.1-0.1-0.2-0.1-0.3c0,0,0-0.1,0-0.1c0,0,0,0,0,0c-0.1-0.2-0.3-0.5-0.5-0.6c0.2-0.1,0.4-0.1,0.7-0.1c0,0,0,0,0,0
		c0.1,0,0.2,0,0.4,0c0,0,0.1,0,0.1,0h0c0,0,0.1,0,0.1,0c0.1,0,0.1,0,0.1,0.1c0.4,0.2,0.8,0.4,1.1,0.8c0.2,0.2,0.3,0.5,0.4,0.8
		c0.1,0.2,0.1,0.5,0.1,0.7c0,0.3,0,0.6,0.1,1c0,0.1,0.1,0.2,0.1,0.3c0,0,0,0.1,0.1,0.1c0.1,0.1,0.1,0.2,0.2,0.3
		C114.7,24.1,114.7,24.2,114.8,24.3L114.8,24.3z"/>
	<path class="st0" d="M112.1,22.5C112.1,22.5,112.1,22.5,112.1,22.5C112.1,22.5,112.1,22.5,112.1,22.5c-0.4,0.1-0.7,0.2-1.1,0.2
		c-0.3,0-0.6-0.1-0.9-0.2c-0.4-0.2-0.7-0.4-0.9-0.8c0,0-0.1-0.1-0.1-0.2c-0.1-0.2-0.2-0.4-0.2-0.6c0-0.2-0.1-0.4-0.1-0.6
		c0-0.1,0-0.1,0-0.2c0,0,0,0,0,0c0-0.1,0-0.2-0.1-0.2c0,0,0,0,0-0.1c0,0,0,0,0,0c0,0,0,0,0-0.1c0,0,0,0,0,0c0,0,0,0,0,0
		c0,0,0,0,0-0.1c-0.1-0.1-0.1-0.2-0.2-0.3c0,0,0,0,0-0.1c0,0,0,0,0,0c-0.1-0.2-0.4-0.4-0.6-0.6c0.2-0.1,0.4-0.1,0.7-0.2
		c0,0,0,0,0.1,0c0.1,0,0.3,0,0.4,0c0,0,0.1,0,0.1,0c0,0,0,0,0,0c0,0,0.1,0,0.1,0c0.1,0,0.1,0,0.2,0c0.4,0.1,0.8,0.3,1.2,0.6
		c0.2,0.2,0.4,0.4,0.5,0.7c0.1,0.2,0.1,0.4,0.2,0.7c0.1,0.3,0.1,0.6,0.2,0.9c0,0.1,0.1,0.2,0.1,0.3c0,0,0.1,0.1,0.1,0.1
		c0.1,0.1,0.2,0.2,0.2,0.3C111.9,22.3,112,22.4,112.1,22.5L112.1,22.5z"/>
	<path class="st0" d="M109,21.1C109,21.1,109,21.1,109,21.1C109,21.1,109,21.1,109,21.1c-0.4,0.2-0.7,0.2-1,0.3c-0.3,0-0.6,0-1-0.1
		c-0.4-0.2-0.7-0.4-1-0.7c0,0-0.1-0.1-0.1-0.1c-0.1-0.2-0.2-0.3-0.3-0.5c-0.1-0.2-0.1-0.4-0.2-0.6c0-0.1,0-0.1,0-0.2c0,0,0,0,0,0
		c0-0.1,0-0.2-0.1-0.2c0,0,0,0,0-0.1c0,0,0,0,0,0c0,0,0,0,0-0.1c0,0,0,0,0,0c0,0,0,0,0,0c0,0,0,0,0-0.1c0-0.1-0.1-0.2-0.2-0.3
		c0,0,0,0,0-0.1c0,0,0,0,0,0c-0.2-0.2-0.4-0.4-0.6-0.5c0.2-0.1,0.4-0.2,0.6-0.2c0,0,0,0,0.1,0c0.1,0,0.2,0,0.4,0c0,0,0.1,0,0.1,0
		c0,0,0,0,0,0c0,0,0.1,0,0.1,0c0.1,0,0.1,0,0.2,0c0.4,0.1,0.9,0.2,1.2,0.5c0.2,0.2,0.4,0.4,0.5,0.7c0.1,0.2,0.2,0.4,0.2,0.7
		c0.1,0.3,0.2,0.6,0.3,0.9c0,0.1,0.1,0.2,0.2,0.3c0,0,0.1,0.1,0.1,0.1c0.1,0.1,0.2,0.2,0.3,0.3C108.8,21,108.9,21,109,21.1L109,21.1
		z"/>
	<path class="st0" d="M105.8,20.1C105.8,20.1,105.8,20.1,105.8,20.1C105.7,20.1,105.7,20.1,105.8,20.1c-0.3,0.2-0.7,0.3-1,0.3
		c-0.3,0-0.6,0-1-0.1c-0.4-0.1-0.8-0.3-1-0.6c0,0-0.1-0.1-0.1-0.1c-0.1-0.2-0.2-0.3-0.3-0.5c-0.1-0.2-0.1-0.4-0.2-0.5
		c0-0.1,0-0.1-0.1-0.2c0,0,0,0,0,0c0-0.1-0.1-0.1-0.1-0.2c0,0,0,0,0-0.1c0,0,0,0,0,0c0,0,0,0,0-0.1c0,0,0,0,0,0c0,0,0,0,0,0
		c0,0,0,0,0-0.1c-0.1-0.1-0.1-0.2-0.2-0.3c0,0,0,0,0-0.1h0c-0.2-0.2-0.4-0.4-0.7-0.5c0.2-0.1,0.4-0.2,0.6-0.3c0,0,0,0,0,0
		c0.1,0,0.2-0.1,0.4-0.1c0,0,0.1,0,0.1,0c0,0,0,0,0,0c0,0,0.1,0,0.1,0c0.1,0,0.1,0,0.2,0c0.4,0,0.9,0.2,1.2,0.4
		c0.2,0.2,0.4,0.4,0.6,0.6c0.1,0.2,0.2,0.4,0.3,0.6c0.1,0.3,0.2,0.6,0.4,0.9c0.1,0.1,0.1,0.2,0.2,0.2c0,0,0.1,0.1,0.1,0.1
		c0.1,0.1,0.2,0.2,0.3,0.2C105.5,20,105.7,20.1,105.8,20.1L105.8,20.1z"/>
	<path class="st0" d="M102.5,19.4C102.5,19.4,102.5,19.4,102.5,19.4L102.5,19.4c-0.3,0.2-0.6,0.4-1,0.5c-0.3,0.1-0.6,0.1-1,0.1
		c-0.4-0.1-0.8-0.2-1.1-0.5c0,0-0.1-0.1-0.1-0.1c-0.1-0.1-0.3-0.3-0.4-0.5c-0.1-0.2-0.2-0.3-0.3-0.5c0-0.1-0.1-0.1-0.1-0.2
		c0,0,0,0,0,0c0-0.1-0.1-0.1-0.1-0.2c0,0,0,0,0-0.1c0,0,0,0,0,0c0,0,0,0,0-0.1c0,0,0,0,0,0c0,0,0,0,0,0c0,0,0,0,0,0
		c-0.1-0.1-0.1-0.2-0.2-0.2c0,0,0,0-0.1,0c0,0,0,0,0,0c-0.2-0.2-0.5-0.3-0.7-0.4c0.2-0.1,0.4-0.2,0.6-0.3c0,0,0,0,0,0
		c0.1-0.1,0.2-0.1,0.4-0.1c0,0,0.1,0,0.1,0c0,0,0,0,0,0c0,0,0.1,0,0.1,0c0.1,0,0.1,0,0.2,0c0.4,0,0.9,0,1.3,0.2
		c0.3,0.1,0.5,0.3,0.7,0.5c0.2,0.2,0.3,0.4,0.4,0.6c0.2,0.3,0.3,0.6,0.5,0.8c0.1,0.1,0.1,0.2,0.2,0.2c0,0,0.1,0.1,0.1,0.1
		c0.1,0.1,0.2,0.1,0.3,0.2C102.3,19.4,102.4,19.4,102.5,19.4L102.5,19.4z"/>
	<path class="st0" d="M99.2,19.1C99.2,19.1,99.2,19.1,99.2,19.1L99.2,19.1c-0.3,0.3-0.5,0.5-0.9,0.6c-0.3,0.1-0.6,0.2-0.9,0.2
		c-0.4,0-0.8-0.1-1.2-0.3c-0.1,0-0.1-0.1-0.2-0.1c-0.2-0.1-0.3-0.2-0.5-0.4c-0.1-0.1-0.2-0.3-0.4-0.4c0,0-0.1-0.1-0.1-0.1
		c0,0,0,0,0,0c-0.1-0.1-0.1-0.1-0.2-0.2c0,0,0,0,0,0c0,0,0,0,0,0c0,0,0,0-0.1-0.1c0,0,0,0,0,0c0,0,0,0,0,0c0,0,0,0-0.1,0
		c-0.1-0.1-0.2-0.1-0.3-0.2c0,0,0,0-0.1,0c0,0,0,0,0,0c-0.2-0.1-0.5-0.2-0.8-0.2c0.1-0.2,0.3-0.3,0.5-0.4c0,0,0,0,0,0
		c0.1-0.1,0.2-0.1,0.3-0.2c0,0,0.1,0,0.1,0c0,0,0,0,0,0c0,0,0.1,0,0.1,0c0.1,0,0.1,0,0.2,0c0.4-0.1,0.9-0.1,1.3,0
		c0.3,0.1,0.5,0.2,0.8,0.4c0.2,0.2,0.3,0.3,0.5,0.5c0.2,0.3,0.4,0.5,0.6,0.7c0.1,0.1,0.2,0.1,0.2,0.2c0.1,0,0.1,0,0.1,0.1
		c0.1,0.1,0.2,0.1,0.4,0.1C99,19.1,99.1,19.1,99.2,19.1L99.2,19.1z"/>
	<path class="st0" d="M95.9,19.2C95.9,19.2,95.9,19.2,95.9,19.2L95.9,19.2c-0.2,0.3-0.4,0.6-0.8,0.8c-0.3,0.2-0.6,0.3-0.9,0.4
		c-0.4,0.1-0.8,0.1-1.2-0.1c-0.1,0-0.1,0-0.2-0.1c-0.2-0.1-0.4-0.2-0.5-0.3c-0.1-0.1-0.3-0.3-0.4-0.4c0,0-0.1-0.1-0.1-0.1
		c0,0,0,0,0,0c-0.1-0.1-0.1-0.1-0.2-0.2c0,0,0,0,0,0c0,0,0,0,0,0c0,0,0,0-0.1,0c0,0,0,0,0,0c0,0,0,0,0,0c0,0,0,0-0.1,0
		c-0.1-0.1-0.2-0.1-0.3-0.2c0,0,0,0-0.1,0h0c-0.3-0.1-0.5-0.1-0.8-0.1c0.1-0.2,0.3-0.3,0.4-0.5c0,0,0,0,0,0c0.1-0.1,0.2-0.2,0.3-0.2
		c0,0,0.1,0,0.1-0.1c0,0,0,0,0,0c0,0,0.1,0,0.1-0.1c0,0,0.1-0.1,0.1-0.1c0.4-0.2,0.8-0.2,1.3-0.2c0.3,0,0.6,0.1,0.8,0.3
		c0.2,0.1,0.4,0.3,0.6,0.4c0.2,0.2,0.5,0.4,0.7,0.6C94.9,19,94.9,19,95,19c0,0,0.1,0,0.1,0.1c0.1,0,0.2,0.1,0.4,0.1
		C95.7,19.2,95.8,19.2,95.9,19.2L95.9,19.2z"/>
	<path class="st0" d="M92.6,19.8C92.6,19.8,92.6,19.8,92.6,19.8L92.6,19.8c-0.2,0.3-0.4,0.6-0.7,0.8c-0.3,0.2-0.5,0.4-0.9,0.4
		c-0.4,0.1-0.8,0.1-1.2,0c-0.1,0-0.1,0-0.2-0.1c-0.2-0.1-0.4-0.2-0.5-0.3c-0.2-0.1-0.3-0.2-0.5-0.4c0,0-0.1-0.1-0.1-0.1c0,0,0,0,0,0
		c-0.1-0.1-0.1-0.1-0.2-0.1c0,0,0,0-0.1,0c0,0,0,0,0,0c0,0,0,0-0.1,0c0,0,0,0,0,0c0,0,0,0,0,0c0,0,0,0-0.1,0
		c-0.1-0.1-0.2-0.1-0.3-0.1c0,0,0,0-0.1,0h0c-0.3-0.1-0.5-0.1-0.8,0c0.1-0.2,0.2-0.4,0.4-0.5c0,0,0,0,0,0c0.1-0.1,0.2-0.2,0.3-0.3
		c0,0,0.1,0,0.1-0.1c0,0,0,0,0,0c0,0,0.1,0,0.1-0.1c0,0,0.1-0.1,0.1-0.1c0.4-0.2,0.8-0.3,1.3-0.3c0.3,0,0.6,0.1,0.8,0.2
		c0.2,0.1,0.4,0.2,0.6,0.4c0.3,0.2,0.5,0.4,0.8,0.6c0.1,0,0.2,0.1,0.3,0.1c0.1,0,0.1,0,0.2,0c0.1,0,0.2,0,0.4,0.1
		C92.4,19.8,92.5,19.8,92.6,19.8L92.6,19.8z"/>
	<path class="st0" d="M89.4,20.9C89.4,20.9,89.4,20.9,89.4,20.9L89.4,20.9c-0.2,0.4-0.3,0.6-0.6,0.9c-0.3,0.2-0.5,0.4-0.8,0.5
		c-0.4,0.2-0.8,0.2-1.2,0.1c-0.1,0-0.1,0-0.2,0c-0.2-0.1-0.4-0.1-0.6-0.2c-0.2-0.1-0.3-0.2-0.5-0.3c-0.1,0-0.1-0.1-0.1-0.1
		c0,0,0,0,0,0c-0.1,0-0.1-0.1-0.2-0.1c0,0,0,0-0.1,0c0,0,0,0,0,0c0,0,0,0-0.1,0c0,0,0,0,0,0c0,0,0,0,0,0c0,0,0,0-0.1,0
		c-0.1-0.1-0.2-0.1-0.3-0.1c0,0,0,0-0.1,0h0c-0.3-0.1-0.6,0-0.8,0c0.1-0.2,0.2-0.4,0.3-0.6c0,0,0,0,0,0c0.1-0.1,0.2-0.2,0.3-0.3
		c0,0,0.1-0.1,0.1-0.1c0,0,0,0,0,0c0,0,0.1-0.1,0.1-0.1c0,0,0.1-0.1,0.1-0.1c0.4-0.2,0.8-0.4,1.2-0.4c0.3,0,0.6,0,0.9,0.2
		c0.2,0.1,0.4,0.2,0.6,0.3c0.3,0.2,0.5,0.4,0.8,0.5c0.1,0,0.2,0.1,0.3,0.1c0.1,0,0.1,0,0.1,0c0.1,0,0.3,0,0.4,0
		C89.2,21,89.3,20.9,89.4,20.9L89.4,20.9z"/>
	<path class="st0" d="M86.4,22.2C86.4,22.2,86.4,22.2,86.4,22.2C86.4,22.2,86.4,22.2,86.4,22.2c-0.1,0.4-0.3,0.7-0.5,1
		c-0.2,0.3-0.4,0.5-0.7,0.6c-0.4,0.2-0.8,0.3-1.2,0.3c-0.1,0-0.1,0-0.2,0c-0.2,0-0.4-0.1-0.6-0.1c-0.2-0.1-0.4-0.1-0.5-0.2
		c0,0-0.1,0-0.2-0.1c0,0,0,0,0,0c-0.1,0-0.1-0.1-0.2-0.1c0,0,0,0-0.1,0c0,0,0,0,0,0c0,0,0,0-0.1,0c0,0,0,0,0,0c0,0,0,0,0,0
		c0,0-0.1,0-0.1,0c-0.1,0-0.2-0.1-0.3-0.1c0,0,0,0-0.1,0c0,0,0,0,0,0c-0.3,0-0.5,0.1-0.8,0.2c0.1-0.2,0.1-0.4,0.2-0.6c0,0,0,0,0-0.1
		c0.1-0.1,0.1-0.2,0.2-0.3c0,0,0.1-0.1,0.1-0.1c0,0,0,0,0,0c0,0,0.1-0.1,0.1-0.1c0,0,0.1-0.1,0.1-0.1c0.3-0.3,0.7-0.5,1.2-0.6
		c0.3-0.1,0.6,0,0.9,0c0.2,0.1,0.4,0.1,0.7,0.2c0.3,0.1,0.6,0.3,0.9,0.4c0.1,0,0.2,0,0.3,0c0.1,0,0.1,0,0.2,0c0.1,0,0.3,0,0.4,0
		C86.2,22.3,86.3,22.3,86.4,22.2L86.4,22.2z"/>
	<path class="st0" d="M83.5,23.8C83.5,23.8,83.5,23.9,83.5,23.8C83.5,23.9,83.5,23.9,83.5,23.8c0,0.4-0.1,0.7-0.3,1
		c-0.2,0.3-0.3,0.5-0.6,0.7c-0.3,0.3-0.7,0.4-1.1,0.5c-0.1,0-0.1,0-0.2,0c-0.2,0-0.4,0-0.6,0c-0.2,0-0.4-0.1-0.6-0.1
		c-0.1,0-0.1,0-0.2,0c0,0,0,0,0,0c-0.1,0-0.2,0-0.2,0c0,0,0,0-0.1,0c0,0,0,0,0,0c0,0,0,0-0.1,0c0,0,0,0,0,0c0,0,0,0,0,0
		c0,0,0,0-0.1,0c-0.1,0-0.2,0-0.3,0H79c0,0,0,0,0,0c-0.3,0-0.5,0.1-0.8,0.3c0-0.2,0.1-0.4,0.1-0.6c0,0,0,0,0,0
		c0-0.1,0.1-0.2,0.2-0.3c0,0,0-0.1,0.1-0.1c0,0,0,0,0,0c0,0,0-0.1,0.1-0.1c0,0,0.1-0.1,0.1-0.1c0.3-0.4,0.6-0.6,1.1-0.8
		c0.3-0.1,0.6-0.1,0.9-0.1c0.2,0,0.5,0.1,0.7,0.1c0.3,0.1,0.6,0.2,0.9,0.2c0.1,0,0.2,0,0.3,0c0.1,0,0.1,0,0.2,0c0.1,0,0.2,0,0.4-0.1
		C83.3,24,83.4,23.9,83.5,23.8L83.5,23.8z"/>
	<path class="st0" d="M80.9,26C80.9,26,80.9,26,80.9,26L80.9,26c0,0.4-0.1,0.7-0.2,1c-0.1,0.3-0.3,0.6-0.6,0.8
		c-0.3,0.3-0.7,0.5-1.1,0.6c-0.1,0-0.1,0-0.2,0c-0.2,0-0.4,0-0.6,0c-0.2,0-0.4-0.1-0.6-0.1c-0.1,0-0.1,0-0.2,0c0,0,0,0,0,0
		c-0.1,0-0.2,0-0.3,0c0,0,0,0-0.1,0c0,0,0,0,0,0c0,0,0,0-0.1,0c0,0,0,0,0,0c0,0,0,0,0,0c0,0-0.1,0-0.1,0c-0.1,0-0.2,0-0.3,0
		c0,0-0.1,0-0.1,0c0,0,0,0,0,0c-0.3,0-0.5,0.2-0.7,0.3c0-0.2,0-0.4,0.1-0.7c0,0,0,0,0-0.1c0-0.1,0.1-0.2,0.1-0.4
		c0,0,0.1-0.1,0.1-0.1c0,0,0,0,0,0c0,0,0-0.1,0.1-0.1c0,0,0.1-0.1,0.1-0.1c0.2-0.4,0.6-0.7,1-0.8c0.3-0.1,0.6-0.2,0.9-0.2
		c0.2,0,0.5,0,0.7,0.1c0.3,0.1,0.6,0.1,1,0.1c0.1,0,0.2,0,0.3,0c0.1,0,0.1,0,0.2,0c0.1,0,0.2-0.1,0.4-0.1
		C80.7,26.1,80.8,26.1,80.9,26L80.9,26z"/>
	<path class="st0" d="M78.5,28.3C78.5,28.3,78.5,28.3,78.5,28.3C78.5,28.3,78.5,28.3,78.5,28.3c0,0.4,0,0.7-0.1,1.1
		c-0.1,0.3-0.2,0.6-0.4,0.9c-0.3,0.3-0.6,0.6-1,0.7c-0.1,0-0.1,0-0.2,0.1c-0.2,0.1-0.4,0.1-0.6,0.1c-0.2,0-0.4,0-0.6,0
		c-0.1,0-0.1,0-0.2,0c0,0,0,0,0,0c-0.1,0-0.2,0-0.3,0h-0.1c0,0,0,0,0,0c0,0-0.1,0-0.1,0c0,0,0,0,0,0c0,0,0,0,0,0c0,0,0,0-0.1,0
		c-0.1,0-0.2,0-0.3,0.1c0,0-0.1,0-0.1,0c0,0,0,0,0,0c-0.3,0.1-0.5,0.3-0.7,0.4c0-0.2,0-0.4,0-0.7c0,0,0,0,0,0c0-0.1,0-0.2,0.1-0.4
		c0-0.1,0-0.1,0-0.1c0,0,0,0,0,0c0,0,0-0.1,0-0.1c0-0.1,0-0.1,0.1-0.1c0.2-0.4,0.5-0.7,0.9-1c0.3-0.2,0.5-0.2,0.8-0.3
		c0.2,0,0.5,0,0.7,0c0.3,0,0.6,0,1,0c0.1,0,0.2,0,0.3-0.1c0,0,0.1,0,0.2-0.1c0.1-0.1,0.2-0.1,0.3-0.2C78.3,28.4,78.4,28.4,78.5,28.3
		L78.5,28.3z"/>
	<path class="st0" d="M76.6,31.1C76.6,31.1,76.6,31.1,76.6,31.1C76.6,31.1,76.6,31.1,76.6,31.1c0.1,0.4,0.1,0.7,0,1.1
		c-0.1,0.3-0.2,0.6-0.4,0.9c-0.2,0.4-0.5,0.6-0.9,0.8c-0.1,0-0.1,0.1-0.2,0.1C74.9,34,74.8,34,74.5,34c-0.2,0-0.4,0-0.6,0
		c-0.1,0-0.1,0-0.2,0c0,0,0,0,0,0c-0.1,0-0.2,0-0.3,0h-0.1c0,0,0,0,0,0c0,0,0,0-0.1,0c0,0,0,0,0,0c0,0,0,0,0,0c0,0,0,0-0.1,0
		c-0.1,0-0.2,0.1-0.3,0.1c0,0,0,0-0.1,0c0,0,0,0,0,0c-0.3,0.1-0.5,0.3-0.6,0.5c0-0.2-0.1-0.4-0.1-0.7c0,0,0,0,0-0.1
		c0-0.1,0-0.3,0-0.4c0-0.1,0-0.1,0-0.1v0c0,0,0-0.1,0-0.1c0-0.1,0-0.1,0-0.1c0.2-0.4,0.4-0.8,0.8-1c0.2-0.2,0.5-0.3,0.8-0.4
		c0.2-0.1,0.5-0.1,0.7-0.1c0.3,0,0.6,0,1-0.1c0.1,0,0.2-0.1,0.3-0.1c0.1,0,0.1,0,0.2-0.1c0.1-0.1,0.2-0.1,0.3-0.2
		C76.4,31.2,76.5,31.1,76.6,31.1L76.6,31.1z"/>
	<path class="st0" d="M74.8,33.9C74.8,33.9,74.8,33.9,74.8,33.9L74.8,33.9c0.1,0.4,0.2,0.7,0.2,1.1c0,0.3-0.1,0.6-0.2,0.9
		c-0.2,0.4-0.4,0.7-0.8,0.9c0,0-0.1,0.1-0.2,0.1c-0.2,0.1-0.4,0.2-0.6,0.2c-0.2,0.1-0.4,0.1-0.6,0.1c-0.1,0-0.1,0-0.2,0c0,0,0,0,0,0
		c-0.1,0-0.2,0-0.2,0.1c0,0-0.1,0-0.1,0c0,0,0,0,0,0c0,0,0,0-0.1,0c0,0,0,0,0,0c0,0,0,0,0,0c0,0,0,0-0.1,0c-0.1,0-0.2,0.1-0.3,0.1
		c0,0,0,0-0.1,0c0,0,0,0,0,0c-0.2,0.1-0.4,0.4-0.6,0.6C71,38,71,37.8,70.9,37.6v-0.1c0-0.1,0-0.3,0-0.4c0,0,0-0.1,0-0.1v0
		c0,0,0-0.1,0-0.1c0-0.1,0-0.1,0-0.2c0.1-0.4,0.3-0.8,0.6-1.2c0.2-0.2,0.4-0.4,0.7-0.5c0.2-0.1,0.4-0.2,0.7-0.2
		c0.3-0.1,0.6-0.1,0.9-0.2c0.1,0,0.2-0.1,0.3-0.1c0,0,0.1-0.1,0.1-0.1c0.1-0.1,0.2-0.2,0.3-0.3C74.7,34.1,74.8,34,74.8,33.9
		L74.8,33.9z"/>
	<path class="st0" d="M73.4,36.9C73.4,36.9,73.4,36.9,73.4,36.9C73.4,36.9,73.4,36.9,73.4,36.9c0.2,0.3,0.3,0.7,0.3,1
		c0,0.3,0,0.6-0.1,1c-0.1,0.4-0.3,0.8-0.6,1c0,0-0.1,0.1-0.1,0.1c-0.2,0.1-0.3,0.2-0.5,0.3c-0.2,0.1-0.4,0.1-0.5,0.2
		c0,0-0.1,0-0.2,0.1c0,0,0,0,0,0c-0.1,0-0.1,0.1-0.2,0.1c0,0,0,0-0.1,0c0,0,0,0,0,0c0,0,0,0-0.1,0c0,0,0,0,0,0c0,0,0,0,0,0
		c0,0,0,0-0.1,0C71.1,40.9,71,41,70.9,41c0,0,0,0-0.1,0c0,0,0,0,0,0c-0.2,0.2-0.4,0.4-0.5,0.7c-0.1-0.2-0.2-0.4-0.3-0.6
		c0,0,0,0,0-0.1c0-0.1,0-0.2-0.1-0.4v-0.1c0,0,0,0,0,0c0,0,0-0.1,0-0.1c0-0.1,0-0.1,0-0.2c0-0.4,0.2-0.9,0.4-1.2
		c0.2-0.2,0.4-0.4,0.6-0.6c0.2-0.1,0.4-0.2,0.6-0.3c0.3-0.1,0.6-0.2,0.9-0.4c0.1-0.1,0.2-0.1,0.2-0.2c0,0,0.1-0.1,0.1-0.1
		c0.1-0.1,0.2-0.2,0.2-0.3C73.3,37.1,73.4,37,73.4,36.9L73.4,36.9z"/>
	<path class="st0" d="M72.6,40.2C72.6,40.2,72.6,40.2,72.6,40.2L72.6,40.2c0.2,0.3,0.3,0.6,0.4,1c0.1,0.3,0.1,0.6,0,1
		c-0.1,0.4-0.3,0.8-0.5,1.1c0,0-0.1,0.1-0.1,0.1c-0.2,0.1-0.3,0.3-0.5,0.4c-0.2,0.1-0.3,0.2-0.5,0.2c-0.1,0-0.1,0-0.1,0.1
		c0,0,0,0,0,0c-0.1,0-0.1,0.1-0.2,0.1c0,0,0,0-0.1,0c0,0,0,0,0,0c0,0,0,0-0.1,0h0c0,0,0,0,0,0c0,0,0,0-0.1,0
		c-0.1,0.1-0.2,0.1-0.3,0.2c0,0,0,0-0.1,0c0,0,0,0,0,0C70.2,44.7,70,45,70,45.2c-0.1-0.2-0.2-0.4-0.3-0.6c0,0,0,0,0,0
		c0-0.1-0.1-0.2-0.1-0.4c0,0,0-0.1,0-0.1c0,0,0,0,0,0c0,0,0-0.1,0-0.1c0,0,0-0.1,0-0.2c0-0.4,0.1-0.9,0.3-1.3
		c0.1-0.3,0.3-0.5,0.6-0.6c0.2-0.1,0.4-0.2,0.6-0.3c0.3-0.1,0.6-0.2,0.9-0.4c0.1-0.1,0.2-0.1,0.2-0.2c0,0,0.1-0.1,0.1-0.1
		c0.1-0.1,0.1-0.2,0.2-0.3C72.5,40.4,72.5,40.3,72.6,40.2L72.6,40.2z"/>
	<path class="st0" d="M71.9,43.4C71.9,43.4,71.9,43.4,71.9,43.4L71.9,43.4c0.3,0.3,0.4,0.6,0.6,0.9c0.1,0.3,0.2,0.6,0.2,1
		c0,0.4-0.1,0.8-0.4,1.1c0,0.1-0.1,0.1-0.1,0.2c-0.1,0.2-0.3,0.3-0.4,0.4c-0.2,0.1-0.3,0.2-0.5,0.3c-0.1,0-0.1,0.1-0.1,0.1
		c0,0,0,0,0,0c-0.1,0.1-0.1,0.1-0.2,0.2c0,0,0,0-0.1,0c0,0,0,0,0,0c0,0,0,0-0.1,0c0,0,0,0,0,0c0,0,0,0,0,0c0,0,0,0-0.1,0
		c-0.1,0.1-0.2,0.2-0.2,0.2c0,0,0,0,0,0.1c0,0,0,0,0,0c-0.2,0.2-0.2,0.5-0.3,0.8c-0.2-0.2-0.3-0.3-0.4-0.5c0,0,0,0,0-0.1
		c-0.1-0.1-0.1-0.2-0.2-0.3c0,0,0-0.1,0-0.1c0,0,0,0,0,0c0,0,0-0.1,0-0.1c0,0,0-0.1,0-0.2c-0.1-0.4,0-0.9,0.1-1.3
		c0.1-0.3,0.3-0.5,0.5-0.7c0.2-0.2,0.4-0.3,0.5-0.4c0.3-0.2,0.5-0.3,0.8-0.6c0.1-0.1,0.1-0.1,0.2-0.2c0,0,0.1-0.1,0.1-0.1
		c0.1-0.1,0.1-0.2,0.2-0.3C71.8,43.7,71.9,43.5,71.9,43.4L71.9,43.4z"/>
	<path class="st0" d="M71.9,46.8C71.9,46.8,72,46.8,71.9,46.8L71.9,46.8c0.3,0.3,0.5,0.5,0.6,0.9c0.1,0.3,0.2,0.6,0.2,0.9
		c0,0.4-0.1,0.8-0.3,1.2c0,0.1-0.1,0.1-0.1,0.2c-0.1,0.2-0.3,0.3-0.4,0.5c-0.2,0.1-0.3,0.2-0.4,0.4c0,0-0.1,0.1-0.1,0.1c0,0,0,0,0,0
		c-0.1,0.1-0.1,0.1-0.2,0.2c0,0,0,0-0.1,0c0,0,0,0,0,0c0,0,0,0,0,0.1c0,0,0,0,0,0v0c0,0,0,0,0,0c-0.1,0.1-0.1,0.2-0.2,0.3
		c0,0,0,0,0,0.1c0,0,0,0,0,0c-0.1,0.2-0.2,0.5-0.2,0.8c-0.2-0.1-0.3-0.3-0.4-0.5c0,0,0,0,0-0.1c-0.1-0.1-0.1-0.2-0.2-0.3
		c0,0,0-0.1,0-0.1c0,0,0,0,0,0c0,0,0-0.1-0.1-0.1c0,0,0-0.1,0-0.1c-0.1-0.4-0.1-0.9,0-1.3c0.1-0.3,0.2-0.5,0.4-0.8
		c0.2-0.2,0.3-0.3,0.5-0.5c0.3-0.2,0.5-0.4,0.7-0.6c0.1-0.1,0.1-0.2,0.2-0.2c0,0,0.1-0.1,0.1-0.1c0.1-0.1,0.1-0.2,0.1-0.3
		C71.9,47,71.9,46.9,71.9,46.8L71.9,46.8z"/>
	<path class="st0" d="M72.2,50.1C72.2,50.1,72.2,50.1,72.2,50.1L72.2,50.1c0.3,0.2,0.5,0.4,0.8,0.8c0.2,0.3,0.3,0.6,0.4,0.9
		c0.1,0.4,0.1,0.8-0.1,1.2c0,0.1,0,0.1-0.1,0.2c-0.1,0.2-0.2,0.4-0.3,0.5c-0.1,0.2-0.2,0.3-0.4,0.4c0,0-0.1,0.1-0.1,0.1c0,0,0,0,0,0
		c-0.1,0.1-0.1,0.1-0.2,0.2c0,0,0,0,0,0c0,0,0,0,0,0c0,0,0,0,0,0.1c0,0,0,0,0,0c0,0,0,0,0,0c0,0,0,0,0,0.1c-0.1,0.1-0.1,0.2-0.2,0.3
		c0,0,0,0,0,0.1v0c-0.1,0.3-0.1,0.5-0.1,0.8c-0.2-0.1-0.4-0.3-0.5-0.4c0,0,0,0,0,0c-0.1-0.1-0.2-0.2-0.2-0.3c0,0,0-0.1-0.1-0.1
		c0,0,0,0,0,0c0,0,0-0.1-0.1-0.1c0,0,0-0.1-0.1-0.1c-0.2-0.4-0.3-0.9-0.2-1.3c0-0.3,0.1-0.6,0.3-0.8c0.1-0.2,0.3-0.4,0.4-0.6
		c0.2-0.2,0.4-0.5,0.6-0.7c0.1-0.1,0.1-0.2,0.1-0.3c0,0,0-0.1,0.1-0.2c0-0.1,0.1-0.2,0.1-0.4C72.2,50.3,72.2,50.2,72.2,50.1
		L72.2,50.1z"/>
	<path class="st0" d="M72.7,53.4C72.7,53.4,72.7,53.4,72.7,53.4C72.7,53.4,72.7,53.4,72.7,53.4c0.4,0.2,0.6,0.4,0.9,0.6
		c0.2,0.2,0.4,0.5,0.5,0.8c0.2,0.4,0.2,0.8,0.1,1.2c0,0.1,0,0.1,0,0.2c-0.1,0.2-0.1,0.4-0.2,0.6c-0.1,0.2-0.2,0.3-0.3,0.5
		c0,0-0.1,0.1-0.1,0.1c0,0,0,0,0,0c-0.1,0.1-0.1,0.1-0.1,0.2c0,0,0,0,0,0.1c0,0,0,0,0,0c0,0,0,0,0,0.1c0,0,0,0,0,0c0,0,0,0,0,0
		c0,0,0,0,0,0.1c0,0.1-0.1,0.2-0.1,0.3c0,0,0,0.1,0,0.1v0c-0.1,0.3,0,0.5,0,0.8c-0.2-0.1-0.4-0.2-0.6-0.3c0,0,0,0,0,0
		c-0.1-0.1-0.2-0.2-0.3-0.3c0,0-0.1-0.1-0.1-0.1c0,0,0,0,0,0c0,0,0-0.1-0.1-0.1c0,0-0.1-0.1-0.1-0.1c-0.2-0.4-0.4-0.8-0.4-1.3
		c0-0.3,0.1-0.6,0.2-0.9c0.1-0.2,0.2-0.4,0.3-0.6c0.2-0.3,0.4-0.5,0.5-0.8c0-0.1,0.1-0.2,0.1-0.3c0-0.1,0-0.1,0-0.2
		c0-0.1,0-0.2,0-0.4C72.8,53.6,72.7,53.5,72.7,53.4L72.7,53.4z"/>
	<path class="st0" d="M73.9,56.5C73.9,56.5,73.9,56.5,73.9,56.5C73.9,56.5,73.9,56.5,73.9,56.5c0.4,0.1,0.6,0.3,0.9,0.5
		c0.3,0.2,0.4,0.5,0.6,0.8c0.2,0.4,0.3,0.8,0.2,1.2c0,0.1,0,0.1,0,0.2c0,0.2-0.1,0.4-0.2,0.6c-0.1,0.2-0.2,0.3-0.3,0.5
		c0,0.1-0.1,0.1-0.1,0.1c0,0,0,0,0,0c0,0.1-0.1,0.1-0.1,0.2c0,0,0,0,0,0.1v0c0,0,0,0,0,0.1c0,0,0,0,0,0c0,0,0,0,0,0c0,0,0,0,0,0.1
		c0,0.1-0.1,0.2-0.1,0.3c0,0,0,0.1,0,0.1c0,0,0,0,0,0c0,0.3,0,0.5,0.1,0.8c-0.2-0.1-0.4-0.2-0.6-0.3c0,0,0,0,0,0
		c-0.1-0.1-0.2-0.1-0.3-0.2c0,0-0.1-0.1-0.1-0.1c0,0,0,0,0,0c0,0,0-0.1-0.1-0.1c0,0-0.1-0.1-0.1-0.1c-0.3-0.3-0.5-0.8-0.5-1.2
		c0-0.3,0-0.6,0.1-0.9c0.1-0.2,0.2-0.4,0.3-0.6c0.2-0.3,0.3-0.5,0.4-0.9c0-0.1,0.1-0.2,0.1-0.3c0-0.1,0-0.1,0-0.2c0-0.1,0-0.2,0-0.4
		C74,56.8,73.9,56.7,73.9,56.5L73.9,56.5z"/>
	<path class="st0" d="M75.5,59.5C75.5,59.5,75.5,59.5,75.5,59.5L75.5,59.5c0.4,0.1,0.7,0.2,1,0.5c0.3,0.2,0.5,0.4,0.6,0.7
		c0.2,0.4,0.3,0.8,0.3,1.2c0,0.1,0,0.1,0,0.2c0,0.2-0.1,0.4-0.1,0.6c-0.1,0.2-0.1,0.4-0.2,0.5c0,0.1,0,0.1-0.1,0.2c0,0,0,0,0,0
		c0,0.1-0.1,0.1-0.1,0.2c0,0,0,0,0,0.1c0,0,0,0,0,0c0,0,0,0,0,0.1c0,0,0,0,0,0c0,0,0,0,0,0c0,0,0,0,0,0.1c0,0.1-0.1,0.2-0.1,0.3
		c0,0,0,0.1,0,0.1v0c0,0.3,0.1,0.5,0.2,0.8c-0.2-0.1-0.4-0.1-0.6-0.2c0,0,0,0-0.1,0c-0.1-0.1-0.2-0.1-0.3-0.2c0,0-0.1-0.1-0.1-0.1
		c0,0,0,0,0,0c0,0-0.1-0.1-0.1-0.1c0,0-0.1-0.1-0.1-0.1c-0.3-0.3-0.5-0.7-0.6-1.2c-0.1-0.3,0-0.6,0-0.9c0.1-0.2,0.1-0.4,0.2-0.7
		c0.1-0.3,0.3-0.6,0.4-0.9c0-0.1,0-0.2,0-0.3c0-0.1,0-0.1,0-0.2c0-0.1,0-0.2,0-0.4C75.6,59.7,75.5,59.6,75.5,59.5L75.5,59.5z"/>
	<path class="st0" d="M77.2,62.3C77.2,62.3,77.3,62.3,77.2,62.3L77.2,62.3c0.4,0,0.7,0.1,1,0.3c0.3,0.2,0.5,0.4,0.7,0.6
		c0.3,0.3,0.4,0.7,0.5,1.1c0,0.1,0,0.1,0,0.2c0,0.2,0,0.4,0,0.6c0,0.2-0.1,0.4-0.1,0.6c0,0.1,0,0.1,0,0.2c0,0,0,0,0,0
		c0,0.1,0,0.2,0,0.2c0,0,0,0,0,0.1c0,0,0,0,0,0c0,0,0,0,0,0.1c0,0,0,0,0,0c0,0,0,0,0,0c0,0,0,0,0,0.1c0,0.1,0,0.2,0,0.3v0.1
		c0,0,0,0,0,0c0,0.3,0.1,0.5,0.3,0.8c-0.2,0-0.4-0.1-0.7-0.1c0,0,0,0,0,0c-0.1,0-0.2-0.1-0.3-0.1c0,0-0.1-0.1-0.1-0.1c0,0,0,0,0,0
		c0,0-0.1,0-0.1-0.1c-0.1,0-0.1-0.1-0.1-0.1c-0.4-0.3-0.6-0.6-0.8-1.1c-0.1-0.3-0.1-0.6-0.1-0.9c0-0.3,0.1-0.5,0.1-0.7
		c0.1-0.3,0.2-0.6,0.2-0.9c0-0.1,0-0.2,0-0.3c0-0.1,0-0.1,0-0.2c0-0.1-0.1-0.2-0.1-0.4C77.4,62.5,77.3,62.4,77.2,62.3L77.2,62.3z"/>
	<path class="st0" d="M79.3,64.9C79.3,64.9,79.3,64.9,79.3,64.9C79.3,64.9,79.3,64.9,79.3,64.9c0.4,0,0.7,0,1.1,0.2
		c0.3,0.1,0.6,0.3,0.8,0.5c0.3,0.3,0.5,0.6,0.7,1c0,0.1,0,0.1,0,0.2c0,0.2,0.1,0.4,0.1,0.6c0,0.2,0,0.4-0.1,0.6c0,0.1,0,0.1,0,0.2
		c0,0,0,0,0,0c0,0.1,0,0.2,0,0.2c0,0,0,0,0,0.1c0,0,0,0,0,0v0.1c0,0,0,0,0,0c0,0,0,0,0,0c0,0,0,0,0,0.1c0,0.1,0,0.2,0.1,0.3
		c0,0,0,0,0,0.1c0,0,0,0,0,0c0.1,0.3,0.2,0.5,0.4,0.7c-0.2,0-0.4,0-0.7,0c0,0,0,0,0,0c-0.1,0-0.2-0.1-0.4-0.1c0,0-0.1,0-0.1-0.1h0
		c0,0-0.1,0-0.1-0.1c0,0-0.1,0-0.1-0.1c-0.4-0.2-0.7-0.5-0.9-0.9c-0.1-0.3-0.2-0.5-0.2-0.8c0-0.2,0-0.5,0-0.7c0-0.3,0.1-0.6,0.1-1
		c0-0.1,0-0.2,0-0.3c0-0.1,0-0.1,0-0.2c0-0.1-0.1-0.2-0.2-0.3C79.5,65.1,79.4,65,79.3,64.9L79.3,64.9z"/>
	<path class="st0" d="M81.7,67.2C81.7,67.2,81.7,67.2,81.7,67.2C81.7,67.2,81.7,67.2,81.7,67.2c0.4-0.1,0.7-0.1,1.1,0
		c0.3,0.1,0.6,0.2,0.9,0.4c0.4,0.2,0.6,0.5,0.8,0.9c0,0.1,0.1,0.1,0.1,0.2c0.1,0.2,0.1,0.4,0.1,0.6c0,0.2,0,0.4,0,0.6
		c0,0.1,0,0.1,0,0.2c0,0,0,0,0,0c0,0.1,0,0.2,0,0.2v0.1c0,0,0,0,0,0c0,0,0,0,0,0.1v0v0c0,0,0,0,0,0.1c0,0.1,0,0.2,0.1,0.3
		c0,0,0,0.1,0,0.1c0,0,0,0,0,0c0.1,0.3,0.3,0.5,0.5,0.7c-0.2,0-0.4,0.1-0.7,0.1c0,0,0,0,0,0c-0.1,0-0.3,0-0.4,0c0,0-0.1,0-0.1,0h0
		c0,0-0.1,0-0.1,0c0,0-0.1,0-0.1,0c-0.4-0.2-0.8-0.4-1-0.8c-0.2-0.2-0.3-0.5-0.4-0.8c-0.1-0.2-0.1-0.5-0.1-0.7c0-0.3,0-0.6-0.1-1
		c0-0.1-0.1-0.2-0.1-0.3c0-0.1,0-0.1-0.1-0.1c-0.1-0.1-0.1-0.2-0.2-0.3C81.9,67.4,81.8,67.3,81.7,67.2L81.7,67.2z"/>
	<path class="st0" d="M84.5,69.1C84.5,69.1,84.5,69.1,84.5,69.1C84.5,69.1,84.5,69.1,84.5,69.1c0.4-0.1,0.7-0.1,1.1-0.1
		c0.3,0,0.6,0.1,0.9,0.3c0.4,0.2,0.7,0.5,0.9,0.9c0,0,0.1,0.1,0.1,0.2c0.1,0.2,0.1,0.4,0.2,0.6c0,0.2,0.1,0.4,0.1,0.6
		c0,0.1,0,0.1,0,0.2c0,0,0,0,0,0c0,0.1,0,0.2,0,0.2c0,0,0,0.1,0,0.1c0,0,0,0,0,0c0,0,0,0,0,0.1c0,0,0,0,0,0c0,0,0,0,0,0
		c0,0,0,0,0,0.1c0,0.1,0.1,0.2,0.1,0.3c0,0,0,0,0,0.1c0,0,0,0,0,0c0.1,0.2,0.3,0.4,0.5,0.6c-0.2,0.1-0.4,0.1-0.7,0.1c0,0,0,0,0,0
		c-0.1,0-0.3,0-0.4,0c0,0-0.1,0-0.1,0h0c0,0-0.1,0-0.1,0c-0.1,0-0.1,0-0.1,0c-0.4-0.1-0.8-0.4-1.1-0.7c-0.2-0.2-0.3-0.5-0.4-0.7
		c-0.1-0.2-0.1-0.4-0.2-0.7c0-0.3-0.1-0.6-0.1-1c0-0.1-0.1-0.2-0.1-0.3c0-0.1-0.1-0.1-0.1-0.1c-0.1-0.1-0.1-0.2-0.2-0.3
		C84.7,69.3,84.6,69.2,84.5,69.1L84.5,69.1z"/>
	<path class="st0" d="M87.6,70.6C87.6,70.6,87.6,70.6,87.6,70.6C87.6,70.6,87.6,70.6,87.6,70.6c0.4-0.1,0.7-0.2,1.1-0.2
		c0.3,0,0.6,0.1,0.9,0.2c0.4,0.2,0.7,0.4,0.9,0.8c0,0.1,0.1,0.1,0.1,0.2c0.1,0.2,0.2,0.4,0.2,0.6c0,0.2,0.1,0.4,0.1,0.6
		c0,0.1,0,0.1,0,0.2c0,0,0,0,0,0c0,0.1,0,0.2,0.1,0.2c0,0,0,0,0,0.1v0c0,0,0,0,0,0.1c0,0,0,0,0,0c0,0,0,0,0,0c0,0,0,0,0,0.1
		c0,0.1,0.1,0.2,0.2,0.3c0,0,0,0,0,0.1c0,0,0,0,0,0c0.1,0.2,0.4,0.4,0.6,0.6c-0.2,0.1-0.4,0.1-0.6,0.2h0c-0.1,0-0.3,0-0.4,0
		c0,0-0.1,0-0.1,0h0c0,0-0.1,0-0.1,0c-0.1,0-0.1,0-0.2,0c-0.4-0.1-0.8-0.3-1.2-0.6c-0.2-0.2-0.4-0.4-0.5-0.7
		c-0.1-0.2-0.2-0.4-0.2-0.7c-0.1-0.3-0.1-0.6-0.2-0.9c0-0.1-0.1-0.2-0.1-0.3c0,0-0.1-0.1-0.1-0.1c-0.1-0.1-0.2-0.2-0.3-0.3
		C87.8,70.7,87.7,70.7,87.6,70.6L87.6,70.6z"/>
	<path class="st0" d="M90.6,71.8C90.6,71.8,90.6,71.8,90.6,71.8C90.6,71.8,90.6,71.8,90.6,71.8c0.3-0.2,0.6-0.3,1-0.3
		c0.3,0,0.6,0,1,0.1c0.4,0.1,0.8,0.3,1,0.6c0,0,0.1,0.1,0.1,0.1c0.1,0.2,0.2,0.3,0.3,0.5c0.1,0.2,0.1,0.4,0.2,0.5
		c0,0.1,0,0.1,0.1,0.2v0c0,0.1,0.1,0.2,0.1,0.2c0,0,0,0,0,0.1c0,0,0,0,0,0c0,0,0,0,0,0.1c0,0,0,0,0,0c0,0,0,0,0,0c0,0,0,0,0,0.1
		c0.1,0.1,0.1,0.2,0.2,0.3c0,0,0,0,0,0.1h0c0.2,0.2,0.4,0.4,0.7,0.5c-0.2,0.1-0.4,0.2-0.6,0.3c0,0,0,0-0.1,0c-0.1,0-0.2,0.1-0.4,0.1
		c0,0-0.1,0-0.1,0c0,0,0,0,0,0c0,0-0.1,0-0.1,0c-0.1,0-0.1,0-0.2,0c-0.4,0-0.9-0.2-1.2-0.4c-0.2-0.2-0.4-0.4-0.6-0.6
		c-0.1-0.2-0.2-0.4-0.3-0.6c-0.1-0.3-0.2-0.6-0.4-0.9c-0.1-0.1-0.1-0.2-0.2-0.2c0,0-0.1-0.1-0.1-0.1c-0.1-0.1-0.2-0.2-0.3-0.2
		C90.8,71.9,90.7,71.9,90.6,71.8L90.6,71.8z"/>
	<path class="st0" d="M93.8,72.7C93.8,72.7,93.8,72.7,93.8,72.7c0.3-0.2,0.6-0.4,1-0.5c0.3-0.1,0.6-0.1,1-0.1
		c0.4,0.1,0.8,0.2,1.1,0.4c0.1,0,0.1,0.1,0.1,0.1c0.2,0.1,0.3,0.3,0.4,0.5c0.1,0.2,0.2,0.3,0.3,0.5c0,0,0.1,0.1,0.1,0.1c0,0,0,0,0,0
		c0.1,0.1,0.1,0.1,0.1,0.2c0,0,0,0,0,0c0,0,0,0,0,0c0,0,0,0,0,0.1c0,0,0,0,0,0c0,0,0,0,0,0c0,0,0,0,0,0.1c0.1,0.1,0.1,0.2,0.2,0.2
		c0,0,0,0,0.1,0.1c0,0,0,0,0,0c0.2,0.2,0.5,0.3,0.7,0.4c-0.2,0.1-0.4,0.2-0.6,0.3c0,0,0,0-0.1,0c-0.1,0.1-0.2,0.1-0.4,0.1
		c0,0-0.1,0-0.1,0c0,0,0,0,0,0c0,0-0.1,0-0.1,0c0,0-0.1,0-0.2,0c-0.4,0.1-0.9,0-1.3-0.2c-0.3-0.1-0.5-0.3-0.7-0.5
		c-0.2-0.2-0.3-0.4-0.4-0.6c-0.1-0.3-0.3-0.6-0.5-0.8c-0.1-0.1-0.1-0.2-0.2-0.2c0,0-0.1-0.1-0.1-0.1c-0.1-0.1-0.2-0.1-0.3-0.2
		C94,72.8,93.9,72.8,93.8,72.7L93.8,72.7z"/>
	<path class="st0" d="M97.1,73.3C97.1,73.3,97.1,73.3,97.1,73.3L97.1,73.3c0.3-0.3,0.5-0.5,0.9-0.6c0.3-0.1,0.6-0.2,0.9-0.2
		c0.4,0,0.8,0.1,1.2,0.3c0.1,0,0.1,0.1,0.2,0.1c0.2,0.1,0.3,0.2,0.5,0.4c0.1,0.2,0.2,0.3,0.4,0.4c0,0,0.1,0.1,0.1,0.1c0,0,0,0,0,0
		c0.1,0.1,0.1,0.1,0.2,0.2c0,0,0,0,0,0c0,0,0,0,0,0c0,0,0,0,0.1,0c0,0,0,0,0,0c0,0,0,0,0,0c0,0,0,0,0.1,0c0.1,0.1,0.2,0.2,0.3,0.2
		c0,0,0.1,0,0.1,0h0c0.2,0.1,0.5,0.2,0.8,0.2c-0.2,0.2-0.3,0.3-0.5,0.4c0,0,0,0,0,0c-0.1,0.1-0.2,0.1-0.3,0.2c0,0-0.1,0-0.1,0l0,0
		c0,0-0.1,0-0.1,0c0,0-0.1,0-0.1,0c-0.4,0.1-0.9,0.1-1.3,0c-0.3-0.1-0.5-0.2-0.8-0.4c-0.2-0.2-0.3-0.3-0.5-0.5
		c-0.2-0.3-0.4-0.5-0.6-0.7c-0.1-0.1-0.1-0.1-0.2-0.2c0,0-0.1,0-0.1-0.1c-0.1-0.1-0.2-0.1-0.3-0.1C97.3,73.3,97.2,73.3,97.1,73.3
		L97.1,73.3z"/>
	<path class="st0" d="M100.5,73.2C100.5,73.2,100.5,73.2,100.5,73.2L100.5,73.2c0.2-0.3,0.5-0.5,0.8-0.7c0.3-0.2,0.6-0.3,0.9-0.3
		c0.4-0.1,0.8,0,1.2,0.2c0.1,0,0.1,0,0.2,0.1c0.2,0.1,0.3,0.2,0.5,0.4c0.1,0.1,0.3,0.3,0.4,0.4c0,0,0.1,0.1,0.1,0.1c0,0,0,0,0,0
		c0.1,0.1,0.1,0.1,0.2,0.2c0,0,0,0,0,0.1c0,0,0,0,0,0c0,0,0,0,0.1,0c0,0,0,0,0,0c0,0,0,0,0,0c0,0,0,0,0.1,0c0.1,0.1,0.2,0.1,0.3,0.2
		c0,0,0,0,0.1,0c0,0,0,0,0,0c0.3,0.1,0.5,0.2,0.8,0.2c-0.1,0.2-0.3,0.3-0.5,0.5c0,0,0,0-0.1,0c-0.1,0.1-0.2,0.1-0.3,0.2
		c0,0-0.1,0-0.1,0c0,0,0,0,0,0c0,0-0.1,0-0.1,0c-0.1,0-0.1,0-0.2,0.1c-0.4,0.2-0.9,0.2-1.3,0.1c-0.3-0.1-0.5-0.2-0.8-0.4
		c-0.2-0.1-0.4-0.3-0.5-0.5c-0.2-0.2-0.4-0.5-0.7-0.7c-0.1-0.1-0.2-0.1-0.2-0.2c-0.1,0-0.1,0-0.2-0.1c-0.1,0-0.2-0.1-0.3-0.1
		C100.7,73.2,100.6,73.2,100.5,73.2L100.5,73.2z"/>
	<path class="st0" d="M103.8,72.6C103.8,72.6,103.8,72.6,103.8,72.6L103.8,72.6c0.2-0.3,0.5-0.5,0.8-0.8c0.3-0.2,0.6-0.3,0.9-0.4
		c0.4-0.1,0.8-0.1,1.2,0.1c0.1,0,0.1,0,0.2,0.1c0.2,0.1,0.4,0.2,0.5,0.3c0.2,0.1,0.3,0.2,0.4,0.4c0,0,0.1,0.1,0.1,0.1c0,0,0,0,0,0
		c0.1,0.1,0.1,0.1,0.2,0.2c0,0,0,0,0,0c0,0,0,0,0,0c0,0,0,0,0.1,0c0,0,0,0,0,0c0,0,0,0,0,0c0,0,0,0,0.1,0c0.1,0.1,0.2,0.1,0.3,0.2
		c0,0,0,0,0.1,0h0c0.3,0.1,0.5,0.1,0.8,0.1c-0.1,0.2-0.3,0.3-0.4,0.5c0,0,0,0,0,0c-0.1,0.1-0.2,0.2-0.3,0.2c0,0-0.1,0-0.1,0.1
		c0,0,0,0,0,0c0,0-0.1,0-0.1,0.1c0,0-0.1,0-0.1,0.1c-0.4,0.2-0.9,0.2-1.3,0.2c-0.3,0-0.5-0.1-0.8-0.3c-0.2-0.1-0.4-0.3-0.6-0.4
		c-0.2-0.2-0.5-0.4-0.7-0.6c-0.1-0.1-0.2-0.1-0.3-0.1c0,0-0.1,0-0.2-0.1c-0.1,0-0.2-0.1-0.4-0.1C104,72.6,103.9,72.6,103.8,72.6
		L103.8,72.6z"/>
	<path class="st0" d="M107,71.9C107,71.9,107,71.9,107,71.9L107,71.9c0.2-0.3,0.3-0.6,0.6-0.9c0.2-0.2,0.5-0.4,0.8-0.5
		c0.4-0.2,0.8-0.2,1.2-0.1c0.1,0,0.1,0,0.2,0c0.2,0.1,0.4,0.1,0.6,0.2c0.2,0.1,0.3,0.2,0.5,0.3c0,0,0.1,0.1,0.1,0.1c0,0,0,0,0,0
		c0.1,0,0.1,0.1,0.2,0.1c0,0,0,0,0,0c0,0,0,0,0,0c0,0,0,0,0.1,0c0,0,0,0,0,0c0,0,0,0,0,0c0,0,0,0,0.1,0c0.1,0,0.2,0.1,0.3,0.1
		c0,0,0.1,0,0.1,0h0c0.3,0.1,0.5,0,0.8,0c-0.1,0.2-0.2,0.4-0.3,0.6c0,0,0,0,0,0c-0.1,0.1-0.2,0.2-0.2,0.3c0,0-0.1,0.1-0.1,0.1
		c0,0,0,0,0,0c0,0-0.1,0-0.1,0.1c0,0-0.1,0.1-0.1,0.1c-0.4,0.3-0.8,0.4-1.3,0.4c-0.3,0-0.6-0.1-0.9-0.2c-0.2-0.1-0.4-0.2-0.6-0.3
		c-0.3-0.2-0.5-0.4-0.8-0.5c-0.1,0-0.2-0.1-0.3-0.1c-0.1,0-0.1,0-0.2,0c-0.1,0-0.2,0-0.4,0C107.3,71.9,107.2,71.9,107,71.9L107,71.9
		z"/>
	<path class="st0" d="M110.2,70.8C110.2,70.8,110.2,70.8,110.2,70.8C110.2,70.8,110.2,70.8,110.2,70.8c0.1-0.4,0.2-0.7,0.5-1
		c0.2-0.3,0.4-0.5,0.7-0.6c0.4-0.2,0.8-0.3,1.2-0.3c0.1,0,0.1,0,0.2,0c0.2,0,0.4,0.1,0.6,0.1c0.2,0.1,0.4,0.1,0.5,0.2
		c0.1,0,0.1,0,0.1,0.1c0,0,0,0,0,0c0.1,0,0.2,0.1,0.2,0.1c0,0,0,0,0.1,0h0c0,0,0,0,0.1,0c0,0,0,0,0,0h0c0,0,0,0,0.1,0
		c0.1,0,0.2,0.1,0.3,0.1c0,0,0.1,0,0.1,0c0,0,0,0,0,0c0.3,0,0.6,0,0.8-0.1c-0.1,0.2-0.1,0.4-0.2,0.6c0,0,0,0,0,0
		c-0.1,0.1-0.1,0.2-0.2,0.3c0,0-0.1,0.1-0.1,0.1c0,0,0,0,0,0c0,0-0.1,0.1-0.1,0.1c0,0-0.1,0.1-0.1,0.1c-0.3,0.3-0.7,0.5-1.2,0.6
		c-0.3,0-0.6,0-0.9,0c-0.2-0.1-0.4-0.1-0.7-0.2c-0.3-0.1-0.6-0.3-0.9-0.4c-0.1,0-0.2,0-0.3-0.1c-0.1,0-0.1,0-0.2,0
		c-0.1,0-0.2,0-0.4,0C110.4,70.8,110.3,70.8,110.2,70.8L110.2,70.8z"/>
	<path class="st0" d="M113.1,69.2C113.1,69.2,113.1,69.2,113.1,69.2L113.1,69.2c0.1-0.4,0.2-0.7,0.4-1c0.2-0.3,0.4-0.5,0.7-0.7
		c0.4-0.2,0.7-0.4,1.1-0.4c0.1,0,0.1,0,0.2,0c0.2,0,0.4,0,0.6,0.1c0.2,0.1,0.4,0.1,0.5,0.2c0.1,0,0.1,0,0.2,0.1c0,0,0,0,0,0
		c0.1,0,0.2,0.1,0.2,0.1c0,0,0,0,0.1,0c0,0,0,0,0,0c0,0,0,0,0.1,0c0,0,0,0,0,0c0,0,0,0,0,0c0,0,0,0,0.1,0c0.1,0,0.2,0,0.3,0h0.1
		c0,0,0,0,0,0c0.3,0,0.5-0.1,0.8-0.2c0,0.2-0.1,0.4-0.2,0.6c0,0,0,0,0,0c-0.1,0.1-0.1,0.2-0.2,0.3c0,0-0.1,0.1-0.1,0.1c0,0,0,0,0,0
		c0,0-0.1,0.1-0.1,0.1c0,0-0.1,0.1-0.1,0.1c-0.3,0.3-0.7,0.6-1.1,0.7c-0.3,0.1-0.6,0.1-0.9,0c-0.2,0-0.5-0.1-0.7-0.2
		c-0.3-0.1-0.6-0.2-0.9-0.3c-0.1,0-0.2,0-0.3,0c-0.1,0-0.1,0-0.2,0c-0.1,0-0.2,0-0.4,0.1C113.3,69.1,113.2,69.1,113.1,69.2
		L113.1,69.2z"/>
	<path class="st0" d="M115.8,67.1C115.8,67.1,115.8,67.1,115.8,67.1L115.8,67.1c0-0.4,0.1-0.7,0.3-1c0.2-0.3,0.3-0.5,0.6-0.7
		c0.3-0.3,0.7-0.4,1.1-0.5c0.1,0,0.1,0,0.2,0c0.2,0,0.4,0,0.6,0c0.2,0,0.4,0.1,0.6,0.1c0.1,0,0.1,0,0.2,0.1c0,0,0,0,0,0
		c0.1,0,0.2,0,0.2,0.1c0,0,0,0,0.1,0c0,0,0,0,0,0c0,0,0,0,0.1,0c0,0,0,0,0,0c0,0,0,0,0,0c0,0,0.1,0,0.1,0c0.1,0,0.2,0,0.3,0h0.1
		c0,0,0,0,0,0c0.3,0,0.5-0.1,0.8-0.3c0,0.2-0.1,0.4-0.1,0.6c0,0,0,0,0,0.1c0,0.1-0.1,0.2-0.1,0.3c0,0-0.1,0.1-0.1,0.1c0,0,0,0,0,0
		c0,0,0,0.1-0.1,0.1c0,0-0.1,0.1-0.1,0.1c-0.3,0.3-0.6,0.6-1.1,0.8c-0.3,0.1-0.6,0.1-0.9,0.1c-0.2,0-0.5-0.1-0.7-0.1
		c-0.3-0.1-0.6-0.2-0.9-0.2c-0.1,0-0.2,0-0.3,0c-0.1,0-0.1,0-0.2,0c-0.1,0-0.2,0.1-0.4,0.1C116,67,115.9,67.1,115.8,67.1L115.8,67.1
		z"/>
	<path class="st0" d="M118.3,64.9C118.3,64.9,118.3,64.9,118.3,64.9C118.3,64.9,118.3,64.9,118.3,64.9c0-0.4,0-0.7,0.2-1.1
		c0.1-0.3,0.3-0.6,0.5-0.8c0.3-0.3,0.6-0.5,1-0.7c0.1,0,0.1,0,0.2-0.1c0.2,0,0.4-0.1,0.6-0.1c0.2,0,0.4,0,0.6,0.1c0.1,0,0.1,0,0.2,0
		c0,0,0,0,0,0c0.1,0,0.2,0,0.3,0c0,0,0,0,0.1,0c0,0,0,0,0,0h0.1c0,0,0,0,0,0c0,0,0,0,0,0c0,0,0,0,0.1,0c0.1,0,0.2,0,0.3,0
		c0,0,0.1,0,0.1,0c0,0,0,0,0,0c0.3-0.1,0.5-0.2,0.7-0.4c0,0.2,0,0.4,0,0.7c0,0,0,0,0,0.1c0,0.1-0.1,0.2-0.1,0.4c0,0,0,0.1-0.1,0.1
		c0,0,0,0,0,0c0,0,0,0.1-0.1,0.1c0,0.1,0,0.1-0.1,0.1c-0.2,0.4-0.5,0.7-0.9,0.9c-0.3,0.1-0.5,0.2-0.8,0.2c-0.2,0-0.5,0-0.7,0
		c-0.3,0-0.6-0.1-1-0.1c-0.1,0-0.2,0-0.3,0c-0.1,0-0.1,0-0.2,0c-0.1,0-0.2,0.1-0.3,0.2C118.5,64.8,118.4,64.9,118.3,64.9L118.3,64.9
		z"/>
	<path class="st0" d="M120.5,62.5C120.5,62.5,120.5,62.5,120.5,62.5C120.5,62.5,120.5,62.5,120.5,62.5c-0.1-0.4-0.1-0.7,0-1.1
		c0.1-0.3,0.2-0.6,0.4-0.9c0.2-0.4,0.5-0.6,0.9-0.8c0.1,0,0.1-0.1,0.2-0.1c0.2-0.1,0.4-0.1,0.6-0.1c0.2,0,0.4,0,0.6,0
		c0.1,0,0.1,0,0.2,0c0,0,0,0,0,0c0.1,0,0.2,0,0.2,0c0,0,0,0,0.1,0c0,0,0,0,0,0c0,0,0,0,0.1,0h0c0,0,0,0,0,0c0,0,0,0,0.1,0
		c0.1,0,0.2-0.1,0.3-0.1c0,0,0.1,0,0.1,0c0,0,0,0,0,0c0.2-0.1,0.5-0.3,0.6-0.5c0.1,0.2,0.1,0.4,0.1,0.7c0,0,0,0,0,0
		c0,0.1,0,0.3,0,0.4c0,0,0,0.1,0,0.1v0c0,0,0,0.1,0,0.1c0,0,0,0.1,0,0.1c-0.2,0.4-0.4,0.8-0.8,1.1c-0.2,0.2-0.5,0.3-0.8,0.4
		c-0.2,0.1-0.5,0.1-0.7,0.1c-0.3,0-0.6,0-1,0.1c-0.1,0-0.2,0-0.3,0.1c-0.1,0-0.1,0.1-0.2,0.1c-0.1,0.1-0.2,0.1-0.3,0.2
		C120.6,62.3,120.6,62.4,120.5,62.5L120.5,62.5z"/>
	<path class="st0" d="M122.4,59.7C122.4,59.7,122.4,59.7,122.4,59.7L122.4,59.7c-0.1-0.4-0.2-0.7-0.2-1.1c0-0.3,0.1-0.6,0.2-0.9
		c0.2-0.4,0.4-0.7,0.8-0.9c0,0,0.1-0.1,0.2-0.1c0.2-0.1,0.4-0.2,0.6-0.2c0.2-0.1,0.4-0.1,0.6-0.1c0.1,0,0.1,0,0.2,0c0,0,0,0,0,0
		c0.1,0,0.2,0,0.2-0.1c0,0,0.1,0,0.1,0c0,0,0,0,0,0c0,0,0,0,0.1,0c0,0,0,0,0,0c0,0,0,0,0,0c0,0,0,0,0.1,0c0.1,0,0.2-0.1,0.3-0.1
		c0,0,0,0,0.1,0c0,0,0,0,0,0c0.2-0.1,0.4-0.4,0.6-0.6c0.1,0.2,0.1,0.4,0.2,0.7c0,0,0,0,0,0.1c0,0.1,0,0.2,0,0.4c0,0,0,0.1,0,0.1
		c0,0,0,0,0,0c0,0,0,0.1,0,0.1c0,0.1,0,0.1,0,0.2c-0.1,0.4-0.3,0.8-0.6,1.2c-0.2,0.2-0.4,0.4-0.7,0.5c-0.2,0.1-0.4,0.2-0.7,0.2
		c-0.3,0.1-0.6,0.1-0.9,0.2c-0.1,0-0.2,0.1-0.3,0.1c0,0-0.1,0.1-0.1,0.1c-0.1,0.1-0.2,0.2-0.3,0.2C122.5,59.5,122.5,59.6,122.4,59.7
		L122.4,59.7z"/>
	<path class="st0" d="M123.8,56.7C123.8,56.7,123.8,56.7,123.8,56.7C123.8,56.7,123.8,56.7,123.8,56.7c-0.2-0.4-0.2-0.7-0.3-1
		c0-0.3,0-0.6,0.2-1c0.1-0.4,0.4-0.7,0.7-1c0,0,0.1-0.1,0.1-0.1c0.2-0.1,0.3-0.2,0.5-0.3c0.2-0.1,0.4-0.1,0.6-0.2c0.1,0,0.1,0,0.2,0
		h0c0.1,0,0.2-0.1,0.2-0.1c0,0,0,0,0.1,0c0,0,0,0,0,0c0,0,0,0,0.1,0c0,0,0,0,0,0c0,0,0,0,0,0c0,0,0,0,0.1,0c0.1,0,0.2-0.1,0.3-0.2
		c0,0,0,0,0.1,0c0,0,0,0,0,0c0.2-0.2,0.4-0.4,0.5-0.6c0.1,0.2,0.2,0.4,0.2,0.6v0.1c0,0.1,0,0.3,0,0.4c0,0,0,0.1,0,0.1c0,0,0,0,0,0
		c0,0,0,0.1,0,0.1c0,0.1,0,0.1,0,0.2c-0.1,0.4-0.2,0.9-0.5,1.2c-0.2,0.2-0.4,0.4-0.7,0.5c-0.2,0.1-0.4,0.2-0.7,0.2
		c-0.3,0.1-0.6,0.2-0.9,0.3c-0.1,0-0.2,0.1-0.2,0.2c-0.1,0-0.1,0.1-0.1,0.1c-0.1,0.1-0.2,0.2-0.3,0.3
		C124,56.5,123.9,56.6,123.8,56.7L123.8,56.7z"/>
	<path class="st0" d="M124.8,53.5C124.8,53.5,124.8,53.4,124.8,53.5C124.8,53.4,124.8,53.4,124.8,53.5c-0.2-0.3-0.3-0.6-0.3-1
		c0-0.3,0-0.6,0.1-1c0.1-0.4,0.3-0.8,0.6-1c0,0,0.1-0.1,0.1-0.1c0.2-0.1,0.3-0.2,0.5-0.3c0.2-0.1,0.3-0.1,0.5-0.2
		c0.1,0,0.1,0,0.2-0.1h0c0.1,0,0.2-0.1,0.2-0.1c0,0,0,0,0.1,0c0,0,0,0,0,0c0,0,0,0,0.1,0h0c0,0,0,0,0,0c0,0,0,0,0.1,0
		c0.1-0.1,0.2-0.1,0.3-0.2c0,0,0,0,0.1,0v0c0.2-0.2,0.4-0.4,0.5-0.7c0.1,0.2,0.2,0.4,0.3,0.6c0,0,0,0,0,0.1c0,0.1,0.1,0.2,0.1,0.4
		c0,0,0,0.1,0,0.1c0,0,0,0,0,0v0.1v0.1c0,0.4-0.2,0.9-0.4,1.2c-0.2,0.2-0.4,0.4-0.6,0.6c-0.2,0.1-0.4,0.2-0.6,0.3
		c-0.3,0.1-0.6,0.2-0.9,0.4c-0.1,0.1-0.2,0.1-0.2,0.2c0,0-0.1,0.1-0.1,0.1c-0.1,0.1-0.2,0.2-0.2,0.3
		C124.9,53.2,124.9,53.3,124.8,53.5L124.8,53.5z"/>
	<path class="st0" d="M125.6,50.2C125.6,50.2,125.6,50.2,125.6,50.2c-0.2-0.3-0.4-0.6-0.5-1c-0.1-0.3-0.1-0.6-0.1-1
		c0-0.4,0.2-0.8,0.5-1.1c0,0,0.1-0.1,0.1-0.1c0.1-0.1,0.3-0.3,0.5-0.4c0.2-0.1,0.3-0.2,0.5-0.3c0,0,0.1-0.1,0.1-0.1c0,0,0,0,0,0
		c0.1-0.1,0.1-0.1,0.2-0.1c0,0,0,0,0.1,0c0,0,0,0,0,0c0,0,0,0,0.1,0c0,0,0,0,0,0c0,0,0,0,0,0c0,0,0,0,0.1,0c0.1-0.1,0.2-0.1,0.2-0.2
		c0,0,0,0,0.1-0.1c0,0,0,0,0,0c0.2-0.2,0.3-0.5,0.4-0.7c0.1,0.2,0.2,0.4,0.4,0.6c0,0,0,0,0,0c0.1,0.1,0.1,0.2,0.1,0.4
		c0,0,0,0.1,0,0.1c0,0,0,0,0,0c0,0,0,0.1,0,0.1c0,0.1,0,0.1,0,0.2c0,0.4,0,0.9-0.2,1.3c-0.1,0.3-0.3,0.5-0.5,0.7
		c-0.2,0.2-0.4,0.3-0.6,0.4c-0.3,0.2-0.5,0.3-0.8,0.5c-0.1,0.1-0.2,0.1-0.2,0.2c0,0-0.1,0.1-0.1,0.1c-0.1,0.1-0.1,0.2-0.2,0.3
		C125.6,50,125.6,50.1,125.6,50.2L125.6,50.2z"/>
	<path class="st0" d="M126,46.9C126,46.9,125.9,46.9,126,46.9C125.9,46.9,125.9,46.9,126,46.9c-0.3-0.3-0.5-0.5-0.6-0.9
		c-0.1-0.3-0.2-0.6-0.2-0.9c0-0.4,0.1-0.8,0.3-1.2c0-0.1,0.1-0.1,0.1-0.2c0.1-0.2,0.2-0.3,0.4-0.5c0.2-0.1,0.3-0.3,0.4-0.4
		c0.1,0,0.1-0.1,0.1-0.1c0,0,0,0,0,0c0.1-0.1,0.1-0.1,0.2-0.2c0,0,0,0,0.1,0v0c0,0,0,0,0.1-0.1c0,0,0,0,0,0c0,0,0,0,0,0
		c0,0,0,0,0-0.1c0.1-0.1,0.1-0.2,0.2-0.3c0,0,0,0,0-0.1c0,0,0,0,0,0c0.1-0.2,0.2-0.5,0.2-0.8c0.2,0.2,0.3,0.3,0.4,0.5c0,0,0,0,0,0.1
		c0.1,0.1,0.1,0.2,0.2,0.3c0,0,0,0.1,0,0.1c0,0,0,0,0,0c0,0,0,0.1,0,0.1c0,0.1,0,0.1,0,0.2c0.1,0.4,0.1,0.9,0,1.3
		c-0.1,0.3-0.2,0.5-0.4,0.8c-0.2,0.2-0.3,0.3-0.5,0.5c-0.3,0.2-0.5,0.4-0.7,0.6c-0.1,0.1-0.1,0.2-0.2,0.2c0,0-0.1,0.1-0.1,0.1
		c-0.1,0.1-0.1,0.2-0.1,0.4C126,46.7,126,46.8,126,46.9L126,46.9z"/>
	<path class="st0" d="M126,43.6C126,43.6,126,43.6,126,43.6L126,43.6c-0.3-0.2-0.6-0.4-0.8-0.8c-0.2-0.3-0.3-0.6-0.4-0.9
		c-0.1-0.4-0.1-0.8,0.1-1.2c0-0.1,0-0.1,0.1-0.2c0.1-0.2,0.2-0.4,0.3-0.5c0.1-0.2,0.2-0.3,0.4-0.4c0-0.1,0.1-0.1,0.1-0.1
		c0,0,0,0,0,0c0.1-0.1,0.1-0.1,0.2-0.2c0,0,0,0,0,0c0,0,0,0,0,0c0,0,0,0,0-0.1c0,0,0,0,0,0v0c0,0,0,0,0-0.1c0.1-0.1,0.1-0.2,0.2-0.3
		c0,0,0,0,0-0.1v0c0.1-0.3,0.1-0.5,0.1-0.8c0.2,0.1,0.4,0.3,0.5,0.4c0,0,0,0,0,0c0.1,0.1,0.2,0.2,0.2,0.3c0,0,0,0.1,0.1,0.1
		c0,0,0,0,0,0c0,0,0,0.1,0.1,0.1c0,0.1,0,0.1,0.1,0.2c0.2,0.4,0.2,0.8,0.2,1.3c0,0.3-0.1,0.6-0.3,0.8c-0.1,0.2-0.3,0.4-0.4,0.6
		c-0.2,0.2-0.4,0.5-0.6,0.7c-0.1,0.1-0.1,0.2-0.1,0.3c0,0.1,0,0.1-0.1,0.2c0,0.1-0.1,0.2-0.1,0.4C126,43.4,126,43.5,126,43.6
		L126,43.6z"/>
	<path class="st0" d="M125.2,40.3C125.2,40.3,125.1,40.3,125.2,40.3L125.2,40.3c-0.3-0.2-0.6-0.5-0.8-0.8c-0.2-0.3-0.3-0.6-0.4-0.9
		c-0.1-0.4-0.1-0.8,0.1-1.2c0-0.1,0-0.1,0.1-0.2c0.1-0.2,0.2-0.4,0.3-0.5c0.1-0.2,0.2-0.3,0.4-0.4c0,0,0.1-0.1,0.1-0.1c0,0,0,0,0,0
		c0.1-0.1,0.1-0.1,0.2-0.2c0,0,0,0,0,0c0,0,0,0,0,0c0,0,0,0,0-0.1c0,0,0,0,0,0c0,0,0,0,0,0c0,0,0,0,0-0.1c0.1-0.1,0.1-0.2,0.2-0.3
		c0,0,0-0.1,0-0.1v0c0.1-0.3,0.1-0.5,0.1-0.8c0.2,0.1,0.4,0.3,0.5,0.4c0,0,0,0,0,0c0.1,0.1,0.2,0.2,0.2,0.3c0,0,0,0.1,0.1,0.1
		c0,0,0,0,0,0c0,0,0,0.1,0.1,0.1c0,0,0,0.1,0.1,0.1c0.2,0.4,0.2,0.8,0.2,1.3c0,0.3-0.1,0.6-0.3,0.8c-0.1,0.2-0.3,0.4-0.4,0.6
		c-0.2,0.2-0.4,0.5-0.6,0.7c0,0.1-0.1,0.2-0.1,0.3c0,0.1,0,0.1-0.1,0.2c0,0.1,0,0.2-0.1,0.4C125.2,40,125.2,40.1,125.2,40.3
		L125.2,40.3z"/>
	<path class="st0" d="M84.9,32v-2.5h1.8c1.9,0,3.3,0.1,4.3,0.3c1,0.2,1.8,0.7,2.4,1.4c0.6-0.7,1.2-1.2,1.9-1.4
		c0.7-0.2,1.8-0.3,3.3-0.3h1.5c1,0,1.8,0,2.5,0.1c0.6,0,1.2,0.1,1.6,0.2c0.5,0.1,0.8,0.3,1.1,0.5c0.3,0.2,0.6,0.5,0.9,0.9
		c0.5-0.7,1.1-1.2,1.9-1.4c0.8-0.2,2.1-0.3,3.9-0.3h2.4V32h-0.8c-1.7,0-2.8,0.2-3.3,0.6c-0.5,0.4-0.8,1.1-0.8,2.3v20.7
		c0,1.2,0.3,2,0.8,2.3c0.5,0.4,1.6,0.6,3.3,0.6h0.8v2.5H112c-1.9,0-3.2-0.1-3.9-0.3c-0.8-0.2-1.4-0.7-1.9-1.4
		c-0.3,0.4-0.6,0.6-0.9,0.9c-0.3,0.2-0.7,0.4-1.1,0.5c-0.4,0.1-0.9,0.2-1.5,0.3c-0.6,0-1.4,0.1-2.3,0.1h-1.2v-2.5h0.9
		c0.9,0,1.6-0.2,2-0.7c0.4-0.5,0.7-1.2,0.7-2.2V34.8c0-0.9-0.2-1.7-0.5-2.1c-0.3-0.5-1.1-0.7-2.2-0.7h-1.5c-0.8,0-1.4,0.2-1.9,0.7
		c-0.5,0.5-0.7,1.2-0.7,2.1v18.4c0,2.6-0.5,4.6-1.6,6c-1.1,1.4-3,2.1-5.7,2.1c-1,0-1.7-0.2-2.3-0.5c-0.6-0.3-1.2-0.9-1.9-1.6
		c-0.8,0.7-1.7,1.4-2.9,2.1l-1.4-0.8c0.5-0.5,0.9-1,1.2-1.5c0.3-0.5,0.5-1,0.5-1.6c0-0.3-0.1-0.8-0.4-1.5c-0.2-0.7-0.4-1.4-0.4-2.1
		c0-1.3,0.4-2.2,1.3-2.8c0.8-0.6,1.8-1,2.8-1c1.1,0,2,0.4,2.4,1.3c0.5,0.9,0.7,1.8,0.7,2.7c0,0.9-0.5,1.9-1.6,3.2
		c0.3,0.6,0.6,1,1,1.2c0.3,0.2,0.7,0.3,1.2,0.3c0.8,0,1.4-0.4,1.7-1.1c0.3-0.7,0.4-1.9,0.4-3.6v-19c0-1.2-0.4-2-1.1-2.5
		c-0.7-0.4-2-0.6-3.8-0.6H84.9L84.9,32z"/>
</g>
</svg>
