<?xml version="1.0" encoding="utf-8"?>
<!-- Generator: Adobe Illustrator 22.0.0, SVG Export Plug-In . SVG Version: 6.00 Build 0)  -->
<svg version="1.1" id="Слой_1" xmlns="http://www.w3.org/2000/svg" xmlns:xlink="http://www.w3.org/1999/xlink" x="0px" y="0px"
	 viewBox="0 0 198.4 113.4" style="enable-background:new 0 0 198.4 113.4;" xml:space="preserve">
<style type="text/css">
	.st0{fill:#4F5260;}
</style>
<g>
	<g>
		<path class="st0" d="M5.9,76.5h1.9V81H13v-4.5h1.9v10.8H13v-4.6H7.8v4.6H5.9V76.5z"/>
		<path class="st0" d="M19.5,81.9L19.5,81.9c0-3.1,2.4-5.6,5.7-5.6s5.6,2.5,5.6,5.6v0c0,3-2.4,5.6-5.7,5.6
			C21.8,87.5,19.5,84.9,19.5,81.9z M28.8,81.9L28.8,81.9c0-2.1-1.5-3.9-3.7-3.9s-3.7,1.7-3.7,3.8v0c0,2.1,1.5,3.9,3.7,3.9
			C27.3,85.7,28.8,84,28.8,81.9z"/>
		<path class="st0" d="M37.3,78.2h-3.4v-1.8h8.8v1.8h-3.4v9.1h-1.9V78.2z"/>
		<path class="st0" d="M47.3,76.5h8v1.7h-6.1V81h5.4v1.7h-5.4v2.9h6.2v1.7h-8.1V76.5z"/>
		<path class="st0" d="M60.7,76.5h1.9v9.1h5.7v1.7h-7.6V76.5z"/>
		<path class="st0" d="M71.2,85.7l1.1-1.4c1,0.9,2.1,1.4,3.4,1.4c1.2,0,1.9-0.5,1.9-1.4v0c0-0.8-0.4-1.2-2.4-1.7
			c-2.3-0.6-3.6-1.2-3.6-3.2v0c0-1.9,1.5-3.1,3.7-3.1c1.6,0,2.8,0.5,3.9,1.4l-1,1.4c-1-0.7-1.9-1.1-2.9-1.1c-1.1,0-1.8,0.6-1.8,1.3
			v0c0,0.8,0.5,1.2,2.6,1.7c2.3,0.6,3.5,1.4,3.5,3.2v0c0,2-1.6,3.2-3.9,3.2C74.1,87.4,72.5,86.9,71.2,85.7z"/>
		<path class="st0" d="M94.5,86c-0.9,0.9-2,1.4-3.3,1.4c-2,0-3.5-1.2-3.5-3.1v0c0-1.4,0.8-2.4,2.3-3C89.3,80.5,89,79.8,89,79v0
			c0-1.5,1.2-2.7,3.1-2.7c1.7,0,2.9,1.2,2.9,2.6v0c0,1.4-0.9,2.3-2.4,2.8l1.9,1.9c0.4-0.6,0.8-1.3,1.2-2.1l1.4,0.8
			c-0.4,0.9-0.9,1.7-1.5,2.5l1.7,1.7l-1.4,1L94.5,86z M93.4,84.9L91,82.5c-1,0.4-1.4,1.1-1.4,1.8v0c0,0.9,0.8,1.6,1.8,1.6
			C92.1,85.9,92.8,85.5,93.4,84.9z M93.3,79L93.3,79c0-0.8-0.5-1.3-1.2-1.3c-0.8,0-1.3,0.5-1.3,1.3v0c0,0.5,0.2,0.9,0.8,1.6
			C92.7,80.3,93.3,79.8,93.3,79z"/>
		<path class="st0" d="M104.8,76.5h4.8c1.4,0,2.4,0.4,3.1,1.1c0.6,0.6,0.9,1.4,0.9,2.3v0c0,1.8-1.1,2.8-2.6,3.3l2.9,4.1h-2.2
			l-2.7-3.8h0h-2.4v3.8h-1.9V76.5z M109.5,81.8c1.4,0,2.2-0.7,2.2-1.8v0c0-1.2-0.8-1.8-2.2-1.8h-2.8v3.6H109.5z"/>
		<path class="st0" d="M118.8,76.5h8v1.7h-6.1V81h5.4v1.7h-5.4v2.9h6.2v1.7h-8.1V76.5z"/>
		<path class="st0" d="M130.9,85.7l1.1-1.4c1,0.9,2.1,1.4,3.4,1.4c1.2,0,1.9-0.5,1.9-1.4v0c0-0.8-0.4-1.2-2.4-1.7
			c-2.3-0.6-3.6-1.2-3.6-3.2v0c0-1.9,1.5-3.1,3.7-3.1c1.6,0,2.8,0.5,3.9,1.4l-1,1.4c-1-0.7-2-1.1-2.9-1.1c-1.1,0-1.8,0.6-1.8,1.3v0
			c0,0.8,0.5,1.2,2.6,1.7c2.3,0.6,3.5,1.4,3.5,3.2v0c0,2-1.6,3.2-3.9,3.2C133.8,87.4,132.2,86.9,130.9,85.7z"/>
		<path class="st0" d="M143.1,81.9L143.1,81.9c0-3.1,2.4-5.6,5.7-5.6c3.3,0,5.6,2.5,5.6,5.6v0c0,3-2.3,5.6-5.7,5.6
			C145.4,87.5,143.1,84.9,143.1,81.9z M152.4,81.9L152.4,81.9c0-2.1-1.5-3.9-3.7-3.9c-2.2,0-3.7,1.7-3.7,3.8v0
			c0,2.1,1.5,3.9,3.7,3.9S152.4,84,152.4,81.9z"/>
		<path class="st0" d="M158.5,76.5h4.8c1.4,0,2.4,0.4,3.1,1.1c0.6,0.6,0.9,1.4,0.9,2.3v0c0,1.8-1.1,2.8-2.6,3.3l2.9,4.1h-2.2
			l-2.7-3.8h0h-2.4v3.8h-1.9V76.5z M163.2,81.8c1.4,0,2.2-0.7,2.2-1.8v0c0-1.2-0.8-1.8-2.2-1.8h-2.8v3.6H163.2z"/>
		<path class="st0" d="M174.5,78.2H171v-1.8h8.8v1.8h-3.4v9.1h-1.9V78.2z"/>
		<path class="st0" d="M182.8,85.7l1.1-1.4c1,0.9,2.1,1.4,3.4,1.4c1.2,0,1.9-0.5,1.9-1.4v0c0-0.8-0.4-1.2-2.4-1.7
			c-2.3-0.6-3.6-1.2-3.6-3.2v0c0-1.9,1.5-3.1,3.7-3.1c1.6,0,2.8,0.5,3.9,1.4l-1,1.4c-1-0.7-2-1.1-2.9-1.1c-1.1,0-1.8,0.6-1.8,1.3v0
			c0,0.8,0.5,1.2,2.6,1.7c2.3,0.6,3.5,1.4,3.5,3.2v0c0,2-1.6,3.2-3.9,3.2C185.7,87.4,184.1,86.9,182.8,85.7z"/>
	</g>
	<g>
		<rect x="36.3" y="65.3" class="st0" width="124.1" height="0.8"/>
	</g>
	<g>
		<rect x="36.3" y="97.6" class="st0" width="124.1" height="0.8"/>
	</g>
	<g>
		<path class="st0" d="M57.1,14.9c-13,0-20.8,8.1-20.8,18c0,9.9,7.8,18,20.8,18c13,0,20.9-8,20.9-18C78,22.9,70.2,14.9,57.1,14.9
			 M57.1,47c-6.2,0-11-6.3-11-14.1c0-7.8,4.7-14.1,11-14.1c6.3,0,11,6.3,11,14.1C68.1,40.7,63.4,47,57.1,47"/>
		<polygon class="st0" points="79.7,20.2 93.5,20.2 93.5,49.4 103.8,49.4 103.8,20.2 115.4,20.2 115.4,16.2 79.7,16.2 		"/>
		<polygon class="st0" points="119.2,20.2 130.7,20.2 130.7,49.4 141.1,49.4 141.1,20.2 154.8,20.2 154.8,16.2 119.2,16.2 		"/>
		<path class="st0" d="M15.7,43.4V16.2H5.8v29.2c0,2.2,1.8,3.9,3.9,3.9h25.4v-4H17.7C16.6,45.4,15.7,44.5,15.7,43.4"/>
		<path class="st0" d="M160.4,20.1v25.3c0,2.2,1.8,3.9,4,3.9h27v-3.9h-19.1c-1.1,0-2-0.9-2-2v-9.8h20.8v-3.9h-20.8v-7.7
			c0-1.1,0.9-2,2-2h19.1v-3.9h-27C162.2,16.2,160.4,18,160.4,20.1"/>
	</g>
</g>
</svg>
