<?xml version="1.0" encoding="utf-8"?>
<!-- Generator: Adobe Illustrator 22.0.0, SVG Export Plug-In . SVG Version: 6.00 Build 0)  -->
<svg version="1.1" id="Слой_1" xmlns="http://www.w3.org/2000/svg" xmlns:xlink="http://www.w3.org/1999/xlink" x="0px" y="0px"
	 viewBox="0 0 198.4 113.4" style="enable-background:new 0 0 198.4 113.4;" xml:space="preserve">
<style type="text/css">
	.st0{fill-rule:evenodd;clip-rule:evenodd;fill:#4F5260;}
</style>
<g>
	<polygon class="st0" points="68.6,110.8 68,110.8 67.3,110.8 61.1,88.9 61.1,110.8 59.9,110.8 60,86.6 61.9,86.6 68,108.3 
		73.8,86.6 76,86.6 76,110.8 74.8,110.8 74.8,88.9 	"/>
	<polygon class="st0" points="83.8,110.8 83.8,86.7 90.8,86.7 90.7,87.8 85.1,87.8 85.1,97.8 90.3,97.8 90.3,99 85.1,99 85.1,109.6 
		90.9,109.6 91,110.8 	"/>
	<polygon class="st0" points="98.6,99 98.6,86.7 99.8,86.7 99.8,97.7 104.6,97.7 104.6,86.7 105.6,86.7 105.6,110.8 104.4,110.8 
		104.4,100.5 104.4,99 103,99 	"/>
	<polygon class="st0" points="113.2,86.7 120.3,86.7 120.3,87.8 117.2,87.8 117.2,110.8 116.1,110.8 116.1,87.8 113.2,87.8 	"/>
	<path class="st0" d="M125.5,110.8l3.7-24.2h1.4l4,24.2H133l-1.5-8.2h-3.2l-1.5,8.2H125.5z M128.2,101.3h3.2L129.8,89L128.2,101.3z"
		/>
	<polygon class="st0" points="59.9,84.8 59.9,74.6 60.4,74.6 60.4,79.9 62.3,74.6 62.9,74.6 61.4,78.7 63,84.8 62.4,84.8 61,79.5 
		60.4,81.1 60.4,84.8 	"/>
	<path class="st0" d="M66.2,84.8l1.5-10.2h0.6L70,84.8h-0.6l-0.6-3.5h-1.4l-0.6,3.5H66.2z M67.4,80.8h1.3L68,75.6L67.4,80.8z"/>
	<path class="st0" d="M78.3,75.8c-0.1-0.5-0.2-0.8-0.4-1c-0.2-0.2-0.4-0.3-0.8-0.3h-2.8c-0.3,0-0.6,0.1-0.8,0.3
		c-0.2,0.2-0.3,0.5-0.4,1c-0.1,0.5-0.2,1-0.2,1.5c0,0.7,0.1,1.3,0.3,1.8c0.2,0.4,0.3,0.7,0.5,0.8c0.2,0.1,0.4,0.2,0.7,0.3l0.4,0h0.6
		v4.5h0.5v-4.5h0.6l0.4,0c0.3-0.1,0.6-0.2,0.7-0.3c0.2-0.1,0.3-0.4,0.5-0.8c0.2-0.4,0.3-1,0.3-1.8C78.4,76.8,78.4,76.3,78.3,75.8z
		 M74.5,79.9c-0.3-0.2-0.5-0.3-0.7-0.5c-0.1-0.2-0.2-0.4-0.3-0.8c-0.1-0.4-0.1-0.8-0.2-1.2c0-0.7,0.1-1.3,0.2-1.7
		c0.1-0.4,0.4-0.7,1-0.8l0.8,0v5H74.5z M77.8,78.6c-0.1,0.4-0.2,0.6-0.3,0.8c-0.1,0.2-0.3,0.3-0.7,0.5h-0.9v-5l0.8,0
		c0.5,0.1,0.9,0.3,1,0.8c0.1,0.4,0.2,1,0.2,1.7C78,77.8,77.9,78.2,77.8,78.6z"/>
	<polygon class="st0" points="81.7,84.8 81.7,74.6 84.6,74.6 84.6,75.1 82.2,75.1 82.2,79.3 84.5,79.3 84.5,79.8 82.2,79.8 
		82.2,84.3 84.7,84.3 84.7,84.8 	"/>
	<path class="st0" d="M123.3,14.3c-0.4-1.3-3.5-7.7-11.3-3.4c-1.6-1.4-4.1-1.9-7-1.9c-4.5-9.5-11.7-9.2-17.5-7
		c-4.2,1.4-6.4,4.9-8.1,8.7C67,10.2,68.3,31.5,81.1,28.8c1.2,6.8,11.6,8.4,16.5,4.3l4.1,21.7l-0.3,0.3c-0.3,0.1-0.6,0-0.8,0.4l0,0.1
		c0.4,0.2,0,0.5,0.1,0.7l0.1,0.4c0,0.1-0.1,0.4,0.2,0.4l0.7,0.6c0.2,0.1,0.3,0.1,0.5,0l0.1,0.1c0.1,0.4,0.4,0.5,0.6,0.9l0.3,0.1
		l3.4,4.2l0.2,0.3c-1.7,0.7-3.2,1.7-4.6,2.8l0,0.1c-1.7,1.5-3.9,2.1-5.8,3.2c0,0.2,0.1,0.3,0.1,0.3c-0.3,0.1-0.4,0.2-0.5,0.3
		c-0.3-0.8-0.7,0.1-1.1,0c-1.6,0.7-3.5-0.1-3.5,0.5l0,0c0.3,1,1.3,0.9,1.9,1.2c0.8-0.2,1.5,0.7,2.2,1c0.3,0.1,0.7-0.3,0.8-0.6
		c0.1-0.1,0.1-0.4,0.2-0.5c0.2,0,0.3-0.1,0.3-0.1c0.4,0.5,0.6,1.2,1.2,1.5c1.5-1,2.9-2.4,4.5-3.3l1.5-1l0.2-0.2
		c0.2,0,0.3-0.2,0.5-0.4l-0.1-0.1l1.6-0.3l0.1,0.1c-1.1,1.3-1,3-1.8,4.5l-2,3.4c0.2,0.1,0.2,0.2,0.4,0.3c0,0-0.3,0.4-0.4,0.6
		c-0.8-0.5-0.7,0.7-1.1,1c-0.6,0.6-1.2,1.4-1.9,1.9c-0.1,0.4,0.4,0.6,0.6,0.6c0.7,0,1.6-0.8,2.4-1c0.5,0,1.2-0.3,1.4-0.8
		c0-0.4,0-0.7-0.2-1l0.5-0.9c0.5,0.1,1.3,0.3,1.9,0.1c0.8-1.6,0.9-4.1,2-5.8l0.2-0.4l0.7-0.9c-0.1-0.4,0.7-0.6,0.8-1.1l0.1-0.2
		c0.9-0.2,1.7-0.9,2.7-1.3l1.3,0.4c0.6-0.2,1.2-0.7,1.9-0.4c0.1-0.1,0.5-0.2,0.3-0.5l1.2-0.4l0.2-0.1v-0.4l-2.4-1.2h0l-1-5.2
		l1.2-0.1l0.4-0.3l0.2-0.2c0.3-0.8-0.4-1.7-0.7-2.5l-0.9-2l-0.5,0c0-0.7-0.6-1-0.9-1v0c-1.5-4.1-5.7-14.8-8.1-20.8
		c7.8,1.1,10.7-5.1,12-7.7c1.8-0.1,3.2-0.8,4.3-1.7C124.3,20.2,123.7,15.3,123.3,14.3z M113.4,58.6l0.6,0.3c0.2,0.7,0.3,1.2,0.5,2.1
		l-0.2-0.5l-0.7-0.9C113.5,59.3,113.2,59,113.4,58.6z M107.3,63l-0.2-0.1l-2.4-3.1L105,60l1.3,0.4l0.4-0.2l0.3,0.1
		c-0.1,0.4,0.5,0.8,0.8,1.2c0.1,0.4,0.3,0.8,0.6,1L107.3,63z M112.7,52.5l0,0.1c-0.3-0.1-0.8-0.2-0.8,0.3c-0.5,0-0.1,0.7-0.3,1
		l0.4,0.7l-0.1,0.1c-1-0.2-1.4-0.5-2.4-0.5l0.1-0.5l0.1-0.1c0-1.1,0.2-2.8-0.6-4c-0.5-0.7-1.3-1.1-2-1.3c-1.1-0.1-1.9,0.8-2.8,1.5
		l-0.1,0.1c-0.2,0.2-0.3,0.4-0.2,0.6c-0.5,0.3,0,0.9-0.5,1.3l0.1,0c-0.1,0,0.4-0.4,0.5-0.1l-0.2,0.7l0.2,0c0.2,0.1,0.5,0.1,0.5,0
		l0,0.5c0.2,0,0.2-0.1,0.3-0.1c0.5,1.1,0.7,2,0.4,2.7l0.5-0.5c0.2,0.1,0.2,0.4,0.2,0.4l0.2,0l0.4-0.2l0.4,0l0.5-0.2l0.1,0l0,0.3
		c-1.2,0.3-1.6,1.5-2.1,2.4l-2-1.3c-0.5,0.1-0.4-1.1-0.9-1.1l-0.2-0.8L98,32.8c0.7-0.7,1.3-1.5,1.7-2.5c1.9,0.9,3.5,1.4,5,1.6
		C107,37.8,111.1,48.2,112.7,52.5z"/>
</g>
</svg>
