<?xml version="1.0" encoding="utf-8"?>
<!-- Generator: Adobe Illustrator 22.0.0, SVG Export Plug-In . SVG Version: 6.00 Build 0)  -->
<svg version="1.1" id="Слой_1" xmlns="http://www.w3.org/2000/svg" xmlns:xlink="http://www.w3.org/1999/xlink" x="0px" y="0px"
	 viewBox="0 0 198.4 113.4" style="enable-background:new 0 0 198.4 113.4;" xml:space="preserve">
<style type="text/css">
	.st0{fill:#4F5260;}
</style>
<path class="st0" d="M49.7,39.6c-4.6-4.6-10.8-7.2-17.3-7.2s-12.7,2.5-17.3,7.2S8,50.3,8,56.8c0,6.5,2.5,12.7,7.2,17.3
	c4.6,4.6,10.8,7.2,17.3,7.2c6.5,0,12.7-2.5,17.3-7.2c4.6-4.6,7.2-10.8,7.2-17.3C56.9,50.3,54.4,44.2,49.7,39.6z M18.1,38.4l1.4,2.2
	l-3.7-0.1C16.5,39.8,17.3,39.1,18.1,38.4z M20.8,36.6c0.7-0.4,1.4-0.8,2.2-1.1l0.7,1.6L20.8,36.6z M41.3,36.9l0.6-1.4
	c0.6,0.2,1.1,0.5,1.6,0.8L41.3,36.9z M36,77.5l-2.3-3.7l0.6,0l3.2,2.4l1.7,3.1c-0.1,0-0.2,0.1-0.3,0.1l0,0L36,77.5z M33.7,75.6
	l1.6,2.5l2.4,1.5c-1,0.2-2,0.4-3,0.5l-1.4-3L33.7,75.6z M21,75.3l4.1-1.3l-2,2l-3.3,0.5c-0.9-0.6-1.7-1.2-2.5-1.8L21,75.3z
	 M23.6,76.9l3.1-3.2l2.5-0.3l-3.6,2.4l-2.3,2.6c-0.8-0.3-1.5-0.7-2.2-1.1L23.6,76.9z M26.1,34.4c1.1-0.3,2.2-0.5,3.3-0.7l-0.9,2.9
	L26.1,34.4z M44.4,40l0.6-2.3l-0.9-0.2l-0.7,2.6l-0.7,0.1l-3.3,1.2l1-2.3l-0.8-0.3l-1.3,3.1l-3.5,1.3l0.9-1.5l1.8-2.7l7.2-2
	c1.3,0.8,2.5,1.7,3.5,2.7L44.4,40z M31.6,65.8l-1.2,0l0-7.1c0-0.8,0.5-1.5,1.2-1.5L31.6,65.8z M30.4,42.1l-4.3-1.6L26,40.3l1.5-2.3
	l-0.7-0.5l-1.2,1.8l-1.8-4.2c0.4-0.2,0.9-0.3,1.3-0.5l3.2,2.9l1.5,3.1L30.4,42.1z M30.8,43.2l1.2,3.1l0,1.8l-0.3,0l-1.3-0.7
	l-1.1-4.2l-0.9,0.2l0.3,1l-2.5-1.2l-0.4,0.8l3.2,1.5l0.3,1.3L25,44.7l-2.9-6.1l-0.8,0.4l1.4,3l-2.1-1.2l-1.8-2.8
	c0.3-0.2,0.6-0.4,0.9-0.6l4.4,0.7l1.3,3.2L30.8,43.2z M30.1,73.8L30.1,73.8l0.7,0L30,75.7l-1.6,2.2l0.9,2.1
	c-0.6-0.1-1.3-0.2-1.9-0.3l-0.2-3.9L30.1,73.8z M31.8,73.8h0.8l0.6,0.9l-0.8,2.4l1.1,2.3l-2-1.2l-0.6-2.3L31.8,73.8z M35.6,73.3
	l2.6,0.3l1.7,3.3l3,0.8c-1,0.5-2,0.9-3,1.2l-1.9-3.4l-2.7-2C35.5,73.5,35.6,73.4,35.6,73.3z M47.3,74.9c-1,0.8-2.1,1.6-3.2,2.2
	l-3.5-0.9l-1.2-2.4l4.8,1.9L47.3,74.9z M43.5,46.4l-0.8-3.7l-0.9,0.2l0.9,4l-2.1,1.3l-1-0.5l1-2.1l-0.8-0.4l-1,2.1l-2.1-1l-3.5,1.7
	h-0.3l0-1.7l1.2-2l0.7-0.3l3.8,1.4l0.3-0.8L36,43.6l5.8-2.2l3.4,1.5l0.4-0.8L43,41l6-0.7c0.6,0.6,1.1,1.2,1.6,1.8L43.5,46.4z
	 M38.2,37.7l1.9-3c0.3,0.1,0.7,0.2,1,0.4l-0.9,2L38.2,37.7z M36.1,33.8c1.1,0.2,2.1,0.4,3.1,0.7l-1.1,1.7L36.1,33.8z M34.8,33.6
	l2.9,3.3l-2.5,3.8l-2.2-1.6l0-2l2.8-0.4l-0.1-0.9l-2.6,0.4l0-2.7C33.5,33.5,34.1,33.5,34.8,33.6z M32.5,45.2l-1.9-4.9l-1.5-3
	l1.2-3.7c0.5,0,1.1-0.1,1.6-0.1l0.1,4.3l-1.7-1l-0.4,0.8l2.2,1.2l0,0.7l2.6,1.9L32.5,45.2z M20.2,41.5L20.2,41.5l3.2,1.8l0.5,0.9
	l-3.8-0.7l-1.6,1.3L16,42.7l-0.6,0.7l2.3,2.1l-1,0.8L11.8,46c0.9-1.7,2-3.2,3.2-4.6L20.2,41.5z M11.4,46.8l2.8,0.1l-2,1.4l0.5,0.7
	l2.8-2.1l1.5,0.1l3.3-2.6l4,0.7l0,0l3.6,1.9L26.3,48l-4.8-1.9L21.2,47l4.1,1.6l-0.7,0.4l-6.9-0.4l-0.1,0.9l3.1,0.2l-1,2.3l0.8,0.3
	l1.1-2.6l3.1,0.2l4.1-2.2l2.4,1.3l0,0.7h0v4.9c0,0.5-0.4,0.8-0.9,1.3c-0.6,0.6-1.4,1.2-1.3,2.2l0.1,14.5l-3.5,0.5L21,74.4l-4.8-0.8
	c-4.6-4.4-7.1-10.4-7.1-16.7C9.1,53.3,9.9,50,11.4,46.8z M26.5,79.4c-0.8-0.2-1.6-0.5-2.3-0.7l2.1-2.3l0.1-0.1L26.5,79.4z
	 M30.1,76.9l0.5,1.9l2.3,1.4c-0.2,0-0.3,0-0.5,0c-0.7,0-1.4,0-2.2-0.1L29.4,78L30.1,76.9z M48.8,73.6l-4.6,1.2l-4.9-1.9l-3.5-0.5
	L35.9,58c0-0.9-0.7-1.6-1.3-2.2c-0.5-0.5-0.9-0.8-0.9-1.3l0-4.9h0v-0.8l0,0l3-1.5l6.4,3l0.8,2.2l0.8-0.3l-0.6-1.7l4.6,0.5l0.1-0.9
	l-5.2-0.6l-2-0.9l5.7-3.4l5,4l0.5-0.7L50,46.3l1.9-0.5l-0.2-0.8l-2.5,0.7L48,44.7l3.1-1.9c3.1,4.1,4.7,8.9,4.7,14
	C55.8,63.2,53.3,69.1,48.8,73.6z M51.5,37.8c-5.1-5.1-11.9-7.9-19.1-7.9c-7.2,0-14,2.8-19.1,7.9c-5.1,5.1-7.9,11.9-7.9,19.1
	c0,7.2,2.8,14,7.9,19c5.1,5.1,11.9,7.9,19.1,7.9c7.2,0,14-2.8,19.1-7.9c5.1-5.1,7.9-11.9,7.9-19C59.4,49.7,56.6,42.9,51.5,37.8z
	 M50.3,74.7c-4.8,4.8-11.1,7.4-17.9,7.4c-6.7,0-13.1-2.6-17.9-7.4c-4.8-4.8-7.4-11.1-7.4-17.9c0-6.7,2.6-13.1,7.4-17.9
	c4.8-4.8,11.1-7.4,17.9-7.4c6.7,0,13.1,2.6,17.9,7.4c4.8,4.8,7.4,11.1,7.4,17.9C57.7,63.6,55.1,69.9,50.3,74.7z M79.8,47v17.5h-1.9
	V48.8h-9v15.6H67V47H79.8z M87.9,47c1.8,0,3.2,0.2,4.4,1.2c1.3,1.1,1.6,2.6,1.6,3.7c0,2.5-1.5,5.3-5.5,5.3h-1.7v7.2h-1.9V47H87.9z
	 M86.7,55.4h1.6c2.3,0,3.7-1.5,3.7-3.6c0-2.8-2.6-3-3.9-3h-1.4V55.4z M105.6,59.5h-7.4L96,64.5h-2.1l8-18.3l7.8,18.3h-2.1
	L105.6,59.5z M104.8,57.7l-2.9-7l-3,7H104.8z M115,54.5l7.4-7.5h2.6l-8.2,8.1l8.4,9.3h-2.7l-7.2-8l-0.5,0.5v7.5h-1.9V47h1.9V54.5z
	 M133.9,48.8v15.6H132V48.8h-4.2V47h10.4v1.8H133.9z M153.7,51.1l-12.2,14.1V47h1.9v13.4l12.2-14.1v18.2h-1.9V51.1z M162.6,54.5
	L170,47h2.6l-8.2,8.1l8.4,9.3h-2.7l-7.2-8l-0.5,0.5v7.5h-1.9V47h1.9V54.5z M187.1,59.5h-7.4l-2.1,4.9h-2.1l8-18.3l7.8,18.3h-2.1
	L187.1,59.5z M186.3,57.7l-2.9-7l-3,7H186.3z M159.6,70.1c-0.4,0-0.7,0-0.9,0c-0.2,0-0.4,0-0.7,0c-0.3,0-0.5,0-0.6,0
	c0,0-0.1,0-0.1,0c0,0,0,0,0,0c0,0,0,0-0.1,0l0,0c0,0,0,0,0,0c0,0,0,0,0,0c0.2,0,0.4,0.3,0.4,0.7v4.5c0,0.4-0.2,0.6-0.4,0.7
	c0,0,0,0,0,0c0,0,0,0,0,0l0,0c0,0,0,0,0.1,0c0,0,0,0,0,0c0,0,0,0,0.1,0c0.1,0,0.4,0,0.6,0c0.3,0,0.6,0,0.8,0c0.2,0,0.4,0,0.7,0
	c0.9,0,1.7-0.3,2.2-1c0.5-0.6,0.8-1.4,0.8-2.2C162.6,71.6,161.5,70.1,159.6,70.1z M161.1,75c-0.4,0.4-0.9,0.6-1.5,0.6
	c-0.3,0-0.6,0-0.9,0c-0.2,0-0.3-0.1-0.3-0.3v-4.4c0.3,0,0.8,0,1,0c1.4,0,2.3,1,2.3,2.5C161.7,73.9,161.5,74.5,161.1,75z M169.2,76.1
	c-0.5-0.3-0.7-0.7-0.9-1.2l-1.6-4c-0.1-0.2-0.2-0.6-0.2-0.7c0,0,0-0.1-0.1-0.1h-0.6c0,0-0.1,0-0.1,0.1c0,0.1,0,0.2-0.1,0.3l-1.6,4.5
	c-0.2,0.5-0.5,0.9-0.8,1.1c0,0,0,0,0,0.1l0,0.1c0,0,0,0,0.1,0c0,0,0,0,0,0c0,0,0.1,0,0.1,0c0.1,0,0.3,0,0.6,0c0,0,0,0,0.1,0
	c0.4,0,0.6,0,0.7,0.1c0,0,0.1,0,0.1,0c0,0,0,0,0,0c0,0,0.1,0,0.1-0.1l0-0.1c0,0,0-0.1,0-0.1c-0.1,0-0.1-0.1-0.2-0.2
	c-0.1-0.2-0.1-0.4,0-0.6l0.5-1.4h2l0.5,1.4c0.2,0.4,0.1,0.7,0,0.7c0,0,0,0,0,0.1l0,0.1c0,0,0,0.1,0.1,0.1c0,0,0,0,0,0
	c0,0,0.1,0,0.1,0c0.1,0,0.3,0,0.6,0c0.3,0,0.5,0,0.7,0c0,0,0.1,0,0.1,0c0,0,0,0,0,0c0,0,0.1,0,0.1-0.1L169.2,76.1
	C169.2,76.1,169.2,76.1,169.2,76.1z M166.8,73.3h-1.5l0.7-2L166.8,73.3z M166.5,70.2C166.5,70.2,166.5,70.2,166.5,70.2
	C166.5,70.2,166.5,70.2,166.5,70.2L166.5,70.2z M167.8,76.2C167.7,76.2,167.7,76.2,167.8,76.2C167.7,76.2,167.7,76.2,167.8,76.2
	L167.8,76.2C167.7,76.2,167.7,76.2,167.8,76.2C167.7,76.2,167.7,76.2,167.8,76.2z M167.9,76.1C167.9,76.1,167.9,76.1,167.9,76.1
	C167.9,76.1,167.9,76.1,167.9,76.1z M175.1,76.1L175.1,76.1C175.1,76.2,175.1,76.2,175.1,76.1C175,76.2,175,76.2,175.1,76.1
	c-0.1,0.1-0.1,0.1-0.1,0.1c-0.1,0-0.4,0-0.9,0c0,0,0,0,0,0l-0.2-0.1c0,0,0,0,0,0c-0.1-0.1-0.2-0.2-0.3-0.4c0-0.1-0.1-0.1-0.1-0.2
	c-0.6-0.9-1-1.5-1.3-1.9c-0.3-0.4-0.4-0.6-0.5-0.7c0,0,0,0,0,0l0,0c0,0,0,0,0,0v-0.1c0,0,0,0,0-0.1c0,0,0,0,0,0c0,0,0,0,0,0
	c0.1,0,0.2,0.1,0.3,0.1c0.7,0,1.1-0.4,1.1-1c0-0.7-0.3-1-1.1-1c-0.1,0-0.3,0-0.4,0v4.6c0,0.5,0.3,0.6,0.4,0.7c0,0,0,0,0,0
	c0,0,0,0,0,0l0,0c0,0,0,0-0.1,0c0,0,0,0,0,0c0,0,0,0-0.1,0c-0.1,0-0.4,0-0.6,0c-0.3,0-0.6,0-0.7,0c0,0,0,0-0.1,0c0,0,0,0,0,0
	c0,0,0,0-0.1,0l0,0c0,0,0,0,0,0s0,0,0,0c0.1,0,0.4-0.2,0.4-0.7v-4.5c0-0.4-0.2-0.6-0.4-0.7c0,0,0,0,0,0s0,0,0,0l0,0c0,0,0,0,0.1,0
	c0,0,0,0,0,0c0,0,0,0,0.1,0c0.1,0,0.4,0,0.6,0c0.1,0,0.3,0,0.5,0c0.2,0,0.4,0,0.6,0c1.1,0,1.8,0.6,1.8,1.5c0,0.8-0.6,1.4-1.2,1.6
	c0.1,0.1,0.3,0.3,0.5,0.6c0,0.1,0.1,0.1,0.2,0.2l0.8,1.2c0,0,0,0.1,0.1,0.1C174.4,75.5,174.6,75.9,175.1,76.1
	C175.1,76.1,175.1,76.1,175.1,76.1z M180.8,70.1C180.8,70.1,180.8,70.1,180.8,70.1C180.7,70.1,180.7,70.1,180.8,70.1L180.8,70.1
	c-0.2,0-0.4,0-0.7,0c0,0-0.1,0-0.1,0c-0.4,0-0.6,0-0.7-0.1c0,0-0.1,0-0.1,0c0,0,0,0,0,0c0,0-0.1,0-0.1,0.1l0,0.1c0,0,0,0.1,0,0.1
	c0.1,0,0.2,0.1,0.2,0.2c0,0.1,0.1,0.3,0,0.6l-1.5,3.6l-1.4-3.7c-0.2-0.4-0.1-0.7,0-0.7c0,0,0,0,0-0.1l0-0.1c0,0,0-0.1-0.1-0.1
	c0,0,0,0,0,0c0,0-0.1,0-0.1,0c-0.1,0-0.3,0-0.6,0c-0.4,0-0.7-0.1-0.8-0.1c0,0,0,0,0,0c0,0,0,0,0,0c0,0,0,0,0,0l0,0.1c0,0,0,0,0,0.1
	c0.5,0.3,0.7,0.8,0.9,1.2l1.9,4.8c0,0,0,0,0.1,0h0.1c0,0,0,0,0.1,0l2.1-4.9c0.2-0.6,0.5-1,0.8-1.1C180.8,70.2,180.8,70.2,180.8,70.1
	L180.8,70.1z M180.7,70.1C180.7,70.1,180.7,70.1,180.7,70.1C180.7,70.1,180.7,70.1,180.7,70.1z M180.7,70.1
	C180.7,70.1,180.7,70.1,180.7,70.1C180.7,70.1,180.7,70.1,180.7,70.1z M180.7,70.1C180.7,70.1,180.7,70.1,180.7,70.1
	C180.7,70.1,180.7,70.1,180.7,70.1z M180.6,70.1C180.6,70.1,180.6,70.1,180.6,70.1C180.6,70.1,180.6,70.1,180.6,70.1z M180.6,70.1
	C180.6,70.1,180.6,70.1,180.6,70.1C180.6,70.1,180.6,70.1,180.6,70.1z M180.6,70.2C180.6,70.2,180.6,70.2,180.6,70.2
	C180.6,70.2,180.6,70.2,180.6,70.2z M180.5,70.2C180.5,70.2,180.5,70.2,180.5,70.2C180.5,70.2,180.5,70.2,180.5,70.2z M180.5,70.2
	C180.5,70.2,180.5,70.2,180.5,70.2C180.5,70.2,180.5,70.2,180.5,70.2z M180.4,70.2C180.4,70.2,180.4,70.2,180.4,70.2
	C180.4,70.2,180.4,70.2,180.4,70.2z M180.4,70.2C180.4,70.2,180.4,70.2,180.4,70.2C180.4,70.2,180.4,70.2,180.4,70.2z M180.3,70.2
	C180.3,70.2,180.3,70.2,180.3,70.2C180.3,70.2,180.3,70.2,180.3,70.2z M180.3,70.2C180.3,70.2,180.3,70.2,180.3,70.2
	C180.3,70.2,180.3,70.2,180.3,70.2z M180.2,70.2C180.2,70.2,180.2,70.2,180.2,70.2C180.2,70.2,180.2,70.2,180.2,70.2z M180.1,70.2
	C180.1,70.2,180.1,70.2,180.1,70.2C180.1,70.2,180.1,70.2,180.1,70.2z M180,70.2C180,70.2,180,70.2,180,70.2
	C180,70.2,180,70.2,180,70.2z M183.3,70.9v4.5c0,0.5,0.3,0.6,0.4,0.7c0,0,0,0,0,0c0,0,0,0,0,0l0,0c0,0,0,0-0.1,0c0,0,0,0,0,0
	c0,0,0,0-0.1,0c-0.1,0-0.4,0-0.6,0c-0.3,0-0.6,0-0.7,0c0,0,0,0-0.1,0c0,0,0,0,0,0c0,0,0,0-0.1,0l0,0c0,0,0,0,0,0s0,0,0,0
	c0.1,0,0.4-0.2,0.4-0.7v-4.5c0-0.5-0.3-0.6-0.4-0.7c0,0,0,0,0,0c0,0,0,0,0,0l0,0c0,0,0,0,0.1,0c0,0,0,0,0,0c0,0,0,0,0.1,0
	c0.1,0,0.4,0,0.7,0c0.3,0,0.5,0,0.6,0c0,0,0.1,0,0.1,0c0,0,0,0,0,0c0,0,0,0,0.1,0l0,0c0,0,0,0,0,0c0,0,0,0,0,0
	C183.5,70.3,183.3,70.4,183.3,70.9z M191.2,70.2C191.2,70.2,191.2,70.2,191.2,70.2c-0.4,0.1-0.5,0.5-0.5,0.7v5.2c0,0,0,0.1-0.1,0.1
	h-0.1c0,0,0,0,0,0l-3.9-4.9v4.1c0,0.2,0.2,0.6,0.5,0.7c0,0,0,0,0,0c0,0,0,0,0,0l0,0c0,0,0,0-0.1,0c0,0,0,0,0,0c0,0,0,0-0.1,0
	c-0.1,0-0.4,0-0.7,0c-0.4,0-0.6,0-0.7,0c0,0,0,0-0.1,0c0,0,0,0,0,0c0,0,0,0-0.1,0l0,0c0,0,0,0,0,0c0,0,0,0,0,0
	c0.3-0.1,0.5-0.5,0.5-0.7v-4.7l-0.4-0.4c0,0,0,0,0-0.1l0,0c0,0,0,0,0,0c0,0,0,0,0,0c0,0,0,0,0,0c0.1,0,0.2,0.1,0.5,0.1
	c0.3,0,0.4,0,0.6,0c0,0,0,0,0,0c0,0,0,0,0,0c0,0,0,0,0,0c0,0.1,0.1,0.2,0.2,0.3l3.1,3.9v-3.4c0-0.2-0.2-0.6-0.5-0.7c0,0,0,0,0,0
	c0,0,0,0,0,0l0,0c0,0,0,0,0.1,0c0,0,0,0,0,0c0,0,0,0,0.1,0c0.1,0,0.3,0,0.7,0c0.4,0,0.6,0,0.7,0c0,0,0,0,0.1,0c0,0,0,0,0,0
	C191.1,70.1,191.2,70.1,191.2,70.2L191.2,70.2C191.2,70.2,191.2,70.2,191.2,70.2z M146.8,72.8c0.3-0.1,0.5-0.3,0.6-0.5
	c0.2-0.3,0.3-0.5,0.3-0.9c0-0.4-0.1-0.7-0.4-1c-0.3-0.2-0.7-0.4-1.3-0.4c-0.1,0-0.2,0-0.3,0c-0.1,0-0.2,0-0.3,0c-0.2,0-0.4,0-0.6,0
	c-0.2,0-0.4,0-0.7,0l-0.4,0c0,0,0,0,0,0c0,0,0,0,0,0l0,0c0,0,0,0,0,0.1c0,0.1,0.1,0.1,0.2,0.1c0.1,0,0.2,0.1,0.2,0.1
	c0.1,0.1,0.2,0.2,0.2,0.5v4.4c0,0.2-0.1,0.3-0.2,0.4c-0.1,0.1-0.2,0.1-0.3,0.2c-0.1,0.1-0.2,0.1-0.2,0.1c0,0.1,0,0.1,0,0.1
	c0,0,0,0,0,0l0,0l0,0c0.2,0,0.2,0,0.3,0l0,0l0.7,0c0.1,0,0.3,0,0.4,0c0.1,0,0.2,0,0.3,0c0.2,0,0.5,0,0.7,0c0.4,0,0.7-0.1,1.1-0.2
	c0.3-0.2,0.6-0.4,0.7-0.7c0.2-0.3,0.3-0.6,0.3-0.9c0-0.5-0.2-0.8-0.5-1.1C147.5,73,147.2,72.8,146.8,72.8z M145.3,75.5
	c0-0.1-0.1-0.2-0.1-0.3v-2c0.2,0,0.3,0,0.5,0c0,0,0.1,0,0.1,0c0.5,0,0.8,0.2,1.1,0.4c0.2,0.3,0.4,0.5,0.4,1c0,0.8-0.3,1.1-1.3,1.1
	c-0.2,0-0.4,0-0.5-0.1C145.5,75.7,145.4,75.6,145.3,75.5z M146.8,71.5c0,0.4-0.1,0.5-0.3,0.8c-0.2,0.2-0.5,0.3-0.9,0.3l-0.4,0l0-1.5
	v0c0-0.2,0-0.2,0-0.3c0-0.1,0.1-0.1,0.1-0.2c0.1,0,0.2,0,0.3,0c0.3,0,0.6,0,0.8,0.2C146.7,71,146.8,71.2,146.8,71.5z M143.8,70.2
	C143.8,70.2,143.8,70.2,143.8,70.2C143.8,70.2,143.8,70.2,143.8,70.2C143.8,70.2,143.8,70.2,143.8,70.2z M143.8,76.2
	C143.8,76.2,143.8,76.2,143.8,76.2C143.8,76.2,143.8,76.2,143.8,76.2C143.8,76.2,143.8,76.2,143.8,76.2z M154.4,70.1
	C154.4,70.1,154.3,70.1,154.4,70.1c-0.2,0-0.4,0-0.5,0c-0.2,0-0.5,0-0.7,0l-0.5,0c0,0,0,0,0,0c0,0-0.1,0-0.1,0.1
	c0,0.1,0,0.1,0.1,0.1c0.1,0,0.3,0.1,0.3,0.3c0,0.2-0.1,0.4-0.2,0.6l-1,1.6l-1.3-2.1c-0.1-0.1-0.1-0.2-0.1-0.2c0-0.1,0.2-0.1,0.2-0.2
	c0.1,0,0.1-0.1,0.1-0.1c0-0.1-0.1-0.1-0.1-0.1l-0.5,0c-0.4,0-0.6,0-0.9,0c-0.1,0-0.2,0-0.3,0c0,0,0,0,0,0c0,0,0,0,0,0l-0.3,0h0
	c0,0-0.1,0-0.1,0.1c0,0.1,0.1,0.1,0.1,0.1c0.1,0,0.7,0.5,0.9,0.8l1.5,2.3v2c0,0.2-0.1,0.4-0.2,0.5c-0.1,0.1-0.3,0.1-0.4,0.2
	c-0.1,0-0.2,0.1-0.2,0.1c0,0.1,0,0.1,0,0.1c0,0,0,0,0,0c0,0,0,0,0,0c0.2,0,0.4,0,0.5,0l0.7,0l0.7,0c0.1,0,0.3,0,0.5,0h0
	c0,0,0,0,0.1,0c0,0,0,0,0-0.1c0-0.1-0.1-0.1-0.2-0.1c-0.1,0-0.3-0.1-0.4-0.2c-0.1-0.1-0.2-0.2-0.2-0.5l0-2l1.2-1.9
	c0.2-0.4,1-1.2,1.2-1.2c0,0,0.1,0,0.1,0c0,0,0-0.1,0-0.1C154.6,70.1,154.5,70.1,154.4,70.1z M154.6,70.2
	C154.6,70.2,154.6,70.2,154.6,70.2C154.6,70.2,154.6,70.2,154.6,70.2z M154.5,70.2C154.5,70.2,154.6,70.2,154.5,70.2
	C154.6,70.2,154.5,70.2,154.5,70.2z M154.5,70.2C154.5,70.2,154.5,70.2,154.5,70.2C154.5,70.2,154.5,70.2,154.5,70.2z M154.5,70.2
	C154.5,70.2,154.5,70.2,154.5,70.2C154.5,70.2,154.5,70.2,154.5,70.2z M154.4,70.2C154.4,70.2,154.5,70.2,154.4,70.2
	C154.5,70.2,154.4,70.2,154.4,70.2z M154.4,70.2C154.4,70.2,154.4,70.2,154.4,70.2C154.4,70.2,154.4,70.2,154.4,70.2z M154.4,70.2
	C154.4,70.2,154.4,70.2,154.4,70.2C154.4,70.2,154.4,70.2,154.4,70.2C154.4,70.2,154.4,70.2,154.4,70.2z M150.5,76.2
	C150.5,76.2,150.5,76.2,150.5,76.2C150.5,76.2,150.5,76.2,150.5,76.2C150.5,76.2,150.5,76.2,150.5,76.2z M152.9,76.2
	C152.9,76.2,152.9,76.2,152.9,76.2C152.9,76.2,152.9,76.2,152.9,76.2C152.9,76.2,152.9,76.2,152.9,76.2z M152.9,76.2
	C152.9,76.2,152.9,76.2,152.9,76.2C152.9,76.2,152.9,76.2,152.9,76.2z M90.7,38.4L90,41.3h-1l-1.1-3.8h0.8l0.8,2.8h0l0.8-2.8h0.9
	l0.8,2.8h0l0.8-2.8h0.8l-1.1,3.8h-1L90.7,38.4L90.7,38.4z M102.2,41.3h-0.8v-3.8h0.8V41.3z M113.1,40.1v-2.6h0.8v3.8h-0.8l-1.9-2.6
	h0v2.6h-0.8v-3.8h0.8L113.1,40.1L113.1,40.1z M122.1,37.5h3v0.6h-2.3v1h1.6v0.6h-1.6v0.9h2.3v0.6h-3.1V37.5z M141.7,37.5h1.7
	c1,0,1.4,0.4,1.4,1c0,0.6-0.6,0.7-0.6,0.7v0c0,0,0.9,0.2,0.9,0.9c0,0.6-0.5,1.1-1.5,1.1h-1.9V37.5z M144.1,38.5
	c0-0.2-0.2-0.5-0.6-0.5h-0.9V39h0.9C143.8,39,144.1,38.8,144.1,38.5z M142.5,39.6v1h1.1c0.5,0,0.7-0.2,0.7-0.5
	c0-0.3-0.2-0.5-0.7-0.5H142.5z M156.7,41.3h-0.8l-0.3-0.8h-1.9l-0.3,0.8h-0.8l1.6-3.8h0.9L156.7,41.3z M154,39.8h1.3l-0.6-1.6h0
	L154,39.8z M166.3,37.5c1,0,1.6,0.5,1.6,1.2c0,0.8-0.7,1.1-0.7,1.1v0l1,1.4h-0.9l-0.9-1.3h-1.1v1.3h-0.8v-3.8H166.3z M166.3,38.1h-1
	v1.2h1c0.5,0,0.8-0.3,0.8-0.6C167,38.4,166.8,38.1,166.3,38.1z M81.7,41.3H66.9v-0.8h14.8V41.3z M190.7,41.3h-14.8v-0.8h14.8V41.3z"
	/>
</svg>
