<?xml version="1.0" encoding="utf-8"?>
<!-- Generator: Adobe Illustrator 22.0.0, SVG Export Plug-In . SVG Version: 6.00 Build 0)  -->
<svg version="1.1" id="Слой_1" xmlns="http://www.w3.org/2000/svg" xmlns:xlink="http://www.w3.org/1999/xlink" x="0px" y="0px"
	 viewBox="0 0 198.4 113.4" style="enable-background:new 0 0 198.4 113.4;" xml:space="preserve">
<style type="text/css">
	.st0{fill:#4F5260;}
</style>
<path id="LOGO" class="st0" d="M97.7,41.5c0,0,2.2-2.8,7.2-2.8c4.3,0,11.1,0,11.1,0V2.8l-36.7,0l0,35.9c1.8,0,6.8,0,11,0
	C95.5,38.7,97.7,41.5,97.7,41.5z M84.7,7.9h26l-1,2.5l1,2.5c0,0-6.8,0-10.3,0v2.8c0,19.2-2.8,22.6-2.8,22.6s-2.9-3-2.9-20.7
	c0-4.2,2.9-4.8,2.9-4.8H84.7l1-2.5L84.7,7.9z M44.3,47.1h-7.8v-5.4h21.3v5.4h-7.6c0,0,0,10.5,0,17.5c0,4.8,0,20.9,0,20.9h-5.9
	c0,0,0-16,0-20.7C44.3,57.7,44.3,47.1,44.3,47.1z M66.4,85.9c5.6,0,8.7-3.4,8.7-9.3V57.4c0-5.9-3.1-9.3-8.7-9.3
	c-5.6,0-8.7,3.4-8.7,9.3v19.2C57.8,82.5,60.8,85.9,66.4,85.9z M63.5,57c0-2.6,1.1-3.6,3-3.6c1.8,0,3,1,3,3.6v20c0,2.6-1.1,3.6-3,3.6
	c-1.8,0-3-1-3-3.6V57z M78.5,76.7V48.5h5.7V77c0,2.6,1.1,3.6,3,3.6c1.8,0,3-1,3-3.6V48.5h5.4v28.1c0,5.9-2.9,9.3-8.5,9.3
	C81.4,85.9,78.5,82.6,78.5,76.7z M110.9,60.6V57c0-2.6-1.5-3.6-3.3-3.6c-1.8,0-3,1-3,3.6v20c0,2.6,1.1,3.6,3,3.6c1.8,0,3-1,3-3.6
	v-5.3h5.4v4.9c0,5.9-2.9,9.3-8.5,9.3c-5.6,0-8.5-3.4-8.5-9.3V57.4c0-5.9,2.9-9.3,8.5-9.3c5.6,0,8.5,3.4,8.5,9.3v3.2H110.9z
	 M125.1,85.5h-5.7c0,0,0-11,0-11.8c0-5.2,0-7.9,0-12.9c0-1.2,0-12.3,0-12.3h5.7c0,0,0,11.2,0,12.3c0,2.7,0,3.4,0,3.5h6.5
	c0-0.2,0-1,0-3.4c0-1.3,0-12.4,0-12.4h5.8c0,0,0,11.1,0,12.5c0,5,0,6.8,0,12.3c0,1,0,12.1,0,12.1h-5.8c0,0,0-11.1,0-12
	c0-3.6,0-3.8,0-3.8h-6.5c0,0,0,0,0,3.9C125.1,74.4,125.1,85.5,125.1,85.5z M158,69.6v-5h0v-7.5c0-4.7-1.8-7.8-5.4-8.9l2.6-6.7h-5.8
	l-2.6,6.6c-3.8,1-5.8,4.1-5.8,9v19.5c0,5.9,2.9,9.3,8.5,9.3c5.6,0,8.5-3.4,8.5-9.3v-1.4h-5.4V77c0,2.6-1.4,3.6-3.2,3.6
	c-1.8,0-3-1-3-3.6v-7.3H158z M146.4,56.8c0-2.6,1.3-3.6,3.1-3.6c1.8,0,3.2,1,3.2,3.6v7.8h-6.3V56.8z M47.2,102.9l1.1-2.7l-0.7-1.7
	h1.3l1.6,4.3l1.7-4.3h1.2l-2.5,5.9h-0.8l-1.2-3l-1.3,3h-0.8l-2.5-5.9h1.3L47.2,102.9z M56.3,98.5v5.9h-1.1v-5.9H56.3z M59.9,100.3
	v4.1h-1.1v-5.9h0.9l3.4,4.1v-4.1h1.1v5.9h-0.9L59.9,100.3z M67.9,99.5v1.4h2v0.9h-2v1.6h2.3v1h-3.4v-5.9h3.4v1H67.9z M79.4,99.9
	c0-0.8-0.7-1.4-1.9-1.4h-1.8v5.9h1.7c1.4,0,2.3-0.7,2.3-1.8c0-0.7-0.4-1.2-1.1-1.5C79.1,100.9,79.4,100.4,79.4,99.9z M76.8,99.4h0.6
	c0.6,0,0.9,0.3,0.9,0.7c0,0.5-0.3,0.9-1,0.9h-0.5V99.4z M77.3,103.6h-0.6v-1.7h0.7c0.7,0,1.1,0.4,1.1,0.8
	C78.5,103.2,78.1,103.6,77.3,103.6z M85.2,102.9l0.6,1.5H87l-2.6-6h-0.8l-2.6,6h1.3l0.6-1.5H85.2z M84,99.9l0.8,2.1h-1.7L84,99.9z
	 M92.8,100.3c0-1.1-0.8-1.8-2.2-1.8h-1.7v5.9H90v-2.3h0.4l1.8,2.3h1.4l-2-2.5C92.3,101.6,92.8,101.1,92.8,100.3z M90.1,101.4H90
	v-1.9h0.5c0.8,0,1.2,0.3,1.2,0.9C91.7,101,91.1,101.4,90.1,101.4z M97.5,102.8c0,1,0.8,1.8,2.2,1.8c0.5,0,1-0.2,1.4-0.5
	c0.3,0.3,0.3,0.3,0.3,0.3h1.4c0,0,0,0-1-1.2c0.1-0.2,0.3-0.5,0.4-0.8l0.3-0.9h-1.1c-0.1,0.3-0.2,0.6-0.3,0.8c-0.3-0.3-0.6-0.7-1-1.2
	c0.7-0.4,1.1-0.8,1.1-1.4c0.1-1.8-2.7-1.9-2.9-0.2c-0.1,0.5,0.2,1,0.5,1.5C97.8,101.7,97.5,102.2,97.5,102.8z M99.2,99.8
	c0.1-0.6,1-0.6,1,0.1c0,0.4-0.3,0.6-0.6,0.8C99.3,100.3,99.2,100.1,99.2,99.8z M99.2,101.8c0,0,0.1,0.1,0.1,0.1
	c0.5,0.6,0.9,1.1,1.1,1.4c-0.2,0.2-0.5,0.3-0.8,0.3c-0.6,0-1-0.4-1-0.8C98.6,102.4,98.8,102.1,99.2,101.8z M108.7,98.5v2.7l2.3-2.7
	h1.5l-2.6,2.9l2.8,3h-1.5l-2.5-2.8v2.8h-1.1v-5.9H108.7z M115.5,98.5v5.9h-1.1v-5.9H115.5z M119.4,104.4v-4.9h-2v-1h5v1h-2v4.9
	H119.4z M125,101.5c0,1.2,0.8,2,1.9,2c0.7,0,1.4-0.3,1.9-1h0l-0.1,1.5c-0.5,0.4-1.2,0.6-1.9,0.6c-1.8,0-3-1.2-3-3.1
	c0-1.6,1.2-3.1,3-3.1c0.8,0,1.4,0.2,1.9,0.5l-0.1,1.3h0c-0.4-0.5-1-0.8-1.7-0.8C125.7,99.5,125,100.3,125,101.5z M132.1,98.5v2.3
	h2.6v-2.3h1.1v5.9h-1.1v-2.6h-2.6v2.6H131v-5.9H132.1z M139.5,99.5v1.4h2v0.9h-2v1.6h2.3v1h-3.4v-5.9h3.4v1H139.5z M145.1,100.3v4.1
	h-1.1v-5.9h0.9l3.4,4.1v-4.1h1.1v5.9h-0.9L145.1,100.3z M36.9,92.3h120.4v1.1H36.9V92.3z M36.9,109.4h120.4v1.1H36.9V109.4z"/>
</svg>
