<svg id="icon-basket" viewBox="0 0 24 21" width="100%" height="100%">
					<path class="st0" d="M9,17c0.6,0,1,0.4,1,1s-0.4,1-1,1s-1-0.4-1-1S8.4,17,9,17z M9,15c-1.7,0-3,1.3-3,3s1.3,3,3,3s3-1.3,3-3
						S10.7,15,9,15z M21,17c0.6,0,1,0.4,1,1s-0.4,1-1,1s-1-0.4-1-1S20.4,17,21,17z M21,15c-1.7,0-3,1.3-3,3s1.3,3,3,3s3-1.3,3-3
						S22.7,15,21,15z M10.2,13.7c-1.2,0-2.3-0.7-2.8-1.9L3.3,2H1C0.4,2,0,1.6,0,1s0.4-1,1-1h3.7l1.2,3H24v5.4c0,1.4-1,2.6-2.4,2.9
						l-10.8,2.3C10.6,13.7,10.4,13.7,10.2,13.7z M6.8,5l2.5,6.1c0.2,0.4,0.7,0.7,1.1,0.6l10.8-2.3c0.5-0.1,0.8-0.5,0.8-1V5H6.8z"></path>
				</svg>