<?xml version="1.0" encoding="utf-8"?>
<!-- Generator: Adobe Illustrator 19.0.0, SVG Export Plug-In . SVG Version: 6.00 Build 0)  -->
<svg version="1.1" id="Layer_1" xmlns="http://www.w3.org/2000/svg" xmlns:xlink="http://www.w3.org/1999/xlink" x="0px" y="0px"
	 viewBox="0 0 595.3 841.9" style="enable-background:new 0 0 595.3 841.9;" xml:space="preserve">
<style type="text/css">
	.st0{fill:#366167;}
	.st1{opacity:0.25;fill:#231F20;}
	.st2{fill:#FFE590;}
	.st3{fill:#263162;}
	.st4{fill:#FFFFFF;}
	.st5{fill:#231F20;}
</style>
<circle class="st0" cx="298.3" cy="421" r="256"/>
<path class="st0" d="M138.7,483l27.1-19.2l3.1,5.1l6.2-13.5l30,32.3l52.5-131.1c0,0,24.1,68.2,37.6,95.8c1.3,2.7,2.8,4.8,4.4,6.4
	l12.4-25.6c0,0,5,11.6,11.5,26c9.4-4.4,18.5-10.6,24.2-7.3c12,6.9,28,44.4,36.5,45.8s38.5-113.7,38.5-113.7l36,76.1
	c1.3-4,2-6.4,2-6.4l6.6,11.6l43.3-118.6c0,0,18.5,15.8,29,37.4c2.9,5.9,8.8,18.6,14.6,36.4C554,279.3,439.5,165,298.3,165
	c-141.4,0-256,114.6-256,256c0,15.3,1.3,30.2,3.9,44.7l49.5-68.3L138.7,483z"/>
<path class="st0" d="M237.6,507l27.1,24.2l35-72.4c-1.6-1.6-3-3.7-4.4-6.4c-13.4-27.6-37.6-95.8-37.6-95.8l-52.5,131.1l-30-32.3
	l-6.2,13.5l46.9,77.3L237.6,507z"/>
<path class="st1" d="M237.6,507l27.1,24.2l35-72.4c-1.6-1.6-3-3.7-4.4-6.4c-13.4-27.6-37.6-95.8-37.6-95.8l-52.5,131.1l-30-32.3
	l-6.2,13.5l46.9,77.3L237.6,507z"/>
<path class="st0" d="M510.7,346.7l-43.3,118.6l31.3,54.6l31.3-81.1c-1.3-8.2,4.3-11,4.3-11l-4.3,11c0.4,2.7,1.6,6,3.9,10
	c2.9,5,8,18.8,11.7,38.3c5.7-21.1,8.7-43.4,8.7-66.3c0-0.2,0-0.3,0-0.4c-5.8-17.8-11.7-30.5-14.6-36.4
	C529.2,362.6,510.7,346.7,510.7,346.7z"/>
<path class="st1" d="M510.7,346.7l-43.3,118.6l31.3,54.6l31.3-81.1c-1.3-8.2,4.3-11,4.3-11l-4.3,11c0.4,2.7,1.6,6,3.9,10
	c2.9,5,8,18.8,11.7,38.3c5.7-21.1,8.7-43.4,8.7-66.3c0-0.2,0-0.3,0-0.4c-5.8-17.8-11.7-30.5-14.6-36.4
	C529.2,362.6,510.7,346.7,510.7,346.7z"/>
<path class="st0" d="M393.1,504.5c10.8,5.2,25.2,33.1,32.9,34.2c6.4,0.9,26.3-58.7,32.7-78.6l-36-76.1c0,0-30,115.2-38.5,113.7
	s-24.5-38.9-36.5-45.8c-5.7-3.3-14.8,2.9-24.2,7.3c7.1,15.7,16.1,34.8,22.4,45.5C358,525.3,382.3,499.3,393.1,504.5z"/>
<path class="st1" d="M393.1,504.5c10.8,5.2,25.2,33.1,32.9,34.2c6.4,0.9,26.3-58.7,32.7-78.6l-36-76.1c0,0-30,115.2-38.5,113.7
	s-24.5-38.9-36.5-45.8c-5.7-3.3-14.8,2.9-24.2,7.3c7.1,15.7,16.1,34.8,22.4,45.5C358,525.3,382.3,499.3,393.1,504.5z"/>
<path class="st0" d="M138.7,483l-43.1-85.6l-49.5,68.3c4.2,23.8,11.7,46.4,21.9,67.4L138.7,483z"/>
<path class="st1" d="M138.7,483l-43.1-85.6l-49.5,68.3c4.2,23.8,11.7,46.4,21.9,67.4L138.7,483z"/>
<path class="st0" d="M323.4,459.2c-6.5-14.4-11.5-26-11.5-26l-12.4,25.6C306.3,465.7,315,463.2,323.4,459.2z"/>
<path class="st1" d="M323.4,459.2c-6.5-14.4-11.5-26-11.5-26l-12.4,25.6C306.3,465.7,315,463.2,323.4,459.2z"/>
<path class="st0" d="M467.4,465.4l-6.6-11.6c0,0-0.8,2.4-2,6.4l6,12.6L467.4,465.4z"/>
<path class="st1" d="M467.4,465.4l-6.6-11.6c0,0-0.8,2.4-2,6.4l6,12.6L467.4,465.4z"/>
<polygon class="st0" points="169,468.8 165.9,463.7 138.7,483 151.2,507.7 "/>
<polygon class="st1" points="169,468.8 165.9,463.7 138.7,483 151.2,507.7 "/>
<path class="st0" d="M529.9,438.9L498.6,520l-31.3-54.6l-2.7,7.4l-6-12.6c-6.4,19.9-26.3,79.5-32.7,78.6
	c-7.7-1.1-22.1-29.1-32.9-34.2c-10.8-5.2-35.2,20.8-47.3,0.3c-6.3-10.8-15.3-29.8-22.4-45.5c-8.4,3.9-17.1,6.4-23.8-0.5l-35,72.4
	L237.6,507l-21.6,39.1L169,468.8l-17.8,38.9L138.7,483l-70.7,50.1c41.6,85.2,129,143.9,230.2,143.9c118.5,0,218.1-80.5,247.3-189.7
	c-3.8-19.5-8.8-33.4-11.7-38.3C531.5,444.9,530.4,441.6,529.9,438.9z"/>
<path class="st1" d="M529.9,438.9L498.6,520l-31.3-54.6l-2.7,7.4l-6-12.6c-6.4,19.9-26.3,79.5-32.7,78.6
	c-7.7-1.1-22.1-29.1-32.9-34.2c-10.8-5.2-35.2,20.8-47.3,0.3c-6.3-10.8-15.3-29.8-22.4-45.5c-8.4,3.9-17.1,6.4-23.8-0.5l-35,72.4
	L237.6,507l-21.6,39.1L169,468.8l-17.8,38.9L138.7,483l-70.7,50.1c41.6,85.2,129,143.9,230.2,143.9c118.5,0,218.1-80.5,247.3-189.7
	c-3.8-19.5-8.8-33.4-11.7-38.3C531.5,444.9,530.4,441.6,529.9,438.9z"/>
<path class="st1" d="M529.9,438.9L498.6,520l-31.3-54.6l-2.7,7.4l-6-12.6c-6.4,19.9-26.3,79.5-32.7,78.6
	c-7.7-1.1-22.1-29.1-32.9-34.2c-10.8-5.2-35.2,20.8-47.3,0.3c-6.3-10.8-15.3-29.8-22.4-45.5c-8.4,3.9-17.1,6.4-23.8-0.5l-35,72.4
	L237.6,507l-21.6,39.1L169,468.8l-17.8,38.9L138.7,483l-70.7,50.1c41.6,85.2,129,143.9,230.2,143.9c118.5,0,218.1-80.5,247.3-189.7
	c-3.8-19.5-8.8-33.4-11.7-38.3C531.5,444.9,530.4,441.6,529.9,438.9z"/>
<path class="st0" d="M529.9,438.9l4.3-11C534.2,427.9,528.7,430.7,529.9,438.9z"/>
<path class="st1" d="M529.9,438.9l4.3-11C534.2,427.9,528.7,430.7,529.9,438.9z"/>
<path class="st1" d="M529.9,438.9l4.3-11C534.2,427.9,528.7,430.7,529.9,438.9z"/>
<circle class="st2" cx="397.3" cy="315.1" r="81.6"/>
<g id="text">
	<polygon id="XMLID_29_" class="st3" points="444.7,297 443.3,295.5 438.9,299.4 439.4,299.9 	"/>
	<path id="XMLID_26_" class="st3" d="M364.7,318.1c-0.2,0.2-0.4,0.3-0.6,0.4h-0.2l0,0c-0.8,0-1.2-0.3-1.5-1.3c-0.6-2.4,0-8,1.9-8.8
		c1-0.3,1.7,0,1.9,0.8c0.3,0.8,0.4,1.7,0.4,2.5c-0.2,2.3-0.8,4.5-1.9,6.5 M370.1,313.7c0,0.3-0.5,2.3-0.7,2.3
		c-0.5-1.4-0.9-2.9-1.1-4.3c0-0.5-0.5-4.2-0.5-5.5l-0.2-0.3l-1,0.5l-0.2,1c-0.6-0.4-1.4-0.4-1.9,0l0,0l-0.3,0.2
		c-2.8,3.2-3.6,7.8-2,11.8c0.5,0.8,1.6,1.2,2.4,0.7c0.2-0.1,0.3-0.2,0.5-0.4c1-1.8,1.6-3.8,1.8-5.8h0.3c0,1.4,0.2,2.8,0.7,4.2
		c0,0.3,0.5,0.3,0.8,0c1.1-1.3,1.9-2.8,2.1-4.5L370.1,313.7z"/>
	<path id="XMLID_25_" class="st3" d="M362.8,265.5c5.1,1.1,9.5,4,12.6,8.1c3.3-3.1,7.6-4.9,12.1-5.2c-7.3,3.6-10.2,6.8-12.2,12.8
		C373.2,274.1,368.3,270.2,362.8,265.5"/>
	<path id="XMLID_24_" class="st3" d="M420.9,271.4c3.6,0.9,6.9,3.1,9.2,6c2.2-2.3,5.3-3.7,8.5-3.9c-4.2,1.5-7.5,4.9-8.7,9.1
		C427.9,278.2,424.8,274.3,420.9,271.4"/>
	<path id="XMLID_23_" class="st3" d="M348.2,323.6L348.2,323.6c0,1.2-0.8,2.2-1.9,2.5c-0.1,0.1-0.2,0.1-0.2,0.2c0,0.2,0,0.3,0,0.5
		c0,0.1,0.1,0.3,0.2,0.3c0,0,0,0,0,0c0.2,0,3.4-1.1,6-2.1c2.4-0.8,4.8-1.5,7.2-2c0.3-0.1,0.5-0.4,0.5-0.7c-0.1-0.8-0.2-1.5-0.3-2.3
		c0-1,0-1.6,0-2s-0.2,0-0.2,0h-0.2c-0.2,0.1-0.3,0.3-0.3,0.4c0,0.9-0.7,3.6-1.4,3.9s-3.6,1.3-5.3,1.8c0,0-1.7,0.6-1.7-0.3l-0.8-13.8
		c0-1.8,0.2-2.1,1.1-2.6h0.2l1.1-0.2c0.2,0,0.2,0,0.2-0.3s0-0.6-0.2-0.8c-0.2-0.1-0.2,0-0.2,0c-2.3,0.6-4.6,1.4-6.8,2.3l0,0
		c0,0-0.3,0-0.3,0.2c-0.1,0.2-0.1,0.4,0,0.5c0,0,0,0.2,0.2,0.2c0.2,0,0.7-0.3,0.9-0.5h0.2c1.1-0.2,1.4,0,1.4,1.3L348.2,323.6z"/>
	<path id="XMLID_22_" class="st3" d="M420.3,305.9l1.5-2.3c0.9-1.7,4.6-5.3,5.3-5.2c0.3,0,0.5,0.1,0.7,0.2c0,0.4,0.4,0.7,0.8,0.7
		l0,0c0.6-0.1,1.1-0.6,1.1-1.2c0,0,0,0.4,0,0c0.1-0.6-0.3-1.2-1-1.3c-1.3-0.4-4.1,2.3-5.3,3.7c0.8-1.1,1.3-2.4,1.7-3.7
		c0.1-0.4-0.1-0.8-0.5-1.1c-1.6,0-3.1,0.6-4.4,1.6l0.2,0.8c0.5-0.3,2-1.6,2.4-1.3c0.4,0.2-1.3,3.6-1.9,4.8s-2,3.6-2.2,3.9
		c-0.2,0.4,0,0.4,0,0.5L420.3,305.9z"/>
	<path id="XMLID_19_" class="st3" d="M409.4,301c-0.6,0.8-1.5,1.4-2.4,1.8c-0.5,0-0.9,0-1-0.8c0.3-2.6,1.5-5.1,3.4-7
		c2.1-1.9,3.2-0.7,3.2,0.4c0.1,0.8-0.1,1.5-0.6,2.2C411.2,298.8,410.3,299.9,409.4,301 M415.4,293.4c0,0,0-0.2,0-0.2c0,0-1,0-1.2,0
		c-0.2,0-0.5,0.8-0.5,0.8s-0.7-1-2.2-1.1c-0.9,0.1-1.7,0.5-2.4,1.1c-2.7,2.1-4.5,5.2-4.8,8.6c-0.1,0.8,0.6,1.5,1.4,1.6
		c0,0,0.1,0,0.1,0c1,0.3,2.4-1.1,3.6-2.1c0.7-0.7,1.2-1.4,1.8-2.2h0.2c-0.6,1.3-1,2.7-1.2,4.2c0,0.3,0.4,0.5,1,0.4
		c1.5-0.5,2.7-1.5,3.6-2.8c0.1-0.2,0-0.4-0.2-0.5h-0.2c-0.3,0-1.5,1.7-1.9,1.8c-0.5,0.2-0.3-0.3-0.3-0.5s3.2-8,3.4-9.2"/>
	<path id="XMLID_18_" class="st3" d="M385.4,290.5c-0.2-0.1-0.5-0.2-0.7-0.3c-0.6,0.1-1.1,0.3-1.7,0.5c-1.7,0.5-2.2,0.3-2.4,0.5
		c-0.1,0.4-0.1,0.9,0,1.3c0.3,0.2,1.2-0.5,1.2-0.5c1-0.3,1,0.3,1,0.8s0.7,12,0.7,13.9c0.1,1.2-0.7,2.2-1.8,2.3c0,0-0.1,0-0.1,0
		c0,0-0.2,0-0.2,0c-0.1,0.2-0.1,0.5,0,0.8c0,0,0.2,0,0.2,0c0.1,0,1-0.3,2.7-0.8c0.8-0.3,1.6-0.4,2.4-0.5c0.1-0.1,0.2-0.2,0.3-0.3
		c0-0.3-0.1-0.6-0.3-0.8c-0.6-0.3-1.8,0.7-2.2-1.3c0-0.8-0.5-6.3-0.5-6.8c-0.2-2.3-0.3-4.7-0.3-7c0,0,2.4,5.5,2.9,6.5
		c0,0.3,3.2,7.9,3.2,7.9s0.3,0.5,0.5,0.5c0.9-2.8,1.6-5.7,2.2-8.6c0-0.3,2.4-9.2,2.7-9.7s0.6,6.1,0.7,8.1c0.1,2,0.2,6.5,0.2,6.8
		s0,1-0.5,1c-0.5,0.1-1.3,0.2-1.5,0.5c-0.1,0.3-0.1,0.5,0,0.8c0.2,0.2,1.2-0.2,3.2-0.8c0.9-0.2,1.8-0.4,2.7-0.5c0.3,0,0.4-1,0.2-1
		c-0.5,0-1,0.1-1.5,0.2c-0.5,0.2-0.7-0.2-0.7-1.3c0-0.5-0.3-4.7-0.5-6c-0.2-2-0.5-7.1-0.5-8.1c0-0.5,0-1,0.5-1c0.3,0,0.6-0.1,1-0.3
		c0.1-0.1,0.2-0.2,0.2-0.3c0-0.2,0-0.3,0-0.5c0-0.3,0-0.4-0.2-0.3c-0.5,0.2-1,0.4-1.5,0.5l-1.5,0.4c-0.2,0-0.4,0.1-0.6,0.2
		c-0.2,0.1-0.4,0.3-0.5,0.5c-0.2,0.5-1.7,7.3-1.7,7.5c0,0.2-1.7,7.1-1.9,7.6C390.7,303,385.7,290.8,385.4,290.5"/>
	<path id="XMLID_15_" class="st3" d="M436.3,305c-1.2,0-2.3-0.3-3.4-0.8c0,0,0.8-1.6,3-1.8s3.1,1.1,3.1,1.6s-1.7,1.1-2.9,1.1
		 M441,303.9c0-0.3-0.1-0.6-0.3-0.8c-1.3-1.3-3.1-1.9-4.9-1.8c-0.5,0-5.4,0.2-6.3,4.2c-0.3,1.6,0.7,3.4,3.1,4.4
		c1.1,0.4,2.2,0.6,3.4,0.5c0.8,0,1.7-0.1,2.4-0.5l-0.4-0.9c-0.6,0.2-1.3,0.3-1.9,0.3c-2.1,0-4.2-0.8-4.3-2.7
		c-0.1-0.8,0.2-1.5,0.7-2.1c1.1,0.6,2.4,1,3.7,1.2c0.6,0,1.2,0,1.8,0c1,0.1,2.1-0.3,2.8-1c0.2-0.3,0.3-0.7,0.3-1.1"/>
	<path id="XMLID_12_" class="st3" d="M447.2,310.7c-1.2,0-2.3-0.3-3.4-0.8c0,0,0.8-1.6,3.1-1.8s3.1,1,3.1,1.6c0,0.5-1.7,1-2.9,1
		 M452.1,309.6c0-0.3-0.1-0.6-0.3-0.8c-1.3-1.3-3.1-1.9-4.9-1.8c-0.5,0-5.4,0.2-6.3,4.2c-0.3,1.6,0.7,3.4,3.1,4.4
		c1.1,0.4,2.2,0.6,3.4,0.5c0.8,0,1.7-0.1,2.4-0.5l-0.5-0.8c-0.6,0.2-1.3,0.3-1.9,0.3c-2.1,0-4.2-0.8-4.3-2.7c-0.1-0.7,0.2-1.5,0.7-2
		c1.1,0.6,2.4,1,3.7,1.2c0.6,0,1.2,0,1.8,0c1,0.1,2-0.3,2.8-1C452,310.3,452.1,309.9,452.1,309.6"/>
</g>
<path id="cicrle" class="st4" d="M471.5,319.1c-1.9,0-3.4-1.5-3.4-3.4c0-1.9,1.5-3.4,3.4-3.4c1.9,0,3.4,1.5,3.4,3.4
	C474.9,317.6,473.3,319.1,471.5,319.1 M397.3,381.6c-36.7,0-66.4-29.7-66.4-66.4s29.7-66.4,66.4-66.4s66.4,29.7,66.4,66.4l0,0
	C463.7,351.9,434,381.6,397.3,381.6 M450.3,371c-2,0-3.6-1.6-3.6-3.6s1.6-3.6,3.6-3.6c2,0,3.6,1.6,3.6,3.6
	C453.9,369.4,452.3,371,450.3,371C450.3,371,450.3,371,450.3,371 M399.3,392.7c-1.9,0-3.4-1.5-3.4-3.4c0-1.9,1.5-3.4,3.4-3.4
	c1.9,0,3.4,1.5,3.4,3.4C402.7,391.1,401.2,392.7,399.3,392.7 M346.3,372.5c-1.9,0-3.4-1.5-3.4-3.4c0-1.9,1.5-3.4,3.4-3.4
	c1.9,0,3.4,1.5,3.4,3.4C349.7,370.9,348.2,372.5,346.3,372.5 M323.1,320.4c-1.9-0.1-3.3-1.7-3.2-3.6c0.1-1.9,1.7-3.3,3.6-3.2
	c1.8,0.1,3.2,1.6,3.2,3.4c0,1.9-1.5,3.4-3.4,3.4C323.2,320.4,323.1,320.4,323.1,320.4 M342.6,260.4c1.9,0,3.4,1.5,3.4,3.4
	s-1.5,3.4-3.4,3.4c-1.9,0-3.4-1.5-3.4-3.4S340.7,260.4,342.6,260.4 M395.5,237.3c1.9,0,3.4,1.5,3.4,3.4s-1.5,3.4-3.4,3.4
	c-1.9,0-3.4-1.5-3.4-3.4S393.6,237.3,395.5,237.3 M449.3,259.2c1.9,0,3.4,1.5,3.4,3.4c0,1.9-1.5,3.4-3.4,3.4c-1.9,0-3.4-1.5-3.4-3.4
	C445.9,260.7,447.4,259.2,449.3,259.2 M397.5,233.6c-45-0.1-81.7,36.3-81.8,81.4c-0.1,45,36.3,81.7,81.4,81.8
	c45,0.1,81.7-36.3,81.8-81.4C479,270.3,442.5,233.7,397.5,233.6L397.5,233.6"/>
<path id="sea" class="st4" d="M452.9,333.5c-16.8,52.5-92.4,52.9-111.4,0.5c0.1,0.3,0.2,0.6,0.5,0.8c3.1,4.2,7,3.7,11.4,3.7
	c5.8-0.7,11.4-2.7,16.4-5.7c13.6-7,25.2-13.8,38.1-14.5c12.6-1.3,22.7,7.1,27.2,10.5c5.8,4.5,17.2,4.5,17.6,4.7"/>
<circle class="st4" cx="180.4" cy="309.3" r="2.3"/>
<circle class="st4" cx="138.4" cy="335.3" r="2.3"/>
<circle class="st4" cx="95.2" cy="362" r="1.5"/>
<circle class="st4" cx="246.4" cy="378.3" r="1.8"/>
<circle class="st4" cx="480.8" cy="292.9" r="3.1"/>
<circle class="st4" cx="496.7" cy="339" r="1.5"/>
<circle class="st4" cx="430.7" cy="373.9" r="2.6"/>
<circle class="st4" cx="236.8" cy="304.4" r="1.8"/>
<g>
	<g>
		<path class="st5" d="M469.9,326.1c-3.1,0.8-6.1,4.1-8.5,6.4c-5.3,5.1-1.4,2-1.2,5.2c0.3,4,0,9.9,4,12.6
			c10.6,6.8,26.3-7.5,21.1-18.7C483,326.5,473.1,322.7,469.9,326.1z"/>
		<path class="st5" d="M470.9,326.7c-3.4-3.6,4.4-4.3,6.2-4.9c3.7-1.2,8.9-2.2,7.1-6.4c-2.8-6.5-17.9-5-13.7-12.3
			c1.4-2.5,6.9-5.3,9.5-2.9c1.7,1.7,0.2,3.7,0.7,5.7c0.7,2.5,0.1,1.8,2.7,4.3c4.8,4.7,19.9,5.9,14.7,15.3
			c-1.4,2.5-10.1,11.4-12.9,12.1c-5.6,1.4-5.5-3.3-7.9-6.4c-1.3-1.7-4.3-3.3-5.9-4.5C470.8,326.9,470.6,327.5,470.9,326.7z"/>
		<path class="st5" d="M460.6,338.4c-3.2,5.2-9.3,13.2-9.6,19.8c2.9-0.3,6.7,1.2,10.5,0.6c3.2-0.5,6.3-3.5,8.9-5.7
			C478.1,346.8,462.1,337.8,460.6,338.4z"/>
		<polygon class="st5" points="399.4,339 398.2,345.4 457.2,362 457.5,356.6 		"/>
		<polygon class="st5" points="453.7,362.4 400.9,351.7 400.6,356.8 456.8,369.2 457.1,363.3 		"/>
		<path class="st5" d="M398.4,344.7c-1.2,0.2-3.3,1.3-4.5,0.7c-1.2-0.5-1.9-2,0.1-2.3c-2.6-0.3-8.5-3.5-8.5-6.4c0-2.9,4-2.1,5.9-1.8
			c2.2,0.4,5.3,2,6.8,3.6C399.7,340.2,399.4,342.9,398.4,344.7z"/>
		<path class="st5" d="M401.1,353c-0.2-0.1-6.2-4.5-4.4-1c-2.3-2-15.4-5.3-11.2,1.4c2.9,4.7,11.6,4,16.1,2.8c0.2-1,0-2-0.1-3
			C401.2,353.1,401,353.3,401.1,353z"/>
		<path class="st5" d="M454.5,357.1c-0.6,4.4-6,8.7-7.8,12.8c-1.6,3.4-4.2,6.5-4.6,10.2c-2.4,0-2.2,4-2.5,5.7c1.4,0.3,1.2,5.5,1.6,7
			c0.8,2.8,0.5,5.6,2.4,8c2.1,2.7,5.4,3.5,8.7,4.4c6,1.6,9.7,4.7,15.9,1.6c4-2,8.2-3.1,11.2-6.7c2.6-3.1,3.7-8.7,3.4-12.8
			c-0.4-4.9-3.4-8.6-3.1-13.7c0.2-4.7-1.4-8.1-2.9-12.4c-0.8-2.4-0.7-6.9-2.9-8.5c-3.6-2.6-10.3,2.4-13.5,3.8
			c-1.9,0.8-3.4,0.8-5.5,0.7C454.6,357.8,454.4,358.2,454.5,357.1z"/>
		<path class="st5" d="M442.5,391.6c-0.3-0.6-6.2-0.9-6.9-1c-5-0.7-10-1.4-15-2.1c-5-0.7-9.9-1.4-14.9-2.1c-0.9-0.1-4.1-1.1-4.9-0.6
			c-2.2,1.3,1.3,6.1-2.3,7.6c-2.4,1.1-7.4-0.3-10-0.6c0-1.9-0.1-4.2,0.6-6c0.5,0.1,1.2-0.1,1.6,0c0.8-4.1,2.9-17,8.1-17.6
			c4.5-0.5,5,5,4.7,8.1c-0.4,3.3-2.9,5.8-3.5,9c-0.4,2.1-0.2,4.4-0.3,6.6l45.8,5C445.5,397.8,442.5,391.6,442.5,391.6z"/>
		<path class="st5" d="M448.2,396.1c-0.5-0.5-6,1.8-6.6,2c-4.8,1.4-9.7,2.9-14.5,4.3c-4.8,1.4-9.6,2.9-14.4,4.3
			c-0.9,0.3-4.2,0.7-4.7,1.5c-1.4,2.1,3.7,5,1.1,7.9c-1.8,2-6.8,2.8-9.3,3.7c-0.8-1.7-1.9-3.8-2-5.7c0.5-0.1,1-0.6,1.5-0.7
			c-1-4-4.5-16.6,0-19.4c3.8-2.4,6.7,2.4,7.6,5.4c1,3.2-0.2,6.5,0.6,9.7c0.5,2.1,1.7,4.1,2.4,6.1l43.6-14.7
			C453.5,400.5,448.2,396.1,448.2,396.1z"/>
	</g>
	<g>
		<g>
			<path class="st5" d="M540.9,386.3c-6.6,1.6-16.2,12.3-26.5,29.9c-10.3,17.5-18.1,36-18.2,36.1l-1.4,3.4l-118.2-23.5
				c-2.5-0.5-4.1-2.9-3.6-5.4c0.5-2.5,2.9-4.1,5.4-3.6l110.9,22.1c2.8-6.3,9.2-20.1,17.2-33.7c15.4-26.2,28.5-37.3,40-34.1
				c10.5,3,15.9,5.9,18.7,10.2c3,4.5,2.2,9.5,1.5,14.7c-0.2,1.4-0.4,2.8-0.6,4.4c-0.3,2.5-2.6,4.3-5.1,4c-2.5-0.3-4.3-2.5-4-5.1
				c0.2-1.7,0.4-3.3,0.6-4.7c1.9-12.7-7-9.7-14.8-16.3c-6-5.1-11.7-16.9-5.8-24.1c2.4-2.9,15.3-5.3,19.4-1.9
				c7.5,6.2,0.9,13.7-0.8,20.1c-2.8,10.4,2.7,18.6,8.2,28.4c14,25,27.6,48.4,9.1,74.7c-23.2,32.9-64.3-2-66.9-31.6
				c-1.6-19,2.8-35.4,16.7-48.5c6.4-6.1,20.9-14,19.3-24.4c-1.3-0.5-4.2-1.2-4-1.2"/>
		</g>
	</g>
	<g>
		<path class="st5" d="M370.3,458.8c-7.1-0.4-8.9-5.4-10.4-9.6c-0.8-2.3-1.6-4.4-3.1-5.8c-0.8-0.8-0.9-2.1-0.1-2.9
			c0.8-0.8,2.1-0.9,2.9-0.1c2.2,2.1,3.2,4.9,4.1,7.4c1.7,4.7,2.8,7.8,10.2,6.7c4-0.6,11.2-5.9,14.5-11.7c1-1.9,2.1-4.5,1.1-6.8
			c-0.4-1,0-2.2,1.1-2.7c1-0.4,2.2,0,2.7,1.1c1.3,3,0.8,6.5-1.3,10.3c-3.6,6.5-11.6,12.8-17.4,13.7
			C372.9,458.8,371.5,458.9,370.3,458.8z"/>
	</g>
	<g>
		<path class="st5" d="M463.8,479.3c-5.8-0.3-12.9-3-16.3-6.7c-2.4-2.7-3-5.7-1.5-8.6c0.5-1,1.7-1.4,2.7-0.9c1,0.5,1.4,1.7,0.9,2.7
			c-0.4,0.8-0.8,2.1,0.9,4c3.8,4.1,13.5,6.5,17.3,5c7.1-2.9,15.6-16.5,15.4-24.7c0-1.1,0.9-2.1,2-2.1c1.1,0,2.1,0.9,2.1,2
			c0.2,10.1-9.1,25-17.9,28.6C467.8,479.2,465.9,479.5,463.8,479.3z"/>
	</g>
	<g>
		<path class="st5" d="M375,442.5c-2.4-0.1-4.8-1.2-6.6-3c-3.9-3.8-3.4-9.3-3-13.8c0.1-0.9,0.1-1.7,0.2-2.4c0.1-1.1,1-2,2.1-1.9
			c0,0,0,0,0,0c1.1,0.1,2,1,1.9,2.1c0,0.8-0.1,1.7-0.2,2.6c-0.3,4-0.7,8.1,1.8,10.5c1.7,1.7,4,2.2,6.2,1.5c2.3-0.7,4-2.6,4.4-5.1
			c0.2-1.1,1.3-1.8,2.4-1.6c1.1,0.2,1.8,1.3,1.6,2.4c-0.7,3.9-3.5,7.1-7.2,8.3C377.4,442.4,376.2,442.5,375,442.5z"/>
	</g>
	<g>
		<path class="st5" d="M458.5,463.1c-1.2-0.1-2.3-0.3-3.3-0.6c-3.6-1.2-5.7-4-5.9-8c0-1.1,0.8-2.1,1.9-2.1c1.1,0,2.1,0.8,2.1,1.9
			c0.1,2.2,1.1,3.6,3.1,4.3c4.4,1.4,11.9-0.9,14.9-4.7c1.6-2,1.1-3.3,0.6-4.2c-0.6-1-0.2-2.2,0.7-2.8c1-0.6,2.2-0.2,2.8,0.7
			c1.6,2.8,1.3,6-0.9,8.8C471.2,460.7,464.2,463.4,458.5,463.1z"/>
	</g>
	<g>
		<path class="st5" d="M138.2,303.9c-6.5,0.4-12.6,5.2-19.4,5.9c-3.7,0.4-17.6,0.3-10.1,7.5c5.9,27.2,49.9,18.9,55.2-4.9
			c1.5-7,6.5-19.1-0.6-24.2c-3.9,3-4.6,8.6-8.2,11.4c-2.8-0.9-6-0.8-9.1-1.1c0.5-5.9-1.5-9.9-7-12
			C136.5,292,134.3,299.2,138.2,303.9z"/>
		<g>
			<path class="st5" d="M148,301.7L148,301.7c-0.8,0-1.4-0.7-1.4-1.5c0.7-13.6-4-27.3-13.7-39.5c-3.7-4.6-8.5-8.1-13.1-11.6
				c-4.5-3.3-9.2-6.8-13-11.3c-1.9-2.3-3.7-5.1-4.7-7.6c-0.2-0.5-0.4-1.1-0.5-1.7c-0.1-0.4-0.3-1.3-0.5-1.5
				c-0.8-0.1-1.3-0.9-1.2-1.6c0.1-0.8,0.9-1.3,1.7-1.2c2,0.3,2.5,2.4,2.8,3.7c0.1,0.4,0.2,0.9,0.3,1.2c0.9,2.2,2.6,4.8,4.3,6.9
				c3.5,4.2,7.9,7.4,12.5,10.8c4.8,3.5,9.7,7.2,13.7,12.1c10.1,12.8,15.1,27.1,14.3,41.5C149.5,301.1,148.8,301.8,148,301.7z"/>
		</g>
		<g>
			<path class="st5" d="M131.4,258.4c-0.1,0-0.3,0-0.4-0.1c-2.1-0.7-2.9-4.6-4.5-14.6c-0.6-3.8-1.5-9.2-2.3-11.2
				c-0.4,0.2-0.9,0.1-1.3-0.2c-0.7-0.5-0.8-1.4-0.4-2c0.8-1.3,1.8-1.2,2.3-1.1c2.1,0.5,2.9,4,4.5,14c0.7,4.2,1.8,11.2,2.8,12.4
				c0.6,0.3,1,1.1,0.7,1.8C132.7,258,132.1,258.4,131.4,258.4z"/>
		</g>
		<g>
			<path class="st5" d="M123.3,251.3c-0.3,0-0.6-0.1-0.8-0.3c-2-1.7-5.3-2-8.8-2.3c-3.3-0.3-6.8-0.7-9.4-2.3
				c-0.7-0.4-1.5-1.3-2.8-2.6c-1-1.1-3.1-3.3-3.9-3.4c-0.8-0.1-1.4-0.8-1.3-1.6c0.1-0.8,0.8-1.4,1.6-1.3c1.6,0.2,3.3,1.8,5.7,4.3
				c0.8,0.8,1.8,1.9,2.2,2.1c2.1,1.3,5.2,1.6,8.2,1.9c3.8,0.4,7.6,0.7,10.3,3c0.6,0.5,0.7,1.4,0.2,2
				C124.2,251.1,123.7,251.3,123.3,251.3z"/>
		</g>
		<g>
			<path class="st5" d="M144,278.3c-0.6,0-1.1-0.4-1.3-1c-1.8-5,0.6-9.9,2.9-14.6c2.3-4.8,4.5-9.3,2.5-13.7c-0.3-0.7,0-1.6,0.7-1.9
				c0.7-0.3,1.6,0,1.9,0.7c2.6,5.6,0,11-2.5,16.1c-2.1,4.4-4.1,8.6-2.7,12.4c0.3,0.8-0.1,1.6-0.9,1.9
				C144.4,278.3,144.2,278.3,144,278.3z"/>
		</g>
		<g>
			<path class="st5" d="M139.7,269.7c-0.2,0-0.3,0-0.5-0.1c-2.8-1.2-6.8-1.6-10.7-2c-4.2-0.4-8.6-0.8-11.9-2.3
				c-0.7-0.3-1.1-1.2-0.7-1.9c0.3-0.7,1.2-1.1,1.9-0.7c2.8,1.3,7,1.7,11,2.1c4.1,0.4,8.4,0.8,11.6,2.2c0.7,0.3,1.1,1.2,0.8,1.9
				C140.9,269.4,140.3,269.7,139.7,269.7z"/>
		</g>
		<g>
			<path class="st5" d="M154.1,301.8c-0.4,0-0.8-0.2-1.1-0.5c-1.7-2-0.4-6.7,2.6-14.5c0.3-0.8,0.6-1.6,0.7-2
				c3.1-9.1,8.1-15.5,14.7-22.2c3.7-3.8,7.8-7,11.7-10.1c2.4-1.9,4.8-3.8,7.2-5.8c4.1-3.5,5.8-7.3,7.8-11.6c1-2.1,2-4.4,3.4-6.7
				c0.4-0.7,1.3-0.9,2-0.5c0.7,0.4,0.9,1.3,0.5,2c-1.3,2.2-2.3,4.4-3.2,6.4c-2,4.5-3.9,8.7-8.5,12.6c-2.4,2.1-4.9,4-7.3,5.9
				c-3.9,3-7.9,6.2-11.4,9.8c-6.3,6.4-11.1,12.5-14,21.1c-0.2,0.5-0.4,1.2-0.8,2.1c-2.6,6.8-3.6,10.7-3,11.6c0.5,0.6,0.4,1.5-0.2,2
				C154.8,301.7,154.4,301.8,154.1,301.8z"/>
		</g>
		<g>
			<path class="st5" d="M189.6,250.2c-0.2,0-0.4-0.1-0.6-0.2c-0.7-0.4-0.9-1.2-0.6-1.9c0.2-0.8,0.2-4.5,0.2-7.5
				c0-9.8,0.2-12.6,1.5-13.6c0.5-0.3,1-0.4,1.6-0.3c0.8,0.2,1.2,1.1,0.9,1.8c-0.1,0.4-0.4,0.6-0.7,0.8c-0.5,1.7-0.5,7.6-0.5,11.2
				c0,6.3-0.1,8-0.5,8.8C190.7,249.9,190.2,250.2,189.6,250.2z"/>
		</g>
		<g>
			<path class="st5" d="M184.6,254.2c-0.8,0-1.4-0.7-1.4-1.5c0-0.8,0.7-1.4,1.5-1.4c1.3,0,2.5,0.1,3.7,0.1c7,0.3,12.5,0.5,18.3-4.3
				c0.6-0.5,1.5-0.4,2,0.2c0.5,0.6,0.4,1.5-0.2,2c-6.6,5.5-12.9,5.3-20.2,5C187.2,254.3,185.9,254.2,184.6,254.2
				C184.7,254.2,184.6,254.2,184.6,254.2z"/>
		</g>
		<g>
			<path class="st5" d="M169.5,267c-0.8,0-1.4-0.7-1.4-1.5c0-0.9,0-1.9,0-3c0-3.4,0-7.2,1.3-10.7c0.3-0.8,1.1-1.1,1.9-0.9
				c0.8,0.3,1.1,1.1,0.9,1.9c-1.1,3.1-1.1,6.6-1.1,9.7c0,1.1,0,2.1,0,3.1C171,266.5,170.3,267.1,169.5,267
				C169.5,267,169.5,267,169.5,267z"/>
		</g>
		<g>
			<path class="st5" d="M171.8,279.4c-2.9-0.2-5.8-1-9.9-3.1c-0.7-0.4-1-1.2-0.6-2c0.4-0.7,1.2-1,2-0.6c7.3,3.8,10.2,3.2,17.8,1.5
				l1.5-0.3c0.8-0.2,1.6,0.3,1.7,1.1c0.2,0.8-0.3,1.6-1.1,1.7l-1.5,0.3C177.7,278.9,174.8,279.5,171.8,279.4z"/>
		</g>
		<path class="st5" d="M143.5,327.2c1.7,5.8,1.4,11.6,0.9,17.9c-0.8,9.2,5.2,12.1,11.8,15.5c17.3,8.8,38.2,5.1,56-1.3
			c5.3-1.9,17.8-3.6,17.9-12.3c3.3-1.4,4.6-6,1.8-9.3c-1.9-2.2-2.9-1-2.7,2.3c-3.9-12.2-14-17.1-24.2-16.7
			c-6.1,0.2-11.4,2.6-17.1,5.3c-6.6,3.2-14.2,3.7-21.2,4.3c-7.4,0.6-10.5-4.9-15.8-9.6C146.2,318.7,146.7,327.1,143.5,327.2z"/>
		<path class="st5" d="M144.4,345c0,0-30.9-10.8-32.7-4.9c-1.8,6,11.4,30.8,21.3,37.6l8.3-7.5L122.1,348l25.8,4.7L144.4,345z"/>
		<path class="st5" d="M154,355.9l-20.2,7.5c0,0,1.4,15.7,21.4,24.2l3.8-8.5l-13.3-11.5l14.5-11.3L154,355.9z"/>
		<path class="st5" d="M210.8,345.6l16.5,12.1l-5.6,37.1l13.2-3.8l-1.5-33.3c-0.1-1.1-0.5-2.2-1.4-3L217.5,341L210.8,345.6z"/>
		<path class="st5" d="M207.3,354l7.2,11.1l-12.9,25.2l9.9-2.7l10.3-23.4c0.6-1.3,0.4-2.9-0.6-4l-6.9-8.3L207.3,354z"/>
	</g>
	<g>
		<path class="st5" d="M47.3,339.7c-6.5,0.4-12.6,5.2-19.4,5.9c-3.7,0.4-17.6,0.3-10.1,7.5c5.9,27.2,49.9,18.9,55.2-4.9
			c1.5-7,6.5-19.1-0.6-24.2c-3.9,3-4.6,8.6-8.2,11.4c-2.8-0.9-6-0.8-9.1-1.1c0.5-5.9-1.5-9.9-7-12C45.7,327.9,43.4,335.1,47.3,339.7
			z"/>
		<g>
			<path class="st5" d="M57.1,337.6L57.1,337.6c-0.8,0-1.4-0.7-1.4-1.5c0.7-13.6-4-27.3-13.7-39.5c-3.7-4.6-8.5-8.1-13.1-11.6
				c-4.5-3.3-9.2-6.8-13-11.3c-1.9-2.3-3.7-5.1-4.7-7.6c-0.2-0.5-0.4-1.1-0.5-1.7c-0.1-0.4-0.3-1.3-0.5-1.5
				c-0.8-0.1-1.3-0.9-1.2-1.6c0.1-0.8,0.9-1.3,1.7-1.2c2,0.3,2.5,2.4,2.8,3.7c0.1,0.4,0.2,0.9,0.3,1.2c0.9,2.2,2.6,4.8,4.3,6.9
				c3.5,4.2,7.9,7.4,12.5,10.8c4.8,3.5,9.7,7.2,13.7,12.1c10.1,12.8,15.1,27.1,14.3,41.5C58.6,337,57.9,337.6,57.1,337.6z"/>
		</g>
		<g>
			<path class="st5" d="M40.6,294.3c-0.1,0-0.3,0-0.4-0.1c-2.1-0.7-2.9-4.6-4.5-14.6c-0.6-3.8-1.5-9.2-2.3-11.2
				c-0.4,0.2-0.9,0.1-1.3-0.2c-0.7-0.5-0.8-1.4-0.4-2c0.8-1.3,1.8-1.2,2.3-1.1c2.1,0.5,2.9,4,4.5,14c0.7,4.2,1.8,11.2,2.8,12.4
				c0.6,0.3,1,1.1,0.7,1.8C41.8,293.9,41.2,294.3,40.6,294.3z"/>
		</g>
		<g>
			<path class="st5" d="M32.4,287.2c-0.3,0-0.6-0.1-0.8-0.3c-2-1.7-5.3-2-8.8-2.3c-3.3-0.3-6.8-0.7-9.4-2.3
				c-0.7-0.4-1.5-1.3-2.8-2.6c-1-1.1-3.1-3.3-3.9-3.4c-0.8-0.1-1.4-0.8-1.3-1.6c0.1-0.8,0.8-1.4,1.6-1.3c1.6,0.2,3.3,1.8,5.7,4.3
				c0.8,0.8,1.8,1.9,2.2,2.1c2.1,1.3,5.2,1.6,8.2,1.9c3.8,0.4,7.6,0.7,10.3,3c0.6,0.5,0.7,1.4,0.2,2C33.3,287,32.9,287.2,32.4,287.2
				z"/>
		</g>
		<g>
			<path class="st5" d="M53.1,314.2c-0.6,0-1.1-0.4-1.3-1c-1.8-5,0.6-9.9,2.9-14.6c2.3-4.8,4.5-9.3,2.5-13.7c-0.3-0.7,0-1.6,0.7-1.9
				c0.7-0.3,1.6,0,1.9,0.7c2.6,5.6,0,11-2.5,16.1c-2.1,4.4-4.1,8.6-2.7,12.4c0.3,0.8-0.1,1.6-0.9,1.9
				C53.5,314.2,53.3,314.2,53.1,314.2z"/>
		</g>
		<g>
			<path class="st5" d="M48.9,305.5c-0.2,0-0.3,0-0.5-0.1c-2.8-1.2-6.8-1.6-10.7-2c-4.2-0.4-8.6-0.8-11.9-2.3
				c-0.7-0.3-1.1-1.2-0.7-1.9c0.3-0.7,1.2-1.1,1.9-0.7c2.8,1.3,7,1.7,11,2.1c4.1,0.4,8.4,0.8,11.6,2.2c0.7,0.3,1.1,1.2,0.8,1.9
				C50,305.2,49.5,305.6,48.9,305.5z"/>
		</g>
		<g>
			<path class="st5" d="M63.2,337.6c-0.4,0-0.8-0.2-1.1-0.5c-1.7-2-0.4-6.7,2.6-14.5c0.3-0.8,0.6-1.6,0.7-2
				c3.1-9.1,8.1-15.5,14.7-22.2c3.7-3.8,7.8-7,11.7-10.1c2.4-1.9,4.8-3.8,7.2-5.8c4.1-3.5,5.8-7.3,7.8-11.6c1-2.1,2-4.4,3.4-6.7
				c0.4-0.7,1.3-0.9,2-0.5c0.7,0.4,0.9,1.3,0.5,2c-1.3,2.2-2.3,4.4-3.2,6.4c-2,4.5-3.9,8.7-8.5,12.6c-2.4,2.1-4.9,4-7.3,5.9
				c-3.9,3-7.9,6.2-11.4,9.8c-6.3,6.4-11.1,12.5-14,21.1c-0.2,0.5-0.4,1.2-0.8,2.1c-2.6,6.8-3.6,10.7-3,11.6c0.5,0.6,0.4,1.5-0.2,2
				C63.9,337.5,63.6,337.7,63.2,337.6z"/>
		</g>
		<g>
			<path class="st5" d="M98.8,286c-0.2,0-0.4-0.1-0.6-0.2c-0.7-0.4-0.9-1.2-0.6-1.9c0.2-0.8,0.2-4.5,0.2-7.5
				c0-9.8,0.2-12.6,1.5-13.6c0.5-0.3,1-0.4,1.6-0.3c0.8,0.2,1.2,1.1,0.9,1.8c-0.1,0.4-0.4,0.6-0.7,0.8c-0.5,1.7-0.5,7.6-0.5,11.2
				c0,6.3-0.1,8-0.5,8.8C99.8,285.8,99.3,286.1,98.8,286z"/>
		</g>
		<g>
			<path class="st5" d="M93.8,290.1c-0.8,0-1.4-0.7-1.4-1.5c0-0.8,0.7-1.4,1.5-1.4c1.3,0,2.5,0.1,3.7,0.1c7,0.3,12.5,0.5,18.3-4.3
				c0.6-0.5,1.5-0.4,2,0.2c0.5,0.6,0.4,1.5-0.2,2c-6.6,5.5-12.9,5.3-20.2,5C96.3,290.1,95.1,290.1,93.8,290.1
				C93.8,290.1,93.8,290.1,93.8,290.1z"/>
		</g>
		<g>
			<path class="st5" d="M78.6,302.9c-0.8,0-1.4-0.7-1.4-1.5c0-0.9,0-1.9,0-3c0-3.4,0-7.2,1.3-10.7c0.3-0.8,1.1-1.1,1.9-0.9
				c0.8,0.3,1.1,1.1,0.9,1.9c-1.1,3.1-1.1,6.6-1.1,9.7c0,1.1,0,2.1,0,3.1C80.1,302.3,79.4,302.9,78.6,302.9
				C78.6,302.9,78.6,302.9,78.6,302.9z"/>
		</g>
		<g>
			<path class="st5" d="M80.9,315.2c-2.9-0.2-5.8-1-9.9-3.1c-0.7-0.4-1-1.2-0.6-2c0.4-0.7,1.2-1,2-0.6c7.3,3.8,10.2,3.2,17.8,1.5
				l1.5-0.3c0.8-0.2,1.6,0.3,1.7,1.1c0.2,0.8-0.3,1.6-1.1,1.7l-1.5,0.3C86.9,314.8,83.9,315.4,80.9,315.2z"/>
		</g>
		<path class="st5" d="M52.7,363c1.7,5.8,1.4,11.6,0.9,17.9c-0.8,9.2,5.2,12.1,11.8,15.5c17.3,8.8,38.2,5.1,56-1.3
			c5.3-1.9,17.8-3.6,17.9-12.3c3.3-1.4,4.6-6,1.8-9.3c-1.9-2.2-2.9-1-2.7,2.3c-3.9-12.2-14-17.1-24.2-16.7
			c-6.1,0.2-11.4,2.6-17.1,5.3c-6.6,3.2-14.2,3.7-21.2,4.3c-7.4,0.6-10.5-4.9-15.8-9.6C55.3,354.5,55.8,362.9,52.7,363z"/>
		<path class="st5" d="M53.5,380.9c0,0-30.9-10.8-32.7-4.9c-1.8,6,11.4,30.8,21.3,37.6l8.3-7.5l-19.2-22.2l25.8,4.7L53.5,380.9z"/>
		<path class="st5" d="M63.1,391.8l-20.2,7.5c0,0,1.4,15.7,21.4,24.2l3.8-8.5l-13.3-11.5l14.5-11.3L63.1,391.8z"/>
		<path class="st5" d="M120,381.5l16.5,12.1l-5.6,37.1l13.2-3.8l-1.5-33.3c-0.1-1.1-0.5-2.2-1.4-3l-14.5-13.7L120,381.5z"/>
		<path class="st5" d="M116.5,389.9l7.2,11.1l-12.9,25.2l9.9-2.7L131,400c0.6-1.3,0.4-2.9-0.6-4l-6.9-8.3L116.5,389.9z"/>
	</g>
	<line class="st5" x1="387.5" y1="334.5" x2="153.3" y2="327.5"/>
	<line class="st5" x1="385.5" y1="353.5" x2="62.4" y2="363.4"/>
	<polygon class="st5" points="385.9,326.6 382.1,360.6 387.6,360.9 391.9,327 	"/>
</g>
<line class="st5" x1="376.6" y1="432.2" x2="153.3" y2="341"/>
<line class="st5" x1="384.2" y1="431.4" x2="68.6" y2="376.9"/>
</svg>
