<?xml version="1.0" encoding="utf-8"?>
<!-- Generator: Adobe Illustrator 19.0.0, SVG Export Plug-In . SVG Version: 6.00 Build 0)  -->
<svg version="1.1" id="Layer_1" xmlns="http://www.w3.org/2000/svg" xmlns:xlink="http://www.w3.org/1999/xlink" x="0px" y="0px"
	 viewBox="302 -180.1 1200 1200" style="enable-background:new 302 -180.1 1200 1200;" xml:space="preserve">
<style type="text/css">
	.st0{fill:#FCD2D2;}
	.st1{fill:#FFFFFF;}
	.st2{fill:#006FC5;}
</style>
<ellipse class="st0" cx="849" cy="364.9" rx="240" ry="256.8"/>
<g>
	<path class="st1" d="M1020.4,705.9c46.3-60.2,17.8-148,17.8-148s90.5-27.8,82.3-115.2c0,0-15.2,41.8-69.6,44.9
		c0,0-37.3,0-73.4-25.9c0,0-97.4-62-123.4,5.1c0,0-18.3-48.1-74.7-24.7c0,0-58.2,23.4-74,35.4c0,0-83.5,36.1-115.2-33.5
		c0,0-24,75.9,79.7,112.6c0,0-17.4,53,14.6,133c23.2,57.9,155.2,141.3,180.6,280.2C867.5,854.1,974.1,766.1,1020.4,705.9z
		 M825,541.4c0,0,29.1-20.9,29.7-39.9c0,0,8.2,28.5,30.4,39.9C885.1,541.4,847.1,551.6,825,541.4z"/>
	<path class="st2" d="M651.9,154.4c18.2,39.3,188.5,56.4,244,68.8c71.6,15.9,140.7,13.8,164.5,9.8c23.8-4,6.8-71.6-25-143.1
		C1003.7,18.4,1019-39,1105-58.7c28.2-6.5-1.8-28.7-1.8-28.7S986.8-107,908-92.7C824.3-77.5,801.1-37.3,732.5,21.9
		C635.7,105.3,669.4,192.2,651.9,154.4z"/>
	<path class="st1" d="M1210.5-105.5c-12.3-22.6-40.2-31.2-62.3-19.1c-22.2,12-30.2,40.1-17.9,62.7c12.3,22.6,40.2,31.2,62.4,19.1
		C1214.7-54.9,1222.7-82.9,1210.5-105.5z"/>
	<path class="st1" d="M1108.5,249.1c26.2-71.5-37.6-37.4-37.6-37.4c-80.5,34.2-430.4-51.4-430.4-51.4
		c-49.1-46.8-40.4,56.1-40.4,56.1c0.1,54.4,35.9,68.3,51.8,66.4c15.9-2,280.3-13.9,385.6,11.9c0,0,63.6,27.8,67.6,2
		C1109.1,270.8,1108.5,249.1,1108.5,249.1z"/>
</g>
</svg>
