<svg version="1.1" id="Layer_1" xmlns="http://www.w3.org/2000/svg" xmlns:xlink="http://www.w3.org/1999/xlink" x="0px" y="0px" viewBox="0 0 1200 1200" enable-background="new 0 0 1200 1200" xml:space="preserve">
<g>
	<path fill="#C9C8C8" d="M718.375,885.989c46.318-60.217,17.848-147.992,17.848-147.992s90.493-27.839,82.261-115.176
		c0,0-15.18,41.774-69.606,44.931c0,0-37.337,0-73.408-25.945c0,0-97.409-62.005-123.379,5.069c0,0-18.347-48.099-74.671-24.679
		c0,0-58.228,23.416-74.036,35.44c0,0-83.546,36.075-115.186-33.542c0,0-24.04,75.941,79.739,112.64
		c0,0-17.373,53.018,14.636,133.042c23.161,57.896,155.162,141.27,180.64,280.224C565.522,1034.204,672.057,946.203,718.375,885.989
		z M522.963,721.551c0,0,29.112-20.887,29.74-39.866c0,0,8.228,28.474,30.375,39.866
		C583.078,721.551,545.109,731.681,522.963,721.551z" style="fill: rgb(255, 255, 255);"></path>
	<path fill="#D6352B" d="M349.891,334.544c18.15,39.308,188.457,56.419,244.046,68.774c71.555,15.899,140.661,13.797,164.515,9.82
		c23.85-3.974,6.838-71.551-24.967-143.113c-31.805-71.558-16.479-128.885,69.482-148.587c28.211-6.466-1.792-28.655-1.792-28.655
		s-116.402-19.7-195.193-5.37c-83.71,15.219-106.86,55.444-175.506,114.607C333.663,285.457,367.355,372.36,349.891,334.544z" style="fill: rgb(0, 111, 197);"></path>
	<path fill="#C9C8C8" d="M908.466,74.582c-12.268-22.6-40.184-31.167-62.345-19.136c-22.168,12.035-30.189,40.107-17.924,62.708
		c12.272,22.599,40.184,31.17,62.352,19.136C912.713,125.255,920.737,97.183,908.466,74.582z" style="fill: rgb(255, 255, 255);"></path>
	<path fill="#C9C8C8" d="M806.478,429.202c26.241-71.515-37.567-37.378-37.567-37.378c-80.499,34.196-430.441-51.415-430.441-51.415
		c-49.109-46.774-40.421,56.068-40.421,56.068c0.149,54.43,35.925,68.348,51.828,66.358c15.903-1.989,280.271-13.918,385.62,11.925
		c0,0,63.603,27.828,67.584,1.989C807.051,450.906,806.478,429.202,806.478,429.202z" style="fill: rgb(255, 255, 255);"></path>
</g>
</svg>