<?xml version="1.0" encoding="utf-8"?>
<!-- Generator: Adobe Illustrator 19.0.0, SVG Export Plug-In . SVG Version: 6.00 Build 0)  -->
<svg version="1.1" id="Layer_1" xmlns="http://www.w3.org/2000/svg" xmlns:xlink="http://www.w3.org/1999/xlink" x="0px" y="0px"
	 viewBox="0 0 5443 841.9" style="enable-background:new 0 0 5443 841.9;" xml:space="preserve">
<style type="text/css">
	.st0{fill:#C03630;}
	.st1{opacity:0.26;fill:#231F20;}
	.st2{fill:#FDF8EC;}
	.st3{fill:#EAEAEA;}
	.st4{fill:#8E1913;}
	.st5{fill:#FFFCF6;}
	.st6{fill:#798E42;}
	.st7{fill:#996514;}
	.st8{opacity:0.31;fill:#231F20;}
	.st9{fill:#8AA44F;}
	.st10{fill:#EDB418;}
	.st11{fill:#554014;}
	.st12{fill:#FDF8EC;fill-opacity:0.24;}
	.st13{fill:#FFFFFF;}
	.st14{clip-path:url(#XMLID_358_);fill:#366167;}
	.st15{opacity:0.25;clip-path:url(#XMLID_358_);fill:#231F20;}
	.st16{clip-path:url(#XMLID_358_);fill:#FFFFFF;}
	.st17{clip-path:url(#XMLID_358_);fill:#C4A474;}
	.st18{clip-path:url(#XMLID_358_);fill:#FED99C;}
	.st19{clip-path:url(#XMLID_358_);fill:#A76A33;}
	.st20{clip-path:url(#XMLID_358_);fill:#F9CC09;}
	.st21{clip-path:url(#XMLID_358_);fill:#231F20;fill-opacity:0.3;}
	.st22{clip-path:url(#XMLID_358_);}
	.st23{fill:#B86F15;}
	.st24{fill:#231F20;fill-opacity:0.3;}
	.st25{clip-path:url(#XMLID_358_);fill:#BD3B23;}
	.st26{clip-path:url(#XMLID_358_);fill:#F9F8F8;}
	.st27{fill:none;}
	.st28{fill:#FFF3D2;}
	.st29{fill:#DC615B;}
	.st30{fill:#CDA773;}
	.st31{fill:#B28C5F;}
	.st32{fill:#FED99C;}
	.st33{fill:#EAC081;}
	.st34{fill:#F5C789;}
	.st35{fill:#C2BDB9;}
	.st36{fill:#CF5A5A;}
	.st37{fill:#D37B38;}
	.st38{fill:#85512A;}
	.st39{fill:#F39D52;}
	.st40{fill:#6E4122;}
	.st41{fill:#BF7533;}
	.st42{fill:#B51917;}
	.st43{opacity:0.23;fill:#231F20;}
	.st44{fill:#7C9144;}
	.st45{fill:#B1CE5A;}
	.st46{fill:#DAC343;}
	.st47{opacity:0.28;fill:#554014;}
	.st48{fill:#A76A33;}
	.st49{fill:#5E3618;}
</style>
<g id="XMLID_57_">
	<path id="XMLID_55_" class="st0" d="M484.7,592.1c5.9-4,11.9-8.2,15.4-14.3c5.1-9,3.8-20.1,2.2-30.4
		C484,432.8,448.6,320.9,397.6,216.5c-2.3-4.6-4.9-9.5-9.5-11.7c-5.2-2.4-11.2-0.7-16.7,1c-55.7,17.8-111.5,35.5-167.2,53.3
		c24.2,86.1,48.4,172.1,72.6,258.2c-42.9,21.1-82.7,48.6-117.6,81.2c-18.2,16.9-36.1,37.8-36.3,62.6c-0.3,41.2,47.5,66.1,88.7,67.7
		c24.5,1,49.1-2.7,72.3-10.9c31.7-11.1,59.9-30.2,87.8-49.1C409.3,643.3,447,617.7,484.7,592.1z"/>
	<path id="XMLID_54_" class="st1" d="M207.3,278.3l12.3,35.9c0,0,58.8-20,99.4-35.9c25.9-10.1,38.5-11.8,53.3-11.8
		c14.8,0,44.9-7.6,44.9-7.6l-19.6-42.3L207.3,278.3z"/>
	<path id="XMLID_53_" class="st2" d="M417.2,148.1c14.6,21.5,22.4,55.6-13.5,83c-24.8,18.9-55.7,13.2-82.9,20.2
		c-44.6,11.5-147.9,73-165.3,16.6c-18.7-60.7,5.9-111,51.8-113.9C247.2,151.5,359.7,63.7,417.2,148.1z"/>
	<path id="XMLID_52_" class="st3" d="M179.2,272.4c0,0,33.3-2.2,52.5-10.4c19.2-8.1,62.9-31.1,86.6-33.3c23.7-2.2,58.3-1.1,68.8-6.7
		c10.5-5.5,26.2-23.7,30.1-24.4c3.9-0.7,9.4,3.8,9.4,3.8s-13.3,40.8-83.8,46.2c0,0-29.3,3.9-99.5,32.4c0,0-46,19.3-73.6,6.5
		C169.8,286.6,160.4,274.5,179.2,272.4z"/>
	<path id="XMLID_51_" class="st4" d="M168.4,587.6c0,0-69.1,48.8-41.4,101.5c0,0,24.1,54.8,128.4,38.1L168.4,587.6z"/>
	<path id="XMLID_50_" class="st4" d="M451.5,617.1c0,0-55.6-78.4,45-114.9l9.9,60.2c0,0,3,13.8-8.9,21.7S451.5,617.1,451.5,617.1z"
		/>
	<g id="XMLID_60_">
		<path id="XMLID_49_" class="st5" d="M276.6,377.4l-43.3-25.2l4.5-7.7l37,21.5l34-38c1.6-1.8,4-4.5,7.8-5.2c4.2-0.8,7.8,1.4,10,2.7
			l32.7,19.7c1.6,1,2.2,1.2,2.5,1.2c0-0.1,0.5-0.8,1.1-2.1l19.5-37.6c1-1.8,2.5-4.9,5.9-6.3c4.7-1.9,9.1,0.9,11,2.2l44.7,28.5
			l-4.8,7.5l-44.7-28.5c-2-1.3-2.8-1.4-3-1.4c-0.3,0.2-1,1.7-1.3,2.1l-19.5,37.6c-0.9,1.8-2.7,5.1-6.2,6.4c-4.2,1.5-8-0.9-9.9-2
			L322,333.2c-0.9-0.6-2.9-1.7-3.7-1.6c-0.8,0.1-2.1,1.6-2.8,2.4L276.6,377.4z"/>
	</g>
	<g id="XMLID_58_">
		<path id="XMLID_47_" class="st5" d="M299.4,462.5c-0.7,0-1.4-0.2-2.1-0.5c-14.2-7.4-37.5-19.5-39.9-20.4l1.3-3.5v-5.2
			c1.3,0,2.2,0,39.3,19.4l32.9-46.8c1.3-1.8,3.7-2.4,5.7-1.4l56.3,29.2l20.2-52c0.5-1.3,1.5-2.2,2.9-2.6c1.3-0.4,2.7-0.2,3.8,0.6
			l53.5,37.5l-5.1,7.3l-48.8-34.3l-19.9,51.3c-0.5,1.2-1.4,2.1-2.6,2.5c-1.2,0.4-2.5,0.4-3.6-0.2L336,413.9L303,460.6
			C302.2,461.8,300.8,462.5,299.4,462.5z"/>
	</g>
</g>
<g id="XMLID_61_">
	<ellipse id="XMLID_72_" class="st1" cx="914.1" cy="766.2" rx="64.8" ry="13.6"/>
	<g id="XMLID_62_">
		<path id="XMLID_71_" class="st6" d="M834,339.3c0,0-26.5,49.6-59.3,53c0,0-2.8,14.4,74.9,8.4c77.7-6,46.8-27.4,46.8-27.4
			l-3.7-29.1L834,339.3z"/>
		<path id="XMLID_70_" class="st6" d="M750.9,613c0,0-16.5,39.3-63.7,36.5c0,0,52.7,28.5,97.5,16.4c44.9-12.1,29.4-38.8,29.4-38.8
			L750.9,613z"/>
		<path id="XMLID_69_" class="st6" d="M793,485.1c0,0-60.4,34.2-85.7,38.9c0,0,64.6,19,116.6,11.2c52-7.7,35.7-50.1,35.7-50.1H793z"
			/>
		<path id="XMLID_68_" class="st6" d="M996.8,339.3l52,38.3c0,0-54.8,40-92.7,31.6c-37.9-8.4-28.1-38.5-28.1-38.5l18.3-33.9
			L996.8,339.3z"/>
		<path id="XMLID_67_" class="st6" d="M1005.2,478.2l101.2,38.5l-73.1,20.3c-22.4,6.2-46.4-1.4-61.2-19.4l-17.5-21.3L1005.2,478.2z"
			/>
		<path id="XMLID_66_" class="st6" d="M1057.2,613c0,0,18.3,34.8,56.2,27.9c0,0-30.9,31.7-77.3,22.3c-46.4-9.5-26.7-43.2-26.7-43.2
			S1044.4,597.4,1057.2,613z"/>
		<polygon id="XMLID_65_" class="st7" points="894.2,687.7 872.3,765.1 954.6,765.1 936.3,677.6 		"/>
		<path id="XMLID_64_" class="st8" d="M891.3,697.8l-3.1,10.9c0,0,40.4-3.1,55,2l-4.1-19.9h-48.5L891.3,697.8z"/>
		<path id="XMLID_63_" class="st9" d="M1037.1,631c54.3,4.1,104.8-36.2,104.8-36.2S942.3,483.3,988.8,493.1
			c46.5,9.8,110.7-22.6,110.7-22.6c-71.4-14.4-122.1-104.7-122.1-104.7l70.6-21.3c-60.3-31.1-134.3-185.7-134.3-185.7
			S839.3,313.4,779,344.5l29.5,14l40.7,7.3c0,0-50.3,90.3-121.7,104.7c0,0,64.2,32.3,110.7,22.6S685.2,594.8,685.2,594.8
			S735.7,635.1,790,631c-20.4,18.4-69.4,55.7-125.8,47.5c0,0,48.1,61.7,231.9,23c1.7-0.4,13.2-0.7,17.4-1.1
			c4.2,0.4,15.7,0.8,17.4,1.1c183.8,38.7,231.9-23,231.9-23C1106.5,686.7,1057.4,649.4,1037.1,631z"/>
	</g>
</g>
<polygon id="XMLID_59_" class="st10" points="901.9,138.4 917.7,110.7 929.1,143.5 956.4,148.6 936.3,162 948.5,190.7 915.6,168.7 
	877.9,191.4 893.5,164.6 870.6,145.9 "/>
<g id="XMLID_78_">
	<path id="XMLID_76_" class="st11" d="M1643.8,8.3c0-4.6-5-8.3-11.3-8.3c-6.2,0-11.3,3.7-11.3,8.3c0,3.7,3.2,6.8,7.7,7.9v392.5h8.3
		V15.9C1641.2,14.6,1643.8,11.7,1643.8,8.3z"/>
	<circle id="XMLID_75_" class="st0" cx="1633.2" cy="591.4" r="210.4"/>
	<path id="XMLID_74_" class="st12" d="M1653.6,425.9c0,0,95.7,37.8,139,204.7c0,0,33.4-102.3-13.3-160.2
		C1779.3,470.4,1743.7,420.3,1653.6,425.9z"/>
	<g id="XMLID_84_">
		<g id="XMLID_85_">
			<path id="XMLID_73_" class="st13" d="M1521.9,630.7c-0.6,0-1.1,0-1.7,0c-14.1-0.6-27.1-9.3-33.2-22c-3.7-7.8-4.6-16.1-5.4-24.1
				c-0.3-2.5-0.5-4.9-0.8-7.3c-1.1-7.6-3.8-17.4-11-21.5c-5.7-3.2-14-2.1-20.2,2.6c-5.6,4.3-10,11.2-12.8,20.6l-11.2-3.4
				c3.6-11.8,9.3-20.7,16.9-26.5c10-7.6,23.2-9,33-3.5c9,5,14.8,15.4,16.8,30c0.4,2.6,0.6,5.2,0.9,7.7c0.7,7.3,1.4,14.3,4.3,20.2
				c4.2,8.7,13.5,14.9,23.2,15.3c9.7,0.4,19.5-4.9,24.5-13.2c4-6.7,5.2-15.1,6.4-24.1c1.7-12.1,3.4-24.6,12.7-34
				c7.2-7.3,18.2-10.2,29.4-7.6c11.2,2.5,19.9,9.8,23.3,19.5c2.7,7.6,2.3,15.3,1.9,22.7c-0.4,6.8-0.7,13.3,1.4,18.7
				c2.9,7.4,11.1,12.6,19.1,12.1c8-0.5,15.4-6.8,17.2-14.6c1.5-6,0-12.8-1.5-19.9c-1.9-8.7-3.8-17.7-0.9-26.8
				c4.3-13.5,19.3-22.8,34.1-21.1c13.4,1.5,25.6,11.1,31.2,24.5c2.5,6,3.6,12.4,4.7,18.5c1.3,7.3,2.5,14.3,6,19.8
				c4.4,6.9,12.7,11.2,20.8,10.8c8.1-0.4,15.9-5.6,19.4-13c3.4-7.2,3-16.2,2.6-24.8l0-0.9c-0.5-10.6-0.4-21.8,5.4-31.5
				c3.7-6.1,10.4-10.8,17.5-12.2c5.8-1.1,11.3,0.1,15.7,3.3c4.2,3.1,6.4,7.4,8.5,11.3c0.4,0.7,0.8,1.5,1.2,2.2
				c2,3.6,4.2,5.8,6.1,6.1c0.4,0,1.2-0.6,1.4-1c-0.1,0.2-0.1,0.7,0.2,1.1l9.9-6.2c2.2,3.5,2.1,7.8-0.3,11.5
				c-2.8,4.3-7.9,6.8-12.7,6.1c-5.8-0.8-10.8-4.8-14.7-11.9c-0.4-0.8-0.9-1.6-1.3-2.4c-1.6-3-3.1-5.8-5.2-7.4
				c-2.1-1.6-4.7-1.5-6.5-1.2c-3.9,0.7-7.7,3.4-9.7,6.8c-4.2,6.8-4.1,16-3.7,24.9l0,0.9c0.4,9.6,0.9,20.6-3.7,30.4
				c-5.3,11.3-16.8,19-29.3,19.6c-12.4,0.6-24.6-5.7-31.3-16.2c-4.8-7.5-6.2-15.9-7.6-24.1c-1-5.7-1.9-11.1-3.9-16
				c-3.9-9.4-12.7-16.4-21.7-17.4c-9.3-1-19,4.8-21.7,13c-2,6.2-0.5,13.3,1.2,20.9c1.7,8.1,3.5,16.4,1.4,25.1
				c-3.1,12.7-14.7,22.6-27.8,23.5c-13,0.9-26-7.3-30.7-19.4c-3.1-7.8-2.7-15.9-2.2-23.6c0.4-6.6,0.7-12.8-1.2-18.2
				c-2-5.8-7.7-10.3-14.8-11.9c-7.1-1.6-14.2,0.1-18.5,4.5c-6.5,6.6-7.9,16.7-9.4,27.4c-1.3,9.7-2.7,19.7-7.9,28.4
				C1548.3,623.4,1535.4,630.7,1521.9,630.7z"/>
		</g>
	</g>
	<g id="XMLID_79_">
		<path id="XMLID_56_" class="st13" d="M1541.6,734.1c-8.7,0-17.4-5.8-22.4-13c-4.1-5.9-6.6-12.7-9.1-19.2c-1.2-3.2-2.4-6.4-3.7-9.5
			c-2.8-6.3-9.1-17.3-19.6-19.3c-5.7-1.1-11.9,1.6-16.2,7c-4.3,5.4-5.5,12-3.2,17.3l-4.6,2c-3-7-1.5-15.6,3.9-22.4
			c5.5-6.8,13.5-10.2,21-8.7c12.7,2.4,20,14.9,23.2,22.1c1.4,3.2,2.7,6.6,3.9,9.8c2.4,6.5,4.7,12.7,8.5,18
			c5.2,7.4,15.2,13.3,23.6,9.8c8.4-3.5,11.2-14.2,12.2-20.3c0.3-2.2,0.6-4.6,0.9-6.9c0.8-6.9,1.6-14.1,5-20.5
			c5.6-10.6,17.8-17,29.7-15.6c11.9,1.4,22.3,10.5,25.3,22.1c0.9,3.7,1.2,7.4,1.4,11c0.1,2.6,0.3,5,0.6,7.3c0.4,2.4,2.1,10.3,8,12.5
			c2.3,0.9,4.8,0.7,7.4-0.5c4.2-2,8-6.5,9.7-11.6c1.2-3.6,1.9-7.4,2.5-11.4c0.8-5.1,1.7-10.4,4-15.4c3.3-7.2,10.3-12.9,18.3-15.1
			c6.8-1.8,13.3-0.8,18.4,2.9c7.4,5.3,10.2,14.5,12.7,22.6c0.3,0.9,0.5,1.8,0.8,2.7c3.4,11,8.4,17.2,14.8,18.6
			c8.7,1.8,17.1-6.5,20.8-15.6c1.4-3.4,2.5-7.2,3.5-10.8c1.9-6.6,3.9-13.4,7.9-19.2c4.1-5.9,11.5-10.1,18.5-10.5
			c5.1-0.2,9.4,1.5,12.4,5c4.2,5,4.4,11.5,4.6,17.8c0.2,5.9,0.3,11.5,3.9,14.9c2.1,2,4.9,2.7,8.1,2.1c5.6-1.1,11.6-6.1,14.2-11.9
			c1.7-3.8,2.9-8.1,4-12.3c1.8-6.6,3.6-13.5,7.9-19.2l4,3c-3.7,4.9-5.3,11-7,17.5c-1.1,4.3-2.3,8.8-4.2,13
			c-3.3,7.3-10.6,13.4-17.8,14.8c-4.9,1-9.2-0.2-12.5-3.4c-5.1-4.8-5.3-11.8-5.5-18.4c-0.1-5.7-0.3-11.1-3.4-14.7
			c-2.5-2.9-5.9-3.4-8.4-3.3c-5.4,0.3-11.4,3.7-14.6,8.3c-3.6,5.2-5.4,11.3-7.3,17.8c-1.1,3.7-2.2,7.6-3.7,11.3
			c-4.4,10.7-14.5,21.1-26.5,18.6c-8.3-1.8-14.6-9.2-18.6-22c-0.3-0.9-0.6-1.8-0.8-2.7c-2.3-7.7-4.8-15.7-10.8-20
			c-3.9-2.8-8.9-3.5-14.2-2.1c-6.6,1.7-12.3,6.5-15,12.3c-2,4.3-2.8,9.1-3.6,14.1c-0.7,4-1.4,8.2-2.7,12.2
			c-2.2,6.4-6.9,11.9-12.3,14.5c-3.8,1.8-7.7,2-11.3,0.7c-5.8-2.2-9.9-8.3-11.2-16.5c-0.4-2.6-0.6-5.3-0.7-7.8
			c-0.2-3.5-0.4-6.9-1.2-10.1c-2.4-9.5-11.3-17.2-21-18.3c-9.7-1.1-20.1,4.3-24.7,13c-2.9,5.6-3.7,12-4.4,18.8
			c-0.3,2.3-0.5,4.7-0.9,7.1c-1.1,7.1-4.6,19.8-15.2,24.2C1546.5,733.6,1544,734.1,1541.6,734.1z"/>
	</g>
</g>
<g id="XMLID_28_">
	<defs>
		<circle id="XMLID_29_" cx="2295.4" cy="370" r="242.1"/>
	</defs>
	<clipPath id="XMLID_358_">
		<use xlink:href="#XMLID_29_"  style="overflow:visible;"/>
	</clipPath>
	<circle id="XMLID_201_" class="st14" cx="2295.4" cy="370" r="242.1"/>
	<path id="XMLID_200_" class="st15" d="M2064.3,356.2c9.1-17.5,37-87.7,61.6-90.6c16.1-1.9,42.1,48.3,59.4,68.3
		c2.8,3.3,7.9,3.1,10.5-0.4c23.4-31.2,24.8-28.3,51.1,0.3c2.7,2.9,7.4,3,10-0.1c18.4-21.3,19.5-54.5,38.1-75.1
		c3.9-4.3,11.1-2.1,11.7,3.7c3,26.4,10.5,52.5,21.8,76.5c4.8,10.1,30.6,65.2,45.7,64.5c20.2-0.8,14.4-34.4,21.9-44.3
		c8.4-11.1,4.2-4.4,19.9-0.3c3.2,0.8,6.6-0.8,7.9-3.9c13.1-30.7,25.5-61.7,37.3-92.9c1.9-5.1,8.8-5.9,11.9-1.4c2.7,4,5,8,13.9,4.8
		c9.6-3.4,10.2-15.8,15.1-24c3.1-5.1,10.7-3.9,12.3,1.8c18.5,69.1,73.1,149,26.9,218.3c-39.4,58.9-147.4,81.7-211.6,96.2
		c-71.6,16.2-172.7,34-234.7-16.3c-29.2-23.7-56.2-62.2-61.6-100C2028.1,402.7,2048.1,387.5,2064.3,356.2z"/>
	<path id="XMLID_199_" class="st16" d="M2506.8,515.1c-7.2,15.5-20,27.6-32.6,39.1c-17.4,15.9-35.1,31.4-52.7,46.9
		c-11.2,9.8-22.8,19.9-36.9,24.7c-13.1,4.5-27.3,4-41.1,3.6c-37.2-0.9-74.7-0.5-111.5-6c-36.8-5.5-73.6-17.3-102.9-40.2
		c-9-7-17.3-15.1-23-24.8c-4.9-8.3-7.8-17.6-10.7-26.8c-3.3-10.6-6.7-21.8-4.5-32.7c2.4-11.7,11.1-21.5,21.5-27.2
		c10.5-5.7,22.6-7.8,34.5-8.4c14.7-0.7,29.8,0.9,44-3.1c5.9-1.7,11.8-4.3,17.9-3.6c6.8,0.7,12.7,5.3,19.4,6
		c10.8,1,19.6-7.8,28.2-14.4c20.2-15.4,46.8-20.5,72.1-18.4s49.6,10.8,72.9,20.6c11.4-27.4,40.2-46.5,69.9-46.3
		c2.2,0,4.5,0.1,6.5-0.8c2.5-1.2,4.1-3.7,5.7-5.9c11.1-15.5,31.2-24.1,50-21.4c1.9,0.3,3.9,0.7,5.3,2.1c2.2,2.3,1.6,6.1,0.7,9.2
		c-6.8,25.2-5.8,50.7-17.5,76.8C2514.7,480.4,2514.4,498.8,2506.8,515.1z"/>
	<polygon id="XMLID_198_" class="st17" points="2129,465.5 2126.5,401.6 2200.8,425.3 2200.8,497.8 	"/>
	<polygon id="XMLID_197_" class="st18" points="2200.8,425.3 2200.8,497.8 2246.1,485.6 2241.5,413.8 2221.5,393.7 	"/>
	<polygon id="XMLID_196_" class="st19" points="2118.6,406.8 2158.8,370 2221.5,393.7 2197.1,433.9 	"/>
	<polygon id="XMLID_195_" class="st19" points="2221.5,393.7 2248.9,420.2 2251,418 	"/>
	<polygon id="XMLID_194_" class="st20" points="2220.2,420.2 2220.2,440 2228.8,437.2 2228.8,418 	"/>
	<polygon id="XMLID_193_" class="st20" points="2218.2,493.1 2218.2,471.9 2236.2,466.7 2237.7,487.9 	"/>
	<polygon id="XMLID_192_" class="st20" points="2134.7,423.5 2134.7,441.8 2144.5,445.7 2146.6,429 	"/>
	<polygon id="XMLID_191_" class="st20" points="2154.5,431.1 2152.7,449.7 2163.6,453.6 2165.8,436 	"/>
	<polygon id="XMLID_188_" class="st21" points="2177.4,505.1 2176.9,507 2180.9,507 2180.5,504.9 	"/>
	<path id="XMLID_187_" class="st20" d="M2173.7,440c0-0.3,0,16.1,0,16.1l11.9,5.5l1.8-19.2L2173.7,440z"/>
	<g id="XMLID_176_" class="st22">
		<path id="XMLID_186_" class="st23" d="M2189,513.5l-4.8,18.3c0,0,14.3,0.9,13.8-1.6c-0.6-2.5-5.2-18-5.2-18L2189,513.5z"/>
		<polyline id="XMLID_185_" class="st9" points="2159.8,517.7 2218.2,517.1 2191.2,474.4 		"/>
		<polygon id="XMLID_182_" class="st24" points="2176,495.6 2173.4,499.1 2207.2,499.9 2205,496.4 		"/>
		<polyline id="XMLID_181_" class="st9" points="2163.8,495.6 2216.9,497.1 2193.1,448.9 		"/>
		<polygon id="XMLID_178_" class="st24" points="2177.8,473 2175.9,476.3 2207.2,477.4 2205.1,473.3 		"/>
		<path id="XMLID_177_" class="st9" d="M2190.5,434.6c0,0-14.4,31.3-24.1,38.4l45.9,1.4L2190.5,434.6z"/>
	</g>
	<path id="XMLID_175_" class="st16" d="M2143.3,307.4c-3.3,1-4.5,4.9-6.9,7.3c-4.4,4.5-11.9,3.4-17.6,0.8c-2.6-1.2-5.3-2.7-8.2-2.3
		c-3.9,0.6-6.1,4.6-9,7.2c-6.1,5.7-16.8,5.4-22.6-0.6c15.5-11.8,20.2-32.8,31.7-48.5c3.1-4.2,7-8.2,12-9.7
		c8.7-2.5,17.6,3.5,22.9,10.8c5.2,7.3,8.2,16.1,13.6,23.3c3.8,5,8.6,9.1,12.3,14.1c3.7,5,6.4,11.4,4.7,17.5
		c-11.5-2.9-17.4-16.9-28.8-19.9C2146.2,307.2,2144.7,307,2143.3,307.4z"/>
	<path id="XMLID_174_" class="st16" d="M2255.9,327.2c10.8-14.7,19.9-30.6,27-47.4c2.7-6.4,5.1-13,9.2-18.6c2.1-2.9,4.7-5.5,8.1-6.7
		s7.5-0.6,9.8,2.1c1.5,1.7,2,4,2.4,6.3c2.6,13,3.5,26.4,7.6,39.1c4.4,13.5,12.5,26.3,12.3,40.6c-6.4,1.8-12.6-3.4-16.7-8.6
		c-4.1-5.2-8.3-11.4-14.8-12.7c-4-0.8-8.5,0.6-11.3,3.5c-2.7,2.8-4.6,7.2-8.4,7.5c-3.4,0.3-6.4-2.9-9.7-2.4
		c-2.5,0.4-4.1,2.6-5.5,4.6c-2.9,4.4-5.8,8.9-10,12.1s-10,4.9-14.8,2.7c-7.6-3.4-9.4-14.4-16.9-17.8c-3.7-1.7-8-1.1-12.1-1.4
		c-4.1-0.3-8.7-2-9.8-5.9c-1.2-4.3,2.3-8.4,6.2-10.6c11.4-6.4,27.5-2.3,34.5,8.7c1.3,2,2.3,4.3,4,6c1.7,1.7,4.4,2.7,6.5,1.6
		C2254.4,329.1,2255.2,328.1,2255.9,327.2z"/>
	<path id="XMLID_173_" class="st16" d="M2485.7,256.9c1.5-0.3,2.7-1.2,3.8-2.2c5.9-5.4,9.3-14,16.8-16.5c2.6-0.9,5.8-0.7,7.7,1.2
		c1.1,1.1,1.6,2.5,2.1,4c4.1,11.8,7.2,23.9,9.3,36.2c0.2,0.9,0.3,2-0.3,2.7c-0.5,0.7-1.4,0.9-2.2,1c-6.1,0.8-12-1.7-17.9-3.5
		c-5.9-1.8-12.7-2.8-17.7,0.6c-5.5,3.7-6.9,11-10.7,16.4c-7.1,10.4-23.9,12.3-33.1,3.7c2.5-9,5-18,7.5-27c1.6-5.8,3.3-11.9,7.2-16.5
		c3.9-4.6,10.6-7.5,16.1-5.1C2478.2,253.8,2481.6,257.8,2485.7,256.9z"/>
	<path id="XMLID_172_" class="st16" d="M2196.9,438.3c2.2,0.7,4.3-1.4,4.9-3.7c0.6-2.2,0.2-4.5,0.5-6.8c0.5-3.8,3-7,5.4-9.9
		c4.5-5.5,9-11.1,13.5-16.6c1.2-1.5,2.7-3.1,4.6-3.1c1.5,0,2.7,1,3.9,1.9c3.7,3,7.4,5.9,11.2,8.9c2.5,2,5.3,4.4,5.4,7.7
		c0,1-0.2,2,0.1,2.8c0.7,1.8,3.5,2.1,4.9,0.7s1.4-3.7,0.5-5.5c-0.9-1.8-2.4-3.1-3.9-4.4c-6.4-5.5-13.1-10.7-20-15.7
		c-3.6-2.6-7.2-5.1-11.1-7.2c-6.2-3.4-13-5.6-19.7-7.8c-13.6-4.5-27.3-8.9-40.9-13.4c-7.7,9.2-16.8,17.2-26.8,23.8
		c-3.4,2.2-7,4.4-8.9,8c-0.4,0.7-0.7,1.5-0.7,2.3c0.1,3,4.2,4,7.2,3.5c3-0.4,6.8-1,8.5,1.5c2.2,3.2-1.4,7.7,0,11.2
		c1.3,3.2,6.7,3.1,7.9-0.1c0.6-1.6,0.4-3.9,2-4.6c2.4-1,4.1,3.5,6.8,3.4c1.3,0,2.3-1.2,3.4-1.8c2.3-1.2,5.5,0.5,5.9,3
		c0.2,1.2-0.1,2.6,0.5,3.7c1.5,2.2,4.9,0.3,7.6,0.3c4.2,0.1,6.5,5.5,10.6,6.4c4.2,0.9,9.3-3,12.4,0
		C2195.8,429.8,2192.8,437,2196.9,438.3z"/>
	<g id="XMLID_161_" class="st22">
		<path id="XMLID_171_" class="st23" d="M2402,446.4l-3.2,12.3c0,0,9.6,0.6,9.2-1s-3.5-12.1-3.5-12.1L2402,446.4z"/>
		<polyline id="XMLID_170_" class="st9" points="2382.5,449.2 2421.6,448.8 2403.5,420.2 		"/>
		<polygon id="XMLID_167_" class="st24" points="2393.3,434.4 2391.6,436.8 2414.3,437.3 2412.8,434.9 		"/>
		<polyline id="XMLID_166_" class="st9" points="2385.1,434.4 2420.7,435.4 2404.8,403.1 		"/>
		<polygon id="XMLID_163_" class="st24" points="2394.5,419.3 2393.2,421.5 2414.2,422.2 2412.9,419.5 		"/>
		<path id="XMLID_162_" class="st9" d="M2403.1,393.5c0,0-9.7,21-16.2,25.8l30.8,1L2403.1,393.5z"/>
	</g>
	<g id="XMLID_150_" class="st22">
		<path id="XMLID_160_" class="st23" d="M2378,443l2.4,8.7c0,0-7.1,0.4-6.8-0.7c0.3-1.2,2.5-8.6,2.5-8.6L2378,443z"/>
		<polyline id="XMLID_159_" class="st9" points="2392.3,445 2363.6,444.7 2376.9,424.4 		"/>
		<polygon id="XMLID_156_" class="st24" points="2384.4,434.5 2385.6,436.1 2369,436.5 2370.1,434.8 		"/>
		<polyline id="XMLID_155_" class="st9" points="2390.4,434.5 2364.2,435.2 2376,412.3 		"/>
		<polygon id="XMLID_152_" class="st24" points="2383.5,423.8 2384.4,425.3 2369,425.8 2370,423.9 		"/>
		<path id="XMLID_151_" class="st9" d="M2377.2,405.5c0,0,7.1,14.9,11.9,18.3l-22.6,0.7L2377.2,405.5z"/>
	</g>
	<g id="XMLID_139_" class="st22">
		<path id="XMLID_149_" class="st23" d="M2425.1,427.4l1.7,6.4c0,0-5.2,0.3-5-0.5s1.9-6.3,1.9-6.3L2425.1,427.4z"/>
		<polyline id="XMLID_148_" class="st9" points="2435.7,428.9 2414.6,428.7 2424.4,413.8 		"/>
		<polygon id="XMLID_145_" class="st24" points="2429.9,421.2 2430.8,422.4 2418.5,422.7 2419.4,421.4 		"/>
		<polyline id="XMLID_144_" class="st9" points="2434.3,421.2 2415,421.7 2423.7,404.9 		"/>
		<polygon id="XMLID_141_" class="st24" points="2429.2,413.3 2429.9,414.4 2418.6,414.8 2419.3,413.4 		"/>
		<path id="XMLID_140_" class="st9" d="M2424.6,399.9c0,0,5.2,10.9,8.7,13.4l-16.6,0.5L2424.6,399.9z"/>
	</g>
	<path id="XMLID_138_" class="st18" d="M2377.5,536.9c-0.8,2.8,2.2,75.1,2.2,75.1l87.9,5.7l-4.5-82.9L2377.5,536.9z"/>
	<path id="XMLID_137_" class="st25" d="M2356,532c1.8-0.1,100.4-90.8,100.4-90.8l69.4,3c0,0,5,16.5,2.4,26.2
		c-2.6,9.6-11.2,65.1-29.9,78.5C2479.6,562.3,2356,532,2356,532z"/>
	<path id="XMLID_136_" class="st26" d="M2469,533.1c3.5,0.4,6.3,3.2,9.7,3.8c5.9,1.1,10.8-4.3,14.5-9.1c6.2-8.2,12.4-16.5,18.5-24.7
		c3.9-5.2,7.8-10.5,10.5-16.4c5.8-12.7,5.4-27.2,5-41.1c0-1.2-0.1-2.6-1-3.5c-0.8-0.9-2.1-1.1-3.4-1.2c-17.3-2.1-34.7-4.2-52-6.2
		c-3.5-0.4-7-0.8-10.4-0.4c-8.2,1-15,6.6-21.3,11.9c-18.3,15.5-36.8,31.1-51.3,50.3c-2,2.6-3.9,5.3-6.5,7.4c-3.7,2.9-8.4,4.2-12.1,7
		c-3.7,2.8-6,8.6-3,12.1c3.1,3.6,9,2.1,13.2,0c4.3-2.2,9.4-4.7,13.5-2.3c5.2,3,4.9,11.6,10.3,14.1c5.8,2.7,11.4-4.1,17.5-6.1
		c12-4,23.9,11.2,36.2,8.2C2461,535.6,2464.8,532.6,2469,533.1z"/>
	<path id="XMLID_135_" class="st20" d="M2393.7,600.7c0-1.8,0-37.6,0-37.6l51.7,2.9l-8.5,35.3L2393.7,600.7z"/>
	<g id="XMLID_124_" class="st22">
		<path id="XMLID_134_" class="st23" d="M2295.4,686.1l-13.2,50.5c0,0,39.5,2.6,37.9-4.3s-14.2-49.7-14.2-49.7L2295.4,686.1z"/>
		<polyline id="XMLID_133_" class="st9" points="2215,697.8 2375.7,696.1 2301.4,578.6 		"/>
		<polygon id="XMLID_130_" class="st24" points="2259.5,636.8 2252.3,646.5 2345.6,648.7 2339.4,639 		"/>
		<polyline id="XMLID_129_" class="st9" points="2225.9,636.8 2372.2,641 2306.6,508.2 		"/>
		<polygon id="XMLID_126_" class="st24" points="2264.4,574.6 2259.2,583.8 2345.4,586.8 2339.8,575.4 		"/>
		<path id="XMLID_125_" class="st9" d="M2299.6,468.8c0,0-39.7,86.3-66.5,105.9l126.5,3.9L2299.6,468.8z"/>
	</g>
	<path id="XMLID_123_" class="st26" d="M2184.9,461.5c-2.7-0.6-5.1,3.7-7.6,2.4c-1-0.5-1.4-1.7-1.5-2.8c-0.3-3.2,1.3-6.2,2.8-8.9
		c2.8-4.9,5.8-9.7,7.7-14.9c0.7-1.9,1.7-4.2,3.7-4.5c2.2-0.3,3.7,2,4.7,3.9c2.6,5,5.2,10.1,7.7,15.1c2.3,4.4,4.6,9,4.8,13.9
		c-2,1.2-4.9,0.8-6.4-0.9c-0.7-0.8-1.3-1.9-2.3-2.4c-3.1-1.5-5.9,4.2-9.1,3.1C2187.6,464.8,2187,462,2184.9,461.5z"/>
	<path id="XMLID_122_" class="st26" d="M2268.7,521.8c1.9-3.1,3.6-6.3,5.1-9.7c3.5-8,5.6-16.6,9-24.7c3.3-8.1,8.1-16,15.5-20.7
		c0.8-0.5,1.6-0.9,2.4-1.1c2.8-0.4,4.8,2.6,6.1,5.2c6.8,14,13.7,28,20.5,42c2.5,5.1,5,10.3,5.8,16c0.1,0.7,0.1,1.4-0.2,2
		c-0.5,0.8-1.6,1-2.6,1.1c-5,0.5-10.1,1.1-15.1,0.3c-6.1-0.9-11.8-3.6-17.9-3.6c-9.2-0.1-19.2,5.7-27.1,0.9c-1.6-0.9-3-2.5-2.9-4.3
		C2267.3,524,2268,522.9,2268.7,521.8z"/>
	<path id="XMLID_121_" class="st26" d="M2402.9,392.6c1.7,0.1,3,1.4,3.9,2.7c2.3,3.1,4,6.7,4.9,10.5c0.4,1.6,0.5,3.5-0.8,4.4
		c-1.1,0.8-2.6,0.5-3.8-0.1c-1.2-0.6-2.3-1.5-3.5-1.9c-3.7-1.1-7.6,2.7-11.3,1.8c1.5-4.6,3.4-9,5.7-13.3
		C2399.1,394.7,2400.6,392.5,2402.9,392.6z"/>
	<path id="XMLID_120_" class="st26" d="M2420.3,406.1c0.6-1.1,1.2-2.3,1.7-3.4c0.8-1.6,2-3.5,3.8-3.6c1.7-0.1,3.1,1.4,3.8,2.9
		c0.7,1.6,0.9,3.3,1.6,4.8c-3.5,0.3-7.1,0.2-10.6-0.5"/>
	<circle id="XMLID_119_" class="st26" cx="2211.1" cy="177.7" r="5.5"/>
	<circle id="XMLID_118_" class="st26" cx="2301.5" cy="210.6" r="2.3"/>
	<circle id="XMLID_117_" class="st26" cx="2203.1" cy="262" r="2.5"/>
	<circle id="XMLID_116_" class="st26" cx="2379.6" cy="191.9" r="3.2"/>
	<circle id="XMLID_115_" class="st26" cx="2391.7" cy="298.5" r="5.3"/>
	<circle id="XMLID_114_" class="st26" cx="2225.3" cy="294.6" r="1.8"/>
	<circle id="XMLID_113_" class="st26" cx="2116.6" cy="219.3" r="3.2"/>
	<circle id="XMLID_112_" class="st26" cx="2113" cy="352.1" r="2.3"/>
	<circle id="XMLID_111_" class="st26" cx="2254.5" cy="377.7" r="5.5"/>
	<circle id="XMLID_110_" class="st26" cx="2340.6" cy="380.4" r="3.2"/>
	<circle id="XMLID_109_" class="st26" cx="2389.6" cy="225.7" r="3.2"/>
	<circle id="XMLID_108_" class="st26" cx="2448.3" cy="242.3" r="3.9"/>
	<circle id="XMLID_107_" class="st26" cx="2491.2" cy="351" r="4.3"/>
	<circle id="XMLID_106_" class="st26" cx="2320.5" cy="398.9" r="3"/>
	<ellipse id="XMLID_105_" class="st26" cx="2342.1" cy="252.4" rx="0" ry="1.6"/>
	<ellipse id="XMLID_104_" class="st26" cx="2320.7" cy="166.1" rx="0" ry="3"/>
	<circle id="XMLID_103_" class="st26" cx="2238.5" cy="223.4" r="3.2"/>
	<circle id="XMLID_102_" class="st26" cx="2185.3" cy="218.1" r="5.3"/>
	<circle id="XMLID_101_" class="st26" cx="2318.6" cy="166.1" r="3"/>
	<circle id="XMLID_100_" class="st26" cx="2340.9" cy="209" r="3.4"/>
	<circle id="XMLID_99_" class="st26" cx="2340.7" cy="256.8" r="3.3"/>
	<circle id="XMLID_98_" class="st26" cx="2375.2" cy="267.9" r="1.1"/>
	<circle id="XMLID_97_" class="st26" cx="2419.8" cy="211.1" r="1.8"/>
	<circle id="XMLID_96_" class="st26" cx="2260" cy="175.5" r="5.9"/>
	<circle id="XMLID_95_" class="st26" cx="2373.2" cy="345.7" r="3.2"/>
	<circle id="XMLID_94_" class="st26" cx="2083" cy="396.2" r="3.4"/>
	<circle id="XMLID_92_" class="st26" cx="2068" cy="335" r="2.5"/>
	<circle id="XMLID_90_" class="st26" cx="2089.7" cy="276.8" r="2.7"/>
	<circle id="XMLID_89_" class="st26" cx="2469.1" cy="367.7" r="2.7"/>
	<circle id="XMLID_88_" class="st26" cx="2508.3" cy="314.1" r="2.3"/>
	<path id="XMLID_87_" class="st15" d="M2341.7,357.6c0,0,33.3-48.9,39.3-45.7c5.9,3.2,3.7,4.6,14.2,15.1
		c10.5,10.5,21.2,22.1,25.6,21c7.1-1.7,6.9-3.6,6.8,3c-0.1,6.7,0.5,17-12.3,13.8c-12.8-3.2-15.5-7.3-15.5-1.4
		c0,5.9-4.6,41.5-13.7,43.4c-9.1,1.8-13.2,7.3-20.1,0c-6.8-7.3-30.5-34.7-28.3-40.2C2339.8,361.3,2341.7,357.6,2341.7,357.6z"/>
	<circle id="XMLID_86_" class="st26" cx="2336.2" cy="287.8" r="2.7"/>
	<path id="XMLID_82_" class="st26" d="M2376,422.5c-1.6,1.4-4,1.9-6.1,1.2c-0.5-0.1-0.9-0.4-1.2-0.7c-0.4-0.6-0.3-1.3-0.2-2
		c1.3-6.1,4.3-11.9,8.6-16.4c0.4-0.4,0.9-0.8,1.4-0.7c0.5,0.1,0.8,0.6,1,1.1c3.1,7,6.2,13.9,9.3,20.9c-3.7,0.7-7.8-0.7-10.3-3.5
		c-0.3-0.3-0.5-0.6-0.9-0.7C2377.1,421.5,2376.5,422.1,2376,422.5z"/>
	<circle id="XMLID_77_" class="st26" cx="2257.2" cy="266.8" r="2.7"/>
	<ellipse id="XMLID_30_" class="st26" cx="2427.5" cy="253.3" rx="0" ry="1.6"/>
</g>
<g id="XMLID_127_">
	<path id="XMLID_215_" class="st27" d="M3026.3,187.2c-26.8,10-42.6,35-46.6,49.4c-4.2,15.1-5,36.3,1,60.8l48.7-111.3
		C3028.3,186.5,3027.3,186.8,3026.3,187.2z"/>
	<path id="XMLID_214_" class="st28" d="M3007.8,358.5c-1.6-2.5-3.1-4.9-4.6-7.3l-27.3,62.4c9.1,12.5,20.4,27.6,33.2,44.3l26.5-60.6
		C3023.2,380.5,3013.3,366.9,3007.8,358.5z"/>
	<path id="XMLID_213_" class="st28" d="M3112.1,204.6c13.3,8.8,31.2,5.1,40-8.3c8.8-13.3,5.1-31.2-8.3-40
		c-16-10.5-31.2-17.9-45.4-22.8l-23.2,53.1C3086.9,190.2,3099.3,196.2,3112.1,204.6z"/>
	<path id="XMLID_212_" class="st28" d="M3064.9,435.7l-26.3,60.2c10.4,13.4,21.2,27,31.9,40.6l26.2-59.9
		C3085.7,462.6,3075,448.8,3064.9,435.7z"/>
	<path id="XMLID_211_" class="st28" d="M2979.6,236.6c4-14.4,19.8-39.4,46.6-49.4c1-0.4,2-0.7,3.1-1.1l26.6-60.9
		c-19.2-0.8-35.6,2.7-48.6,7.4l-80.9,185c5.1,18.2,12.5,36.4,21.9,53.7l32.3-73.9C2974.7,272.9,2975.4,251.7,2979.6,236.6z"/>
	<path id="XMLID_210_" class="st28" d="M3184.4,584.8l-25.6,58.6c4.4,4.9,8.3,9.2,11.6,12.6c5.7,5.9,13.2,8.9,20.8,8.9
		c7.2,0,14.4-2.7,20-8c11.5-11,11.9-29.3,0.8-40.8C3205.2,609,3195.7,598.1,3184.4,584.8z"/>
	<path id="XMLID_208_" class="st28" d="M3126.4,514l-26.1,59.6c9.8,12.1,19.2,23.6,28,34.1l25.9-59.3
		C3145.3,537.5,3135.9,525.9,3126.4,514z"/>
	<path id="XMLID_179_" class="st29" d="M3006.1,133.2c-20.5,7.7-39.3,20.9-54.4,38.2c-13,15-22.8,32.6-27.6,49.6
		c-7.7,27.4-7.5,57.8,0.7,90.4c0.5,2.1,1.1,4.2,1.7,6.3l80.9-185C3006.9,132.9,3006.5,133,3006.1,133.2z"/>
	<path id="XMLID_143_" class="st29" d="M3075.2,186.7l23.2-53.1c-15.3-5.3-29.5-7.7-42.4-8.3l-26.6,60.9
		C3043.5,181.6,3058.8,181.8,3075.2,186.7z"/>
	<path id="XMLID_142_" class="st29" d="M2980.7,297.5l-32.3,73.9c3.5,6.4,7.2,12.6,11.2,18.7c3.8,5.8,9.4,13.8,16.4,23.5l27.3-62.4
		C2992,332.3,2984.8,314.2,2980.7,297.5z"/>
	<path id="XMLID_132_" class="st29" d="M3035.7,397.2l-26.5,60.6c9.2,12.1,19.1,24.9,29.4,38.1l26.3-60.2
		C3054.2,421.8,3044.3,408.8,3035.7,397.2z"/>
	<path id="XMLID_131_" class="st29" d="M3096.7,476.5l-26.2,59.9c10.1,12.7,20.1,25.2,29.8,37.1l26.1-59.6
		C3116.5,501.6,3106.5,489,3096.7,476.5z"/>
	<path id="XMLID_128_" class="st29" d="M3154.2,548.5l-25.9,59.3c11.5,13.9,21.9,26.1,30.4,35.6l25.6-58.6
		C3175.3,574.1,3165.1,561.7,3154.2,548.5z"/>
</g>
<g id="XMLID_225_">
	<polygon id="XMLID_223_" class="st30" points="3834.4,269.7 4007.8,206.9 4111.3,218.7 4111.3,246.3 4003.3,307.1 3830.6,299.9 	
		"/>
	<polygon id="XMLID_222_" class="st31" points="4007.8,206.9 3978.3,308.7 4111.3,324.1 4162.2,212 	"/>
	<polygon id="XMLID_221_" class="st32" points="3834.4,269.7 3927,263.4 4004.8,274 3984.6,722.5 3781.1,693.7 	"/>
	<polygon id="XMLID_220_" class="st33" points="4004.8,274 4162.2,212 4139.3,609.7 3984.6,722.5 	"/>
	<path id="XMLID_219_" class="st33" d="M3784.9,692.1l95.3-38.9c0,0,99.4,74.3,99.8,68.6C3980.3,716.1,3784.9,692.1,3784.9,692.1z"
		/>
	<polygon id="XMLID_218_" class="st34" points="3786.5,686.2 3839.2,277.8 3920.7,270.3 3882.4,647.9 	"/>
	<g id="XMLID_229_">
		<path id="XMLID_217_" class="st35" d="M4025.3,267.1c-10.2-27-18.3-56.5-23.7-85c-2.1-10.9-3.9-23.5,0.6-34.7
			c5.1-12.6,16.8-20.1,25.8-24.2c4.2-1.9,9.7-4,15.4-3.2c5.8,0.8,11.4,4.4,17,11.2c17.9,21.6,23.1,51.6,27.3,75.7l7.4,31.7l-5,0.8
			c-0.3,1-1.8,0.9-1.9-0.1l-5.2-31.5c-4.3-24.8-9.1-52.8-26.2-73.4c-4.8-5.8-9.4-8.9-14-9.5c-4.5-0.6-9.2,1.2-12.8,2.9
			c-8.2,3.7-18.8,10.5-23.3,21.7c-4,9.9-2.4,21.3-0.4,32c5.3,28.1,13.1,56.8,23.3,83.6L4025.3,267.1z"/>
	</g>
	<g id="XMLID_227_">
		<path id="XMLID_216_" class="st35" d="M3886.1,250.6l-1.2,1.1c-1,0.9-2.7,0.2-2.6-1.2c0.9-15.6,0.3-34.4-0.9-49.4
			c-0.2-2.5-0.4-5.1-0.6-7.6c-1.3-14.3-2.6-29.2,1.4-43.3c4.6-16.4,19.5-33,38.1-31.5c11.1,0.9,22,8.6,28.4,20.2
			c5.9,10.7,7.6,23,8.5,33.6c1.3,15.8,1.1,38.1-0.6,53.9l-5.1,1.3c1.7-15.5,2.2-39.3,0.9-54.8c-0.8-10.1-2.4-21.8-7.9-31.7
			c-5.6-10.2-15-17-24.6-17.7c-16-1.2-29,13.5-33.1,28c-3.8,13.3-2.5,27.7-1.3,41.6c0.2,2.6,0.5,5.1,0.6,7.6
			C3887.4,217.3,3887.4,234.1,3886.1,250.6z"/>
	</g>
	<path id="XMLID_27_" class="st36" d="M4096,431.4c8.4-1.4,16.9-2.8,17.5-2.9c0.7-0.2-8.7-8.5-17.8-16.4c8.6-1.2,17.7-2.4,18.3-2.6
		c1.3-0.3-32.5-34.5-32.5-34.5l-0.5,0.2c0,0-37,62.7-35.8,62c0.6-0.4,9.5-6.3,18.1-12c-9.8,15.3-19.8,31.1-19.1,30.7
		c0.6-0.3,8.9-5.5,17.2-10.8c-11.8,14.9-24.4,30.9-23.5,30.5c1.3-0.6,33.7-18.5,40-21.9c5.7-1.3,39.4-9.1,40.8-9.5
		C4119.5,443.9,4107.3,437.3,4096,431.4z"/>
</g>
<g id="XMLID_226_">
	<polygon id="XMLID_350_" class="st37" points="5111.7,362.8 5118.6,361.2 5094.2,437.5 5087.9,437.5 	"/>
	<g id="XMLID_231_">
		<g id="XMLID_336_">
			<path id="XMLID_349_" class="st27" d="M4887.3,341.1c-9.8-2.2-18.3,1.4-21.7,4.4c-3.5,3.1-6.8,8.4-8.5,15.7l31.3-19.9
				C4888,341.3,4887.6,341.2,4887.3,341.1z"/>
			<path id="XMLID_348_" class="st13" d="M4856.7,381.6c-0.1-0.9-0.3-1.8-0.4-2.7l-17.5,11.1c1,4.8,2.4,10.7,3.9,17.2l17-10.8
				C4858.3,390,4857.2,384.7,4856.7,381.6z"/>
			<path id="XMLID_347_" class="st13" d="M4911.4,360.6c2.9,4.6,9,6.8,13.6,4.9c4.7-1.9,6.1-7.1,3.2-11.7
				c-3.5-5.5-7.1-10.1-10.8-13.8l-14.9,9.5C4905.7,352.5,4908.7,356.2,4911.4,360.6z"/>
			<path id="XMLID_346_" class="st13" d="M4863.2,411.4l-16.9,10.8c1.3,5.3,2.7,10.7,4.1,16l16.8-10.7
				C4865.8,422,4864.5,416.6,4863.2,411.4z"/>
			<path id="XMLID_345_" class="st13" d="M4865.6,345.5c3.3-3,11.9-6.6,21.7-4.4c0.4,0.1,0.7,0.2,1.1,0.3l17.1-10.9
				c-5.9-3.6-11.5-5.6-16.2-6.7l-52,33c-1.1,5.6-1.4,11.5-1,17.6l20.8-13.2C4858.8,353.9,4862.1,348.6,4865.6,345.5z"/>
			<path id="XMLID_344_" class="st13" d="M4878.8,470.6l-16.5,10.5c0.6,2,1.2,3.8,1.8,5.3c0.9,2.5,2.8,4.6,5.2,5.9
				c2.2,1.3,4.9,1.9,7.4,1.5c5.2-0.8,7.9-5.4,6.2-10.3C4881.8,480.5,4880.4,476.1,4878.8,470.6z"/>
			<path id="XMLID_343_" class="st13" d="M4871,442.3l-16.8,10.6c1.3,4.8,2.6,9.4,3.8,13.7l16.7-10.6
				C4873.5,451.7,4872.3,447,4871,442.3z"/>
			<path id="XMLID_342_" class="st29" d="M4888.8,323.7c-7.5-1.7-15.3-1.6-22.5,0.2c-6.2,1.5-11.8,4.3-15.8,7.8
				c-6.4,5.7-10.7,13.5-12.9,23.2c-0.1,0.6-0.3,1.3-0.4,1.9l52-33C4889.1,323.8,4889,323.7,4888.8,323.7z"/>
			<path id="XMLID_341_" class="st29" d="M4902.6,349.6l14.9-9.5c-4-4.1-8.1-7.2-12-9.6l-17.1,10.9
				C4893.4,342.7,4898.2,345.4,4902.6,349.6z"/>
			<path id="XMLID_340_" class="st29" d="M4857.1,361.2l-20.8,13.2c0.2,2.2,0.4,4.5,0.8,6.7c0.3,2.2,0.9,5.2,1.7,8.9l17.5-11.1
				C4855.5,372.1,4855.9,366.2,4857.1,361.2z"/>
			<path id="XMLID_339_" class="st29" d="M4859.7,396.4l-17,10.8c1.1,4.7,2.3,9.7,3.6,14.9l16.9-10.8
				C4861.9,406,4860.7,400.9,4859.7,396.4z"/>
			<path id="XMLID_338_" class="st29" d="M4867.2,427.5l-16.8,10.7c1.3,5,2.6,10,3.9,14.7l16.8-10.6
				C4869.7,437.4,4868.5,432.4,4867.2,427.5z"/>
			<path id="XMLID_337_" class="st29" d="M4874.7,456l-16.7,10.6c1.6,5.6,3,10.5,4.3,14.5l16.5-10.5
				C4877.5,466.3,4876.1,461.4,4874.7,456z"/>
		</g>
		<g id="XMLID_322_">
			<path id="XMLID_335_" class="st27" d="M4934.1,369.3c-9.8-2.2-18.3,1.4-21.7,4.4c-3.5,3.1-6.8,8.4-8.5,15.7l31.3-19.9
				C4934.8,369.5,4934.4,369.4,4934.1,369.3z"/>
			<path id="XMLID_334_" class="st13" d="M4903.5,409.8c-0.1-0.9-0.3-1.8-0.4-2.7l-17.5,11.1c1,4.8,2.4,10.7,3.9,17.2l17-10.8
				C4905.1,418.2,4904,413,4903.5,409.8z"/>
			<path id="XMLID_333_" class="st13" d="M4958.2,388.9c2.9,4.6,9,6.8,13.6,4.9c4.7-1.9,6.1-7.1,3.2-11.7
				c-3.5-5.5-7.1-10.1-10.8-13.8l-14.9,9.5C4952.5,380.8,4955.5,384.5,4958.2,388.9z"/>
			<path id="XMLID_332_" class="st13" d="M4910,439.7l-16.9,10.8c1.3,5.3,2.7,10.7,4.1,16l16.8-10.7
				C4912.6,450.2,4911.3,444.8,4910,439.7z"/>
			<path id="XMLID_331_" class="st13" d="M4912.4,373.7c3.3-3,11.9-6.6,21.7-4.4c0.4,0.1,0.7,0.2,1.1,0.3l17.1-10.9
				c-5.9-3.6-11.5-5.6-16.2-6.7l-52,33c-1.1,5.6-1.4,11.5-1,17.6l20.8-13.2C4905.6,382.1,4908.9,376.8,4912.4,373.7z"/>
			<path id="XMLID_330_" class="st13" d="M4925.6,498.9l-16.5,10.5c0.6,2,1.2,3.8,1.8,5.3c0.9,2.5,2.8,4.6,5.2,5.9
				c2.2,1.3,4.9,1.9,7.4,1.5c5.2-0.8,7.9-5.4,6.2-10.3C4928.6,508.7,4927.2,504.3,4925.6,498.9z"/>
			<path id="XMLID_329_" class="st13" d="M4917.8,470.5l-16.8,10.6c1.3,4.8,2.6,9.4,3.8,13.7l16.7-10.6
				C4920.3,479.9,4919.1,475.2,4917.8,470.5z"/>
			<path id="XMLID_328_" class="st29" d="M4935.6,351.9c-7.5-1.7-15.3-1.6-22.5,0.2c-6.2,1.5-11.8,4.3-15.8,7.8
				c-6.4,5.7-10.7,13.5-12.9,23.2c-0.1,0.6-0.3,1.3-0.4,1.9l52-33C4935.9,352,4935.8,351.9,4935.6,351.9z"/>
			<path id="XMLID_327_" class="st29" d="M4949.4,377.8l14.9-9.5c-4-4.1-8.1-7.2-12-9.6l-17.1,10.9
				C4940.2,370.9,4945,373.7,4949.4,377.8z"/>
			<path id="XMLID_326_" class="st29" d="M4903.9,389.5l-20.8,13.2c0.2,2.2,0.4,4.5,0.8,6.7c0.3,2.2,0.9,5.2,1.7,8.9l17.5-11.1
				C4902.4,400.4,4902.8,394.4,4903.9,389.5z"/>
			<path id="XMLID_325_" class="st29" d="M4906.5,424.7l-17,10.8c1.1,4.7,2.3,9.7,3.6,14.9l16.9-10.8
				C4908.7,434.2,4907.5,429.1,4906.5,424.7z"/>
			<path id="XMLID_324_" class="st29" d="M4914,455.7l-16.8,10.7c1.3,5,2.6,10,3.9,14.7l16.8-10.6
				C4916.5,465.6,4915.3,460.6,4914,455.7z"/>
			<path id="XMLID_323_" class="st29" d="M4921.5,484.3l-16.7,10.6c1.6,5.6,3,10.5,4.3,14.5l16.5-10.5
				C4924.3,494.5,4922.9,489.6,4921.5,484.3z"/>
		</g>
		<g id="XMLID_308_">
			<path id="XMLID_321_" class="st27" d="M4956.6,333.9c-9.8-2.2-18.3,1.4-21.7,4.4c-3.5,3.1-6.8,8.4-8.5,15.7l31.3-19.9
				C4957.3,334.1,4957,334,4956.6,333.9z"/>
			<path id="XMLID_320_" class="st13" d="M4926,374.5c-0.1-0.9-0.3-1.8-0.4-2.7l-17.5,11.1c1,4.8,2.4,10.7,3.9,17.2l17-10.8
				C4927.6,382.8,4926.5,377.6,4926,374.5z"/>
			<path id="XMLID_319_" class="st13" d="M4980.8,353.5c2.9,4.6,9,6.8,13.6,4.9c4.7-1.9,6.1-7.1,3.2-11.7
				c-3.5-5.5-7.1-10.1-10.8-13.8l-14.9,9.5C4975,345.4,4978,349.1,4980.8,353.5z"/>
			<path id="XMLID_318_" class="st13" d="M4932.6,404.3l-16.9,10.8c1.3,5.3,2.7,10.7,4.1,16l16.8-10.7
				C4935.1,414.8,4933.8,409.4,4932.6,404.3z"/>
			<path id="XMLID_317_" class="st13" d="M4934.9,338.3c3.3-3,11.9-6.6,21.7-4.4c0.4,0.1,0.7,0.2,1.1,0.3l17.1-10.9
				c-5.9-3.6-11.5-5.6-16.2-6.7l-52,33c-1.1,5.6-1.4,11.5-1,17.6l20.8-13.2C4928.1,346.7,4931.4,341.4,4934.9,338.3z"/>
			<path id="XMLID_316_" class="st13" d="M4948.1,463.5l-16.5,10.5c0.6,2,1.2,3.8,1.8,5.3c0.9,2.5,2.8,4.6,5.2,5.9
				c2.2,1.3,4.9,1.9,7.4,1.5c5.2-0.8,7.9-5.4,6.2-10.3C4951.1,473.3,4949.7,468.9,4948.1,463.5z"/>
			<path id="XMLID_315_" class="st13" d="M4940.3,435.1l-16.8,10.6c1.3,4.8,2.6,9.4,3.8,13.7l16.7-10.6
				C4942.8,444.5,4941.6,439.9,4940.3,435.1z"/>
			<path id="XMLID_314_" class="st29" d="M4958.1,316.5c-7.5-1.7-15.3-1.6-22.5,0.2c-6.2,1.5-11.8,4.3-15.8,7.8
				c-6.4,5.7-10.7,13.5-12.9,23.2c-0.1,0.6-0.3,1.3-0.4,1.9l52-33C4958.5,316.6,4958.3,316.6,4958.1,316.5z"/>
			<path id="XMLID_313_" class="st29" d="M4971.9,342.4l14.9-9.5c-4-4.1-8.1-7.2-12-9.6l-17.1,10.9
				C4962.8,335.5,4967.5,338.3,4971.9,342.4z"/>
			<path id="XMLID_312_" class="st29" d="M4926.4,354.1l-20.8,13.2c0.2,2.2,0.4,4.5,0.8,6.7c0.3,2.2,0.9,5.2,1.7,8.9l17.5-11.1
				C4924.9,365,4925.3,359,4926.4,354.1z"/>
			<path id="XMLID_311_" class="st29" d="M4929.1,389.3l-17,10.8c1.1,4.7,2.3,9.7,3.6,14.9l16.9-10.8
				C4931.3,398.8,4930.1,393.8,4929.1,389.3z"/>
			<path id="XMLID_310_" class="st29" d="M4936.5,420.3l-16.8,10.7c1.3,5,2.6,10,3.9,14.7l16.8-10.6
				C4939.1,430.2,4937.8,425.3,4936.5,420.3z"/>
			<path id="XMLID_309_" class="st29" d="M4944,448.9l-16.7,10.6c1.6,5.6,3,10.5,4.3,14.5l16.5-10.5
				C4946.8,459.1,4945.5,454.2,4944,448.9z"/>
		</g>
		<g id="XMLID_294_">
			<path id="XMLID_307_" class="st27" d="M4834.2,310.2c-9.8-2.2-18.3,1.4-21.7,4.4c-3.5,3.1-6.8,8.4-8.5,15.7l31.3-19.9
				C4834.9,310.4,4834.5,310.3,4834.2,310.2z"/>
			<path id="XMLID_306_" class="st13" d="M4803.6,350.8c-0.1-0.9-0.3-1.8-0.4-2.7l-17.5,11.1c1,4.8,2.4,10.7,3.9,17.2l17-10.8
				C4805.2,359.1,4804.1,353.9,4803.6,350.8z"/>
			<path id="XMLID_305_" class="st13" d="M4858.3,329.8c2.9,4.6,9,6.8,13.6,4.9c4.7-1.9,6.1-7.1,3.2-11.7
				c-3.5-5.5-7.1-10.1-10.8-13.8l-14.9,9.5C4852.6,321.7,4855.6,325.4,4858.3,329.8z"/>
			<path id="XMLID_304_" class="st13" d="M4810.1,380.6l-16.9,10.8c1.3,5.3,2.7,10.7,4.1,16l16.8-10.7
				C4812.7,391.1,4811.4,385.7,4810.1,380.6z"/>
			<path id="XMLID_303_" class="st13" d="M4812.5,314.6c3.3-3,11.9-6.6,21.7-4.4c0.4,0.1,0.7,0.2,1.1,0.3l17.1-10.9
				c-5.9-3.6-11.5-5.6-16.2-6.7l-52,33c-1.1,5.6-1.4,11.5-1,17.6l20.8-13.2C4805.7,323,4809,317.7,4812.5,314.6z"/>
			<path id="XMLID_302_" class="st13" d="M4825.7,439.8l-16.5,10.5c0.6,2,1.2,3.8,1.8,5.3c0.9,2.5,2.8,4.6,5.2,5.9
				c2.2,1.3,4.9,1.9,7.4,1.5c5.2-0.8,7.9-5.4,6.2-10.3C4828.7,449.7,4827.3,445.2,4825.7,439.8z"/>
			<path id="XMLID_301_" class="st13" d="M4817.9,411.4l-16.8,10.6c1.3,4.8,2.6,9.4,3.8,13.7l16.7-10.6
				C4820.4,420.8,4819.2,416.2,4817.9,411.4z"/>
			<path id="XMLID_300_" class="st29" d="M4835.7,292.8c-7.5-1.7-15.3-1.6-22.5,0.2c-6.2,1.5-11.8,4.3-15.8,7.8
				c-6.4,5.7-10.7,13.5-12.9,23.2c-0.1,0.6-0.3,1.3-0.4,1.9l52-33C4836,292.9,4835.9,292.9,4835.7,292.8z"/>
			<path id="XMLID_299_" class="st29" d="M4849.5,318.7l14.9-9.5c-4-4.1-8.1-7.2-12-9.6l-17.1,10.9
				C4840.3,311.8,4845.1,314.6,4849.5,318.7z"/>
			<path id="XMLID_298_" class="st29" d="M4804,330.4l-20.8,13.2c0.2,2.2,0.4,4.5,0.8,6.7c0.3,2.2,0.9,5.2,1.7,8.9l17.5-11.1
				C4802.4,341.3,4802.8,335.4,4804,330.4z"/>
			<path id="XMLID_297_" class="st29" d="M4806.6,365.6l-17,10.8c1.1,4.7,2.3,9.7,3.6,14.9l16.9-10.8
				C4808.8,375.2,4807.6,370.1,4806.6,365.6z"/>
			<path id="XMLID_296_" class="st29" d="M4814.1,396.6l-16.8,10.7c1.3,5,2.6,10,3.9,14.7l16.8-10.6
				C4816.6,406.6,4815.4,401.6,4814.1,396.6z"/>
			<path id="XMLID_295_" class="st29" d="M4821.6,425.2l-16.7,10.6c1.6,5.6,3,10.5,4.3,14.5l16.5-10.5
				C4824.4,435.5,4823,430.5,4821.6,425.2z"/>
		</g>
		<g id="XMLID_266_">
			<path id="XMLID_293_" class="st38" d="M5041.1,343.7l12.9-30.9l49.3,14.7c0,0-2.4,14.8,10.9,18.6l-7.6,20.3L5041.1,343.7z"/>
			<path id="XMLID_292_" class="st39" d="M5000.2,442.1c1.2-5.1,34.5-102.4,34.5-102.4l76.9,23.1l-34.9,109.7L5000.2,442.1z"/>
			<polygon id="XMLID_291_" class="st13" points="5016.4,403.4 5031.5,359.1 5103.3,379 5090.1,422.1 			"/>
			<g id="XMLID_268_">
				<path id="XMLID_289_" class="st38" d="M5038.4,386.4c-0.1,0.2-0.2,0.5-0.4,0.8c-0.5,0.7-1.2,1.2-2.2,1.5c-0.9,0.2-1.8,0.2-2.7,0
					c-1.5-0.4-2.5-1.2-3.1-2.6c-0.5-1.2-0.5-2.5-0.1-4.1c0.3-1.3,0.8-2.5,1.5-3.5c0.8-1.2,1.7-2.1,2.8-2.6c0.8-0.4,1.6-0.5,2.4-0.3
					c1,0.3,1.7,0.9,2.1,1.9c0.3,0.8,0.3,1.8,0,3c-0.1,0.5-0.4,1.1-0.9,1.8c-0.5,0.9-1,1.2-1.4,1.2c-0.4-0.1-0.7-0.5-0.8-1.1
					c0.1-0.1,0.4-0.2,0.6-0.3c0.3-0.2,0.6-0.7,0.8-1.5c0.2-0.8,0.3-1.4,0.2-2c-0.1-0.9-0.4-1.4-0.9-1.5c-0.4-0.1-0.9,0.1-1.5,0.4
					c-0.4,0.3-0.9,0.6-1.2,1.1c-0.9,1-1.6,2.4-2,4.2c-0.6,2.6,0,4.1,1.9,4.5c0.8,0.2,1.5,0.1,2.1-0.2c0.2-0.2,0.6-0.5,1.2-1.1
					c0.4-0.4,0.7-0.6,1-0.5c0.2,0,0.3,0.2,0.5,0.4C5038.4,386.1,5038.4,386.2,5038.4,386.4z"/>
				<path id="XMLID_287_" class="st38" d="M5044.8,391.5c-0.3,0.2-0.6,0.2-1,0.1c-0.3-0.1-0.5-0.3-0.7-0.7c0.3-1.1,0.5-1.9,0.6-2.5
					c0.7-2.7,0.6-4.2-0.2-4.4c-0.8-0.2-1.5,0.8-2,3c0,0.1-0.1,0.3-0.1,0.5c-0.1,0.2-0.1,0.4-0.1,0.5c0,0.2-0.1,0.5-0.1,0.9
					c0,0.4-0.1,0.7-0.1,0.9c0,0.2-0.2,0.3-0.4,0.4c-0.2,0.1-0.4,0.1-0.6,0.1c-0.3-0.1-0.5-0.3-0.7-0.6c-0.2-0.3-0.2-0.6-0.1-0.9
					l2.7-10.7c0,0,0-0.1,0-0.1c0-0.1,0-0.1,0-0.1c0.1-0.4,0.4-0.6,0.9-0.5c0.2,0.1,0.5,0.2,0.7,0.5s0.4,0.5,0.3,0.8
					c-0.1,0.3-0.2,0.7-0.5,1.2c-0.2,0.5-0.4,0.9-0.5,1.2c-0.1,0.3-0.2,0.9-0.4,1.7c0.3-0.1,0.6-0.1,0.7-0.1c0.5,0.1,1,0.4,1.5,0.7
					c0.7,0.5,1,1.1,1.2,1.9c0.1,0.6,0,1.3-0.2,2.2L5044.8,391.5z"/>
				<path id="XMLID_284_" class="st38" d="M5053.3,389.4c-0.3,1.1-0.8,2-1.5,2.6c-0.9,0.7-1.8,1-2.9,0.7c-1.1-0.3-1.8-0.8-2.2-1.7
					c-0.3-0.8-0.4-1.7-0.1-2.8c0.3-1.1,0.8-2.1,1.6-2.9c0.9-1,1.9-1.4,2.9-1.1c0.3,0.1,0.7,0.3,1.1,0.7
					C5053.4,386,5053.7,387.5,5053.3,389.4z M5051.7,389c0.5-1.9,0.2-2.9-0.7-3.2c-0.7-0.2-1.2,0.1-1.8,0.8c-0.4,0.5-0.7,1.2-0.9,2
					c-0.4,1.6-0.1,2.6,0.9,2.8c0.6,0.2,1.2-0.1,1.7-0.7C5051.2,390.3,5051.5,389.7,5051.7,389z"/>
				<path id="XMLID_282_" class="st38" d="M5060.4,392.8c-0.1,0.4-0.5,0.8-1.2,1.1c-0.6,0.4-1.2,0.5-1.6,0.6c-0.4,0-0.8,0-1.2-0.1
					c-1-0.2-1.7-0.7-2.1-1.5c-0.4-0.7-0.5-1.6-0.2-2.6c0.2-0.9,0.7-1.9,1.5-3c0.9-1.3,1.8-1.8,2.6-1.6c0.4,0.1,0.9,0.4,1.5,0.9
					c0.6,0.5,0.9,1,0.9,1.4c0,0.4,0,0.7-0.1,1.2c-0.1,0.4-0.3,0.8-0.6,1.2c-0.3,0.6-0.7,0.8-1,0.7c-0.2-0.1-0.4-0.2-0.5-0.3
					c-0.2-0.2-0.3-0.4-0.2-0.6c0,0,0.1-0.1,0.3-0.4c0.1-0.1,0.2-0.4,0.3-1c0.1-0.5,0.2-0.8,0.2-0.9c0-0.4-0.1-0.6-0.4-0.7
					c-0.6-0.1-1.2,0.3-1.8,1.2c-0.4,0.7-0.7,1.5-0.9,2.2c-0.3,1.3-0.1,2.1,0.8,2.3c0.3,0.1,0.8,0,1.3-0.2c0.5-0.2,0.8-0.5,1.1-0.8
					c0.3-0.3,0.6-0.5,0.9-0.4c0.2,0,0.3,0.2,0.5,0.5C5060.4,392.4,5060.5,392.6,5060.4,392.8z"/>
				<path id="XMLID_279_" class="st38" d="M5068.4,393.1c-0.3,1.1-0.8,2-1.5,2.6c-0.9,0.7-1.8,1-2.9,0.7c-1.1-0.3-1.8-0.8-2.2-1.7
					c-0.3-0.8-0.4-1.7-0.1-2.8c0.3-1.1,0.8-2.1,1.6-2.9c0.9-1,1.9-1.4,2.9-1.1c0.3,0.1,0.7,0.3,1.1,0.7
					C5068.5,389.7,5068.8,391.2,5068.4,393.1z M5066.7,392.7c0.5-1.9,0.2-2.9-0.7-3.2c-0.7-0.2-1.2,0.1-1.8,0.8
					c-0.4,0.5-0.7,1.2-0.9,2c-0.4,1.6-0.1,2.6,0.9,2.8c0.6,0.2,1.2-0.1,1.7-0.7C5066.3,394,5066.6,393.4,5066.7,392.7z"/>
				<path id="XMLID_277_" class="st38" d="M5070.9,397c-0.1,0.2-0.2,0.4-0.4,0.5c-0.2,0.1-0.4,0.1-0.7,0.1c-0.8-0.2-0.9-1.3-0.4-3.3
					c0.2-0.9,0.6-2.3,1-4.2c0.5-1.8,0.8-3.2,1-4.2c0-0.1,0.1-0.4,0.1-0.7c0-0.3,0.1-0.5,0.1-0.6c0.5-0.2,0.8-0.2,1.1-0.2
					c0.3,0.1,0.5,0.2,0.7,0.5c0.2,0.2,0.3,0.5,0.2,0.8c0,0.1-0.1,0.3-0.2,0.5c-0.2,0.3-0.2,0.4-0.3,0.4c-0.3,0.7-0.7,1.8-1,3.2
					c-0.5,2.2-0.8,3.4-0.8,3.4c-0.3,1.6-0.5,2.7-0.4,3.3C5070.9,396.8,5070.9,396.9,5070.9,397z"/>
				<path id="XMLID_274_" class="st38" d="M5079,396.2c-0.4,1.6-0.7,2.7-1,3.3c-0.2,0.4-0.5,0.5-0.9,0.4c-0.7-0.2-0.9-0.6-0.7-1.3
					c-0.7,0.1-1.4,0.1-2,0c-0.6-0.2-1.2-0.5-1.7-0.9c-0.6-0.5-0.8-1.1-0.7-1.7c0.1-0.6,0.7-1,1.6-1.3c0.8-0.3,1.6-0.3,2.2-0.2
					l1.6,0.4l0.1-0.4c0.3-1.3,0.1-2-0.7-2.2c-1-0.2-1.6,0.1-1.8,1c-0.1,0.3-0.3,0.4-0.6,0.3c-0.2-0.1-0.4-0.2-0.6-0.4
					c-0.2-0.2-0.2-0.5-0.2-0.7c0.2-0.7,0.6-1.2,1.2-1.5c0.6-0.3,1.2-0.4,1.9-0.2C5079,391.2,5079.8,393.1,5079,396.2z M5077,396.4
					c0.1-0.2-0.1-0.4-0.5-0.5c-1.5-0.4-2.4-0.2-2.6,0.5c-0.1,0.4,0.2,0.7,0.9,0.8c0.4,0.1,0.8,0.1,1.3-0.1
					C5076.6,397.1,5076.9,396.8,5077,396.4z"/>
				<path id="XMLID_272_" class="st38" d="M5085.1,394c-0.1,0.3-0.6,0.4-1.7,0.3c-0.1,0.3-0.3,0.9-0.5,1.8l-0.3,1.2
					c-0.1,0.2-0.1,0.6-0.2,1.1c0,0.5-0.1,0.9-0.2,1.1c0,0.2-0.2,0.3-0.4,0.5c-0.2,0.1-0.4,0.1-0.6,0.1c-0.3-0.1-0.5-0.4-0.6-1
					c-0.1-0.4,0-0.9,0-1.2l1-3.9c-0.5-0.2-0.9-0.4-0.9-0.4c-0.3-0.2-0.4-0.4-0.4-0.5c0,0,0-0.1,0.1-0.2c0.4-0.4,0.8-0.5,1.2-0.4
					c0,0,0.1,0,0.1,0c0,0,0.1,0,0.1,0c0.3,0.1,0.5-0.2,0.6-0.8l0.3-1.3c0-0.2,0-0.3,0-0.4c0-0.2,0.2-0.3,0.4-0.4
					c0.2-0.1,0.4-0.1,0.6-0.1c0.3,0.1,0.5,0.2,0.6,0.5c0.2,0.3,0.2,0.6,0.2,0.9c-0.1,0.3-0.2,0.6-0.4,0.8s-0.3,0.6-0.3,0.9l0,0.1
					C5084.8,393.1,5085.2,393.5,5085.1,394z"/>
				<path id="XMLID_269_" class="st38" d="M5090.4,400.6c-0.2,0.6-0.7,1-1.6,1.1c-0.7,0.1-1.4,0.1-2.1-0.1c-1.9-0.5-2.6-1.8-2.1-3.9
					c0.2-0.9,0.7-1.8,1.4-2.8c0.9-1.2,1.7-1.7,2.4-1.5c0.7,0.2,1.3,0.6,2,1.4c0.6,0.8,0.9,1.5,0.7,2.2c-0.2,0.8-0.7,1.4-1.6,1.7
					c-0.7,0.3-1.6,0.3-2.4,0.1c-0.2,0-0.4-0.2-0.8-0.5c-0.2,1.2,0,1.9,0.6,2c0.5,0.1,1.1,0.1,1.7-0.1c0.6-0.2,1-0.3,1.1-0.2
					C5090.2,400.1,5090.4,400.3,5090.4,400.6z M5089.2,396.6c0.1-0.3,0.1-0.6-0.1-0.9c-0.1-0.3-0.3-0.5-0.6-0.6
					c-0.4-0.1-0.8,0-1.1,0.3c-0.3,0.3-0.4,0.6-0.5,1c-0.1,0.2,0,0.4,0.1,0.6c0.1,0.2,0.3,0.3,0.6,0.4
					C5088.5,397.6,5089,397.3,5089.2,396.6z"/>
			</g>
			<path id="XMLID_267_" class="st40" d="M5103.3,327.4l4.1-1.7c0,0-0.6,13.8,10,17.8l-3.2,2.5
				C5114.2,346,5101.5,343.2,5103.3,327.4z"/>
		</g>
		<path id="XMLID_265_" class="st41" d="M4722.2,394.5c0,0,185.8,97.2,483.2,12.9c0,0,49.5,212.9-206.1,246.1
			C4999.3,653.4,4699,679,4722.2,394.5z"/>
		<path id="XMLID_264_" class="st41" d="M5167.3,394.2c0,0-15.1-220.9-201-223.9c-74.4-1.2-191.7,54.1-209.5,237.9l-34.6-13.7
			c0,0-6-243.4,243.4-255.9c0,0,223-8.3,239.7,268.8"/>
		<g id="XMLID_252_">
			<path id="XMLID_263_" class="st29" d="M4982.2,167.3c0,0,8.4,13.3,32.9,33.9c24.5,20.5,38.9,45.7,42.4,48.2s2.2-28.9,2.2-28.9
				s27.2-7.3,28.4-9.3s-70.8-48.5-75.3-49.5c-4.5-1-16.3-9.2-16.3-9.2l-14.9,3.9L4982.2,167.3z"/>
			<path id="XMLID_262_" class="st42" d="M4882.6,149.1c0,0,25.4,18.9,70.5,7.2C4953.1,156.3,4895.7,131.4,4882.6,149.1z"/>
			<path id="XMLID_261_" class="st42" d="M5009.7,155.5c0,0,41.6,2.2,55.4-20.2C5065.1,135.3,5035.8,128.1,5009.7,155.5z"/>
			<path id="XMLID_260_" class="st42" d="M4897.8,113.3c0,0-2.2-25.7,2.2-26.5c4.3-0.9,45.6,23.4,57.7,48.3L4897.8,113.3z"/>
			<path id="XMLID_259_" class="st43" d="M4985.9,156.9l-1.3,1.1c0,0,12.9,0.5,19-0.8l-3.5-2.2l-13.7,0L4985.9,156.9z"/>
			<path id="XMLID_258_" class="st29" d="M4960.8,154.6c0,0-34,1.6-96.9,53.8c0,0,26,2.8,27.4,5.9c1.4,3.1-0.1,30.2-0.1,30.2
				l74.2-67.4c0,0,10.6-11.4,9.9-16.4C4974.5,155.9,4960.8,154.6,4960.8,154.6z"/>
			<path id="XMLID_257_" class="st42" d="M5036,76.7c0,0,6.1,7.2,8.6,20c0,0-52.2,29.6-56,36.5c-1.4,2.6-2,5.5-2.6,5.4
				C4985,138.3,4993.7,88.7,5036,76.7z"/>
			<path id="XMLID_256_" class="st43" d="M4953.1,155.1l-5.3,2.5c0,0,9,4.7,18.6,1l-2.4-5.7L4953.1,155.1z"/>
			<path id="XMLID_255_" class="st29" d="M4964.3,157.4l-81.6-8.3c0,0,5.7-45.6,9.4-47.7c0,0,26.3-1.6,76.1,42.6L4964.3,157.4z"/>
			<path id="XMLID_254_" class="st29" d="M4985.9,138.1c4.5-8.7,24.5-42.6,61.6-41.4c0.4,0,0.7,0.2,0.9,0.6l16.2,36.9
				c0.3,0.6-0.1,1.2-0.7,1.4c-6.2,1.3-35.6,8-54,19.8c-0.1,0.1-0.3,0.1-0.5,0.1l-22.6,1.4c-0.5,0-1-0.4-1-0.9l-0.8-13.8
				C4985,140.8,4985.3,139.4,4985.9,138.1z"/>
			<path id="XMLID_253_" class="st42" d="M4964.3,157.4l3.9-13.4l16.9-0.6l0.8,13.5l-4.3,3.7l-9.7,0.6c-0.9,0.1-1.8-0.2-2.6-0.6
				L4964.3,157.4z"/>
		</g>
		<g id="XMLID_232_">
			<g id="XMLID_249_">
				<path id="XMLID_251_" class="st44" d="M5042.8,410.4c0,0-23.3,42.2-46.5,38.5c23.2,3.7,32.1,51.1,32.1,51.1
					c5.8-18.4,46.5-5.6,46.5-5.6c7.6-24.3,48-25.2,48-25.2s-38.1-13.5-37.7-38.9C5085.3,430.2,5042.6,429.6,5042.8,410.4z"/>
				<path id="XMLID_250_" class="st45" d="M5010.7,451.2c0,0,1.1,0,3.1,0.2c2,0.2,4.8,0.3,8.2,0.7c6.8,0.7,15.7,1.8,24.6,3.2
					c8.9,1.4,17.8,3.1,24.4,4.6c3.3,0.7,6.1,1.5,8,1.9c1.9,0.5,3,0.8,3,0.8s-1.1,0-3.1-0.2c-2-0.2-4.8-0.3-8.2-0.7
					c-6.8-0.6-15.7-1.8-24.6-3.2c-8.9-1.4-17.8-3.1-24.4-4.6c-3.3-0.7-6.1-1.5-8-1.9C5011.8,451.5,5010.7,451.2,5010.7,451.2z"/>
			</g>
			<g id="XMLID_246_">
				<path id="XMLID_248_" class="st44" d="M4998.6,507.1c0,0,9.9-45.2,29.5-48.5c-19.6,3.3-42.2-27.2-42.2-27.2
					c0.3,16.3-35.7,17-35.7,17c0.5,21.5-31.7,33.1-31.7,33.1s34.2,0.5,40.7,21C4959.3,502.7,4993.6,491.7,4998.6,507.1z"/>
				<path id="XMLID_247_" class="st45" d="M5013.3,465.8c0,0-0.9,0.3-2.5,0.7c-1.6,0.4-3.9,1-6.7,1.7c-5.6,1.3-13.1,2.8-20.6,4.1
					c-7.5,1.3-15.1,2.3-20.8,2.9c-2.8,0.3-5.2,0.5-6.9,0.6c-1.7,0.1-2.6,0.2-2.6,0.2s0.9-0.3,2.5-0.7c1.6-0.4,3.9-1,6.7-1.7
					c5.6-1.3,13.1-2.8,20.6-4.1c7.5-1.2,15.1-2.3,20.8-2.9c2.8-0.3,5.2-0.5,6.9-0.6C5012.4,465.8,5013.3,465.8,5013.3,465.8z"/>
			</g>
			<g id="XMLID_244_">
				<path id="XMLID_245_" class="st44" d="M5066.3,476.5c0,0-56.6-1-63.7-26.9c7.1,25.9-36,54.3-36,54.3
					c21.8-2.6,27.8,45.6,27.8,45.6c28.8-3.6,48.8,37.9,48.8,37.9s-4-45.9,22.6-57.5C5065.8,530,5046.2,485.4,5066.3,476.5z"/>
			</g>
			<circle id="XMLID_243_" class="st42" cx="4983.2" cy="460.8" r="11.2"/>
			<g id="XMLID_240_">
				<path id="XMLID_242_" class="st9" d="M5024.5,511.4c0,0-30.9-26.5-23.9-45.1c-7.1,18.6-47.8,17.8-47.8,17.8
					c14.2,8-3.4,39.4-3.4,39.4c18.8,10.5,12.6,44.1,12.6,44.1s17.7-29.2,38.7-24.5C5000.8,543.1,5008.6,507.9,5024.5,511.4z"/>
				<path id="XMLID_241_" class="st45" d="M4996.3,477.8c0,0-0.2,0.9-0.7,2.5c-0.5,1.6-1.1,3.9-2,6.7c-1.7,5.5-4.2,12.7-6.9,19.8
					c-2.7,7.1-5.7,14.2-8,19.4c-1.2,2.6-2.3,4.8-3,6.3c-0.7,1.5-1.2,2.4-1.2,2.4s0.2-0.9,0.7-2.6c0.5-1.6,1.1-3.9,2-6.7
					c1.7-5.5,4.2-12.7,6.9-19.8c2.7-7.1,5.7-14.2,8-19.4c1.2-2.6,2.3-4.8,3-6.3C4995.8,478.7,4996.3,477.8,4996.3,477.8z"/>
			</g>
			<circle id="XMLID_239_" class="st42" cx="5022.6" cy="506.4" r="8.2"/>
			<circle id="XMLID_238_" class="st42" cx="5000.2" cy="469.3" r="9.5"/>
			<circle id="XMLID_237_" class="st42" cx="5035.9" cy="479.3" r="6.7"/>
			<circle id="XMLID_236_" class="st42" cx="5024.5" cy="458.7" r="16.6"/>
			<circle id="XMLID_235_" class="st42" cx="5002.6" cy="500" r="12.5"/>
			<circle id="XMLID_234_" class="st42" cx="5035.9" cy="491.1" r="8.5"/>
			<circle id="XMLID_233_" class="st42" cx="5020.6" cy="482.6" r="8.5"/>
		</g>
	</g>
	<polygon id="XMLID_230_" class="st40" points="5054,312.7 5058.9,311.1 5107.4,325.7 5103.3,327.4 	"/>
	<polygon id="XMLID_228_" class="st40" points="5108.2,361.7 5114.2,346 5117.4,343.5 5111.7,360.8 	"/>
</g>
<g id="XMLID_357_">
	<path id="XMLID_355_" class="st11" d="M4450.8,13.4c0-5.5-4.9-10-10.9-10s-10.9,4.5-10.9,10c0,4.4,3.1,8.1,7.4,9.5v470.3h8.1V22.5
		C4448.2,20.9,4450.8,17.4,4450.8,13.4z"/>
	<circle id="XMLID_354_" class="st46" cx="4439.9" cy="628.7" r="163.3"/>
	<g id="XMLID_366_">
		<path id="XMLID_353_" class="st13" d="M4388.8,732.9l-4.4-4.1c12.8-13.8,23.1-30.4,29.8-48l1.3-3.3l68,39.8l32.8-55.1l2.7,2.1
			c9.6,7.6,37.9,29.2,47.1,36.2c4.7-9.3,15.9-31.1,21.1-35.2l3.7,4.8c-3.8,2.9-14.9,23.8-21,36.3l-1.6,3.3l-2.9-2.2
			c-0.4-0.3-33.6-25.5-47.4-36.3l-32.3,54.3l-67.1-39.2C4411.5,703.4,4401.3,719.4,4388.8,732.9z"/>
	</g>
	<g id="XMLID_362_">
		<path id="XMLID_352_" class="st13" d="M4304.7,636.5l-5.9-5.5c17.1-18.5,30.9-40.7,39.9-64.3l1.7-4.5l91.1,53.3l43.9-73.8l3.6,2.9
			c12.8,10.2,50.8,39.1,63.1,48.5c6.2-12.5,21.3-41.7,28.3-47.1l4.9,6.4c-5.1,3.9-20,31.9-28.1,48.6l-2.2,4.4l-3.9-3
			c-0.5-0.4-45-34.2-63.5-48.7l-43.3,72.7l-89.8-52.6C4335.1,596.9,4321.4,618.4,4304.7,636.5z"/>
	</g>
	<path id="XMLID_351_" class="st47" d="M4298.5,546.4l7.7-11.3c0,0,51.2,30.6,79,95.5c0,0,29.4,56.8,13.9,127.8l-7.2,26.4l-26.8-9.9
		l-88.3-214.8L4298.5,546.4z"/>
	<path id="XMLID_224_" class="st12" d="M4481.9,509.4c0,0,54.7,21.6,79.5,117c0,0,19.1-58.5-7.6-91.5
		C4553.7,534.8,4533.3,506.2,4481.9,509.4z"/>
</g>
<g id="XMLID_48_">
	<g id="XMLID_83_">
		<rect id="XMLID_16_" x="58.6" y="92.7" class="st4" width="5249.7" height="15"/>
	</g>
	<g id="XMLID_80_">
		<g id="XMLID_81_">
			<circle id="XMLID_15_" class="st4" cx="59.5" cy="100.2" r="18"/>
		</g>
	</g>
	<g id="XMLID_18_">
		<g id="XMLID_19_">
			<circle id="XMLID_14_" class="st4" cx="5308.3" cy="100.9" r="18"/>
		</g>
	</g>
	<g id="XMLID_22_">
		<path id="XMLID_20_" class="st48" d="M343.7,31.6c-0.9,4.4-30.1,115.9-30.1,115.9l53.1,6.2l16.6-116.7L343.7,31.6z"/>
		<g id="XMLID_23_">
			<path id="XMLID_17_" class="st49" d="M373.3,120.8c-0.1,0-0.3,0-0.4,0l-50.9-8.4c-1.4-0.2-2.4-1.6-2.2-3.1c0.2-1.4,1.6-2.4,3-2.2
				l50.9,8.4c1.4,0.2,2.4,1.6,2.2,3.1C375.7,119.9,374.6,120.8,373.3,120.8z"/>
		</g>
	</g>
	<g id="XMLID_21_">
		<path id="XMLID_26_" class="st48" d="M906.1,31.6c0.9,4.4,30.1,115.9,30.1,115.9l-53.1,6.2L866.5,36.9L906.1,31.6z"/>
		<g id="XMLID_24_">
			<path id="XMLID_25_" class="st49" d="M876.5,120.8c0.1,0,0.3,0,0.4,0l50.9-8.4c1.4-0.2,2.4-1.6,2.2-3.1c-0.2-1.4-1.6-2.4-3-2.2
				l-50.9,8.4c-1.4,0.2-2.4,1.6-2.2,3.1C874.1,119.9,875.2,120.8,876.5,120.8z"/>
		</g>
	</g>
	<g id="XMLID_31_">
		<path id="XMLID_34_" class="st48" d="M2290.6,31.6c-0.9,4.4-30.1,115.9-30.1,115.9l53.1,6.2l16.6-116.7L2290.6,31.6z"/>
		<g id="XMLID_32_">
			<path id="XMLID_33_" class="st49" d="M2320.2,120.8c-0.1,0-0.3,0-0.4,0l-50.9-8.4c-1.4-0.2-2.4-1.6-2.2-3.1
				c0.2-1.4,1.6-2.4,3-2.2l50.9,8.4c1.4,0.2,2.4,1.6,2.2,3.1C2322.6,119.9,2321.5,120.8,2320.2,120.8z"/>
		</g>
	</g>
	<g id="XMLID_35_">
		<path id="XMLID_38_" class="st48" d="M3029.6,31.6c-0.9,4.4-30.1,115.9-30.1,115.9l53.1,6.2l16.6-116.7L3029.6,31.6z"/>
		<g id="XMLID_36_">
			<path id="XMLID_37_" class="st49" d="M3059.2,120.8c-0.1,0-0.3,0-0.4,0l-50.9-8.4c-1.4-0.2-2.4-1.6-2.2-3.1
				c0.2-1.4,1.6-2.4,3-2.2l50.9,8.4c1.4,0.2,2.4,1.6,2.2,3.1C3061.6,119.9,3060.5,120.8,3059.2,120.8z"/>
		</g>
	</g>
	<g id="XMLID_39_">
		<path id="XMLID_42_" class="st48" d="M3911.7,31.6c-0.9,4.4-30.1,115.9-30.1,115.9l53.1,6.2l16.6-116.7L3911.7,31.6z"/>
		<g id="XMLID_40_">
			<path id="XMLID_41_" class="st49" d="M3941.3,120.8c-0.1,0-0.3,0-0.4,0l-50.9-8.4c-1.4-0.2-2.4-1.6-2.2-3.1
				c0.2-1.4,1.6-2.4,3-2.2l50.9,8.4c1.4,0.2,2.4,1.6,2.2,3.1C3943.7,119.9,3942.6,120.8,3941.3,120.8z"/>
		</g>
	</g>
	<g id="XMLID_43_">
		<path id="XMLID_46_" class="st48" d="M4970.8,31.6c-0.9,4.4-30.1,115.9-30.1,115.9l53.1,6.2l16.6-116.7L4970.8,31.6z"/>
		<g id="XMLID_44_">
			<path id="XMLID_45_" class="st49" d="M5000.4,120.8c-0.1,0-0.3,0-0.4,0l-50.9-8.4c-1.4-0.2-2.4-1.6-2.2-3.1
				c0.2-1.4,1.6-2.4,3-2.2l50.9,8.4c1.4,0.2,2.4,1.6,2.2,3.1C5002.8,119.9,5001.7,120.8,5000.4,120.8z"/>
		</g>
	</g>
</g>
</svg>
